<?xml version="1.0" encoding="UTF-8" standalone="no"?>
<svg
  id="svg-favicon"
  width="512"
  height="396"
  viewBox="0 0 512 396"
  xmlns="http://www.w3.org/2000/svg"
  xmlns:svg="http://www.w3.org/2000/svg">
  <style>
    path {
      stroke-linecap: round;
      stroke-dasharray: none;
      fill-opacity: 1;
      stroke-linejoin: round;
      stroke-miterlimit: 4;
      stroke-opacity: 1;
    }
  </style>
    <path
       id="favicon_5.1_bg"
       style="fill:#af281e;stroke:none"
       d="m 25.007844,100.12649 c 24.494358,53.35793 30.775253,143.51129 38.162005,216.3936 2.57391,25.39557 36.06951,37.75694 42.164771,38.80295 8.21177,1.40916 48.73382,-6.14533 49.61602,-12.62067 3.01818,-22.15373 -4.67436,-75.69811 5.61003,-107.4295 15.79214,-46.21662 54.00638,-102.43808 68.49405,-100.02022 34.92193,5.82824 -0.66352,148.50888 11.81851,163.70285 10.17261,12.38279 44.68499,30.83748 49.31392,31.87959 4.39303,0.989 19.24703,0.44375 20.16636,-2.77796 0.23237,-12.32137 9.33354,-101.50846 31.40843,-149.08778 13.38756,-28.8549 32.03091,-58.29836 49.18807,-54.86295 12.02552,2.40791 9.17769,60.49723 3.7477,148.52447 -1.61355,26.15791 3.66024,62.96837 9.85549,76.71762 2.67163,5.92938 38.1465,22.01107 43.85982,22.63632 5.71332,0.62535 20.11845,-2.46352 23.58698,-12.93016 3.46849,-10.4667 9.011,-63.16758 8.89093,-88.33871 C 480.46868,182.1983 492.09032,133.92047 466.55118,71.288914 458.89605,52.515665 421.28176,27.85274 405.37098,28.2869 c -53.71417,1.465613 -98.30352,84.63529 -107.2985,84.32809 -6.16963,-0.2108 -7.18374,-83.772596 -26.33152,-86.352312 C 198.47954,16.39245 136.95571,119.79183 133.26511,117.12865 126.43455,112.19965 121.15337,54.113585 108.6681,49.308038 103.30393,47.513456 16.11728,80.759507 25.007844,100.12649 Z" />
    <path
       id="favicon_5.1_left"
       style="fill:#672425;stroke:none"
       d="m 111.65833,85.26604 -86.650486,14.86045 c 24.494358,53.35793 30.775253,143.51129 38.162005,216.3936 2.57391,25.39557 42.164771,38.80295 42.164771,38.80295 -13.610367,-149.23198 -87.718794,-248.29296 6.32371,-270.057 z m 113.7427,43.58687 c 34.92193,5.82823 2.99017,154.90862 15.4722,170.10259 10.17261,12.38279 44.68499,30.83748 49.31392,31.87959 -77.54098,-46.807 45.04378,-214.41038 -64.78612,-201.98218 z m 156.86551,-8.91931 c 27.19473,6.82952 17.86116,64.67003 12.43117,152.69727 -1.61355,26.15791 3.66024,62.96837 9.85549,76.71762 2.67163,5.92938 38.1465,22.01107 43.85982,22.63632 5.71332,0.62535 20.11845,-2.46352 23.58698,-12.93016 C 367.17606,341.73373 464.18225,91.964905 382.26654,119.9336 Z" />
    <path
       id="favicon_5.1_right"
       style="fill:#6b2227;stroke:none"
       d="m 105.33462,355.32304 c 8.21177,1.40916 48.73382,-6.14533 49.61602,-12.62067 3.01818,-22.15373 -4.67436,-75.69811 5.61003,-107.4295 15.79214,-46.21662 54.00638,-102.43808 68.49405,-100.02022 -150.402266,50.85851 -65.41136,198.90687 -123.7201,220.07039 z M 240.87323,298.9555 c 10.17261,12.38279 44.68499,30.83748 49.31392,31.87959 4.39303,0.989 19.24703,0.44375 20.16636,-2.77796 0.23237,-12.32137 9.33354,-101.50846 31.40843,-149.08778 13.38756,-28.8549 32.03091,-58.29836 49.18807,-54.86295 -94.26359,-41.255289 -71.15282,221.09401 -150.07678,174.8491 z m 192.69155,69.09454 c 14.43977,6.15432 34.96669,1.47125 38.43522,-8.99539 3.46849,-10.4667 9.011,-63.16758 8.89093,-88.33871 C 480.46868,182.1983 492.09032,133.92047 466.55118,71.288914 458.89605,52.515665 421.28176,27.85274 405.37098,28.2869 c 81.12953,54.9378 59.98208,326.89766 28.1938,339.76314 z M 140.41431,120.42452 C 117.26687,102.47346 121.15337,54.113585 108.6681,49.308038 l -17.177943,5.038914 c 0,0 26.045163,109.097248 48.924153,66.077568 z m 130.93217,-12.96226 c -2.89198,11.74131 39.66217,28.50553 31.16831,5.92523 -12.31281,-2.50989 -11.62605,-84.545096 -30.77383,-87.124812 0,0 -4.99425,64.87926 -0.39448,81.199582 z" />
    <path
       id="favicon_5.1_bottom"
       style="fill:#563947;stroke:none"
       d="m 240.87323,298.9555 c 10.17261,12.38279 44.68499,30.83748 49.31392,31.87959 4.39303,0.989 19.24703,0.44375 20.16636,-2.77796 0.23237,-12.32137 9.96674,-72.52153 9.96674,-72.52153 -27.86635,86.7506 -99.33139,-26.13957 -79.44702,43.4199 z m 185.26046,17.42753 c -1.61354,26.1579 -27.77574,19.21621 -21.58049,32.96546 2.67163,5.92938 38.1465,22.01107 43.85982,22.63632 5.71332,0.62535 20.11845,-2.46352 23.58698,-12.93016 3.46849,-10.4667 -15.07629,-15.34824 -20.46001,-21.12445 -4.84857,-3.80804 -15.05606,-7.46384 -17.89193,-8.35155 -2.88814,-0.86543 -7.51437,-13.19562 -7.51437,-13.19562 z M 97.364522,311.07515 C 115.31039,362.75389 155.7199,287.74059 155.7199,287.74059 l -0.76926,54.96178 c -0.8822,6.47534 -41.40425,14.02983 -49.61602,12.62067 -6.095261,-1.04601 -39.590861,-13.40738 -42.164771,-38.80295 z M 204.80531,127.81309 c -4.5047,3.07006 -66.45955,91.02674 -44.24464,107.45978 15.79214,-46.21662 54.00638,-102.43808 68.49405,-100.02022 21.41126,-9.08751 -18.58927,-10.76377 -24.24941,-7.43956 z" />
    <path
       id="favicon_5.1_top"
       style="fill:#b34841;stroke:none"
       d="m 108.6681,49.308038 c -5.36417,-1.794582 -92.55082,31.451469 -83.660256,50.818452 0,0 29.388916,-2.639963 34.639632,13.22084 4.127804,3.15262 17.311966,-20.291764 64.209114,-23.206538 z M 278.73284,31.036516 c 0,0 8.38675,3.778281 -6.99188,-4.773838 -73.26142,-9.870228 -134.78525,93.529152 -138.47585,90.865972 0.62418,9.54145 4.75539,26.72629 9.10151,31.56653 C 168.83097,149.83655 206.60725,64.839464 270.71834,47 Z M 453.26115,52.25284 405.37098,28.2869 c -53.71417,1.465613 -98.30352,84.63529 -107.2985,84.32809 -1.34184,5.4401 7.69415,25.54356 10.28205,25.84981 8.15572,0.9687 46.83542,-77.624574 144.90662,-86.21196 z" />
    <path
       id="favicon_5.1_outline"
       style="stroke:#000000;stroke-width:10;fill:none;fill-opacity:0"
       d="m 25.007844,100.12649 c 24.494358,53.35793 30.775253,143.51129 38.162005,216.3936 2.57391,25.39557 36.06951,37.75694 42.164771,38.80295 8.21177,1.40916 48.73382,-6.14533 49.61602,-12.62067 3.01818,-22.15373 -4.67436,-75.69811 5.61003,-107.4295 15.79214,-46.21662 54.00638,-102.43808 68.49405,-100.02022 34.92193,5.82824 -0.66352,148.50888 11.81851,163.70285 10.17261,12.38279 44.68499,30.83748 49.31392,31.87959 4.39303,0.989 19.24703,0.44375 20.16636,-2.77796 0.23237,-12.32137 9.33354,-101.50846 31.40843,-149.08778 13.38756,-28.8549 32.03091,-58.29836 49.18807,-54.86295 12.02552,2.40791 9.17769,60.49723 3.7477,148.52447 -1.61355,26.15791 3.66024,62.96837 9.85549,76.71762 2.67163,5.92938 38.1465,22.01107 43.85982,22.63632 5.71332,0.62535 20.11845,-2.46352 23.58698,-12.93016 3.46849,-10.4667 9.011,-63.16758 8.89093,-88.33871 C 480.46868,182.1983 492.09032,133.92047 466.55118,71.288914 458.89605,52.515665 421.28176,27.85274 405.37098,28.2869 c -53.71417,1.465613 -98.30352,84.63529 -107.2985,84.32809 -6.16963,-0.2108 -7.18374,-83.772596 -26.33152,-86.352312 C 198.47954,16.39245 136.95571,119.79183 133.26511,117.12865 126.43455,112.19965 121.15337,54.113585 108.6681,49.308038 103.30393,47.513456 16.11728,80.759507 25.007844,100.12649 Z" />
</svg>
