<?xml version="1.0" encoding="UTF-8" standalone="no"?>
<svg id="svg-logo" xmlns="http://www.w3.org/2000/svg" xmlns:svg="http://www.w3.org/2000/svg">
  <symbol id="logo-head" viewBox="0 0 210 64">
    <path
       style="display:inline;fill:#3b0009;fill-opacity:1;stroke:#000000;stroke-width:0.425546;stroke-linecap:round;stroke-linejoin:round;stroke-miterlimit:4;stroke-dasharray:none;stroke-opacity:1;paint-order:normal"
       d="M 57.231218,4.2037632 2.2973967,28.80334 2.7788887,25.23698 52.879024,2.8583436 Z M 57.795845,50.160588 13.390301,33.152273 17.96307,31.140259 53.418119,44.854914 Z m 10.184635,11.85347 -0.434738,-4.479556 -5.092529,-5.93838 c 0,0 0.24666,2.267721 0.308378,4.121004 z m -0.434738,-4.479556 7.437399,-2.165628 -5.8079,-5.680968 -6.722028,1.908216 5.092529,5.93838 m 1.629499,-7.846596 5.852794,5.647673 C 79.993833,54.140288 74.82217,19.115638 74.82217,19.115638 l -6.054659,-1.23296 c 0.632403,3.285111 1.440372,22.330144 0.40773,31.805228 z m -2.596707,-31.480311 -0.02951,-4.217467 -5.132602,-2.158749 0.04298,3.845966 z M 83.551733,9.1234784 66.549072,13.990128 61.41647,11.831379 76.97336,7.4044875 Z m 9.46544,47.1886806 -7.57531,0.274482 -0.2562,-6.447609 z m 8.806347,3.988951 -0.23404,-4.390919 -7.940007,-5.651444 0.22373,4.008231 z m -0.23404,-4.390919 6.152,-2.047375 -8.457787,-5.466701 -5.63422,1.862615 z m 6.152,-2.047375 c 0,0 5.08396,2.69044 1.47773,-26.443508 C 107.59379,15.840826 98.945753,15.012487 96.241303,16.51496 c 3.47972,2.927199 3.4157,8.9921 3.4157,8.9921 0.18469,2.343222 0.445537,21.332476 -0.37331,22.889055 z m 17.23912,0.928818 -7.31239,0.241533 -0.37283,-4.562921 z m 7.9252,3.911567 -0.21562,-4.276042 -10.3495,-5.424888 0.17919,3.940155 z m -0.21562,-4.276042 6.05447,-2.007016 -10.86619,-5.217241 -5.53778,1.799369 z m 6.05447,-2.007016 c 0,0 4.11498,3.234681 1.4838,-25.171586 -0.68942,-7.442868 -6.86674,-15.04996 -14.74004,-10.82865 3.32338,3.924111 2.98995,8.660813 2.98995,8.660813 0.2646,3.432863 0.0671,18.570351 -0.5999,22.122182 z m 16.78304,0.920045 -6.94521,-0.626258 -0.38036,-2.525034 z M 85.091843,18.34462 103.67365,8.8410015 95.414373,7.0953435 c -6.09507,-1.008954 -11.8936,3.1493195 -11.8936,3.1493195 z M 134.48506,8.4371027 123.39096,6.6418814 c -7.44871,-1.0397621 -13.81674,5.1184596 -13.81674,5.1184596 l 5.71583,6.785392 z m 29.04938,45.4711573 0.10785,-8.209773 -12.73046,-4.601191 -0.0584,7.549068 z m 0.10785,-8.209773 36.08028,-18.043091 -15.31211,-3.070919 -33.49863,16.512819 z M 199.72253,27.655396 164.07819,11.714384 151.24208,9.8481401 184.41046,24.584477 Z m -35.64434,-15.941012 0.10842,-8.6240462 -12.8753,-1.1712709 -0.0693,7.9290732 z"
       id="perspective" />
    <path
       style="display:inline;fill:#94000e;fill-opacity:0.9906;stroke:#000000;stroke-width:0.425546;stroke-linecap:butt;stroke-linejoin:round;stroke-miterlimit:4;stroke-dasharray:none;stroke-opacity:1"
       d="M 57.231218,4.2037632 2.2973967,28.80334 2.5447947,38.012092 57.881324,59.025527 57.795784,50.160588 13.390244,33.152273 57.337235,13.516441 Z m 9.317854,9.7863648 0.02951,4.217467 7.730613,1.589639 c 2.324627,11.034405 0.67398,35.57164 0.67398,35.57164 l -7.437399,2.165628 0.434752,4.479556 24.730185,-1.241967 0.3065,-4.459932 -6.84641,-1.439231 c -1.01858,-8.292003 -0.7724,-31.119867 -0.7724,-31.119867 7.48866,-11.713603 23.262987,-8.839556 22.776967,5.532457 0,0 0.0875,20.74079 -0.43385,24.577298 l -6.15199,2.047375 0.23403,4.390919 22.79534,-1.175371 0.36174,-4.334105 -6.5495,-1.40081 c -1.12028,-8.042313 -0.28411,-27.05161 -1.2869,-30.425589 8.23771,-11.843438 22.15917,-7.773238 22.24158,4.775359 0.14304,7.263941 -0.19192,21.969985 -0.64113,24.679549 l -6.05447,2.007016 0.21562,4.276042 22.26861,-1.124134 0.35329,-4.238879 -6.58838,-1.380084 C 147.82389,45.85553 148.54284,27.302967 148.54284,27.302967 147.95488,3.2662018 124.25834,4.282035 115.46783,17.839897 108.81864,5.0574923 94.254343,6.0351117 85.511833,17.743017 l -0.36709,-0.131074 0.53723,-6.713176 -2.13019,-1.7752903 z m 96.985368,39.918132 44.35643,-22.577646 0.19985,-7.932912 -43.9042,-20.3073642 -0.10842,8.6240462 35.64434,15.941012 -36.08028,18.043091 z"
       id="front" />
  </symbol>
</svg>
