<?xml version="1.0" encoding="UTF-8" standalone="no"?>
<svg id="svg-sprite" xmlns="http://www.w3.org/2000/svg" xmlns:svg="http://www.w3.org/2000/svg">
  <symbol id="logo-head" viewBox="0 0 512 225">
    <path
      fill="#94000e"
      stroke="#000"
      d="m 143.54442,49.55581 c 14.10223,30.720016 19.10905,80.76556 23.36184,122.72641 1.4819,14.62108 17.89892,25.759 20.8151,27.80193 3.08161,2.15877 9.38724,-1.70282 9.89515,-5.4309 1.73768,-12.75467 1.8618,-42.07964 7.78285,-60.34847 9.09212,-26.60854 37.53423,-75.523016 45.87528,-74.130952 20.10576,3.355517 -1.85378,95.862142 5.33255,104.609822 5.85672,7.12921 19.72906,15.31467 22.11415,16.64644 2.38509,1.33179 5.92849,0.48649 6.45777,-1.36834 0.13377,-7.09385 6.30116,-61.18313 19.01043,-88.576174 7.70767,-16.612775 20.68107,-44.353222 30.55903,-42.375332 6.92347,1.386307 7.38904,60.271036 4.26282,110.951336 -0.92897,15.06001 2.10733,36.25302 5.67414,44.16895 1.53817,3.41375 15.19092,12.99991 18.48028,13.3599 3.28934,0.36003 6.16244,1.15037 8.1594,-4.87565 1.99693,-6.02603 6.11201,-28.56219 6.04289,-43.05406 C 377.12499,118.69808 374.12396,69.475018 367.16955,31.159267 365.26974,20.692034 355.00734,5.630884 345.69947,7.5459799 305.66688,15.782714 287.66197,63.104427 285.29176,61.937701 282.10303,60.368053 280.11858,8.7959989 268.12765,9.6652839 225.67883,12.742617 193.17845,83.949598 191.05363,82.416321 187.12105,79.578525 179.72642,27.447155 172.5382,24.680413 169.44989,23.647218 138.42582,38.40559 143.54442,49.55581 Z m 247.21439,3.129269 c 1.01207,10.399584 66.03643,40.534238 69.51551,51.155961 2.47507,7.55634 -48.29548,40.27865 -43.56525,52.6451 1.40246,3.66653 31.61546,23.86484 33.93285,19.03357 25.09637,-52.32048 55.47149,-51.23473 53.93634,-72.02353 C 485.6888,70.710364 438.31434,48.148872 414.30556,23.91443 411.25309,23.14144 389.58864,40.660928 390.75881,52.685079 Z M 76.808477,167.59088 C 34.393384,115.26875 9.4138732,107.10002 7.3698241,100.11239 7.3396828,93.566261 84.713333,33.37434 97.842352,27.966504 113.2246,21.630578 128.51259,34.307452 127.22576,39.533172 81.490291,67.442751 53.273265,94.673343 52.295943,102.12052 c -0.648749,4.94347 43.728509,22.97407 48.009787,39.74653 1.93491,9.34437 -17.377072,26.8848 -23.497253,25.72383 z"
      style="fill: var(--primary-color, #94000e); stroke: var(--stroke-color, #000); stroke-width: var(--stroke-width, 1%); display: inline; fill-opacity:1; stroke-linecap: round; stroke-linejoin: round; stroke-miterlimit:4; stroke-dasharray:none; stroke-opacity:1; paint-order: normal" />
  </symbol>
  <symbol id="logo-foot" viewBox="0 0 464 256">
    <path
      fill="#94000e"
      stroke="#000"
      d="m 169.97753,108.0057 c 11.41677,24.87005 15.47015,65.38551 18.91312,99.35584 1.19967,11.83681 14.49043,20.85375 16.85129,22.50764 2.49479,1.74769 7.59967,-1.37856 8.01084,-4.3967 1.40679,-10.32582 1.50727,-34.06649 6.3008,-48.8564 7.36069,-21.54152 30.38663,-61.14131 37.13929,-60.01434 16.27707,2.71653 -1.50074,77.60729 4.31712,84.68916 4.74141,5.77162 15.97205,12.39833 17.90297,13.47648 1.93091,1.07819 4.79956,0.39385 5.22802,-1.10776 0.10849,-5.74298 5.10124,-49.53214 15.39031,-71.70877 6.23992,-13.44923 16.74282,-35.90712 24.73975,-34.30587 5.60502,1.12232 5.98195,48.79372 3.45104,89.82307 -0.75206,12.19215 1.70605,29.34941 4.59363,35.75793 1.24527,2.7637 12.29813,10.52437 14.96111,10.8158 2.66295,0.29133 4.98896,0.93132 6.60562,-3.94717 1.61666,-4.87855 4.94813,-23.12316 4.89215,-34.85536 -0.19687,-41.25792 -2.62635,-81.10752 -8.25645,-112.126881 -1.53805,-8.473982 -9.8462,-20.667056 -17.38157,-19.116645 -32.40926,6.668223 -46.98555,44.978536 -48.90439,44.034006 -2.58151,-1.27073 -4.18804,-43.022032 -13.89557,-42.318286 -34.36536,2.491322 -60.67677,60.138496 -62.39694,58.897186 -3.1837,-2.29738 -9.17019,-44.50148 -14.98957,-46.741353 -2.50022,-0.836444 -27.61642,11.111515 -23.47257,20.138423 z m 200.13782,2.53336 c 0.81933,8.41921 53.46122,32.81538 56.27776,41.41443 2.00372,6.1174 -39.09863,32.60845 -35.26916,42.61997 1.13539,2.96833 25.59491,19.3203 27.47104,15.40905 20.31731,-42.35718 44.90812,-41.47819 43.66534,-58.30821 -15.29241,-26.54247 -53.6454,-44.80762 -73.08223,-64.427145 -2.47121,-0.62579 -20.01008,13.557495 -19.06275,23.291905 z M 72.789349,235.26019 c -0.739055,4.50157 20.23571,16.76974 24.436588,12.25978 C 105.01758,239.15501 152.85434,96.470828 191.07785,40.005298 197.73213,30.175316 183.60128,3.9313616 175.69536,7.8875567 164.16922,13.655313 76.505688,212.62397 72.789349,235.26019 Z M 63.714018,203.56356 C 29.375956,161.20504 9.1532466,154.59186 7.4984426,148.93487 7.4741668,143.63531 70.113564,94.905634 80.742456,90.527605 93.195486,85.398216 105.57221,95.66105 104.53044,99.891651 67.504279,122.48647 44.660575,144.53158 43.869366,150.56061 c -0.525214,4.00209 35.40136,18.59914 38.867364,32.17765 1.566449,7.56494 -14.06798,21.76517 -19.022712,20.8253 z"
      style="fill: var(--primary-color, #94000e); stroke: var(--stroke-color, #000); stroke-width: var(--stroke-width, 1%); display: inline; fill-opacity:1; stroke-linecap: round; stroke-linejoin: round; stroke-miterlimit:4; stroke-dasharray:none; stroke-opacity:1; paint-order: normal" />
  </symbol>
  <symbol id="icon-quote" viewBox="0 0 64 64">
    <path
      fill="#fff"
      stroke="#333"
      style="fill: var(--primary-color, #fff); stroke: var(--stroke-color, #333); stroke-width: var(--stroke-width, 5%); stroke-linecap: round; stroke-linejoin: round;"
      d="m 43.697183,42.599268 c 0,0 -1.33988,0.65596 -4.172194,1.104717 M 26.23058,45.687189 c 0,0 -0.543061,-2.104883 -0.557537,-2.790428 m 0.557537,2.790428 c 7.977577,16.982707 33.394911,14.162566 33.394911,14.162566 0,0 -11.411983,-5.323139 -15.928308,-17.250487 M 26.23058,45.687189 C 11.728267,45.074427 1.1878049,34.670528 2.0834073,24.500203 2.9790107,14.329877 14.804268,5.0004238 29.566701,2.6593212 44.329135,0.3182191 57.783971,5.6167807 61.175967,15.107158 c 3.391994,9.490377 -3.701521,22.394624 -17.478784,27.49211" />
  </symbol>
  <symbol id="icon-tags" viewBox="0 0 64 64">
    <path
      fill="#fff"
      stroke="#333"
      style="fill: var(--primary-color, #fff); stroke: var(--stroke-color, #333); stroke-width: var(--stroke-width, 5%); stroke-linecap: round; stroke-linejoin: round;"
      d="M 15.583548,5.7584857 48.192673,20.640549 c 7.933474,3.620658 15.895997,18.045532 13.10178,24.254238 -2.794215,6.208707 -18.942356,9.043338 -26.685329,5.509621 L 2,35.522345 Z" />
  </symbol>
  <symbol id="icon-development" viewBox="0 0 64 64">
    <path
      fill="none"
      stroke="#333"
      style="fill: none; stroke: var(--stroke-color, #333); stroke-width: var(--stroke-width, 5%); stroke-linecap: round; stroke-linejoin: round;"
      d="M 31,23 32.929403,42.906717 13.987388,54.789479 10.128581,14.976044" />
    <path
      fill="#fff"
      stroke="#333"
      style="fill: var(--primary-color, #fff); stroke: var(--stroke-color, #333); stroke-width: var(--stroke-width, 5%); stroke-linecap: round; stroke-linejoin: round;"
      transform="rotate(-5.5359426)"
      d="m 28.449684,30.883299 a 5.0276976,4.9780927 0 0 1 -4.83883,-5.113467 5.0276976,4.9780927 0 0 1 5.119215,-4.838417 5.0276976,4.9780927 0 0 1 4.934008,5.02351 5.0276976,4.9780927 0 0 1 -5.02748,4.931815 m -0.186913,19.99312 a 5.0276976,4.9780927 0 0 1 -4.83883,-5.113467 5.0276976,4.9780927 0 0 1 5.119215,-4.838417 5.0276976,4.9780927 0 0 1 4.934008,5.02351 5.0276976,4.9780927 0 0 1 -5.02748,4.931815 M 8.4496859,20.879859 A 5.0276976,4.9780927 0 0 1 3.6108561,15.766392 5.0276976,4.9780927 0 0 1 8.730071,10.927975 5.0276976,4.9780927 0 0 1 13.664079,15.951485 5.0276976,4.9780927 0 0 1 8.6365986,20.8833 M 8.4496859,40.87986 a 5.0276976,4.9780927 0 0 1 -4.8388298,-5.113467 5.0276976,4.9780927 0 0 1 5.1192149,-4.838417 5.0276976,4.9780927 0 0 1 4.934008,5.02351 5.0276976,4.9780927 0 0 1 -5.0274804,4.931815 m -2e-7,20 a 5.0276976,4.9780927 0 0 1 -4.8388297,-5.113467 5.0276976,4.9780927 0 0 1 5.1192149,-4.838417 5.0276976,4.9780927 0 0 1 4.9340074,5.023509 5.0276976,4.9780927 0 0 1 -5.0274799,4.931816" />
    <path
      fill="none"
      stroke="#000"
      style="fill: none; stroke: var(--stroke-color2, #000); stroke-width: var(--stroke-width2, 2%); stroke-linecap: round; stroke-linejoin: round;"
      d="m 42.878195,10.797193 0.19294,1.990672 0.995336,-0.09647 m 0.802396,-2.087142 1.990671,-0.19294 0.09647,0.995336 m 1.091806,0.898866 1.990671,-0.192941 m -0.19294,-1.990671 1.990672,-0.192941 0.19294,1.990672 m -8.186262,8.830919 1.990672,-0.192941 0.192941,1.990672 m 1.797731,-2.183612 2.986008,-0.289411 0.09647,0.995336 m -1.894202,1.188276 0.995336,-0.09647 m 2.793067,-2.280082 0.192941,1.990672 m -5.972016,0.578821 0.995336,-0.09647 m -3.209582,8.348567 0.19294,1.990672 m 2.793068,-2.280082 -0.995336,0.09647 0.19294,1.990672 m 1.990672,-0.192941 0.995336,-0.09647 m -0.192941,-1.990672 0.995336,-0.09647 0.09647,0.995336 m 1.894201,-1.188276 0.19294,1.990672 0.995336,-0.09647 m -7.190925,8.734448 -0.995336,0.09647 0.19294,1.990672 m 1.990672,-0.192941 0.995336,-0.09647 m -0.192941,-1.990671 0.995336,-0.09647 m 1.091806,0.898866 0.995336,-0.09647 -0.09647,-0.995336 m 1.188276,1.894202 1.990672,-0.192941 -0.19294,-1.990671 m -6.00265,10.62865 -1.990672,0.19294 0.192941,1.990672 m 1.990671,-0.192941 1.990672,-0.19294 -0.19294,-1.990672 m 1.990672,-0.19294 0.19294,1.990672 m 2.793067,-2.280083 -0.995336,0.09647 0.192941,1.990671 M 42.65462,18.85635 l -1.990671,0.19294 0.57882,5.972016 1.990672,-0.192941 m 0.385881,3.981344 -1.990672,0.19294 0.578821,5.972015 1.990672,-0.19294 m 0.385881,3.981343 -1.990672,0.192941 0.578821,5.972015 1.990671,-0.19294 m 0.385881,3.981343 -1.990672,0.192941 0.578821,5.972015 1.990672,-0.19294 M 42.26874,14.875006 40.278068,15.067947 39.699247,9.095931 41.689919,8.902991 m 10.948694,-1.0611716 1.990672,-0.1929403 0.578821,5.9720149 -1.990672,0.192941 m 0.385881,3.981343 1.990672,-0.19294 0.578821,5.972015 -1.990672,0.19294 m 0.385881,3.981344 1.990671,-0.19294 0.578821,5.972015 -1.990671,0.19294 m 0.38588,3.981344 1.990672,-0.192941 0.578821,5.972016 -1.990672,0.19294 m 0.385881,3.981343 1.990672,-0.19294 0.578821,5.972015 -1.990672,0.192941" />
  </symbol>
  <symbol id="icon-series" viewBox="0 0 64 64">
    <path
      fill="#94000e"
      stroke="#000000"
      style="fill: var(--first-color, #ff00b0); stroke: var(--stroke-color, #000000); stroke-width: var(--stroke-width, 3%); fill-opacity: 1; stroke-opacity: 1; stroke-linecap: round; stroke-linejoin: round"
      d="m 39,15 8,-3 14,34 c -3.297926,2.610144 -7.061574,4.02867 -11,5 L 39,24 Z M 50,51 39,45 36,17 Z" />
    <path
      fill="#00940e"
      stroke="#000000"
      style="fill: var(--second-color, #00940e); stroke: var(--stroke-color, #000000); stroke-width: var(--stroke-width, 3%); fill-opacity: 1; stroke-opacity: 1; stroke-linecap: round; stroke-linejoin: round"
      d="M 29,53 15,40 10,14 V 9 L 32,8 V 55 Z M 32,8 h 7 v 45 c -1.92006,2.382096 -4.399837,2.4409 -7,2 z" />
    <path
      fill="#00094e"
      stroke="#000000"
      style="fill: var(--third-color, #00094e); stroke: var(--stroke-color, #000000); stroke-width: var(--stroke-width, 3%); fill-opacity: 1; stroke-opacity: 1; stroke-linecap: round; stroke-linejoin: round"
      d="M 19,55 5,47 V 14 h 14 z m 0,-41 c 4.038194,-0.278759 7.881341,0.250001 10,0 v 39 c -4.158327,3.281061 -6.824365,1.833077 -10,2 z" />
    <path
      fill="#dddddd"
      stroke="#000000"
      style="fill: #dddddd; stroke: var(--stroke-color, #000000); stroke-width: var(--stroke-width, 3%); fill-opacity: 1; stroke-opacity: 1; stroke-linecap: round; stroke-linejoin: round"
      d="m 39,15 c 4.186013,-0.612289 5.809513,-1.878487 8,-3 l -8,-1 z" />
  </symbol>
  <symbol id="icon-home" viewBox="0 0 64 64">
    <path
       style="fill:#deaa87;fill-opacity:1;stroke:none;stroke-width:0.755906;stroke-linecap:butt;stroke-linejoin:miter;stroke-miterlimit:4;stroke-dasharray:none;stroke-opacity:0.972506"
       d="m 25.105607,58.513749 14.947029,-0.08734 m 12.670962,-1.100327 c -0.999496,1.11868 -12.670962,1.10033 -12.670962,1.10033 0,0 -9.875679,0.200118 -14.947029,0.08734 -4.087646,-0.0909 -11.90653,0.0039 -12.251065,-0.604528 -1.32339,-2.336943 -0.407077,-7.112043 -1.445781,-11.767803 -0.818008,-3.666542 20.487622,-20.269453 20.487622,-20.269453 0,0 22.505467,16.137831 20.976998,22.546101 -1.004743,2.019649 0.836582,7.803994 -0.149783,8.908013 z"
       id="house_base" />
    <path
       style="fill:#c83737;fill-opacity:1;stroke:none;stroke-width:0.755906;stroke-linecap:butt;stroke-linejoin:miter;stroke-miterlimit:4;stroke-dasharray:none;stroke-opacity:0.972506"
       d="m 10.048792,47.496284 c 0.279055,0.0029 0.9391,-0.848411 1.359969,-1.354866 0.420868,-0.506455 0.602559,-0.668054 3.131561,-3.144479 2.529002,-2.476425 7.496249,-6.231123 11.060981,-9.439393 3.564731,-3.208271 5.726947,-5.870114 6.216278,-5.873373 0.593085,-0.0039 2.791975,2.898623 5.973371,5.878131 3.181397,2.979508 7.3453,6.035953 9.836399,8.696878 2.491099,2.660926 4.416886,5.101538 5.24603,6.158881 0.829144,1.057342 0.561646,0.731415 1.064131,0.917191 0.975448,0.360636 4.02709,-1.761015 4.721948,-3.618219 C 58.90698,45.055469 56.862056,35.679753 55.023807,30.685274 53.947435,27.760795 53.799571,24.08485 53.242167,23.212261 52.684763,22.339672 47.566095,18.626596 42.982423,14.557938 38.398751,10.48928 34.350074,6.0650403 33.191915,6.0202054 c -1.158159,-0.044835 -4.9598,3.9341305 -9.056825,7.5546696 -4.097025,3.620539 -8.489434,6.882651 -9.100436,7.78999 -1.222003,1.814677 -10.7148569,19.733565 -10.1583223,21.406496 0.3685694,1.107912 1.8143914,1.522803 2.7234775,2.42402 0.9090861,0.901218 1.2814362,2.28877 2.4489828,2.300903 z"
       id="roof_overall" />
    <path
       style="fill:#782121;fill-opacity:1;stroke:none;stroke-width:0.377953;stroke-linecap:butt;stroke-linejoin:miter;stroke-miterlimit:4;stroke-dasharray:none;stroke-opacity:0.972506"
       d="m 10.048792,47.496284 c 0.279055,0.0029 0.9391,-0.848411 1.359969,-1.354866 0.420868,-0.506455 0.602559,-0.668054 3.131561,-3.144479 2.529002,-2.476425 7.496249,-6.231123 11.060981,-9.439393 3.564731,-3.208271 5.726947,-5.870114 6.216278,-5.873373 0.593085,-0.0039 2.791975,2.898623 5.973371,5.878131 3.181397,2.979508 7.3453,6.035953 9.836399,8.696878 2.491099,2.660926 4.416886,5.101538 5.24603,6.158881 0.829144,1.057342 0.561646,0.731415 1.064131,0.917191 0.975448,0.360636 4.02709,-1.761015 4.721948,-3.618219 C 53.268692,40.090063 48.192939,33.677742 44.220566,29.444044 39.636894,25.375386 34.201049,19.639808 32.105517,19.623661 29.724197,19.605312 21.649763,27.309645 17.552738,30.930184 10.280876,35.858835 4.6430743,41.784324 4.8763317,42.771361 c 0.3685694,1.107912 1.8143914,1.522803 2.7234775,2.42402 0.9090861,0.901218 1.2814362,2.28877 2.4489828,2.300903 z"
       id="roof_front" />
    <path
       style="fill:#004d00;fill-opacity:1;stroke:none;stroke-width:0.755906;stroke-linecap:butt;stroke-linejoin:miter;stroke-miterlimit:4;stroke-dasharray:none;stroke-opacity:0.972506"
       d="m 25.105607,58.513749 c 5.07135,0.112778 14.947029,-0.08734 14.947029,-0.08734 m -14.947029,0.08734 c -0.254001,-2.89636 0.428529,-8.415545 0.137728,-10.995208 0.490533,-6.423138 13.194424,-6.747507 14.059392,0.13333 -0.101601,3.048389 0.455391,7.624298 0.749909,10.774535"
       id="door" />
    <path
       style="fill:#171717;fill-opacity:1;stroke:none;stroke-width:0.755906;stroke-linecap:butt;stroke-linejoin:miter;stroke-miterlimit:4;stroke-dasharray:none;stroke-opacity:0.972506"
       d="m 15.58806,48.705327 c 0.01867,-2.203192 2.336465,-2.77636 4.102028,-2.298783 2.443365,0.66092 2.912232,3.913127 1.273364,4.9156 -1.80532,1.104289 -5.390851,-0.792509 -5.375392,-2.616817 z"
       id="window" />
    <path
       style="fill:none;stroke:#000000;stroke-width:1.51181102;stroke-linecap:butt;stroke-linejoin:miter;stroke-miterlimit:4;stroke-dasharray:none;stroke-opacity:0.972506"
       d="m 10.048792,47.496284 c 0.279055,0.0029 0.9391,-0.848411 1.359969,-1.354866 0.420868,-0.506455 0.602559,-0.668054 3.131561,-3.144479 2.529002,-2.476425 7.496249,-6.231123 11.060981,-9.439393 3.564731,-3.208271 5.726947,-5.870114 6.216278,-5.873373 0.593085,-0.0039 2.791975,2.898623 5.973371,5.878131 3.181397,2.979508 7.3453,6.035953 9.836399,8.696878 2.491099,2.660926 4.416886,5.101538 5.24603,6.158881 0.829144,1.057342 0.561646,0.731415 1.064131,0.917191 0.975448,0.360636 4.02709,-1.761015 4.721948,-3.618219 C 58.90698,45.055469 56.862056,35.679753 55.023807,30.685274 53.947435,27.760795 53.799571,24.08485 53.242167,23.212261 52.684763,22.339672 47.566095,18.626596 42.982423,14.557938 38.398751,10.48928 34.350074,6.0650403 33.191915,6.0202054 c -1.158159,-0.044835 -4.9598,3.9341305 -9.056825,7.5546696 -4.097025,3.620539 -8.489434,6.882651 -9.100436,7.78999 -1.222003,1.814677 -10.7148569,19.733565 -10.1583223,21.406496 0.3685694,1.107912 1.8143914,1.522803 2.7234775,2.42402 0.9090861,0.901218 1.2814362,2.28877 2.4489828,2.300903 z m 1.359969,-1.354866 c 1.066273,4.649524 0.122391,9.43086 1.445781,11.767803 0.344535,0.608407 8.163419,0.513626 12.251065,0.604528 5.07135,0.112778 14.947029,-0.08734 14.947029,-0.08734 0,0 11.671466,0.01835 12.670962,-1.10033 0.986365,-1.104019 -0.85496,-6.888364 0.149783,-8.908013 M 25.105607,58.513749 c -0.254001,-2.89636 0.428529,-8.415545 0.137728,-10.995208 0.490533,-6.423138 13.194424,-6.747507 14.059392,0.13333 -0.101601,3.048389 0.455391,7.624298 0.749909,10.774535 M 15.58806,48.705327 c 0.01867,-2.203192 2.336465,-2.77636 4.102028,-2.298783 2.443365,0.66092 2.912232,3.913127 1.273364,4.9156 -1.80532,1.104289 -5.390851,-0.792509 -5.375392,-2.616817 z"
       id="overall_outline" />
  </symbol>
</svg>
