<?xml version="1.0" encoding="UTF-8" standalone="no"?>
<svg id="svg-sprite" xmlns="http://www.w3.org/2000/svg" xmlns:svg="http://www.w3.org/2000/svg">
  <symbol id="logo-head" viewBox="0 0 512 220">
    <path
       id="header_5.1_bg"
       style="fill:var(--color-one);stroke:none"
       d="m 396.43446,83.136216 c 0.80108,8.23174 44.43154,28.229714 47.1854,36.637264 1.95911,5.98118 -35.04782,27.6447 -31.30363,37.43332 1.11013,2.90222 31.95356,21.53161 33.78787,17.70743 19.86493,-41.414 43.90817,-40.55457 42.69303,-57.00981 C 473.84528,91.952983 436.3463,74.094539 417.34227,54.911882 414.92611,54.300044 395.50821,73.618546 396.43446,83.136216 Z M 75.978494,168.6382 C 42.405053,127.2229 22.632663,120.75698 21.014703,115.22596 20.990884,110.04442 82.23554,62.399845 92.627744,58.119304 104.80349,53.104141 125.28789,71.487046 124.26932,75.623434 88.067633,97.715115 70.524963,106.92309 69.751355,112.81788 c -0.513512,3.91298 28.535288,14.57673 31.924135,27.85286 1.53156,7.39651 -20.852598,28.88643 -25.696996,27.96746 z M 145.5469,59.153684 c 12.65234,27.561561 15.89668,74.129466 19.71224,111.776166 1.32953,13.11785 18.63138,19.50301 21.77983,20.04331 4.24172,0.72789 25.17302,-3.17431 25.62871,-6.51909 1.55901,-11.44331 -2.4145,-39.10118 2.89781,-55.49174 8.15729,-23.87278 27.89651,-52.913467 35.37999,-51.664543 18.0386,3.010523 -0.34274,76.710923 6.10474,84.559233 5.25457,6.39622 23.08163,15.92882 25.47266,16.46711 2.26918,0.51086 9.94188,0.22922 10.41675,-1.43493 0.12003,-6.36449 4.82116,-52.43328 16.22374,-77.009945 6.91523,-14.904743 16.54528,-30.113496 25.40766,-28.338959 6.21167,1.243779 4.74065,31.249294 1.93584,76.718974 -0.83347,13.51163 1.89066,32.52574 5.09076,39.62779 1.38001,3.06277 19.70423,11.36962 22.6554,11.69259 2.95116,0.32302 10.392,-1.27251 12.18364,-6.67896 1.79162,-5.40648 4.65455,-32.62864 4.59253,-45.63056 -0.21811,-45.72299 5.78494,-70.660469 -7.40707,-103.012234 -3.95419,-9.697152 -23.38351,-22.436564 -31.60208,-22.212302 -27.74557,0.757049 -50.7778,43.717593 -55.42407,43.55891 C 283.40911,65.495622 282.88528,22.332529 272.99467,21 235.15214,15.901623 203.37256,69.311642 201.46622,67.935999 197.93795,65.389969 195.21001,35.386135 188.76085,32.903873 185.99004,31.976898 140.95456,49.149846 145.5469,59.153684 Z" />
    <path
       id="header_5.1_left"
       style="fill:var(--color-two);stroke:none"
       d="m 431.5084,65.528768 c -2.41616,-0.611838 -36.86568,1.515614 -35.07394,17.607448 0.91526,8.219831 44.43154,28.229714 47.1854,36.637264 l -32.16297,36.17403 25.83969,16.15939 C 414.65626,154.97655 458.1507,125.42987 450.03163,116.81267 445.10896,111.58801 372.11918,67.015827 431.5084,65.528768 Z M 77.856577,168.6382 c -33.57345,-41.4153 -53.34584,-47.88121 -54.9638,-53.41224 -0.02382,-5.18153 61.220846,-52.826115 71.613051,-57.106656 12.175732,-5.015163 2.67855,5.455264 1.659957,9.591652 C 59.964119,89.802637 54.888199,103.70036 36.7428,114.16333 c 18.836374,21.94774 45.627956,34.88154 49.016784,48.15766 z M 190.30543,51.477655 145.5469,59.153684 c 12.65234,27.561561 15.89668,74.129466 19.71224,111.776166 1.32953,13.11785 21.77983,20.04331 21.77983,20.04331 -7.03031,-77.08443 -45.31035,-128.25349 3.26646,-139.495505 z m 58.75276,22.514404 c 18.03861,3.010523 1.54455,80.016651 7.99203,87.864961 5.25457,6.39622 23.08163,15.92882 25.47266,16.46711 C 242.46979,154.1464 305.78984,67.572386 249.05819,73.992059 Z m 81.02747,-4.607188 c 14.04719,3.527723 9.22602,33.404719 6.42121,78.874399 -0.83347,13.51163 1.89066,32.52574 5.09076,39.62779 1.38001,3.06277 19.70423,11.36962 22.6554,11.69259 2.95116,0.32302 10.392,-1.27251 12.18364,-6.67896 -54.14586,-8.94696 -4.03819,-137.962797 -46.35101,-123.515819 z" />
    <path
       id="header_5.1_right"
       style="fill:var(--color-three);stroke:none"
       d="m 413.61916,60.845769 c 29.88026,18.067243 59.48536,52.750461 59.90216,59.938401 0.44962,7.75412 -39.27219,40.92234 -35.52798,50.71095 1.11011,2.90222 6.27645,7.24329 8.11076,3.41911 19.86493,-41.414 43.90817,-40.55457 42.69303,-57.00981 -14.95185,-25.951437 -52.45083,-43.809881 -71.45486,-62.992538 -2.41616,-0.611838 -11.66852,1.129657 -3.72311,5.933887 z M 58.841617,112.42398 c 0.993717,-8.99825 52.066943,-31.843293 56.309623,-44.701686 0,0 9.85395,3.764752 8.83535,7.90114 -36.201672,22.091681 -59.494715,34.237946 -52.57986,41.890196 0,0 -11.742037,-0.84938 -12.565113,-5.08965 z m 128.197353,78.54918 c 4.24172,0.72789 25.17302,-3.17431 25.62871,-6.51909 1.55901,-11.44331 -2.4145,-39.10118 2.89781,-55.49174 8.15729,-23.87278 27.89651,-52.913467 35.37999,-51.664543 -77.68894,26.270503 -33.78765,102.743553 -63.90651,113.675373 z m 70.01125,-29.11614 c 5.25457,6.39622 23.08163,15.92882 25.47266,16.46711 2.26918,0.51086 9.94188,0.22922 10.41675,-1.43493 0.12003,-6.36449 4.82116,-52.43328 16.22374,-77.009945 6.91523,-14.904743 16.54528,-30.113496 25.40766,-28.338959 -48.69101,-21.310051 -36.75335,114.204114 -77.52081,90.316724 z m 99.53308,35.69016 c 7.45874,3.17896 18.06173,0.75996 19.85337,-4.64649 1.79162,-5.40648 4.65455,-32.62864 4.59253,-45.63056 -0.21811,-45.72299 5.78494,-70.660469 -7.40707,-103.012234 -3.95419,-9.697152 -23.38351,-22.436564 -31.60208,-22.212302 41.90673,28.377625 30.9832,168.856036 14.56325,175.501586 z M 205.15907,69.63845 c -11.9566,-9.272456 -9.94906,-34.252315 -16.39822,-36.734577 l -8.87311,2.602806 c 0,0 13.45339,56.3532 25.27133,34.131771 z m 67.63183,-6.695537 c -1.49382,6.064863 20.48714,14.724271 16.09971,3.060619 C 282.53054,64.707074 282.88528,22.332529 272.99467,21 c 0,0 -2.57974,33.512797 -0.20377,41.942913 z" />
    <path
       id="header_5.1_bottom"
       style="fill:var(--color-four);stroke:none"
       d="m 423.69981,138.01963 c 0,0 -12.73392,18.47947 -11.38358,19.18717 l 33.78787,17.70743 c 0,0 -4.54954,-1.74158 18.07602,-26.30077 -19.43166,14.86282 -32.92084,12.71602 -40.48031,-10.59383 z m -322.30705,2.65111 c 0.13332,7.55222 -20.852583,28.88643 -25.696981,27.96746 -33.57345,-41.4153 -53.34584,-47.88122 -54.9638,-53.41225 29.921783,20.86728 41.316021,25.95427 55.298574,32.97978 9.710224,4.8789 13.087876,-24.96908 25.362207,-7.53499 z m 155.65746,21.18628 c 5.25457,6.39622 23.08163,15.92882 25.47266,16.46711 2.26918,0.51086 9.94188,0.22922 10.41675,-1.43493 0.12003,-6.36449 5.14823,-37.46034 5.14823,-37.46034 -14.39411,44.81024 -51.30873,-13.50216 -41.03764,22.42816 z m 95.69462,9.00203 c -0.83346,13.51163 -14.34731,9.92596 -11.14721,17.02801 1.38001,3.06277 19.70423,11.36962 22.6554,11.69259 2.95116,0.32302 10.392,-1.27251 12.18364,-6.67896 1.79162,-5.40648 -7.78752,-7.92799 -10.56843,-10.91164 -2.50449,-1.96701 -7.77708,-3.85538 -9.24192,-4.31392 -1.49184,-0.44703 -3.88148,-6.81608 -3.88148,-6.81608 z m -169.82275,-2.74174 c 9.26978,26.69419 30.14294,-12.05325 30.14294,-12.05325 l -0.39735,28.39001 c -0.45569,3.34478 -21.38699,7.24698 -25.62871,6.51909 -3.14845,-0.5403 -20.4503,-6.92546 -21.77983,-20.04331 z m 55.49757,-94.662363 c -2.32686,1.585813 -34.32908,47.019043 -22.85417,55.507383 8.15729,-23.87278 27.89651,-52.913467 35.37999,-51.664543 11.05979,-4.69407 -9.60212,-5.559925 -12.52582,-3.84284 z" />
    <path
       id="header_5.1_top"
       style="fill:var(--color-five);stroke:none"
       d="m 396.43446,83.136216 9.62218,8.584578 C 405.61,85.346539 421.41468,71.435139 439.19899,72.416041 L 417.34227,54.911882 c -2.41616,-0.611838 -25.96901,23.708907 -20.90781,28.224334 z M 188.76085,32.903873 c -2.77081,-0.926975 -47.80629,16.245973 -43.21395,26.249811 0,0 15.18058,-1.363647 17.89279,6.829106 2.13218,1.628459 8.94234,-10.481526 33.16664,-11.987126 z m 87.84541,-9.43799 c 0,0 4.3321,1.951637 -3.61159,-2.465883 -37.84253,-5.098377 -69.62211,48.311642 -71.52845,46.935999 0.32241,4.928547 2.45635,13.805224 4.7013,16.305407 13.66992,0.589562 33.18292,-43.314915 66.29892,-52.529729 z m 90.15102,10.959101 -24.73723,-12.37939 c -27.74557,0.757049 -50.7778,43.717593 -55.42407,43.55891 -0.69312,2.810041 3.97434,13.1943 5.3111,13.352488 4.21276,0.500374 24.19241,-40.096271 74.8502,-44.532008 z m -253.0021,46.634773 10.23141,-5.436323 C 125.00519,71.487046 104.52077,53.104141 92.34502,58.119304 81.952825,62.399845 20.322356,110.0606 20.731979,115.22596 84.86084,57.988575 104.09345,67.557599 113.75518,81.059757 Z" />
    <path
       id="header_5.1_outline"
       style="stroke:var(--outline-color);stroke-width:var(--outline-width);fill:none;fill-opacity:0"
       d="m 396.43446,83.136216 c 0.80108,8.23174 44.43154,28.229714 47.1854,36.637264 1.95911,5.98118 -35.04782,27.6447 -31.30363,37.43332 1.11013,2.90222 31.95356,21.53161 33.78787,17.70743 19.86493,-41.414 43.90817,-40.55457 42.69303,-57.00981 C 473.84528,91.952983 436.3463,74.094539 417.34227,54.911882 414.92611,54.300044 395.50821,73.618546 396.43446,83.136216 Z M 75.695779,168.6382 c -33.57345,-41.4153 -53.34584,-47.88121 -54.9638,-53.41224 -0.02382,-5.18153 61.220846,-52.826115 71.613041,-57.106656 12.17575,-5.015163 32.66017,13.367742 31.64157,17.50413 -36.201672,22.091681 -53.74436,31.299666 -54.517959,37.194456 -0.513512,3.91298 28.535298,14.57673 31.924129,27.85285 1.53157,7.39652 -20.852583,28.88643 -25.696981,27.96746 z M 145.5469,59.153684 c 12.65234,27.561561 15.89668,74.129466 19.71224,111.776166 1.32953,13.11785 18.63138,19.50301 21.77983,20.04331 4.24172,0.72789 25.17302,-3.17431 25.62871,-6.51909 1.55901,-11.44331 -2.4145,-39.10118 2.89781,-55.49174 8.15729,-23.87278 27.89651,-52.913467 35.37999,-51.664543 18.0386,3.010523 -0.34274,76.710923 6.10474,84.559233 5.25457,6.39622 23.08163,15.92882 25.47266,16.46711 2.26918,0.51086 9.94188,0.22922 10.41675,-1.43493 0.12003,-6.36449 4.82116,-52.43328 16.22374,-77.009945 6.91523,-14.904743 16.54528,-30.113496 25.40766,-28.338959 6.21167,1.243779 4.74065,31.249294 1.93584,76.718974 -0.83347,13.51163 1.89066,32.52574 5.09076,39.62779 1.38001,3.06277 19.70423,11.36962 22.6554,11.69259 2.95116,0.32302 10.392,-1.27251 12.18364,-6.67896 1.79162,-5.40648 4.65455,-32.62864 4.59253,-45.63056 -0.21811,-45.72299 5.78494,-70.660469 -7.40707,-103.012234 -3.95419,-9.697152 -23.38351,-22.436564 -31.60208,-22.212302 -27.74557,0.757049 -50.7778,43.717593 -55.42407,43.55891 C 283.40911,65.495622 282.88528,22.332529 272.99467,21 235.15214,15.901623 203.37256,69.311642 201.46622,67.935999 197.93795,65.389969 195.21001,35.386135 188.76085,32.903873 185.99004,31.976898 140.95456,49.149846 145.5469,59.153684 Z" />
  </symbol>
  <symbol id="logo-foot" viewBox="0 0 512 246">
    <path
       style="fill:var(--color-one);stroke:none"
       d="m 409.62445,114.8703 c 0.68957,7.08582 38.24636,24.29993 40.61686,31.5371 1.6864,5.14856 -30.16891,23.79637 -26.94593,32.22235 0.95558,2.4982 27.5054,18.53425 29.08437,15.24243 17.09957,-35.64889 37.79584,-34.9091 36.74986,-49.07366 -12.87045,-22.33881 -45.14932,-37.71123 -61.50788,-54.22354 -2.07981,-0.52666 -18.79459,16.10257 -17.99728,24.29532 z M 89.664493,211.6411 c -0.621988,3.78864 21.175627,17.61925 24.711207,13.82356 C 120.93335,218.4245 161.19394,98.33788 193.36385,50.81504 198.96426,42.54188 182.92663,16.948909 176.27281,20.278533 166.57213,25.13283 92.792253,192.58991 89.664493,211.6411 Z M 67.129079,188.46982 C 38.229284,152.81981 21.209343,147.254 19.81662,142.49293 19.79612,138.03271 72.5151,97.02057 81.460639,93.3359 c 10.48079,-4.31701 28.113631,11.50686 27.236831,15.06745 -31.162141,19.01636 -46.262767,26.94253 -46.928673,32.01672 -0.442039,3.36826 24.562982,12.54756 27.480055,23.97556 1.318365,6.36685 -17.949749,24.86523 -22.119773,24.07419 z M 193.66218,94.22629 c 10.89103,23.72482 13.68375,63.81014 16.96816,96.21617 1.14445,11.29174 16.03775,16.78805 18.74793,17.25314 3.65123,0.62656 21.66875,-2.73243 22.06101,-5.61159 1.34199,-9.85032 -2.07838,-33.65803 2.49441,-47.76689 7.02176,-20.54955 24.01313,-45.54757 30.45486,-44.4725 15.52751,2.59144 -0.29503,66.03224 5.25491,72.78801 4.5231,5.50581 19.86851,13.71142 21.92669,14.17477 1.9533,0.43974 8.55791,0.19731 8.96666,-1.23517 0.10332,-5.47851 4.15003,-45.13422 13.96529,-66.28963 5.95258,-12.8299 14.24207,-25.9215 21.87074,-24.394 5.34695,1.07065 4.0807,26.8992 1.66635,66.03917 -0.71744,11.63073 1.62748,27.99793 4.3821,34.11134 1.18791,2.63641 16.96127,9.78689 19.50161,10.0649 2.54034,0.27806 8.94537,-1.09537 10.48759,-5.74921 1.54221,-4.65386 4.00661,-28.08651 3.95322,-39.27847 -0.18775,-39.35803 4.97963,-60.82405 -6.37595,-88.67223 -3.40375,-8.34724 -20.12837,-19.31323 -27.20286,-19.12019 -23.88318,0.65166 -43.70918,37.6318 -47.70866,37.4952 -2.74322,-0.0937 -3.19413,-37.24822 -11.70791,-38.39524 -32.57459,-4.38866 -59.93023,41.58634 -61.57119,40.40218 -3.03711,-2.1916 -5.3853,-28.0187 -10.9367,-30.15542 -2.38509,-0.79792 -41.15131,13.98443 -37.19826,22.59566 z"
       id="footer_5.1_bg" />
    <path
       id="footer_5.1_left"
       style="fill:var(--color-two);stroke:none"
       d="m 439.81586,99.71392 c -2.07982,-0.52667 -31.73373,1.30463 -30.19141,15.15638 0.78785,7.07557 38.24636,24.29993 40.61686,31.5371 l -27.68565,31.13836 22.24262,13.90989 c -19.48861,-14.74569 17.9511,-40.17926 10.96225,-47.59689 -4.23741,-4.49735 -67.06651,-42.86478 -15.94467,-44.14484 z M 89.664493,211.6411 c -0.621988,3.78864 19.332777,14.63901 16.772387,10.1277 C 97.303093,205.67537 156.00054,40.03133 188.42367,41.23571 194.02408,32.96254 182.92663,16.948909 176.27281,20.278533 166.57213,25.13283 92.792253,192.58991 89.664493,211.6411 Z M 67.129079,188.46982 C 38.229284,152.81981 21.209343,147.254 19.81662,142.49293 19.79612,138.03271 72.5151,97.02057 81.460639,93.3359 c 10.48079,-4.31701 2.305679,4.69585 1.428877,8.25644 -31.162139,19.01637 -35.531463,30.97942 -51.150899,39.98588 16.214226,18.89247 39.276243,30.0258 42.193325,41.4538 z M 232.19,87.61883 193.66218,94.22629 c 10.89103,23.72482 13.68375,63.81014 16.96816,96.21617 1.14445,11.29174 18.74793,17.25314 18.74793,17.25314 C 223.32662,141.34185 190.37543,97.29587 232.19,87.61883 Z m 50.57398,19.38025 c 15.52751,2.59143 1.32954,68.87778 6.87948,75.63355 4.5231,5.50581 19.86851,13.71142 21.92669,14.17477 -34.47741,-20.81203 20.02805,-95.33434 -28.80617,-89.80832 z m 69.74789,-3.96585 c 12.09172,3.03665 7.94167,28.75457 5.52732,67.89454 -0.71744,11.63073 1.62748,27.99793 4.3821,34.11134 1.18791,2.63641 16.96127,9.78689 19.50161,10.0649 2.54034,0.27806 8.94537,-1.09537 10.48759,-5.74921 -46.60838,-7.70148 -3.47604,-118.75743 -39.89862,-106.32157 z" />
    <path
       id="footer_5.1_right"
       style="fill:var(--color-three);stroke:none"
       d="m 424.41693,95.68283 c 25.72072,15.55217 51.20459,45.40723 51.56337,51.59456 0.38703,6.6747 -33.80524,35.22566 -30.58225,43.65165 0.95558,2.4982 5.40273,6.23496 6.9817,2.94314 17.09957,-35.64889 37.79584,-34.9091 36.74986,-49.07366 -12.87045,-22.33881 -45.14932,-37.71123 -61.50788,-54.22354 -2.07981,-0.52666 -10.04414,0.9724 -3.2048,5.10785 z M 114.3757,225.46466 C 120.93335,218.4245 161.19394,98.33788 193.36385,50.81504 198.96426,42.54188 186.80879,36.67039 180.15497,40 191.17317,55.43506 99.926042,194.69621 114.3757,225.46466 Z M 52.621136,140.08102 c 0.855392,-7.74566 44.818858,-27.4105 48.470934,-38.47892 0,0 8.4822,3.24066 7.6054,6.80125 -31.162141,19.01636 -51.212623,29.47179 -45.260375,36.0588 0,0 -10.107462,-0.73114 -10.815959,-4.38113 z M 229.37827,207.6956 c 3.65123,0.62656 21.66875,-2.73243 22.06101,-5.61159 1.34199,-9.85032 -2.07838,-33.65803 2.49441,-47.76689 7.02176,-20.54955 24.01313,-45.54757 30.45486,-44.4725 -66.87411,22.61346 -29.08418,88.44095 -55.01028,97.85098 z m 60.26519,-25.06297 c 4.5231,5.50581 19.86851,13.71142 21.92669,14.17477 1.9533,0.43974 8.55791,0.19731 8.96666,-1.23517 0.10332,-5.47851 4.15003,-45.13422 13.96529,-66.28963 5.95258,-12.8299 14.24207,-25.9215 21.87074,-24.394 -41.91288,-18.34355 -31.63703,98.30613 -66.72938,77.74403 z m 85.67739,30.72184 c 6.42044,2.73642 15.54742,0.65417 17.08964,-3.99967 1.54221,-4.65386 4.00661,-28.08651 3.95322,-39.27847 -0.18775,-39.35803 4.97963,-60.82405 -6.37595,-88.67223 -3.40375,-8.34724 -20.12837,-19.31323 -27.20286,-19.12019 36.07303,24.42726 26.67013,145.35011 12.53595,151.07056 z M 244.97593,103.2515 C 234.68375,95.26985 236.41184,73.76735 230.86044,71.63063 l -7.63791,2.24048 c 0,0 11.58059,48.50846 21.7534,29.38039 z m 58.21699,-5.76347 c -1.28585,5.22059 17.63519,12.67457 13.85854,2.63457 -5.47472,-1.11599 -5.16935,-37.59171 -13.68313,-38.73873 0,0 -2.22062,28.84758 -0.17541,36.10416 z" />
    <path
       id="footer_5.1_bottom"
       style="fill:var(--color-four);stroke:none"
       d="m 433.09428,162.11356 c 0,0 -10.96128,15.907 -9.7989,16.51619 l 29.08437,15.24243 c 0,0 -3.91623,-1.49914 15.55971,-22.63952 -16.72665,12.79383 -28.33805,10.94587 -34.84518,-9.1191 z M 90.489234,206.58502 c -3.576073,1.39724 21.822976,23.63881 23.886466,18.87964 l 18.23878,-42.0657 c 5.6004,-8.27317 -25.94955,53.74957 -32.03162,19.24227 z m -1.240382,-42.18939 c 0.114766,6.50089 -17.949749,24.86523 -22.119773,24.07419 C 38.229284,152.81981 21.209343,147.254 19.81662,142.49293 c 25.756462,17.9624 35.564546,22.34125 47.600632,28.38876 8.358493,4.19971 11.265952,-21.49322 21.8316,-6.48606 z m 200.394608,18.237 c 4.5231,5.50581 19.86851,13.71142 21.92669,14.17477 1.9533,0.43974 8.55791,0.19731 8.96666,-1.23517 0.10332,-5.47851 4.43157,-32.24561 4.43157,-32.24561 -12.39035,38.57235 -44.16621,-11.62257 -35.32492,19.30601 z m 82.37328,7.74888 c -0.71744,11.63072 -12.35007,8.54419 -9.59545,14.6576 1.18791,2.63641 16.96127,9.78689 19.50161,10.0649 2.54034,0.27806 8.94537,-1.09537 10.48759,-5.74921 1.54221,-4.65386 -6.70344,-6.82436 -9.09722,-9.39266 -2.15585,-1.69319 -6.69446,-3.31869 -7.9554,-3.7134 -1.28415,-0.38479 -3.34113,-5.86723 -3.34113,-5.86723 z m -146.18226,-2.36008 c 7.97936,22.97818 25.94683,-10.37535 25.94683,-10.37535 l -0.34203,24.43793 c -0.39226,2.87916 -18.40978,6.23815 -22.06101,5.61159 -2.71018,-0.46509 -17.60348,-5.9614 -18.74793,-17.25314 z m 47.77192,-81.4847 c -2.00294,1.36506 -29.55022,40.47365 -19.67271,47.78039 7.02176,-20.54955 24.01313,-45.54757 30.45486,-44.4725 9.52019,-4.04063 -8.26545,-4.78594 -10.78215,-3.30789 z" />
    <path
       id="footer_5.1_top"
       style="fill:var(--color-five);stroke:none"
       d="m 409.62445,114.8703 8.28271,7.38954 c -0.38447,-5.48691 13.2201,-17.46176 28.52871,-16.6174 L 427.62173,90.57498 c -2.07981,-0.52667 -22.35392,20.40847 -17.99728,24.29532 z M 119.76092,134.46445 C 161.31035,56.17471 171.44385,42.09748 193.36385,50.81504 198.96426,42.54188 182.92663,16.948909 176.27281,20.278533 166.57213,25.13283 119.76092,134.46445 119.76092,134.46445 Z M 230.86044,71.63063 c -2.38509,-0.79792 -41.15131,13.98443 -37.19826,22.59566 0,0 13.06732,-1.17381 15.40198,5.87845 1.83538,1.40176 7.6975,-9.02242 28.54961,-10.31844 z m 75.61672,-8.12415 c 0,0 3.72905,1.67996 -3.10883,-2.12261 -32.57459,-4.38866 -59.93023,41.58634 -61.57119,40.40218 0.27753,4.24247 2.11443,11.88345 4.04685,14.03559 11.76697,0.5075 28.56362,-37.28518 57.06966,-45.21723 z M 384.07854,72.94 362.7849,62.28391 c -23.88318,0.65166 -43.70918,37.6318 -47.70866,37.4952 -0.59662,2.41887 3.42109,11.35757 4.57176,11.49374 3.62633,0.43072 20.82467,-34.51458 64.43054,-38.33285 z m -284.188194,40.14289 8.807124,-4.67954 C 109.57427,104.84276 91.941429,89.01889 81.460639,93.3359 72.5151,97.02057 19.464026,138.04662 19.81662,142.49293 75.018305,93.22338 91.573585,101.46033 99.890346,113.08289 Z" />
    <path
       id="footer_5.1_outline"
       style="stroke:var(--outline-color);stroke-width:var(--outline-width);fill:none;fill-opacity:0"
       d="m 409.62445,114.8703 c 0.68957,7.08582 38.24636,24.29993 40.61686,31.5371 1.6864,5.14856 -30.16891,23.79637 -26.94593,32.22235 0.95558,2.4982 27.5054,18.53425 29.08437,15.24243 17.09957,-35.64889 37.79584,-34.9091 36.74986,-49.07366 -12.87045,-22.33881 -45.14932,-37.71123 -61.50788,-54.22354 -2.07981,-0.52666 -18.79459,16.10257 -17.99728,24.29532 z M 89.664493,211.6411 c -0.621988,3.78864 21.175627,17.61925 24.711207,13.82356 C 120.93335,218.4245 161.19394,98.33788 193.36385,50.81504 198.96426,42.54188 182.92663,16.948909 176.27281,20.278533 166.57213,25.13283 92.792253,192.58991 89.664493,211.6411 Z M 67.129079,188.46982 C 38.229284,152.81981 21.209343,147.254 19.81662,142.49293 19.79612,138.03271 72.5151,97.02057 81.460639,93.3359 c 10.48079,-4.31701 28.113631,11.50686 27.236831,15.06745 -31.162141,19.01636 -46.262767,26.94253 -46.928673,32.01672 -0.442039,3.36826 24.562982,12.54756 27.480055,23.97556 1.318365,6.36685 -17.949749,24.86523 -22.119773,24.07419 z M 193.66218,94.22629 c 10.89103,23.72482 13.68375,63.81014 16.96816,96.21617 1.14445,11.29174 16.03775,16.78805 18.74793,17.25314 3.65123,0.62656 21.66875,-2.73243 22.06101,-5.61159 1.34199,-9.85032 -2.07838,-33.65803 2.49441,-47.76689 7.02176,-20.54955 24.01313,-45.54757 30.45486,-44.4725 15.52751,2.59144 -0.29503,66.03224 5.25491,72.78801 4.5231,5.50581 19.86851,13.71142 21.92669,14.17477 1.9533,0.43974 8.55791,0.19731 8.96666,-1.23517 0.10332,-5.47851 4.15003,-45.13422 13.96529,-66.28963 5.95258,-12.8299 14.24207,-25.9215 21.87074,-24.394 5.34695,1.07065 4.0807,26.8992 1.66635,66.03917 -0.71744,11.63073 1.62748,27.99793 4.3821,34.11134 1.18791,2.63641 16.96127,9.78689 19.50161,10.0649 2.54034,0.27806 8.94537,-1.09537 10.48759,-5.74921 1.54221,-4.65386 4.00661,-28.08651 3.95322,-39.27847 -0.18775,-39.35803 4.97963,-60.82405 -6.37595,-88.67223 -3.40375,-8.34724 -20.12837,-19.31323 -27.20286,-19.12019 -23.88318,0.65166 -43.70918,37.6318 -47.70866,37.4952 -2.74322,-0.0937 -3.19413,-37.24822 -11.70791,-38.39524 -32.57459,-4.38866 -59.93023,41.58634 -61.57119,40.40218 -3.03711,-2.1916 -5.3853,-28.0187 -10.9367,-30.15542 -2.38509,-0.79792 -41.15131,13.98443 -37.19826,22.59566 z" />
  </symbol>
  <symbol id="icon-contact" viewBox="0 0 512 512">
    <path
       style="fill:var(--color-one);stroke:none"
       d="m 234,455 c -4,0 -24,11 -31,11 C 100,462 113,397 113,381 100.08658,360.68366 102.1635,332.06089 101,325 100.73926,317.6938 66.210271,287.61955 66,276 55.33788,267.62422 42,227 42,227 -9,159 68.410494,118.80954 73,133 58,78 130,59 142,84 c 4,15 26.35255,124.10934 71,154 25,-55 -5,-185 9,-204 18,-12 77,-16 76,33 58,-39 81.21242,41.47899 77,62 3.93907,12.70875 0.48666,55.91911 -5,65 -0.22569,13.48535 -8.60819,52.99776 -24,65 10,21 -0.47717,73.16611 -12,88 16.0072,-22.72885 30.4718,-57.0242 37,-55 25,-19 61,-42 85,-32 25.18802,8.45713 23.52961,59.72187 21,64 -23,18 -60,10 -115,96 -17.42276,30.89549 -74.91804,43.25181 -86,42 -12.21252,2.14406 -38,-7 -42,-7 z"
       id="palm-bg" />
    <path
       style="fill:var(--color-two);stroke:none"
       d="m 234,455 c -4,0 -24,11 -31,11 -103,-4 -90,-69 -90,-85 -12.91342,-20.31634 -10.8365,-48.93911 -12,-56 -0.26074,-7.3062 11,-17 11,-17 l 24,33 17,62 16,31 54,-20 70,11 42,-42 89,-51 c 0,0 55.52961,-12.27813 53,-8 -23,18 -60,10 -115,96 -17.42276,30.89549 -74.91804,43.25181 -86,42 -12.21252,2.14406 -38,-7 -42,-7 z M 335,344 c -22.43447,-9.22527 -49.13438,-0.54133 -65,5 l -17,-2 46,-20 c 0,0 31.67878,7.1972 46,-13 z M 105,256 c -0.5453,3.19892 -37,21 -37,21 L 60,267 Z M 40,224 c 0,0 41.22597,-4.44082 47,-8 0,0 -33.392455,-8.40816 -52,-3 z M 143,152 93,174 82,154 c 20.27429,7.56554 61,-2 61,-2 z m 17,58 -32,25 -13,-16 c 23.28817,1.65413 45,-9 45,-9 z m -89,-79 -13,15 39,73 38,46 19,1 -32,-35 -28,-46 z m 68,-52 -6,19 6,48 13,48 28,50 40,11 -8,-18 -20,-19 -31,-64 -13,-43 z m 155,-28 -18,9 6,77 -8,91 -14,14 1,6 10,-7 17,-2 8,-57 2,-67 z m -52,49 29,17 27,-3 -1,-17 c -12,16 -55,3 -55,3 z m 53,81 2,-11 c -8.33422,3.00738 -53,0 -53,0 13.55401,14.16262 51,11 51,11 z m 17,-53 c 0,0 37,11 61,3 v -18 c -6,17 -61,15 -61,15 z m 58,68 5,-17 c -17,10 -62,2 -62,2 0,0 19,15 57,15 z"
       id="palm-shadow" />
    <path
       style="fill:var(--outline-color);stroke:none"
       d="m 38,219 c 17.999863,1.22588 46.704826,-1.88832 55,-7 -1.908556,4.62946 -14.251898,12.75693 -50,16 z m 25,55 7,9 c 25.563996,-15.60768 40.47937,-26.08135 44,-37 -7.69731,9.85118 -30.8729,24.41348 -51,28 z M 90,169 c 17.36204,-1.20345 45.61684,-12.71235 56,-22 -2.94519,9.53437 -23.54759,22.30232 -52,32 z m 36,64 3,4 32,-28 z M 375,128 v 4 c -19.57422,6.08612 -47,11 -67,-6 31,11 52.61683,6.76383 67,2 z m -5,65 v 3 c -42.15224,4.12691 -54.58254,-7.00355 -61,-18 22.85711,12.36181 27.99523,15.33643 61,15 z m -72,-78 v -3 c -27.18448,7.25153 -34.96934,-1.8386 -64,-18 24.14467,29.93272 44.74342,29.20616 64,21 z m -3,64 v 2 c -17.82394,6.374 -44.11289,0.68039 -55,-14 14.51638,8.53769 40.02243,14.51203 55,12 z m -141,88 c -15.20539,14.24093 -18.05708,28.23713 -14,40 0.88814,-17.4753 13.39719,-26.51368 15,-38 z m 1,1 v -2 c 7.94417,-0.50751 4.18325,-9.04589 32,10 -23.1,-9.14009 -19.68403,-8.88814 -32,-8 z m 131,-29 c -6.59969,-3.14495 -17.71515,-4.52778 -27,11 8.13257,-1.59455 14.9543,-12.06346 27,-10 z m 0,1 c 0,0 5.9965,11.55273 6,35 2.68025,-23.42905 4,-25 -4,-36 z m 50,102 c -39.54096,-12.1772 -62.34077,-3.20469 -77,14 17.90351,-4.76977 32.04923,-15.4441 75,-8 z"
       id="palm-details" />
    <path
       style="stroke:var(--outline-color);stroke-width:var(--outline-width);fill:none;fill-opacity:0"
       d="m 234,455 c -4,0 -24,11 -31,11 C 100,462 113,397 113,381 100.08658,360.68366 102.1635,332.06089 101,325 100.73926,317.6938 66.210271,287.61955 66,276 55.33788,267.62422 42,227 42,227 -9,159 68.410494,118.80954 73,133 58,78 130,59 142,84 c 4,15 26.35255,124.10934 71,154 25,-55 -5,-185 9,-204 18,-12 77,-16 76,33 58,-39 81.21242,41.47899 77,62 3.93907,12.70875 0.48666,55.91911 -5,65 -0.22569,13.48535 -8.60819,52.99776 -24,65 10,21 -0.47717,73.16611 -12,88 16.0072,-22.72885 30.4718,-57.0242 37,-55 25,-19 61,-42 85,-32 25.18802,8.45713 23.52961,59.72187 21,64 -23,18 -60,10 -115,96 -17.42276,30.89549 -74.91804,43.25181 -86,42 -12.21252,2.14406 -38,-7 -42,-7 z M 73,133 l 28,65 c 9,15 38.12177,56.61506 54,69 M 298,65 c 0,0 3.19611,39.84762 0,49 0.86071,19.63226 1.83763,51.35587 -3,67 1,5 -3,37 -8,57"
       id="palm-outline" />
  </symbol>
  <symbol id="icon-development" viewBox="0 0 512 512">
    <path
       style="fill:var(--color-two);stroke:none"
       d="m 19,225.9472 80.485383,48.38728 70.013097,-0.85257 33.93454,-26.89638 L 201.41731,193.5437 145.85435,153.56189 145.65594,64.460875 323.48745,182.2934 321.5474,270 485.51604,299.82983 c 13.37235,9.62242 8.58787,104.18665 4.48396,117.55002 -18.14193,46.27956 -93.21236,77.89113 -127.48535,55.54643 l -156.7841,-111.13036 -115.230353,5.16216 -65.1674,-47.0744 z"
       id="dev-side" />
    <path
       style="fill:var(--color-one);stroke:none"
       d="m 43.922414,144.94446 55.562969,39.98181 70.013097,-0.85257 33.93454,-26.89638 -2.01571,-53.04184 -55.56296,-39.981802 106.40367,-22.523519 71.22943,51.25503 -1.94005,87.706601 156.34475,111.47859 c 53.48937,38.4897 -61.54809,129.66789 -115.3775,91.44769 L 205.73055,272.38771 90.500197,277.54987 19.27076,226.29483 Z"
       id="dev-top" />
    <path
       style="fill:var(--color-three);stroke:none"
       d="m 315.04529,218.92921 122.26144,87.97646 c 26.74469,19.24486 -31.50213,65.41102 -58.24682,46.16617 L 256.79847,265.09538 c -30.56536,-21.99412 27.68146,-68.16029 58.24682,-46.16617 z"
       id="dev-top-detail" />
    <path
       id="dev-outline"
       style="stroke:var(--outline-color);stroke-width:var(--outline-width);fill:none;fill-opacity:0"
       d="M 145,65.26109 252.25802,41.630159 323.48745,92.885189 321.5474,180.59179 482,295.26109 c 13.37235,9.62242 12.10391,108.75539 8,122.11876 -18.14193,46.27956 -93.21236,77.89113 -127.48535,55.54643 L 205.73055,361.79592 90.500197,366.95808 25.332797,319.88368 19,225.9472 m 0.27076,0.34763 24.651654,-81.35037 55.562969,39.98181 L 183,184.0737 145.85435,153.56189 145,65.26109" />
  </symbol>
  <symbol id="icon-home" viewBox="0 0 512 512">
    <path
       style="fill:var(--color-one);stroke:none"
       d="m 197.14551,487.74916 128.20387,-0.74913 m 108.68154,-9.43775 c -8.57289,9.59516 -108.68154,9.43776 -108.68154,9.43776 0,0 -84.70581,1.71646 -128.20387,0.74914 -35.0606,-0.77966 -102.124843,0.0336 -105.079994,-5.18516 C 80.714518,462.51956 88.573931,421.56251 79.664744,381.62907 72.648516,350.18035 255.39145,207.77364 255.39145,207.77364 c 0,0 193.03419,138.41762 179.92419,193.38272 -8.61788,17.32295 7.17554,66.93652 -1.28472,76.40592 z"
       id="home-bg" />
    <path
       style="fill:var(--color-two);stroke:none"
       d="m 68,393.25 c 2.393513,0.0249 8.054861,-7.27699 11.664744,-11.62097 3.609875,-4.34397 5.168278,-5.73003 26.860066,-26.97086 21.69179,-21.24082 64.29693,-53.44568 94.87241,-80.96368 30.57544,-27.51804 49.12123,-50.34923 53.31833,-50.37718 5.08702,-0.0334 23.94737,24.86211 51.23488,50.41798 27.28752,25.55588 63.0022,51.77165 84.3689,74.59498 21.36668,22.82332 37.88457,43.75698 44.99631,52.82605 7.11175,9.06904 4.81737,6.27349 9.12728,7.86692 8.36663,3.09326 34.54121,-15.1046 40.50116,-31.03423 2.12303,-5.67439 -15.41672,-86.09191 -31.18377,-128.93062 -9.23228,-25.08388 -10.50054,-56.61324 -15.28151,-64.09763 -4.78098,-7.48438 -48.68489,-39.33224 -88.00002,-74.22998 -39.31514,-34.897744 -74.04149,-72.845395 -83.97528,-73.229955 -9.93378,-0.384516 -42.54125,33.743881 -77.68232,64.798015 -35.14105,31.05414 -72.81568,59.03396 -78.05637,66.8164 -10.48139,15.56488 -91.903623,169.25901 -87.130104,183.6081 3.161295,9.5028 15.56242,13.0614 23.359844,20.79133 C 54.791974,381.24462 57.9857,393.14594 68,393.25 Z"
       id="home-roof-bg" />
    <path
       style="fill:var(--color-three);stroke:none"
       d="m 68,393.25 c 2.393513,0.0249 8.054861,-7.27699 11.664744,-11.62097 3.609875,-4.34397 5.168278,-5.73003 26.860066,-26.97086 21.69179,-21.24082 64.29693,-53.44568 94.87241,-80.96368 30.57544,-27.51804 49.12123,-50.34923 53.31833,-50.37718 5.08702,-0.0334 23.94737,24.86211 51.23488,50.41798 27.28752,25.55588 63.0022,51.77165 84.3689,74.59498 21.36668,22.82332 37.88457,43.75698 44.99631,52.82605 7.11175,9.06904 4.81737,6.27349 9.12728,7.86692 8.36663,3.09326 34.54121,-15.1046 40.50116,-31.03423 C 438.70631,329.72526 395.17049,274.72542 361.0986,238.41209 321.78347,203.51435 275.15907,154.31906 257.18525,154.18057 236.76015,154.02318 167.504,220.10489 132.36294,251.15904 69.990633,293.43312 21.634003,344.2573 23.634706,352.72334 c 3.161295,9.5028 15.56242,13.0614 23.359844,20.79133 C 54.791974,381.24462 57.9857,393.14594 68,393.25 Z"
       id="home-roof-front" />
    <path
       style="fill:var(--color-four);stroke:none"
       d="m 197.14551,487.74916 c 43.49806,0.96732 128.20387,-0.74913 128.20387,-0.74913 m -128.20387,0.74913 c -2.17862,-24.84269 3.6756,-72.18192 1.18133,-94.30826 4.2074,-55.09261 113.17139,-57.8748 120.59041,1.14361 -0.87146,26.14669 3.90598,65.39523 6.43213,92.41549"
       id="home-door" />
    <path
       style="fill:var(--color-five);stroke:none"
       d="m 115.51148,403.62023 c 0.16014,-18.89725 20.04036,-23.81342 35.18397,-19.71716 20.95727,5.66886 24.97884,33.56373 10.92192,42.16215 -15.48461,9.47173 -46.23848,-6.79751 -46.10589,-22.44499 z"
       id="home-window" />
    <path
       style="stroke:var(--outline-color);stroke-width:var(--outline-width);fill:none;fill-opacity:0"
       d="m 68,393.25 c 2.393513,0.0249 8.054861,-7.27699 11.664744,-11.62097 3.609875,-4.34397 5.168278,-5.73003 26.860066,-26.97086 21.69179,-21.24082 64.29693,-53.44568 94.87241,-80.96368 30.57544,-27.51804 49.12123,-50.34923 53.31833,-50.37718 5.08702,-0.0334 23.94737,24.86211 51.23488,50.41798 27.28752,25.55588 63.0022,51.77165 84.3689,74.59498 21.36668,22.82332 37.88457,43.75698 44.99631,52.82605 7.11175,9.06904 4.81737,6.27349 9.12728,7.86692 8.36663,3.09326 34.54121,-15.1046 40.50116,-31.03423 2.12303,-5.67439 -15.41672,-86.09191 -31.18377,-128.93062 -9.23228,-25.08388 -10.50054,-56.61324 -15.28151,-64.09763 -4.78098,-7.48438 -48.68489,-39.33224 -88.00002,-74.22998 -39.31514,-34.897744 -74.04149,-72.845395 -83.97528,-73.229955 -9.93378,-0.384516 -42.54125,33.743881 -77.68232,64.798015 -35.14105,31.05414 -72.81568,59.03396 -78.05637,66.8164 -10.48139,15.56488 -91.903623,169.25901 -87.130104,183.6081 3.161295,9.5028 15.56242,13.0614 23.359844,20.79133 C 54.791974,381.24462 57.9857,393.14594 68,393.25 Z m 11.664744,-11.62097 c 9.145651,39.87997 1.049774,80.89051 12.400772,100.93496 2.955151,5.21844 70.019394,4.40548 105.079994,5.18517 43.49806,0.96732 128.20387,-0.74913 128.20387,-0.74913 0,0 100.10865,0.15739 108.68154,-9.43777 8.46026,-9.46941 -7.33316,-59.08297 1.28472,-76.40592 m -238.17013,86.59282 c -2.17862,-24.84269 3.6756,-72.18192 1.18133,-94.30826 4.2074,-55.09261 113.17139,-57.8748 120.59041,1.14361 -0.87146,26.14669 3.90598,65.39523 6.43213,92.41549 m -209.8379,-83.37977 c 0.16014,-18.89725 20.04036,-23.81342 35.18397,-19.71716 20.95727,5.66886 24.97884,33.56373 10.92192,42.16215 -15.48461,9.47173 -46.23848,-6.79751 -46.10589,-22.44499 z"
       id="home-outline" />
  </symbol>
  <symbol id="icon-menu" viewBox="0 0 512 512">
    <path
       style="fill:var(--color-one);stroke:none"
       d="m 22.547508,45.58055 c -4.239033,5.832365 10.983889,92.83101 16.363259,98.32125 8.90277,18.97631 85.636013,-9.82501 115.910123,-14.71587 24.9117,-4.01183 323.54365,27.45183 327.17911,20.75738 9.10438,-6.48143 10.45093,-51.10179 -19.42408,-109.052491 -11.11243,-7.413018 -207.39221,16.68351 -212.18052,16.68351 -4.78824,0 -221.139253,-15.637799 -227.847892,-11.993779 z m 6.241695,271.52739 c -4.072924,-11.31405 14.442146,-88.8245 27.196175,-95.29745 18.458723,-7.95105 347.878012,31.48458 372.102682,20.27396 12.45375,0 29.88499,-19.91179 58.35536,-15.38095 5.0771,7.13762 -1.02424,72.80511 -5.45664,82.89101 -6.24193,10.07393 -16.16157,15.83077 -28.32621,19.23292 -16.18328,5.09716 -166.95295,-2.41453 -225.1288,-24.25828 -89.90072,-2.88099 -186.756713,31.18129 -198.742567,12.53879 z m -3.676672,86.58614 c -1.104594,3.66225 1.225293,75.06407 2.232489,77.36059 8.042425,7.75927 365.02862,3.87195 386.37515,8.94533 6.1718,2.75427 35.39671,-12.36293 37.51484,-16.22782 4.11263,-2.81038 36.87489,-79.9841 33.14837,-85.49605 -6.94085,-3.44328 -42.722,6.1263 -44.25534,6.89448 0,0 -40.23669,25.61655 -44.99743,25.61655 -6.67274,3.01152 -346.098438,-23.45753 -352.222921,-25.15151 -5.615377,1.62876 -16.616226,6.71783 -17.795158,8.05843 z"
       id="menu-bg" />
    <path
       style="fill:var(--color-two);stroke:none"
       d="m 67.049152,46.170491 c 0,0 -41.147285,-2.411991 -44.501644,-0.589624 -4.239033,5.832365 10.983889,92.831013 16.363259,98.321253 7.91404,12.40659 41.184057,3.14688 41.184057,3.14688 0,0 -27.701081,-46.84532 -13.045672,-100.878192 z M 450.77139,149.29084 c 0,0 29.41084,3.9997 31.22861,0.65223 9.10438,-6.48135 10.45093,-51.10179 -19.42408,-109.052489 -11.11243,-7.413018 -33.17388,-0.673629 -33.17388,-0.673629 -11.73035,64.033898 30.00402,59.475878 21.36935,109.073808 z M 65.521915,321.77611 c 0,0 -28.740452,4.42749 -36.732712,-4.66817 -4.072924,-11.31405 14.442146,-88.8245 27.196175,-95.29745 9.229362,-3.97553 31.605281,0.0476 31.605281,0.0476 -39.541669,49.40456 -14.364797,92.65595 -22.068744,99.92077 z M 428.08806,242.08445 c 12.45375,0 29.88499,-19.91179 58.35536,-15.38095 5.0771,7.13762 -1.02424,72.80511 -5.45664,82.89101 -6.24193,10.07393 -16.16157,15.83077 -28.32621,19.23292 -12.12843,-6.97199 26.89106,-79.25793 -24.57251,-86.74298 z M 42.907689,395.63565 c -5.615377,1.62876 -16.616226,6.71783 -17.795158,8.05843 -1.104594,3.66225 1.225293,75.06407 2.232489,77.36059 4.021252,3.87963 36.638483,3.70544 36.638483,3.70544 0,0 27.630945,-27.63665 -21.075814,-89.12446 z M 413.72017,490 c 6.1718,2.75427 35.39671,-12.36293 37.51484,-16.22782 4.11263,-2.81038 36.87489,-79.9841 33.14837,-85.49605 -6.94085,-3.44328 -42.722,6.1263 -44.25534,6.89448 15.11095,39.62385 -27.00439,79.79501 -26.40787,94.82939 z"
       id="menu-left-right" />
    <path
       style="fill:var(--color-three);stroke:none"
       d="m 22.547508,45.58055 0.993564,19.509902 C 27.444638,94.494628 19.951894,62.676797 50.225923,57.785928 75.137623,53.774107 81.304901,106.3051 432.8167,67.908523 454.59222,62.483584 428.17207,53.35178 462.57592,40.890819 451.46349,33.477801 255.18371,57.574329 250.3954,57.574329 245.60716,57.574329 29.256147,41.93653 22.547508,45.58055 Z M 58.8953,246.556 c -4.394364,-2.43252 -2.909922,-24.74551 -2.909922,-24.74551 18.458723,-7.95105 347.878012,31.48458 372.102682,20.27396 12.45375,0 29.88499,-19.91179 58.35536,-15.38095 5.0771,7.13762 -8.397,15.15786 -12.8294,25.24376 -6.24201,10.07393 -15.30923,16.17226 -27.47379,19.57441 -16.18328,5.09716 -242.23892,-0.12759 -276.82917,-26.064 C 65.724876,228.4398 65.369358,241.31611 58.8953,246.556 Z M 25.112531,403.69408 c -1.104594,3.66225 15.683289,4.00168 13.374245,19.31867 6.644446,-11.65284 355.909734,16.20746 377.256264,21.28076 6.1718,2.75435 35.62884,-30.22521 37.74697,-34.0901 4.11262,-2.81039 34.61989,-16.41533 30.89337,-21.92728 -6.94085,-3.44328 -42.722,6.1263 -44.25534,6.89448 0,0 -40.23669,25.61655 -44.99743,25.61655 -6.67274,3.01152 -346.098438,-23.45753 -352.222921,-25.15151 -5.615377,1.62876 -16.616226,6.71783 -17.795158,8.05843 z"
       id="menu-top" />
    <path
       style="fill:var(--color-four);stroke:none"
       d="M 71.714633,129.22611 38.910767,143.9018 c 8.90277,18.97631 85.636013,-9.82501 115.910123,-14.71587 24.9117,-4.01183 323.54365,27.45183 327.17911,20.75738 9.10438,-6.48143 -11.0908,-10.48564 -11.0908,-10.48564 -11.11244,-7.41294 -288.15019,-26.90509 -292.93851,-26.90509 -4.78824,0 -99.547418,13.02951 -106.256057,16.67353 z m -42.92543,187.88183 c 0,0 17.14348,2.39265 29.092245,-9.25599 38.190132,-23.84562 221.368522,-38.19679 255.739252,1.25992 11.20198,5.49032 113.64878,-3.04005 142.11915,1.49086 5.07711,7.13763 29.67933,-11.09412 25.24693,-1.00822 -6.24193,10.07393 -16.16157,15.83077 -28.32621,19.23292 -16.18328,5.09716 -166.95295,-2.41453 -225.1288,-24.25828 -89.90072,-2.88099 -186.756713,31.18129 -198.742567,12.53879 z m -2.583489,154.6848 c -1.104595,3.66225 0.132348,6.96541 1.139306,9.26193 8.042425,7.75927 365.02862,3.87195 386.37515,8.94533 6.1718,2.75427 35.39671,-12.36293 37.51484,-16.22782 4.11263,-2.81038 8.00866,-6.63597 4.28215,-12.14784 -6.94085,-3.44336 -42.72192,6.1263 -44.25534,6.89448 0,0 -42.44065,5.41194 -47.20147,5.41194 -6.67274,3.01152 -313.935075,-8.50239 -320.059558,-10.19645 -5.615298,1.62875 -16.616226,6.71783 -17.795078,8.05843 z"
       id="menu-bottom" />
    <path
       style="stroke:var(--outline-color);stroke-width:var(--outline-width);fill:none;fill-opacity:0"
       d="m 22.547508,45.58055 c -4.239033,5.832365 10.983889,92.83101 16.363259,98.32125 8.90277,18.97631 85.636013,-9.82501 115.910123,-14.71587 24.9117,-4.01183 323.54365,27.45183 327.17911,20.75738 9.10438,-6.48143 10.45093,-51.10179 -19.42408,-109.052491 -11.11243,-7.413018 -207.39221,16.68351 -212.18052,16.68351 -4.78824,0 -221.139253,-15.637799 -227.847892,-11.993779 z m 6.241695,271.52739 c -4.072924,-11.31405 14.442146,-88.8245 27.196175,-95.29745 18.458723,-7.95105 347.878012,31.48458 372.102682,20.27396 12.45375,0 29.88499,-19.91179 58.35536,-15.38095 5.0771,7.13762 -1.02424,72.80511 -5.45664,82.89101 -6.24193,10.07393 -16.16157,15.83077 -28.32621,19.23292 -16.18328,5.09716 -166.95295,-2.41453 -225.1288,-24.25828 -89.90072,-2.88099 -186.756713,31.18129 -198.742567,12.53879 z m -3.676672,86.58614 c -1.104594,3.66225 1.225293,75.06407 2.232489,77.36059 8.042425,7.75927 365.02862,3.87195 386.37515,8.94533 6.1718,2.75427 35.39671,-12.36293 37.51484,-16.22782 4.11263,-2.81038 36.87489,-79.9841 33.14837,-85.49605 -6.94085,-3.44328 -42.722,6.1263 -44.25534,6.89448 0,0 -40.23669,25.61655 -44.99743,25.61655 -6.67274,3.01152 -346.098438,-23.45753 -352.222921,-25.15151 -5.615377,1.62876 -16.616226,6.71783 -17.795158,8.05843 z"
       id="menu-outline" />
  </symbol>
  <symbol id="icon-meta" viewBox="0 0 512 512">
    <path
       style="fill:var(--color-one);stroke:none"
       d="M 69.616048,41.590305 C 118.53957,243.17019 58.145362,435.58057 67.338742,464.85524 c 0,0 -0.121584,14.26939 5.192695,16.5352 11.349269,4.83893 17.781277,-19.4583 33.158423,-16.44719 52.26074,10.23355 237.19162,3.83437 311.63855,22.4375 11.53319,2.88196 33.70862,-4.42302 31.79424,-16.15566 -2.34289,-14.35884 -13.97366,-75.47769 -13.4933,-105.64158 -5.38905,-25.30579 10.40975,-66.17066 10.91346,-101.07598 -6.7684,-21.02297 -12.15428,-88.71095 -13.5098,-110.2127 1.86895,-15.77624 7.98178,-34.7316 4.2672,-46.97413 C 435.84065,82.060628 384.78647,28.419782 361.56748,23.833937 345.98766,23.341868 216.61379,31.824241 193,39.714304 186.78051,48.720694 150.18805,52.450489 135.9132,48.720359 131.19511,43.144605 110.8102,37.258426 101.39929,37.756291 93.341976,36.76056 71.269132,36.883856 69.616048,41.590305 Z M 361.56748,23.833937 c 0,0 -17.82889,59.273446 -9.70544,81.998473 15.40867,9.53537 23.03431,-22.684634 85.43817,1.48829"
       id="meta-paper-dark" />
    <path
       style="fill:var(--color-two);stroke:none"
       d="m 83.376198,317.83722 c -7.83394,76.95943 -20.634146,132.38068 -16.037456,147.01802 0,0 -0.121584,14.26939 5.192695,16.5352 11.349269,4.83893 17.781277,-19.4583 33.158423,-16.44719 52.26074,10.23355 237.19162,3.83437 311.63855,22.4375 11.53319,2.88196 33.70862,-4.42302 31.79424,-16.15566 -2.34289,-14.35884 -13.97366,-75.47769 -13.4933,-105.64158 -5.38905,-25.30579 10.40975,-66.17066 10.91346,-101.07598 -6.7684,-21.02297 -12.15428,-88.71095 -13.5098,-110.2127 -68.08676,127.441 -212.69563,197.17 -349.656812,163.54239 z"
       id="meta-paper-light" />
    <path
       style="fill:var(--color-three);stroke:none"
       d="M 437.30021,107.3207 C 435.84065,82.060628 384.78647,28.419782 361.56748,23.833937 m 0,0 c 0,0 -17.82889,59.273446 -9.70544,81.998473 15.40867,9.53537 23.03431,-22.684634 85.43817,1.48829"
       id="meta-paper-lightest" />
    <path
       style="fill:var(--color-four);stroke:none"
       d="m 135.9132,48.720359 c -106.103354,-53.8639131 -53.051676,-26.931961 0,0 z M 364.94625,281.73583 c 3.07767,-4.81589 -3.16428,-5.06617 -3.16428,-5.06617 h 4e-5 c 23.76454,-83.13947 1.17302,-114.42213 -31.4587,-147.73871 -34.20493,-38.341478 -111.59063,-75.877115 -189.35724,-6.35885 -69.752057,69.45639 -24.86609,165.02888 -1.38071,188.20347 41.13173,38.35111 89.06514,47.60061 130.29657,37.16365 -7.4975,16.33649 -1.17304,12.49009 0.713,18.00664 47.86743,27.30406 136.04887,-50.3374 94.35132,-84.21003 z"
       id="meta-bulb-top" />
    <path
       style="fill:var(--color-five);stroke:var(--outline-color);stroke-width:var(--detail-stroke-width)"
       d="m 416.77505,358.74509 c 3.08799,-8.749 1.28589,-12.06638 2.89526,-17.97677 0.64629,-8.86581 -6.20345,-12.93359 -13.54005,-11.71381 -0.0109,-17.7158 -4.31534,-26.55272 -17.03716,-23.17871 2.89201,-20.80308 -15.47219,-26.18831 -24.14685,-24.13997 16.1481,24.68797 -26.45577,86.77818 -94.35132,84.21003 -1.44051,15.73211 20.79002,28.93868 28.66432,26.21306 -1.95964,9.14086 8.82593,15.99613 13.50018,13.71608 0.004,5.86104 7.14201,14.1919 11.04959,14.86024 7.54907,2.81775 26.26875,3.84089 38.12146,-2.73524 m 2e-5,0 c 25.37093,22.58889 72.2564,-34.33226 54.84458,-59.25491"
       id="meta-bulb-bottom" />
    <path
       style="stroke:var(--outline-color);stroke-width:var(--detail-stroke-width);fill:none"
       d="m 381.85556,321.03857 c -11.59648,37.35917 -34.76925,57.67281 -69.32575,61.22454 m 82.05857,-41.0836 c -9.70131,40.0784 -36.2488,51.91602 -66.09407,58.22525 M 345.50642,329.2222 C 318.82125,298.0694 300.58238,263.79873 308.30235,219.94566 m 25.09767,119.19115 C 299.0327,301.8966 261.94335,267.63925 236.6947,220.40659 m 84.48224,125.21807 c -31.77886,-30.09971 -57.33356,-66.17571 -121.698,-64.98753 m 126.05631,2.35516 c -28.02365,6.20518 -56.72745,26.41255 -54.04608,34.00682 12.69079,7.1348 45.81106,-11.49409 57.69647,-27.67065"
       id="meta-bulp-details" />
    <path
       style="fill:var(--color-six);stroke:none"
       d="m 267.62595,131.48879 c -48.66598,-22.07893 -69.74568,-10.28218 -106.85174,46.83874 -11.65832,17.94678 8.61362,39.11321 41.15374,38.02108 58.14802,-3.92327 105.51662,-66.79478 65.698,-84.85982 z"
       id="meta-bulb-highlight" />
    <path
       style="stroke:var(--outline-color);stroke-width:var(--outline-width);fill:none"
       d="M 69.616048,41.590305 C 118.53957,243.17019 58.145362,435.58057 67.338742,464.85524 c 0,0 -0.121584,14.26939 5.192695,16.5352 11.349269,4.83893 17.781277,-19.4583 33.158423,-16.44719 52.26074,10.23355 237.19162,3.83437 311.63855,22.4375 11.53319,2.88196 33.70862,-4.42302 31.79424,-16.15566 -2.34289,-14.35884 -13.97366,-75.47769 -13.4933,-105.64158 -5.38905,-25.30579 10.40975,-66.17066 10.91346,-101.07598 -6.7684,-21.02297 -12.15428,-88.71095 -13.5098,-110.2127 1.86895,-15.77624 7.98178,-34.7316 4.2672,-46.97413 C 435.84065,82.060628 384.78647,28.419782 361.56748,23.833937 345.98766,23.341868 216.61379,31.824241 193,39.714304 186.78051,48.720694 150.18805,52.450489 135.9132,48.720359 131.19511,43.144605 110.8102,37.258426 101.39929,37.756291 93.341976,36.76056 71.269132,36.883856 69.616048,41.590305 Z M 361.56748,23.833937 c 0,0 -17.82889,59.273446 -9.70544,81.998473 15.40867,9.53537 23.03431,-22.684634 85.43817,1.48829 m -75.5182,169.34896 c 23.76454,-83.13947 1.17302,-114.42213 -31.4587,-147.73871 -34.20493,-38.341478 -111.59063,-75.877115 -189.35724,-6.35885 -69.752057,69.45639 -24.86609,165.02888 -1.38071,188.20347 41.13173,38.35111 89.06514,47.60061 130.29657,37.16365 -7.4975,16.33649 -1.17304,12.49009 0.713,18.00664 -1.44051,15.73211 20.79002,28.93868 28.66432,26.21306 -1.95964,9.14086 8.82593,15.99613 13.50018,13.71608 0.004,5.86104 7.14201,14.1919 11.04959,14.86024 7.54907,2.81775 26.26875,3.84089 38.12146,-2.73524 13.81819,0.26099 46.82753,-36.54064 54.84457,-59.25491 3.08799,-8.749 1.28589,-12.06638 2.89526,-17.97677 0.64629,-8.86581 -6.20345,-12.93359 -13.54005,-11.71381 -0.0109,-17.7158 -4.31534,-26.55272 -17.03716,-23.17871 2.89201,-20.80308 -15.47219,-26.18831 -24.14685,-24.13997 3.07767,-4.81589 -3.16428,-5.06617 -3.16428,-5.06617 z M 361.9305,418 c 25.37093,22.58889 72.2564,-34.33226 54.84458,-59.25491"
       id="meta-outline" />
  </symbol>
  <symbol id="icon-quote" viewBox="0 0 512 512">
    <path
       style="fill:#ffaa1c;fill-opacity:1;stroke:none;stroke-width:14.6194;stroke-linecap:butt;stroke-linejoin:miter;stroke-miterlimit:4;stroke-dasharray:none;stroke-opacity:1"
       d="m 371.53209,353.91866 c 17.54327,55.5537 95.02606,59.93952 95.02606,59.93952 0,0 -95.02606,59.93952 -217.82897,-10.23358 C 82.068088,454.79248 -81.669126,191.64339 103.99718,93.693449 270.65827,10.362903 548.42676,182.87175 371.53209,353.91866 Z"
       id="quote-bg" />
    <path
       style="fill:#cb7f00;fill-opacity:1;stroke:none;stroke-width:1.46194;stroke-linecap:butt;stroke-linejoin:miter;stroke-miterlimit:4;stroke-dasharray:none;stroke-opacity:1"
       d="m 371.53209,353.91866 c 8.77164,27.77685 -92.13315,27.79501 -74.85013,42.99169 41.11544,36.15216 169.87619,16.94783 169.87619,16.94783 0,0 -95.02606,59.93952 -217.82897,-10.23358 C 82.068088,454.79248 -81.669126,191.64339 103.99718,93.693449 145.66245,72.860812 194.27194,68.018138 240.98546,75.145093 c 46.71354,7.126954 -74.12489,33.167747 -74.12489,33.167747 -46.72802,14.48241 -66.0741,39.43038 -86.254422,78.94473 -15.021486,34.14975 1.844646,197.19844 185.498852,176.54456 87.88382,-9.88347 160.5639,-94.51604 151.55527,-73.59204 -9.00863,20.92401 -24.01635,42.32771 -46.12818,63.70857 z"
       id="quote-shadow" />
    <path
       style="fill:#ffcd79;fill-opacity:1;stroke:none;stroke-width:1.46194;stroke-linecap:butt;stroke-linejoin:miter;stroke-miterlimit:4;stroke-dasharray:none;stroke-opacity:1"
       d="m 371.53209,353.91866 c 17.54327,55.5537 95.02606,59.93952 95.02606,59.93952 0,0 -116.95515,14.61939 -118.72284,-54.58986 C 347.80951,358.25748 304.28288,370 304.28288,370 397.847,321.756 400.30956,212.46028 337.47091,160.79163 225.10706,68.401225 70.372572,103.92703 103.99718,93.693449 270.65827,10.362903 548.42676,182.87175 371.53209,353.91866 Z"
       id="quote-highlight" />
    <path
       style="fill:none;stroke:#000000;stroke-width:14.6194;stroke-linecap:butt;stroke-linejoin:miter;stroke-miterlimit:4;stroke-dasharray:none;stroke-opacity:1"
       d="m 371.53209,353.91866 c 17.54327,55.5537 95.02606,59.93952 95.02606,59.93952 0,0 -95.02606,59.93952 -217.82897,-10.23358 C 82.068088,454.79248 -81.669126,191.64339 103.99718,93.693449 270.65827,10.362903 548.42676,182.87175 371.53209,353.91866 Z"
       id="quote-outline" />
  </symbol>
  <symbol id="icon-tags" viewBox="0 0 512 512">
    <path
       style="fill:#9d9165;fill-opacity:1;stroke:none;stroke-width:5.36746;stroke-linecap:butt;stroke-linejoin:miter;stroke-miterlimit:4;stroke-dasharray:none;stroke-opacity:1"
       d="m 50.602226,396 c 13.400273,19.14325 88.649974,26.20575 161.395914,45.66595 72.74592,19.46021 142.98808,51.31811 177.43957,48.13597 25.46577,-5.66412 12.93428,-10.59637 26.04383,-71.19377 13.10957,-60.59736 51.86018,-176.85987 44.78619,-198.72602 -7.83868,-27.68491 -17.43818,0.24728 -46.63857,-53.17245 C 399.02898,139.99982 394.52885,119.6524 377.70615,87.806965 360.88348,55.961499 327.19307,24.436504 314.7638,22.159473 287.96326,17.373661 258.3511,46.617073 223.44685,72.504391 188.54258,98.39171 152.19008,100.41255 115.68926,118.42291 96.57644,128.84224 98.05319,196.94839 77.200314,258.18442 56.3452,319.42701 39.50075,381.22585 50.602226,396 Z M 293.29397,113.40627 c 15.31459,0 21.05757,15.31459 21.05757,24.88621 0,7.6573 -7.65731,19.14325 -21.05757,19.14325 -17.22893,0 -24.88622,-11.48595 -24.88622,-22.9719 0,-13.40026 9.57162,-21.05756 24.88622,-21.05756 z"
       id="tag-bg" />
    <path
       style="fill:#746c4e;fill-opacity:1;stroke:none;stroke-width:5.36746;stroke-linecap:butt;stroke-linejoin:miter;stroke-miterlimit:4;stroke-dasharray:none;stroke-opacity:1"
       d="m 50.602226,396 c 13.400273,19.14325 88.649974,26.20575 161.395914,45.66595 72.74592,19.46021 142.98808,51.31811 177.43957,48.13597 25.46577,-5.66412 12.93428,-10.59637 26.04383,-71.19377 13.10957,-60.59736 51.86018,-176.85987 44.78619,-198.72602 -7.83868,-27.68491 -17.4382,0.24729 -46.63857,-53.17245 -7.3001,-13.35493 -24.79444,61.56019 -24.79444,61.56019 l 5.36746,40.79268 -9.66143,39.71919 L 369,419 323,431 155,377 h -32 l -16,-32 24.19673,-129.61203 30.10387,-28.65535 c 0,0 -9.11052,-86.32007 -45.61134,-68.30971 C 96.57644,128.84224 98.05319,196.94839 77.200314,258.18442 56.3452,319.42701 39.50075,381.22585 50.602226,396 Z M 293.29397,113.40627 c 15.31459,0 21.05757,15.31459 21.05757,24.88621 C 338,184 337,108 299.73492,90.862938 255,95 230,157 268.40775,134.46383 c 0,-13.40026 9.57162,-21.05756 24.88622,-21.05756 z"
       id="tag-shadow" />
    <path
       style="fill:#bbb293;fill-opacity:1;stroke:none;stroke-width:5.36746;stroke-linecap:butt;stroke-linejoin:miter;stroke-miterlimit:4;stroke-dasharray:none;stroke-opacity:1"
       d="m 141.93165,149.90498 c 20.39634,-8.58794 60.21965,-16.62959 93.5359,-37.73597 33.31625,-21.10638 60.12543,-55.277482 84.27904,-50.116165 22.19891,4.743624 16.02882,31.525671 29.62973,69.344475 13.60092,37.81881 46.97284,86.67437 68.44268,107.60746 19.32284,23.61682 -15.44701,240.20077 -2.33746,179.60337 13.10957,-60.59736 51.86018,-176.85987 44.78619,-198.72602 -7.83868,-27.68491 -17.43818,0.24728 -46.63857,-53.17245 C 399.02898,139.99982 394.52885,119.6524 377.70615,87.806965 360.88348,55.961499 327.19307,24.436504 314.7638,22.159473 287.96326,17.373661 258.3511,46.617073 223.44685,72.504391 188.54258,98.39171 152.19008,100.41255 115.68926,118.42291 96.57644,128.84224 98.05319,196.94839 77.200314,258.18442 56.3452,319.42701 112.94737,143.46403 141.93165,149.90498 Z M 278,185 c 17.66142,4.03726 84.66142,-30.96274 35.01296,-41.67026 0,7.6573 -6.31873,14.10599 -19.71899,14.10599 -17.22893,0 -24.88622,-11.48595 -24.88622,-22.9719 C 224,120 262.68539,185 278,185 Z"
       id="tag-highlight" />
    <path
       style="fill:none;stroke:#000000;stroke-width:10;stroke-linecap:butt;stroke-linejoin:miter;stroke-miterlimit:4;stroke-dasharray:none;stroke-opacity:1"
       d="m 50.602226,396 c 13.400273,19.14325 88.649974,26.20575 161.395914,45.66595 72.74592,19.46021 142.98808,51.31811 177.43957,48.13597 25.46577,-5.66412 12.93428,-10.59637 26.04383,-71.19377 13.10957,-60.59736 51.86018,-176.85987 44.78619,-198.72602 -7.83868,-27.68491 -17.43818,0.24728 -46.63857,-53.17245 C 399.02898,139.99982 394.52885,119.6524 377.70615,87.806965 360.88348,55.961499 327.19307,24.436504 314.7638,22.159473 287.96326,17.373661 258.3511,46.617073 223.44685,72.504391 188.54258,98.39171 152.19008,100.41255 115.68926,118.42291 96.57644,128.84224 98.05319,196.94839 77.200314,258.18442 56.3452,319.42701 39.50075,381.22585 50.602226,396 Z M 293.29397,113.40627 c 15.31459,0 21.05757,15.31459 21.05757,24.88621 0,7.6573 -7.65731,19.14325 -21.05757,19.14325 -17.22893,0 -24.88622,-11.48595 -24.88622,-22.9719 0,-13.40026 9.57162,-21.05756 24.88622,-21.05756 z"
       id="tag-raw" />
    <path
       style="fill:none;stroke:#000000;stroke-width:20;stroke-linecap:butt;stroke-linejoin:miter;stroke-miterlimit:4;stroke-dasharray:none;stroke-opacity:1"
       d="m 50.602226,396 c 13.400273,19.14325 88.649974,26.20575 161.395914,45.66595 72.74592,19.46021 142.98808,51.31811 177.43957,48.13597 25.46577,-5.66412 12.93428,-10.59637 26.04383,-71.19377 13.10957,-60.59736 51.86018,-176.85987 44.78619,-198.72602 -7.83868,-27.68491 -17.43818,0.24728 -46.63857,-53.17245 C 399.02898,139.99982 394.52885,119.6524 377.70615,87.806965 360.88348,55.961499 327.19307,24.436504 314.7638,22.159473 287.96326,17.373661 258.3511,46.617073 223.44685,72.504391 188.54258,98.39171 152.19008,100.41255 115.68926,118.42291 96.57644,128.84224 98.05319,196.94839 77.200314,258.18442 56.3452,319.42701 39.50075,381.22585 50.602226,396 Z"
       id="tag-outline" />
    <path
       style="fill:none;stroke:#4d340f;stroke-width:25;stroke-linecap:round;stroke-linejoin:round;stroke-miterlimit:4;stroke-dasharray:none;stroke-opacity:1"
       d="m 235.76663,218.69449 c -1.31148,17.94523 -0.94132,37.77402 -6.53767,54.62945 -0.61843,1.86265 -2.55569,8.19488 -3.24328,9.45321 -0.0528,0.0967 -2.12154,2.07714 -2.16646,2.16645 -1.63349,3.24783 -2.16477,7.54993 -3.24755,10.78969 -0.70819,2.11898 -3.2311,4.14963 -4.25202,5.23948 -0.66538,0.7103 0.47032,2.06773 0,2.91981 -0.16386,0.29687 -0.87007,-0.30546 -1.01725,0 -0.48673,1.01011 0.605,3.34398 0,4.34142 -0.81731,1.34744 -1.30144,2.39298 -2.02174,3.80512 -0.33694,0.66056 0.53593,3.14382 0,3.60507 -1.86193,1.60249 -2.77383,6.18569 -4.19245,9.00631 -0.25872,0.51442 0.42437,2.60992 0,2.97515 -1.9266,1.65815 -1.60405,3.8789 -4.04773,6.25248 -0.44573,0.43296 0.43889,2.20629 0,2.64741 -2.3977,2.40993 -12.86082,18.60834 -15.8752,21.63681 M 305.32712,240.15469 c -1.28172,2.15298 0.56714,4.69579 0,6.93775 -0.93017,3.67707 -3.90346,6.7173 -5.44805,9.80648 -0.32486,0.64972 0.32486,1.5295 0,2.17922 -0.45942,0.91885 -1.71979,1.26038 -2.17921,2.17922 -3.22192,6.44382 3.92706,-2.33046 -1.08962,4.35844 -0.61637,0.82184 -1.7198,1.26038 -2.17922,2.17922 -0.32485,0.64971 0.26979,1.50477 0,2.17921 -0.78788,1.96971 -2.73582,3.32231 -3.26883,5.44806 -0.86604,3.45406 -1.32945,6.41169 -2.16219,9.74263 0.65674,1.97214 -1.7651,2.02649 -2.17922,3.26884 -1.00582,3.01746 -1.13707,6.52583 -2.1622,9.58516 -1.11189,3.31828 -3.50535,6.39413 -4.35843,9.80648 -1.35475,5.419 -2.98133,10.8357 -4.35844,16.34414 -0.57685,2.30741 -2.69197,4.23025 -3.26883,6.53766 -2.03492,8.13969 -9.15544,24.09926 -13.80739,28.75122 -0.75214,0.75215 -6.28643,22.42414 -7.4377,23.39424 M 178.8175,253.22574 c 8.04421,1.09987 16.09672,2.89034 24.21402,3.40078 11.65008,0.7326 23.95751,0.67327 35.36123,3.52421 1.5758,0.39394 2.78264,1.78526 4.35845,2.17921 12.56201,3.14051 25.41577,10.52868 37.04672,16.34415 2.82426,1.41213 5.84864,1.46216 8.71686,2.17922 1.5758,0.39395 2.78264,1.78526 4.35844,2.17922 4.87451,1.21863 10.29999,1.66697 15.06726,3.25605 1.50708,0.50236 5.12275,3.65099 6.53765,4.35844 3.03935,1.51967 13.23765,2.85032 16.2718,4.35844 1.79205,0.89075 6.30303,3.12412 7.23993,3.12412 m -160.38966,5.99285 c 9.16049,2.70487 17.40017,6.68785 26.11232,10.46195 11.7972,5.11054 24.50364,8.26392 35.79964,14.53947 10.99801,6.11002 20.64777,13.33403 32.68828,16.34415 3.35688,0.83923 6.53088,3.42255 9.80648,4.35844 6.35606,1.81602 0.60534,-1.21068 5.44805,0 2.24302,0.56076 4.29465,1.61847 6.53766,2.17921 1.40943,0.35236 2.94999,-0.35628 4.35844,0 4.89409,1.23804 10.69698,4.95007 14.45009,4.95007"
       id="tag-hash" />
  </symbol>
  <symbol id="icon-series" viewBox="0 0 64 64">
      <path
         style="opacity:1;fill:#595c2f;fill-opacity:1;stroke:none;stroke-width:0.377953;stroke-linecap:round;stroke-linejoin:round;stroke-miterlimit:4;stroke-dasharray:none;stroke-opacity:0.979103"
         d="m 44.280998,48.294467 5.922074,2.88397 c 1.506995,0.733886 6.334896,-2.170549 7.858433,-3.699252 0,0 1.039276,-24.423715 0.344946,-25.378335 -0.69433,-0.95462 -15.872585,-9.666082 -16.86173,-9.53955 -0.838421,0.107251 -0.284977,2.519694 -0.284977,2.519694 l -4.861463,1.788665 c 0,0 -1.974296,-1.659131 -2.554387,-1.573074 -1.885736,0.27975 -0.398473,2.829452 -0.398473,2.829452 -3.619953,16.115051 1.383431,25.005357 10.835577,30.16843 z"
         id="book3_overall" />
      <path
         style="opacity:1;fill:#aac046;fill-opacity:1;stroke:none;stroke-width:0.377953;stroke-linecap:butt;stroke-linejoin:miter;stroke-miterlimit:4;stroke-dasharray:none;stroke-opacity:1"
         d="M 36.398281,16.869659 33.742362,15.150047 32.96282,16.2956 c 5.446338,3.437727 10.825519,6.926779 16.865073,9.911152 l 0.08531,24.752374 1.057591,0.09714 L 50.804,26.177261 C 53.706851,25.775623 56.376348,24.62445 58.622289,22.37133 53.021267,18.502075 47.348906,15.349816 41.385505,12.342487 l -0.125758,2.738507 z"
         id="book3_highlight" />
      <path
         style="opacity:1;fill:#62302f;fill-opacity:1;stroke:none;stroke-width:0.377953;stroke-linecap:round;stroke-linejoin:round;stroke-miterlimit:4;stroke-dasharray:none;stroke-opacity:0.979103"
         d="m 18.327752,20.716604 c 0,0 -0.682036,-3.088495 0.382613,-3.183815 0.449554,-0.04025 1.539703,1.631417 2.549431,1.636017 0.503242,0.0023 4.317702,-0.597473 5.154552,-1.724332 0.413078,-0.556232 -0.529275,-2.860591 0.408378,-2.854691 0.563033,0.0036 6.622695,3.536254 6.622695,3.536254 0,0 10.11794,5.469547 11.025396,6.660785 0.46382,0.608867 -0.189819,23.507645 -0.189819,23.507645 M 18.327752,20.716604 c 0,0 -0.645211,26.547335 0.549673,28.437672 0.735447,1.163496 11.709802,3.448551 11.709802,3.448551 l 5.12959,2.401739 c 0.947598,0.443678 6.426411,-1.406512 8.534571,-4.070467 l 0.02961,-2.639632"
         id="book2_overall" />
      <path
         style="fill:#ad4644;fill-opacity:1;stroke:none;stroke-width:0.377953;stroke-linecap:butt;stroke-linejoin:miter;stroke-miterlimit:4;stroke-dasharray:none;stroke-opacity:1"
         d="m 21.259796,19.168806 -2.612787,-1.564988 -0.462418,1.229091 c 5.723021,3.486185 11.213043,7.218421 17.466801,10.144131 l -0.156284,25.974571 1.12454,-0.0064 0.165519,-25.952038 c 2.302709,-0.408272 4.866536,-1.268373 7.718236,-3.089648 l 0.04547,-1.142139 c 0,0 -12.547422,-7.809367 -17.712201,-10.25187 -0.725452,0.712443 -0.422325,2.93492 -0.422325,2.93492 -1.578849,1.319693 -3.006086,1.589362 -5.154552,1.724332 z"
         id="book2_highlight" />
      <path
         style="fill:#485150;fill-opacity:1;stroke:none;stroke-width:0.377953;stroke-linecap:round;stroke-linejoin:round;stroke-miterlimit:4;stroke-dasharray:none;stroke-opacity:0.979103"
         d="m 18.327752,20.716604 c 0,0 -4.696622,-2.842178 -5.053265,-2.699106 -0.757068,0.303708 0.0066,1.978835 -0.233929,2.435936 -0.497974,0.946345 -4.6533725,2.388128 -5.6633645,1.866972 -0.7151551,-0.36902 -2.3348695,-2.218493 -2.6882033,-1.289584 -0.2469997,0.649359 0.6581734,26.233763 0.6581734,26.233763 0.044195,1.761529 14.9033724,10.924749 16.8116724,11.347544 1.223384,0.271048 8.355793,-3.023823 8.385021,-4.22584 l 0.04337,-1.783462 m 0,0 c 0,0 0.965159,-23.116562 0.229712,-24.280058 -1.194884,-1.890337 -12.489187,-7.606165 -12.489187,-7.606165"
         id="book1_overall" />
      <path
         style="fill:#7e9a98;fill-opacity:1;stroke:none;stroke-width:0.245669;stroke-linecap:butt;stroke-linejoin:miter;stroke-miterlimit:4;stroke-dasharray:none;stroke-opacity:1"
         d="M 4.8177738,21.83838 C 9.999088,25.910308 18.638341,31.357903 21.710059,32.237365 l -0.121549,26.265915 1.388276,0.07479 -0.05863,-26.257864 c 2.274135,-0.129724 4.720695,-0.74902 7.958504,-3.168401 C 31.297559,26.544388 14.684627,19.071418 13.226907,17.809341 l -0.186349,2.644093 c -0.694711,1.542939 -2.229375,2.437744 -5.6633645,1.866972 L 5.0907104,20.678472 Z"
         id="book1_highlight" />
      <path
         style="fill:#dfd6c7;fill-opacity:1;stroke:#000000;stroke-width:0.377953;stroke-linecap:round;stroke-linejoin:round;stroke-miterlimit:4;stroke-dasharray:none;stroke-opacity:0.977052"
         d="m 13.040558,20.453434 c -0.497974,0.946345 -4.6533725,2.388128 -5.6633645,1.866972 0,0 11.4080805,7.974033 13.9495095,8.528252 2.071438,0.451727 7.76832,-1.665735 7.243873,-2.129151 -3.798223,-3.356222 -14.014435,-8.554519 -15.530018,-8.266073 z m 13.37379,-3.00896 c -0.83685,1.126859 -4.65131,1.726625 -5.154552,1.724332 3.545364,2.991269 9.928544,7.015744 14.132391,8.59355 0.949879,0.356513 8.123577,-1.728529 7.182168,-2.39988 C 34.966392,19.936971 26.691767,15.56412 26.414348,17.444474 Z m 14.845396,-2.36348 -4.861463,1.788665 c 0,0 8.630018,6.399497 13.424903,8.340416 1.531048,0.619752 7.248578,-1.977736 6.552246,-2.468646 -7.868373,-5.547157 -15.010368,-8.874314 -15.115686,-7.660435 z"
         id="pages_outline" />
      <path
         style="fill:none;stroke:#000000;stroke-width:1.13386;stroke-linecap:round;stroke-linejoin:round;stroke-miterlimit:4;stroke-dasharray:none;stroke-opacity:0.979103"
         d="m 4.6889902,21.030822 c -0.2469997,0.649359 0.6581734,26.233763 0.6581734,26.233763 0.044195,1.761529 14.9033724,10.924749 16.8116724,11.347544 1.223384,0.271048 8.355793,-3.023823 8.385021,-4.22584 l 0.04337,-1.783462 5.12959,2.401739 c 0.947598,0.443678 6.426411,-1.406512 8.534571,-4.070467 l 0.02961,-2.639632 5.922074,2.88397 c 1.506995,0.733886 6.334896,-2.170549 7.858433,-3.699252 0,0 1.039276,-24.423715 0.344946,-25.378335 -0.69433,-0.95462 -15.872585,-9.666082 -16.86173,-9.53955 -0.838421,0.107251 -0.284977,2.519694 -0.284977,2.519694 l -4.861463,1.788665 c 0,0 -1.974296,-1.659131 -2.554387,-1.573074 -1.885736,0.27975 -0.398473,2.829452 -0.398473,2.829452 0,0 -6.059662,-3.532692 -6.622695,-3.536254 -0.937653,-0.0059 0.0047,2.298459 -0.408378,2.854691 -0.83685,1.126859 -4.65131,1.726625 -5.154552,1.724332 -1.009728,-0.0046 -2.099877,-1.676268 -2.549431,-1.636017 -1.064649,0.09532 -0.382613,3.183815 -0.382613,3.183815 0,0 -4.696622,-2.842178 -5.053265,-2.699106 -0.757068,0.303708 0.0066,1.978835 -0.233929,2.435936 -0.497974,0.946345 -4.6533725,2.388128 -5.6633645,1.866972 C 6.6620384,21.951386 5.042324,20.101913 4.6889902,21.030822 Z M 30.587227,52.602827 c 0,0 0.965159,-23.116562 0.229712,-24.280058 -1.194884,-1.890337 -12.489187,-7.606165 -12.489187,-7.606165 m 15.117669,-2.590567 c 0,0 10.11794,5.469547 11.025396,6.660785 0.46382,0.608867 -0.189819,23.507645 -0.189819,23.507645"
         id="path96332" />
  </symbol>
  <symbol id="icon-misc" viewBox="0 0 512 512">
    <path
       style="fill:#b2bdc9;fill-opacity:1;stroke:none;stroke-width:10;stroke-linecap:round;stroke-linejoin:round;stroke-miterlimit:4;stroke-dasharray:none;stroke-opacity:1"
       d="m 86.085547,239.35332 c 47.293503,43.52992 108.062343,-43.89875 95.348483,-55.2861 -88.438357,-67.87131 149.91501,-107.964315 131.40465,7.21123 -9.54676,44.56953 -130.45227,49.93147 -159.59713,130.11969 -2.91223,31.12181 31.20558,35.51304 52.00195,50.28764 0,0 -87.70835,-18.54523 -91.04363,0.71589 -8.52232,49.21596 -23.62262,53.35849 1.92985,89.03232 10.06637,14.05364 109.14737,26.82796 145.75108,26.68421 43.69855,-0.1716 122.5892,-1.40265 138.99768,-16.15331 21.50731,-19.33435 15.37369,-75.48845 -4.41452,-104.96375 -8.36379,-12.45817 -107.784,33.54094 -87.41121,2.77988 C 422,294 263,329 280,301 601,130 345.72557,25.42015 236.72013,25.42015 c -277.655325,0 -150.634583,213.93317 -150.634583,213.93317 z"
       id="base" />
    <path
       style="fill:#5881ae;fill-opacity:1;stroke:none;stroke-width:1;stroke-linecap:round;stroke-linejoin:round;stroke-miterlimit:4;stroke-dasharray:none;stroke-opacity:1"
       d="m 57.282092,132.38674 c -2.95173,53.48329 28.803455,106.96658 28.803455,106.96658 47.293503,43.52992 108.062343,-43.89875 95.348483,-55.2861 0,0 -54.29699,26.02021 -64.43403,16.93278 C 96.728685,198.97812 91,173 91,173 Z M 228,351 153.24155,321.39814 c -2.91223,31.12181 31.20558,35.51304 52.00195,50.28764 L 255,389 309.05275,369.78102 c 56.47363,-37.89051 44.96044,-48.08577 21.45384,-52.30839 C 307,313.25 277.5,358 286,344 Z m -113.80013,21.40167 c -8.52232,49.21596 -23.62262,53.35849 1.92985,89.03232 10.06637,14.05364 109.14737,26.82796 145.75108,26.68421 43.69855,-0.1716 122.5892,-1.40265 138.99768,-16.15331 21.50731,-19.33435 15.37369,-75.48845 -4.41452,-104.96375 L 376,456 274,440 212,459 143,446 Z"
       id="shadow" />
    <path
       style="fill:#dfefff;fill-opacity:1;stroke:none;stroke-width:10;stroke-linecap:round;stroke-linejoin:round;stroke-miterlimit:4;stroke-dasharray:none;stroke-opacity:1"
       d="m 309.05275,369.78102 c -20.37279,30.76106 79.04742,-15.23805 87.41121,-2.77988 19.78821,29.4753 25.92184,85.62941 4.41452,104.96375 C 396.77636,475.65255 445,430 370.48196,400.70902 L 356,418 250.20249,405.12983 158,406 c -60,-4 -36.8371,62.46081 -41.87028,55.43399 -25.552506,-35.6738 -10.45217,-39.81636 -1.92985,-89.03232 3.33528,-19.26112 91.04363,-0.71589 91.04363,-0.71589 L 254,386 Z M 195,314 239,290 326,208 312.83868,191.27845 C 303.29192,235.84798 175,247 153.24155,321.39814 148.84699,347.47823 177,354 177,354 Z M 423.98829,185.80002 C 443.49372,151.94879 438.27175,122.84506 419.6121,99.085075 382.29282,51.565113 291.22285,25.42015 236.72013,25.42015 97.892468,25.42015 60.233822,78.903442 57.282092,132.38674 L 64,181 C 63,105 115,89 115,89 L 217,62 339,90 c 0,0 83.08794,45.79155 84.98829,95.80002 z"
       id="highlight" />
    <path
       style="fill:none;fill-opacity:1;stroke:#000000;stroke-width:10;stroke-linecap:round;stroke-linejoin:round;stroke-miterlimit:4;stroke-dasharray:none;stroke-opacity:1"
       d="m 86.085547,239.35332 c 47.293503,43.52992 108.062343,-43.89875 95.348483,-55.2861 -88.438357,-67.87131 149.91501,-107.964315 131.40465,7.21123 -9.54676,44.56953 -130.45227,49.93147 -159.59713,130.11969 -2.91223,31.12181 31.20558,35.51304 52.00195,50.28764 0,0 -87.70835,-18.54523 -91.04363,0.71589 -8.52232,49.21596 -23.62262,53.35849 1.92985,89.03232 10.06637,14.05364 109.14737,26.82796 145.75108,26.68421 43.69855,-0.1716 122.5892,-1.40265 138.99768,-16.15331 21.50731,-19.33435 15.37369,-75.48845 -4.41452,-104.96375 -8.36379,-12.45817 -107.784,33.54094 -87.41121,2.77988 C 422,294 263,329 280,301 601,130 345.72557,25.42015 236.72013,25.42015 c -277.655325,0 -150.634583,213.93317 -150.634583,213.93317 z"
       id="outline" />
  </symbol>
  <symbol id="icon-menu-close" viewBox="0 0 64 64">
    <rect
       style="opacity:1;fill:#ffffff;fill-opacity:1;fill-rule:evenodd;stroke:none;stroke-width:0.113386;stroke-linecap:round;stroke-linejoin:round;stroke-miterlimit:4;stroke-dasharray:none;stroke-opacity:1"
       id="cross_bg"
       width="40.223633"
       height="38.197266"
       x="11.908203"
       y="14.123535" />
    <path
       style="opacity:1;fill:#b6bdb6;fill-opacity:0.992219;stroke:none;stroke-width:0.113386;stroke-linecap:butt;stroke-linejoin:miter;stroke-miterlimit:4;stroke-dasharray:none;stroke-opacity:1"
       d="m 16.761849,26.45988 c 1.478261,-2.385277 3.607695,-5.385388 4.789371,-5.798327 5.534802,3.304723 9.293551,8.176354 10.97362,8.500387 2.345053,-0.108586 3.297818,-3.12622 10.824983,-7.868807 1.224144,0.524633 4.356579,4.00993 4.903482,5.616285 0,0 -8.271388,6.734433 -8.37704,7.745202 0.02175,1.312015 8.857479,11.447326 8.857479,11.447326 3.928711,-2.672852 1.481222,-22.485369 1.481222,-22.485369 l -7.139405,-7.312622 -24.505859,0.563477 -3.924194,8.877685 z m 8.234099,9.540763 c -0.28778,0.856953 -6.041135,5.325398 -9.507616,9.216212 l -0.220281,-3.819516 8.473197,-8.265519 c 0,0 1.406963,2.103193 1.2547,2.868823 z"
       id="cross_shadow" />
    <path
       id="shield_bg"
       style="opacity:1;fill:#ad3a32;fill-opacity:1;stroke:none;stroke-width:0.188976;stroke-linecap:round;stroke-linejoin:round;stroke-miterlimit:4;stroke-dasharray:none;stroke-opacity:1"
       d="m 16.166226,44.186448 c 3.656291,-4.718677 8.725628,-9.641497 8.755127,-10.734375 -0.03925,-1.111004 -5.419903,-5.867717 -8.73999,-9.070068 -0.06854,-0.806544 4.275572,-7.237295 5.464844,-7.325684 4.811986,3.85059 9.564941,8.507752 11.297607,8.753174 1.408691,-0.290954 5.67873,-4.858332 10.146484,-8.520752 0.974862,-0.03349 6.003255,5.806435 6.255127,6.596924 -2.999162,2.830326 -9.389526,8.028991 -9.534912,8.676513 0.08368,0.615112 7.259337,7.619476 9.796143,10.080323 -9.93e-4,0.570942 -5.417253,6.920192 -6.004639,6.772461 -3.027128,-2.702146 -9.766128,-9.062328 -10.918457,-9.361329 -1.232042,0.380312 -5.200611,4.676206 -10.641846,10.087403 -0.611813,0 -6.046222,-5.548556 -5.875488,-5.95459 z M 7.5623827,59.299604 C 18.8262,61.671761 19.45614,60.846055 29.901502,59.008199 c 4.826315,-1.586329 16.536562,-1.614986 19.40504,0.395331 3.291748,-0.8125 6.120218,0.656371 6.920877,0.434691 1.143066,-0.569824 3.533827,-3.771768 3.976698,-5.14396 0.918669,-2.582597 -0.849324,-12.741506 -0.80158,-22.72694 0.04774,-9.985435 1.911225,-19.797394 1.671092,-20.657195 C 60.809154,9.6654467 55.193801,6.6764542 53.345242,6.7612172 41.133572,8.1957875 34.36319,7.6425594 20.449128,6.03941 19.432038,6.2630428 11.588446,7.4462408 8.4528263,6.6194586 7.428046,6.937818 3.6694874,11.775564 3.5081715,12.549246 c 0.6594238,3.17627 1.0766773,32.370371 0.1425953,38.861094 0,0.546875 2.786738,7.286115 3.9116159,7.889264 z" />
    <path
       style="fill:#672425;fill-opacity:1;stroke:none;stroke-width:0.188976;stroke-linecap:round;stroke-linejoin:round;stroke-miterlimit:4;stroke-dasharray:none;stroke-opacity:1"
       d="M 8.4528263,6.6194586 C 7.428046,6.937818 3.6694874,11.775564 3.5081715,12.549246 c 0.6594238,3.17627 1.0766773,32.370371 0.1425953,38.861094 0,0.546875 2.786738,7.286115 3.9116159,7.889264 m 0,0 2.6818623,-5.042965 C 10.538758,48.575443 6.0961659,19.443654 10.715843,15.152999 21.237509,7.4128038 32.573523,16.725423 8.4528263,6.6194586"
       id="shield_left" />
    <path
       style="fill:#6b2227;stroke:none;stroke-width:0.188976;stroke-linecap:round;stroke-linejoin:round;stroke-miterlimit:4;stroke-dasharray:none;stroke-opacity:1;fill-opacity:1"
       d="m 49.306542,59.40353 c 3.291748,-0.8125 6.120218,0.656371 6.920877,0.434691 1.143066,-0.569824 3.533827,-3.771768 3.976698,-5.14396 0.918669,-2.582597 -0.849324,-12.741506 -0.80158,-22.72694 0.04774,-9.985435 1.911225,-19.797394 1.671092,-20.657195 C 60.809154,9.6654467 55.193801,6.6764542 53.345242,6.7612172 L 57.7854,12.144775 c -3.978857,10.450196 -3.312974,33.122834 -2.355203,36.568253 3.224448,4.489507 -2.85035,5.230454 -2.85035,5.230454 l -2.2962,3.681232 z"
       id="path75408" />
    <path
       id="shield_top"
       style="opacity:1;fill:#b34841;fill-opacity:1;stroke:none;stroke-width:0.188976;stroke-linecap:round;stroke-linejoin:round;stroke-miterlimit:4;stroke-dasharray:none;stroke-opacity:1"
       d="m 59.496052,9.355993 c 0,0 -5.226531,-2.6371573 -6.15081,-2.5947758 C 41.133572,8.1957875 34.36319,7.6425594 20.449128,6.03941 19.432038,6.2630428 11.588446,7.4462408 8.4528263,6.6194586 7.9404361,6.7786383 3.9802991,11.563498 3.9802991,11.563498 m 0,0 c 0,0 3.2797664,3.054424 4.5082263,3.128397 0.8559168,-0.017 3.4961356,-2.157973 4.6166996,-2.423829 1.384348,-0.483805 4.009503,-0.548996 5.189453,-0.435058 9.083629,0.351482 16.298058,2.638723 17.654785,2.609375 1.452193,0.309704 10.6207,-0.793224 14.745605,-0.629395 2.231461,0.255843 6.498026,-0.930032 7.090332,-1.668213 0.414148,-0.288816 1.594513,-1.823761 1.710652,-2.788782" />
    <path
       style="fill:#563947;fill-opacity:1;stroke:none;stroke-width:0.188976;stroke-linecap:round;stroke-linejoin:round;stroke-miterlimit:4;stroke-dasharray:none;stroke-opacity:1"
       d="m 4.5896779,53.947622 c 0,0 2.4102658,5.050407 2.9727048,5.351982 11.2638173,2.372157 11.8937573,1.546451 22.3391193,-0.291405 4.826315,-1.586329 16.536562,-1.614986 19.40504,0.395331 3.291748,-0.8125 6.120218,0.656371 6.920877,0.434691 1.143066,-0.569824 3.533827,-3.771768 3.976698,-5.14396 0.459334,-1.291299 -0.02776,-4.77018 -0.02776,-4.77018 l -0.09219,-0.205063 c -0.960457,2.10058 -2.814668,3.432452 -7.50432,4.224464 -4.507324,-0.323853 -15.645145,0.230647 -22.435794,1.761897 -13.16139,2.211261 -15.131189,4.337579 -19.899808,-1.44874 -1.3089934,0.404653 -2.2595559,2.492048 -5.6545661,-0.309017"
       id="shield_bottom" />
    <path
       style="fill:none;stroke:#000000;stroke-width:1.13386;stroke-linecap:round;stroke-linejoin:round;stroke-miterlimit:4;stroke-dasharray:none;stroke-opacity:1"
       d="M 7.5623827,59.299604 C 18.8262,61.671761 19.45614,60.846055 29.901502,59.008199 c 4.826315,-1.586329 16.536562,-1.614986 19.40504,0.395331 3.291748,-0.8125 6.120218,0.656371 6.920877,0.434691 1.143066,-0.569824 3.533827,-3.771768 3.976698,-5.14396 0.918669,-2.582597 -0.849324,-12.741506 -0.80158,-22.72694 0.04774,-9.985435 1.911225,-19.797394 1.671092,-20.657195 C 60.809154,9.6654467 55.193801,6.6764542 53.345242,6.7612172 41.133572,8.1957875 34.36319,7.6425594 20.449128,6.03941 19.432038,6.2630428 11.588446,7.4462408 8.4528263,6.6194586 7.428046,6.937818 3.6694874,11.775564 3.5081715,12.549246 c 0.6594238,3.17627 1.0766773,32.370371 0.1425953,38.861094 0,0.546875 2.786738,7.286115 3.9116159,7.889264 z"
       id="outline" />
  </symbol>
  <symbol id="icon-sitemap" viewBox="0 0 512 512">
    <path
       style="fill:#ffe29c;fill-opacity:1;stroke:none;stroke-width:5;stroke-linecap:butt;stroke-linejoin:round;stroke-miterlimit:4;stroke-dasharray:none;stroke-opacity:1"
       d="M 239.4572,27.701127 19.951211,211.65639 C 96.519633,206.93013 113.3033,199.44211 232.78939,222.74543 216.21805,163.11444 239.80643,64.361902 239.4572,27.701127 Z M 19.951211,211.65639 c 3.072633,82.84549 19.471847,101.55825 18.920672,115.62631 -0.251125,27.71207 12.756324,24.95015 10.980884,95.34883 -5.207541,43.45449 -23.56463,21.22361 -25.500526,53.10652 5.963979,6.6308 41.332821,12.39555 73.580382,15.76723 107.024417,-3.24872 194.893227,-22.03547 262.787097,-15.76723 84.70013,11.66539 116.90428,12.31614 126.13781,10.51151 -10.57345,-92.10404 0.98927,-172.91268 -10.51147,-220.74118 -12.22595,-18.57961 -21.22511,-63.13613 -21.02297,-73.58039 -4.17189,-25.26458 -8.83887,-73.00226 0,-94.603349 C 472.10223,61.644976 481.0683,37.752164 481.60177,29 475.97122,27.314163 417.88442,44.23376 371.2312,44.767225 251.26838,46.651566 239.4572,27.701127 239.4572,27.701127"
       id="sitemap-bg" />
    <path
       style="fill:#d1b778;fill-opacity:1;stroke:none;stroke-width:5;stroke-linecap:butt;stroke-linejoin:round;stroke-miterlimit:4;stroke-dasharray:none;stroke-opacity:1"
       d="m 24.352241,475.73805 c 5.963979,6.6308 41.332821,12.39555 73.580382,15.76723 107.024417,-3.24872 194.893227,-22.03547 262.787097,-15.76723 84.70013,11.66539 116.90428,12.31614 126.13781,10.51151 -10.57345,-92.10404 0.98927,-172.91268 -10.51147,-220.74118 -12.22595,-18.57961 -21.22511,-63.13613 -21.02297,-73.58039 -4.17189,-25.26458 -8.83887,-73.00226 0,-94.603349 C 472.10223,61.644976 481.0683,37.752164 481.60177,29 384.96927,48.825564 266.26791,428.51015 308.87934,385.79529"
       id="sitemap-shadow" />
    <path
       style="fill:#7e6606;fill-opacity:1;stroke:none;stroke-width:5;stroke-linecap:butt;stroke-linejoin:round;stroke-miterlimit:4;stroke-dasharray:none;stroke-opacity:1"
       d="M 239.4572,27.701127 19.951211,211.65639 C 96.519633,206.93013 113.3033,199.44211 232.78939,222.74543 216.21805,163.11444 239.80643,64.361902 239.4572,27.701127 Z"
       id="sitemap-corner" />
    <path
       style="fill:none;stroke:#554400;stroke-width:25;stroke-linecap:round;stroke-linejoin:round;stroke-miterlimit:4;stroke-dasharray:30,30;stroke-dashoffset:0;stroke-opacity:1"
       d="m 80.609509,461.88524 c -0.908664,-0.53643 -2.109136,-0.75318 -2.725991,-1.60927 -3.665653,-5.08737 11.853088,-38.76208 14.118253,-45.6115 0.570978,-1.72655 2.740423,-3.4079 3.244007,-5.42226 1.23507,-4.94028 3.296999,-9.68224 5.337342,-13.92718 1.20206,-2.50092 0.8201,-5.99672 2.15702,-8.67051 0.43415,-0.8683 1.63901,-1.18428 2.05935,-2.05935 0.0688,-0.14336 -0.0695,-2.00123 0,-2.14003 1.99998,-3.99996 2.98101,-5.72877 4.32252,-9.75328 0.80953,-2.42859 2.94178,-2.65567 4.22486,-5.22694 0.3185,-0.63828 -0.31751,-1.50124 0,-2.14003 2.13601,-4.29736 -0.004,0.99063 2.14852,-1.08699 0.7135,-0.68849 0.21369,-2.18374 0.9851,-2.80667 3.04991,-2.46289 8.75613,-7.59448 11.60456,-10.6874 0.33629,-0.36517 0.69492,-2.78506 1.06577,-3.12513 2.44191,-2.23922 5.35015,-5.92868 8.60257,-7.54531 1.85766,-0.92334 0.44826,-2.08478 2.16126,-3.23127 0.94886,-0.63506 2.44092,-0.27964 3.24826,-1.087 3.75087,-3.75086 6.27498,-8.27809 12.01644,-11.12051 2.86459,-1.41817 4.7705,-5.1058 7.5538,-6.48378 2.97175,-1.47127 4.81865,-5.70945 7.57077,-7.5538 0.50793,-0.34038 1.34125,0.36158 1.83431,0 0.18167,-0.13322 0.64412,-1.56743 0.68788,-1.59652 2.24054,-1.48973 5.68058,-2.82699 7.07823,-3.98709 0.55433,-0.46011 1.51689,0.32219 2.16126,0 0.75036,-0.37518 2.10828,-2.0685 2.16126,-2.09332 0.64855,-0.30377 1.49996,0.30378 2.14851,0 0.30378,-0.14227 -0.30366,-0.8638 0,-1.00632 0.95072,-0.44617 2.43263,0.76644 3.15061,0 2.24357,-2.39504 1.78441,-0.87264 4.2843,-2.11031 0.10174,-0.0505 2.08848,-2.10041 2.17399,-2.15701 0.89097,-0.58965 2.31755,-0.24565 3.03172,-1.04029 0.22423,-0.24949 -0.30409,-0.86473 0,-1.00632 0.65309,-0.3041 1.46296,0.17717 2.16126,0 2.69463,-0.68367 3.29574,-3.20452 6.44981,-4.28006 0.48946,-0.16691 2.56434,0.37037 2.8831,0 1.56529,-1.81873 5.10927,-2.44212 8.22467,-3.99982 0.85858,-0.42928 2.35921,0.42797 3.21853,0 2.81259,-1.40076 5.47254,-2.16955 8.696,-3.24826 1.51917,-0.50837 3.51628,0.39059 5.07408,0 3.08041,-0.77237 4.63247,-2.52141 7.57927,-3.26099 1.40162,-0.35178 3.04122,0.6432 4.33526,0 0.32065,-0.1594 -0.32103,-0.91563 0,-1.07426 2.17717,-1.07584 5.38874,-1.06397 7.58352,-2.15702 0.82088,-0.40882 2.27308,0.42105 3.08691,0 6.59323,-3.41123 15.68794,-3.11573 22.35141,-6.45406 3.44967,-1.72826 9.25728,0.75212 12.73828,-1.00208 2.42123,-1.22015 4.8388,-1.48144 7.60899,-2.17399 5.18799,-1.297 -0.0152,-0.52622 3.261,-2.174 1.56762,-0.78844 3.72758,-0.67025 5.40951,-1.087 1.94294,0.63784 2.00271,-1.74749 3.23128,-2.15702 2.15085,-0.71694 4.47968,-0.072 6.49227,-1.07426 0.32054,-0.15964 -0.25395,-0.8218 0,-1.07426 0.57458,-0.57122 1.44934,-0.72467 2.17401,-1.08699 2.35395,-1.17699 4.25178,-1.41727 6.52199,-2.17401 0.97223,-0.32407 1.25736,-1.71567 2.174,-2.17399 10.49812,-5.24905 -2.02716,1.40038 5.43499,-1.087 6.79846,-2.26616 13.30159,-4.67035 20.64025,-6.50501 2.97002,-0.7425 6.90604,-0.13278 9.75751,-1.08701 4.34229,-1.4531 8.40742,-3.18885 13.04399,-4.34799 6.71127,-1.67782 18.30495,-4.00394 23.70168,-7.53256 3.05755,-1.99916 4.50947,-0.81859 7.36696,-2.02115 0.27396,-0.11528 -0.2287,-0.70184 0,-0.89167 1.03269,-0.85718 4.4746,-2.20289 5.88934,-2.87037 0.49793,-0.23491 1.32138,0.44047 1.65171,0 2.08585,-2.78111 4.05441,-4.50298 6.74281,-5.86384 2.26117,0.36015 0.48237,-1.40673 1.04029,-1.83432 0.5253,-0.40258 2.63627,-0.65394 3.12087,-1.08699 1.51347,-1.35246 4.43573,-4.05704 5.63881,-6.4583 0.71144,-1.41997 2.75304,-1.8212 3.44783,-2.57313 0.53955,-0.58394 0.43319,-2.57541 1.08699,-2.12305 0.88988,0.61571 0.32271,2.14003 0.48406,3.21004 M 243.65938,114.04551 c 0.70769,1.77627 1.17277,3.66964 2.12305,5.32884 1.01865,1.77862 3.11819,2.70827 4.34799,4.348 2.27807,3.03742 3.84481,7.10581 6.52199,9.78299 3.77197,3.77196 4.74812,3.39981 6.50927,8.68326 0.42791,1.28374 2.6386,2.03685 3.24825,3.26099 1.52188,3.05577 3.58165,7.79657 4.348,10.85301 0.35042,1.39758 -0.64739,3.03532 0,4.32252 0.84696,1.68401 1.66404,3.39515 2.174,5.435 0.92437,3.69751 -0.94329,8.10351 0,11.79564 1.88976,7.39661 2.31832,32.55926 1.08701,39.94722 -0.43114,2.5868 -4.38259,17.41691 -5.42226,19.44284 -0.46655,0.90911 -1.83813,1.2046 -2.16127,2.174 -0.22915,0.68748 0.40034,1.56996 0,2.174 -0.44548,0.67217 -1.59104,0.51679 -2.16126,1.087 -1.84268,1.84269 -3.68647,5.65213 -6.36064,7.43491 -0.67412,0.44942 -1.6011,0.5141 -2.174,1.087 -3.42559,3.42559 -12.55878,16.10642 -16.30499,17.39199 -0.54501,0.18703 -8.72152,2.33114 -9.03143,2.64105 -1.42623,1.42626 2.40177,0.90367 -1.07426,2.09333 -1.94298,0.66498 -3.31528,1.07763 -5.09956,2.0084 -5.05344,2.63613 1.397,-0.30392 -1.07001,2.07209 -0.51712,0.49806 -3.40355,1.62257 -4.16542,2.14428 -1.4109,0.96616 -2.86786,3.54724 -4.30129,4.98067 m 61.57681,-7.43916 c 6.63591,5.80469 14.9627,8.4658 22.66987,12.8699 2.53633,1.44934 4.99618,3.04158 7.609,4.348 2.04967,1.02483 4.55696,0.99499 6.522,2.174 1.84539,1.10724 3.45777,3.35938 5.43499,4.34799 2.67722,1.33862 -0.98128,-3.15527 3.261,1.087 8.47536,8.47537 14.65077,18.95133 18.47899,30.43598 1.9016,5.70482 4.89894,8.72583 6.52199,15.21799 0.92391,3.69567 3.71134,7.05009 4.34799,10.86999 0.52755,3.16529 0.39343,6.66195 1.08701,9.78299 1.04112,4.68506 3.5534,9.3634 4.34799,14.13098 0.50346,3.02084 0.58352,5.67518 1.08699,8.696 0.79521,4.77123 3.6678,9.36952 4.348,14.13099 0.62585,4.38096 1.10059,8.75033 2.174,13.04399 0.96849,3.87394 4.46432,6.98729 5.435,10.86999 0.79393,3.17574 1.79689,8.30888 4.348,10.86999 0.56909,0.57134 1.59104,0.51679 2.16125,1.087 0.50641,0.50641 -0.5064,1.64212 0,2.14853 6.01789,6.01787 17.48893,11.95902 26.03279,14.10126 3.17089,0.79506 5.85294,-0.0372 9.08662,1.07002 2.50469,0.85758 5.90724,-0.64094 8.47096,0 6.18047,1.54511 12.20685,2.174 18.78046,2.174"
       id="sitemap-path" />
    <path
       style="fill:none;fill-opacity:1;stroke:#000000;stroke-width:25;stroke-linecap:round;stroke-linejoin:round;stroke-miterlimit:4;stroke-dasharray:none;stroke-opacity:1"
       d="M 239.4572,27.701127 19.951211,211.65639 C 96.519633,206.93013 113.3033,199.44211 232.78939,222.74543 216.21805,163.11444 239.80643,64.361902 239.4572,27.701127 Z M 19.951211,211.65639 c 3.072633,82.84549 19.471847,101.55825 18.920672,115.62631 -0.251125,27.71207 12.756324,24.95015 10.980884,95.34883 -5.207541,43.45449 -23.56463,21.22361 -25.500526,53.10652 5.963979,6.6308 41.332821,12.39555 73.580382,15.76723 107.024417,-3.24872 194.893227,-22.03547 262.787097,-15.76723 84.70013,11.66539 116.90428,12.31614 126.13781,10.51151 -10.57345,-92.10404 0.98927,-172.91268 -10.51147,-220.74118 -12.22595,-18.57961 -21.22511,-63.13613 -21.02297,-73.58039 -4.17189,-25.26458 -8.83887,-73.00226 0,-94.603349 C 472.10223,61.644976 481.0683,37.752164 481.60177,29 475.97122,27.314163 417.88442,44.23376 371.2312,44.767225 251.26838,46.651566 239.4572,27.701127 239.4572,27.701127"
       id="sitemap-outline" />
  </symbol>
  <symbol id="icon-privacy" viewBox="0 0 512 512">
    <path
       id="base"
       style="fill:#00db0e;fill-opacity:1;fill-rule:evenodd;stroke:none;stroke-width:2.74312;stroke-linejoin:round;stroke-miterlimit:4;stroke-dasharray:none;stroke-opacity:1"
       d="M 469.06016,254.09781 A 214.89082,214.89082 0 0 1 254.16936,468.98862 214.89082,214.89082 0 0 1 39.278551,254.09781 214.89082,214.89082 0 0 1 254.16936,39.206998 214.89082,214.89082 0 0 1 469.06016,254.09781 Z" />
    <path
       id="augapfel"
       style="fill:#ffffff;fill-opacity:1;fill-rule:evenodd;stroke:none;stroke-width:2.18058;stroke-linejoin:round;stroke-opacity:1"
       d="M 424.98248,276.95854 A 170.81311,170.81311 0 0 1 254.16936,447.77166 170.81311,170.81311 0 0 1 83.356235,276.95854 170.81311,170.81311 0 0 1 254.16936,106.14541 170.81311,170.81311 0 0 1 424.98248,276.95854 Z" />
    <path
       id="linse"
       style="fill:#1b5fff;fill-opacity:1;fill-rule:evenodd;stroke:#000000;stroke-width:10.2585;stroke-linejoin:round;stroke-miterlimit:4;stroke-dasharray:none;stroke-opacity:1"
       d="M 366.44091,276.95854 A 112.27156,112.27156 0 0 1 254.16936,389.2301 112.27156,112.27156 0 0 1 141.8978,276.95854 112.27156,112.27156 0 0 1 254.16936,164.68697 112.27156,112.27156 0 0 1 366.44091,276.95854 Z" />
    <path
       id="iris"
       style="fill:#000000;fill-opacity:1;fill-rule:evenodd;stroke:none;stroke-width:0.758778;stroke-linejoin:round;stroke-opacity:1"
       d="m 313.60725,276.95854 a 59.437883,59.437883 0 0 1 -59.43789,59.43788 59.437883,59.437883 0 0 1 -59.43788,-59.43788 59.437883,59.437883 0 0 1 59.43788,-59.4379 59.437883,59.437883 0 0 1 59.43789,59.4379 z" />
    <path
       id="unten"
       style="fill:#00db0e;fill-opacity:1;fill-rule:evenodd;stroke:#000000;stroke-width:10.2585;stroke-linecap:round;stroke-linejoin:round;stroke-miterlimit:4;stroke-dasharray:none;stroke-opacity:1"
       d="m 469.06016,254.09781 c 9.14429,114.30362 -96.20987,214.89081 -214.8908,214.89081 -118.68092,0 -224.035098,-100.58719 -214.890809,-214.89081 1.09382,-13.67275 36.577159,132.5922 214.890809,136.40274 169.17364,3.61521 213.79698,-150.07549 214.8908,-136.40274 z" />
    <path
       id="unten-shadow"
       style="fill:#1f7824;fill-opacity:1;fill-rule:evenodd;stroke:none;stroke-width:2.74329;stroke-linejoin:round;stroke-miterlimit:4;stroke-dasharray:none;stroke-opacity:1"
       d="m 469.06016,254.09781 c 9.1443,114.30362 -96.20987,214.89081 -214.8908,214.89081 -118.68092,0 -224.035095,-100.58719 -214.890809,-214.89081 0.546911,-6.83637 18.288579,68.58216 18.288579,68.58216 l 64.01003,82.29862 32.00502,18.28857 109.73147,22.86074 91.4429,-32.00502 59.43789,-36.57716 45.72145,-73.15432 c 0,0 8.87084,-53.71178 9.14427,-50.29359 z" />
    <path
       id="oben"
       style="fill:#00db0e;fill-opacity:1;fill-rule:evenodd;stroke:#000000;stroke-width:10.2585;stroke-linecap:round;stroke-linejoin:round;stroke-miterlimit:4;stroke-dasharray:none;stroke-opacity:1"
       d="M 469.06016,254.09781 C 444.13549,301.45472 372.85029,184.0548 254.16936,184.0548 135.48844,184.0548 58.329847,304.10747 39.278551,254.09781 2.7013919,158.08277 135.48844,39.206998 254.16936,39.206998 c 118.68093,0 260.61227,128.020062 214.8908,214.890812 z" />
    <path
       id="oben-shadow"
       style="fill:#1f7824;fill-opacity:1;fill-rule:evenodd;stroke:none;stroke-width:2.74329;stroke-linejoin:round;stroke-miterlimit:4;stroke-dasharray:none;stroke-opacity:1"
       d="m 469.06016,254.09781 c -3.11558,5.9196 0.66445,-60.01214 -64.01001,-114.30362 L 350.18441,112.36131 322.75155,84.928446 c 0,0 -32.86366,-8.384982 -92.20412,-8.384982 -59.34046,0 -108.97027,44.962146 -108.97027,44.962146 L 85,148.93848 57.56713,240.38137 c 0,0 -15.907166,19.96765 -18.288579,13.71644 C 2.7013851,158.08277 135.48844,39.206998 254.16936,39.206998 c 118.68093,0 260.61227,128.020062 214.8908,214.890812 z" />
    <path
       id="oben-highlight"
       style="fill:#7cf782;fill-opacity:1;fill-rule:evenodd;stroke:none;stroke-width:2.74329;stroke-linejoin:round;stroke-miterlimit:4;stroke-dasharray:none;stroke-opacity:1"
       d="m 469.06016,254.09781 c 0.78162,6.64363 0.66445,-60.01215 -64.01001,-114.30362 L 350.18441,112.36131 322.75155,84.928446 c 0,0 -32.86366,-8.384982 -92.20412,-8.384982 -59.34046,0 -108.97027,44.962146 -108.97027,44.962146 L 85,148.93848 57.56713,240.38137 c 0,0 26.128678,-3.69674 25.58915,-10.36439 -7.30057,-90.22279 94.12323,-139.934951 210.89144,-118.71361 56.13669,10.20224 165.86817,65.06798 175.01244,142.79444 z" />
    <path
       id="privacy-outline"
       style="fill:none;fill-opacity:1;fill-rule:evenodd;stroke:#000000;stroke-width:15.3877;stroke-linejoin:round;stroke-miterlimit:4;stroke-dasharray:none;stroke-opacity:1"
       d="m 254.16936,29.925187 c -62.43922,0 -126.99784,30.733315 -172.094819,74.025883 -44.506468,42.72568 -70.755792,99.25002 -52.143883,151.37014 -8.28387,119.5517 100.990232,222.94922 224.238702,222.94922 123.06562,0 232.18887,-103.0925 224.2655,-222.41877 11.46082,-23.65792 10.81131,-50.01195 1.75741,-75.12605 -9.37948,-26.01726 -27.39824,-51.14517 -50.4954,-73.34186 C 383.50252,62.990376 316.84696,29.925187 254.16936,29.925187 Z M 475.37902,259.88085 c 0.14815,0.0957 0.12231,0.3811 -0.78763,0.93587 0.0666,-0.10937 0.28291,-0.5103 0.33041,-0.58402 0.15602,-0.11251 0.30849,-0.22986 0.45722,-0.35185 z" />
  </symbol>
  <!-- STOCK MISSING (37 lines to yank) -->
  <symbol id="icon-missing" viewBox="0 0 64 64">
    <rect
       style="opacity:1;fill:#ffffff;fill-opacity:1;fill-rule:evenodd;stroke:none;stroke-width:0.113386;stroke-linecap:round;stroke-linejoin:round;stroke-miterlimit:4;stroke-dasharray:none;stroke-opacity:1"
       id="cross_bg"
       width="40.223633"
       height="38.197266"
       x="11.908203"
       y="14.123535" />
    <path
       style="opacity:1;fill:#b6bdb6;fill-opacity:0.992219;stroke:none;stroke-width:0.113386;stroke-linecap:butt;stroke-linejoin:miter;stroke-miterlimit:4;stroke-dasharray:none;stroke-opacity:1"
       d="m 16.761849,26.45988 c 1.478261,-2.385277 3.607695,-5.385388 4.789371,-5.798327 5.534802,3.304723 9.293551,8.176354 10.97362,8.500387 2.345053,-0.108586 3.297818,-3.12622 10.824983,-7.868807 1.224144,0.524633 4.356579,4.00993 4.903482,5.616285 0,0 -8.271388,6.734433 -8.37704,7.745202 0.02175,1.312015 8.857479,11.447326 8.857479,11.447326 3.928711,-2.672852 1.481222,-22.485369 1.481222,-22.485369 l -7.139405,-7.312622 -24.505859,0.563477 -3.924194,8.877685 z m 8.234099,9.540763 c -0.28778,0.856953 -6.041135,5.325398 -9.507616,9.216212 l -0.220281,-3.819516 8.473197,-8.265519 c 0,0 1.406963,2.103193 1.2547,2.868823 z"
       id="cross_shadow" />
    <path
       id="shield_bg"
       style="opacity:1;fill:#ad3a32;fill-opacity:1;stroke:none;stroke-width:0.188976;stroke-linecap:round;stroke-linejoin:round;stroke-miterlimit:4;stroke-dasharray:none;stroke-opacity:1"
       d="m 16.166226,44.186448 c 3.656291,-4.718677 8.725628,-9.641497 8.755127,-10.734375 -0.03925,-1.111004 -5.419903,-5.867717 -8.73999,-9.070068 -0.06854,-0.806544 4.275572,-7.237295 5.464844,-7.325684 4.811986,3.85059 9.564941,8.507752 11.297607,8.753174 1.408691,-0.290954 5.67873,-4.858332 10.146484,-8.520752 0.974862,-0.03349 6.003255,5.806435 6.255127,6.596924 -2.999162,2.830326 -9.389526,8.028991 -9.534912,8.676513 0.08368,0.615112 7.259337,7.619476 9.796143,10.080323 -9.93e-4,0.570942 -5.417253,6.920192 -6.004639,6.772461 -3.027128,-2.702146 -9.766128,-9.062328 -10.918457,-9.361329 -1.232042,0.380312 -5.200611,4.676206 -10.641846,10.087403 -0.611813,0 -6.046222,-5.548556 -5.875488,-5.95459 z M 7.5623827,59.299604 C 18.8262,61.671761 19.45614,60.846055 29.901502,59.008199 c 4.826315,-1.586329 16.536562,-1.614986 19.40504,0.395331 3.291748,-0.8125 6.120218,0.656371 6.920877,0.434691 1.143066,-0.569824 3.533827,-3.771768 3.976698,-5.14396 0.918669,-2.582597 -0.849324,-12.741506 -0.80158,-22.72694 0.04774,-9.985435 1.911225,-19.797394 1.671092,-20.657195 C 60.809154,9.6654467 55.193801,6.6764542 53.345242,6.7612172 41.133572,8.1957875 34.36319,7.6425594 20.449128,6.03941 19.432038,6.2630428 11.588446,7.4462408 8.4528263,6.6194586 7.428046,6.937818 3.6694874,11.775564 3.5081715,12.549246 c 0.6594238,3.17627 1.0766773,32.370371 0.1425953,38.861094 0,0.546875 2.786738,7.286115 3.9116159,7.889264 z" />
    <path
       style="fill:#672425;fill-opacity:1;stroke:none;stroke-width:0.188976;stroke-linecap:round;stroke-linejoin:round;stroke-miterlimit:4;stroke-dasharray:none;stroke-opacity:1"
       d="M 8.4528263,6.6194586 C 7.428046,6.937818 3.6694874,11.775564 3.5081715,12.549246 c 0.6594238,3.17627 1.0766773,32.370371 0.1425953,38.861094 0,0.546875 2.786738,7.286115 3.9116159,7.889264 m 0,0 2.6818623,-5.042965 C 10.538758,48.575443 6.0961659,19.443654 10.715843,15.152999 21.237509,7.4128038 32.573523,16.725423 8.4528263,6.6194586"
       id="shield_left" />
    <path
       style="fill:#6b2227;stroke:none;stroke-width:0.188976;stroke-linecap:round;stroke-linejoin:round;stroke-miterlimit:4;stroke-dasharray:none;stroke-opacity:1;fill-opacity:1"
       d="m 49.306542,59.40353 c 3.291748,-0.8125 6.120218,0.656371 6.920877,0.434691 1.143066,-0.569824 3.533827,-3.771768 3.976698,-5.14396 0.918669,-2.582597 -0.849324,-12.741506 -0.80158,-22.72694 0.04774,-9.985435 1.911225,-19.797394 1.671092,-20.657195 C 60.809154,9.6654467 55.193801,6.6764542 53.345242,6.7612172 L 57.7854,12.144775 c -3.978857,10.450196 -3.312974,33.122834 -2.355203,36.568253 3.224448,4.489507 -2.85035,5.230454 -2.85035,5.230454 l -2.2962,3.681232 z"
       id="path75408" />
    <path
       id="shield_top"
       style="opacity:1;fill:#b34841;fill-opacity:1;stroke:none;stroke-width:0.188976;stroke-linecap:round;stroke-linejoin:round;stroke-miterlimit:4;stroke-dasharray:none;stroke-opacity:1"
       d="m 59.496052,9.355993 c 0,0 -5.226531,-2.6371573 -6.15081,-2.5947758 C 41.133572,8.1957875 34.36319,7.6425594 20.449128,6.03941 19.432038,6.2630428 11.588446,7.4462408 8.4528263,6.6194586 7.9404361,6.7786383 3.9802991,11.563498 3.9802991,11.563498 m 0,0 c 0,0 3.2797664,3.054424 4.5082263,3.128397 0.8559168,-0.017 3.4961356,-2.157973 4.6166996,-2.423829 1.384348,-0.483805 4.009503,-0.548996 5.189453,-0.435058 9.083629,0.351482 16.298058,2.638723 17.654785,2.609375 1.452193,0.309704 10.6207,-0.793224 14.745605,-0.629395 2.231461,0.255843 6.498026,-0.930032 7.090332,-1.668213 0.414148,-0.288816 1.594513,-1.823761 1.710652,-2.788782" />
    <path
       style="fill:#563947;fill-opacity:1;stroke:none;stroke-width:0.188976;stroke-linecap:round;stroke-linejoin:round;stroke-miterlimit:4;stroke-dasharray:none;stroke-opacity:1"
       d="m 4.5896779,53.947622 c 0,0 2.4102658,5.050407 2.9727048,5.351982 11.2638173,2.372157 11.8937573,1.546451 22.3391193,-0.291405 4.826315,-1.586329 16.536562,-1.614986 19.40504,0.395331 3.291748,-0.8125 6.120218,0.656371 6.920877,0.434691 1.143066,-0.569824 3.533827,-3.771768 3.976698,-5.14396 0.459334,-1.291299 -0.02776,-4.77018 -0.02776,-4.77018 l -0.09219,-0.205063 c -0.960457,2.10058 -2.814668,3.432452 -7.50432,4.224464 -4.507324,-0.323853 -15.645145,0.230647 -22.435794,1.761897 -13.16139,2.211261 -15.131189,4.337579 -19.899808,-1.44874 -1.3089934,0.404653 -2.2595559,2.492048 -5.6545661,-0.309017"
       id="shield_bottom" />
    <path
       style="fill:none;stroke:#000000;stroke-width:1.13386;stroke-linecap:round;stroke-linejoin:round;stroke-miterlimit:4;stroke-dasharray:none;stroke-opacity:1"
       d="M 7.5623827,59.299604 C 18.8262,61.671761 19.45614,60.846055 29.901502,59.008199 c 4.826315,-1.586329 16.536562,-1.614986 19.40504,0.395331 3.291748,-0.8125 6.120218,0.656371 6.920877,0.434691 1.143066,-0.569824 3.533827,-3.771768 3.976698,-5.14396 0.918669,-2.582597 -0.849324,-12.741506 -0.80158,-22.72694 0.04774,-9.985435 1.911225,-19.797394 1.671092,-20.657195 C 60.809154,9.6654467 55.193801,6.6764542 53.345242,6.7612172 41.133572,8.1957875 34.36319,7.6425594 20.449128,6.03941 19.432038,6.2630428 11.588446,7.4462408 8.4528263,6.6194586 7.428046,6.937818 3.6694874,11.775564 3.5081715,12.549246 c 0.6594238,3.17627 1.0766773,32.370371 0.1425953,38.861094 0,0.546875 2.786738,7.286115 3.9116159,7.889264 z"
       id="outline" />
  </symbol>
</svg>
