<?xml version="1.0" encoding="UTF-8" standalone="no"?>
<svg id="svg-sprite" xmlns="http://www.w3.org/2000/svg" xmlns:svg="http://www.w3.org/2000/svg">
  <symbol id="logo-head" viewBox="0 0 512 209">
    <path
       id="path81426"
       style="fill:#af281e;fill-opacity:1;stroke:none;stroke-width:9.20676;stroke-linecap:round;stroke-linejoin:round;stroke-miterlimit:4;stroke-dasharray:none;stroke-opacity:1"
       d="m 404.39492,75.650596 c 0.84079,8.639831 46.63424,29.629204 49.52462,38.453574 2.05623,6.2777 -36.78532,29.01519 -32.85551,39.28908 1.16516,3.0461 33.53766,22.59904 35.46291,18.58528 20.84973,-43.46711 46.08492,-42.56507 44.80954,-59.83609 C 485.64339,84.904459 446.28539,66.160682 426.33923,46.027043 423.80329,45.384871 403.42275,65.66109 404.39492,75.650596 Z M 68.05229,165.39136 C 32.814441,121.92289 12.061828,115.13643 10.36366,109.33119 10.33863,103.89279 74.619533,53.886223 85.526929,49.393467 98.306286,44.129682 119.80621,63.423918 118.73714,67.765372 80.740755,90.952247 62.328396,100.61672 61.516441,106.80374 c -0.538974,4.10697 29.949934,15.29938 33.506777,29.23367 1.607487,7.7632 -21.886363,30.31848 -26.970928,29.35395 z M 141.06956,50.479127 c 13.27958,28.927938 16.68476,77.804453 20.68948,117.317493 1.39544,13.76817 19.55503,20.46988 22.85957,21.03696 4.452,0.76398 26.42098,-3.33167 26.89926,-6.84227 1.63629,-12.01061 -2.5342,-41.03963 3.04147,-58.24275 8.56169,-25.056292 29.27948,-55.536672 37.13395,-54.225827 18.93287,3.159768 -0.35973,80.513877 6.40739,88.751277 5.51506,6.71331 24.2259,16.71849 26.73547,17.28347 2.38168,0.53618 10.43475,0.24058 10.93316,-1.50607 0.12598,-6.68001 5.06017,-55.03267 17.02804,-80.827732 7.25805,-15.643647 17.36551,-31.606376 26.66725,-29.743864 6.51961,1.305438 4.97566,32.798491 2.03181,80.522336 -0.87479,14.18147 1.98439,34.1382 5.34313,41.59234 1.44843,3.21461 20.68107,11.93327 23.77855,12.27225 3.09746,0.33904 10.90718,-1.33559 12.78764,-7.01007 1.88044,-5.67451 4.8853,-34.24621 4.82021,-47.8927 -0.22892,-47.989722 6.07173,-74.163484 -7.77428,-108.119088 -4.15022,-10.177888 -24.54275,-23.54886 -33.16876,-23.313479 -29.12106,0.794578 -53.29512,45.884894 -58.17173,45.718344 -3.34486,-0.114278 -3.89465,-45.41719 -14.27559,-46.815776 -39.71858,-5.3511347 -73.07364,50.706697 -75.07449,49.262861 -3.70318,-2.672249 -6.56636,-34.163529 -13.33524,-36.768855 -2.90817,-0.972923 -50.17629,17.05137 -45.35629,27.55115 z" />
    <path
       id="path81428"
       style="fill:#672425;fill-opacity:1;stroke:none;stroke-width:0.575422;stroke-linecap:round;stroke-linejoin:round;stroke-miterlimit:4;stroke-dasharray:none;stroke-opacity:1"
       d="m 441.20765,57.170258 c -2.53594,-0.642171 -38.6933,1.590754 -36.81273,18.480338 0.96063,8.627334 46.63424,29.629204 49.52462,38.453574 l -33.75745,37.96736 27.12069,16.9605 C 423.52006,151.05244 469.17075,120.04097 460.64917,110.99658 455.48246,105.5129 378.8742,58.731044 441.20765,57.170258 Z M 70.023478,165.39136 C 34.785625,121.92289 14.033015,115.13643 12.334845,109.33119 c -0.02503,-5.4384 64.255875,-55.444967 75.163271,-59.937723 12.779354,-5.263785 2.811339,5.725712 1.742251,10.067164 -37.996366,23.186875 -43.323928,37.773577 -62.368889,48.755259 19.770188,23.03581 47.889976,36.6108 51.446806,50.54509 z M 188.047,42.422565 141.06956,50.479127 c 13.27958,28.927938 16.68476,77.804453 20.68948,117.317493 1.39544,13.76817 22.85957,21.03696 22.85957,21.03696 C 177.23977,107.92768 137.06199,54.2219 188.047,42.422565 Z m 61.66544,23.63056 c 18.93288,3.159767 1.62112,83.983485 8.38824,92.220885 5.51506,6.71331 24.2259,16.71849 26.73547,17.28347 C 242.79742,150.18113 309.25657,59.315189 249.71244,66.053125 Z m 85.04442,-4.835592 c 14.74358,3.702608 9.6834,35.060772 6.73955,82.784617 -0.87479,14.18147 1.98439,34.1382 5.34313,41.59234 1.44843,3.21461 20.68107,11.93327 23.77855,12.27225 3.09746,0.33904 10.90718,-1.33559 12.78764,-7.01007 -56.83015,-9.3905 -4.23838,-144.802329 -48.64887,-129.639137 z" />
    <path
       id="path81430"
       style="fill:#6b2227;fill-opacity:1;stroke:none;stroke-width:0.575422;stroke-linecap:round;stroke-linejoin:round;stroke-miterlimit:4;stroke-dasharray:none;stroke-opacity:1"
       d="m 422.43155,52.255096 c 31.36158,18.962933 62.43436,55.365574 62.87182,62.909854 0.47191,8.13855 -41.21912,42.95108 -37.28929,53.22497 1.16515,3.04609 6.58761,7.60237 8.51286,3.58861 20.84973,-43.46711 46.08492,-42.56507 44.80954,-59.83609 -15.69309,-27.237981 -55.05109,-45.981758 -74.99725,-66.115397 -2.53594,-0.642172 -12.24698,1.185656 -3.90768,6.228053 z M 50.065846,106.39032 c 1.042987,-9.444364 54.648174,-33.421937 59.101184,-46.917788 0,0 10.34246,3.951386 9.27337,8.29284 -37.996379,23.186875 -62.444175,35.935298 -55.186518,43.966918 0,0 -12.324154,-0.89149 -13.188036,-5.34197 z m 134.552764,82.44326 c 4.452,0.76398 26.42098,-3.33167 26.89926,-6.84227 1.63629,-12.01061 -2.5342,-41.03963 3.04147,-58.24275 8.56169,-25.056292 29.27948,-55.536672 37.13395,-54.225827 -81.54038,27.572855 -35.46267,107.837087 -67.07468,119.310847 z m 73.48207,-30.55957 c 5.51506,6.71331 24.2259,16.71849 26.73547,17.28347 2.38168,0.53618 10.43475,0.24058 10.93316,-1.50607 0.12598,-6.68001 5.06017,-55.03267 17.02804,-80.827732 C 320.0554,77.580031 330.16286,61.617302 339.4646,63.479814 288.35972,41.113308 300.88919,183.34562 258.10068,158.27401 Z m 104.46745,37.4595 c 7.82851,3.33656 18.95714,0.79764 20.8376,-4.87684 1.88044,-5.67451 4.8853,-34.24621 4.82021,-47.8927 -0.22892,-47.989722 6.07173,-74.163484 -7.77428,-108.119088 -4.15022,-10.177888 -24.54275,-23.54886 -33.16876,-23.313479 43.98427,29.784443 32.5192,177.227107 15.28523,184.202107 z M 203.63702,61.483677 c -12.54935,-9.732132 -10.44229,-35.950374 -17.21117,-38.5557 l -9.31299,2.731839 c 0,0 14.12034,59.146925 26.52416,35.823861 z m 70.98469,-7.027464 c -1.56788,6.365523 21.50279,15.454229 16.89785,3.212348 -6.67537,-1.360734 -6.30304,-45.836004 -16.68398,-47.23459 0,0 -2.70763,35.174199 -0.21387,44.022242 z" />
    <path
       id="path81432"
       style="fill:#563947;fill-opacity:1;stroke:none;stroke-width:0.575422;stroke-linecap:round;stroke-linejoin:round;stroke-miterlimit:4;stroke-dasharray:none;stroke-opacity:1"
       d="m 433.01195,133.25487 c 0,0 -13.36521,19.3956 -11.94792,20.13838 l 35.46291,18.58528 c 0,0 -4.77509,-1.82792 18.97214,-27.60464 -20.39499,15.59965 -34.5529,13.34642 -42.48713,-11.11902 z m -338.285477,2.78254 c 0.13993,7.92663 -21.886351,30.31848 -26.970917,29.35395 -35.237855,-43.46847 -55.990465,-50.25493 -57.688634,-56.06017 31.405163,21.90178 43.364268,27.24096 58.04001,34.61476 10.191606,5.12077 13.73671,-26.20693 26.619541,-7.90854 z m 163.374207,22.2366 c 5.51506,6.71331 24.2259,16.71849 26.73547,17.28347 2.38168,0.53618 10.43475,0.24058 10.93316,-1.50607 0.12598,-6.68001 5.40346,-39.31744 5.40346,-39.31744 -15.1077,47.03171 -53.85237,-14.17154 -43.07209,23.54004 z m 100.4387,9.4483 c -0.87478,14.18148 -15.05858,10.41804 -11.69984,17.87218 1.44843,3.21461 20.68107,11.93327 23.77855,12.27225 3.09746,0.33904 10.90718,-1.33559 12.78764,-7.01007 1.88044,-5.67451 -8.17359,-8.32102 -11.09236,-11.45258 -2.62865,-2.06453 -8.16263,-4.04652 -9.70009,-4.52779 -1.5658,-0.46919 -4.0739,-7.15399 -4.0739,-7.15399 z m -178.24175,-2.87766 c 9.72933,28.01756 31.63728,-12.65079 31.63728,-12.65079 l -0.41704,29.79745 c -0.47828,3.5106 -22.44726,7.60625 -26.89926,6.84227 -3.30454,-0.56708 -21.46413,-7.26879 -22.85957,-21.03696 z M 238.5465,65.489383 c -2.44221,1.664432 -36.03094,49.350007 -23.98716,58.259177 8.56169,-25.056292 29.27948,-55.536672 37.13395,-54.225827 11.60809,-4.926784 -10.07814,-5.835559 -13.14679,-4.03335 z" />
    <path
       id="path81434"
       style="fill:#b34841;fill-opacity:1;stroke:none;stroke-width:0.575422;stroke-linecap:round;stroke-linejoin:round;stroke-miterlimit:4;stroke-dasharray:none;stroke-opacity:1"
       d="m 404.39492,75.650596 10.0992,9.010161 C 414.02533,77.970501 430.61354,63.369438 449.2795,64.398971 L 426.33923,46.027043 c -2.53594,-0.642172 -27.25642,24.884276 -21.94431,29.623553 z M 186.42585,22.927977 c -2.90817,-0.972923 -50.17629,17.05137 -45.35629,27.55115 0,0 15.93316,-1.431247 18.77983,7.16766 2.23788,1.709189 9.38566,-11.001143 34.81088,-12.581389 z m 92.20036,-9.905875 c 0,0 4.54687,2.048387 -3.79063,-2.588131 -39.71858,-5.3511347 -73.07364,50.706697 -75.07449,49.262861 0.3384,5.172879 2.57813,14.489615 4.93437,17.113745 14.34761,0.618797 34.82797,-45.462257 69.5857,-55.1339 z M 373.24649,24.524496 347.2829,11.531403 c -29.12106,0.794578 -53.29512,45.884894 -58.17173,45.718344 -0.72748,2.949358 4.17137,13.848411 5.5744,14.014442 4.42161,0.525178 25.39176,-42.084047 78.56092,-46.739693 z M 107.70176,73.471197 118.4404,67.765372 C 119.50949,63.423918 98.009554,44.129682 85.230194,49.393467 74.322799,53.886223 9.6369924,103.90976 10.066921,109.33119 77.374985,49.256263 97.561046,59.299674 107.70176,73.471197 Z" />
    <path
       id="path81436"
       style="fill:none;fill-opacity:1;stroke:#000000;stroke-width:9.20676;stroke-linecap:round;stroke-linejoin:round;stroke-miterlimit:4;stroke-dasharray:none;stroke-opacity:1"
       d="m 404.39492,75.650596 c 0.84079,8.639831 46.63424,29.629204 49.52462,38.453574 2.05623,6.2777 -36.78532,29.01519 -32.85551,39.28908 1.16516,3.0461 33.53766,22.59904 35.46291,18.58528 20.84973,-43.46711 46.08492,-42.56507 44.80954,-59.83609 C 485.64339,84.904459 446.28539,66.160682 426.33923,46.027043 423.80329,45.384871 403.42275,65.66109 404.39492,75.650596 Z M 67.755556,165.39136 C 32.517701,121.92289 11.765091,115.13643 10.066922,109.33119 10.041892,103.89279 74.322799,53.886223 85.230194,49.393467 98.009554,44.129682 119.50949,63.423918 118.4404,67.765372 80.444021,90.952247 62.031651,100.61672 61.219697,106.80374 c -0.538963,4.10697 29.949944,15.29938 33.506776,29.23367 1.607497,7.7632 -21.886351,30.31848 -26.970917,29.35395 z M 141.06956,50.479127 c 13.27958,28.927938 16.68476,77.804453 20.68948,117.317493 1.39544,13.76817 19.55503,20.46988 22.85957,21.03696 4.452,0.76398 26.42098,-3.33167 26.89926,-6.84227 1.63629,-12.01061 -2.5342,-41.03963 3.04147,-58.24275 8.56169,-25.056292 29.27948,-55.536672 37.13395,-54.225827 18.93287,3.159768 -0.35973,80.513877 6.40739,88.751277 5.51506,6.71331 24.2259,16.71849 26.73547,17.28347 2.38168,0.53618 10.43475,0.24058 10.93316,-1.50607 0.12598,-6.68001 5.06017,-55.03267 17.02804,-80.827732 7.25805,-15.643647 17.36551,-31.606376 26.66725,-29.743864 6.51961,1.305438 4.97566,32.798491 2.03181,80.522336 -0.87479,14.18147 1.98439,34.1382 5.34313,41.59234 1.44843,3.21461 20.68107,11.93327 23.77855,12.27225 3.09746,0.33904 10.90718,-1.33559 12.78764,-7.01007 1.88044,-5.67451 4.8853,-34.24621 4.82021,-47.8927 -0.22892,-47.989722 6.07173,-74.163484 -7.77428,-108.119088 -4.15022,-10.177888 -24.54275,-23.54886 -33.16876,-23.313479 -29.12106,0.794578 -53.29512,45.884894 -58.17173,45.718344 -3.34486,-0.114278 -3.89465,-45.41719 -14.27559,-46.815776 -39.71858,-5.3511347 -73.07364,50.706697 -75.07449,49.262861 -3.70318,-2.672249 -6.56636,-34.163529 -13.33524,-36.768855 -2.90817,-0.972923 -50.17629,17.05137 -45.35629,27.55115 z" />
  </symbol>
  <symbol id="logo-foot" viewBox="0 0 512 236">
    <path
       style="fill:#af281e;fill-opacity:1;stroke:none;stroke-width:7.91753;stroke-linecap:round;stroke-linejoin:round;stroke-miterlimit:4;stroke-dasharray:none;stroke-opacity:1"
       d="m 418.70033,109.4398 c 0.72306,7.43 40.10405,25.48023 42.58969,33.06892 1.76831,5.39863 -31.63427,24.9522 -28.25474,33.78744 1.00199,2.61955 28.84138,19.4345 30.49705,15.98279 17.93012,-37.38042 39.63165,-36.6047 38.53486,-51.45726 -13.49559,-23.42384 -47.3423,-39.54293 -64.49542,-56.857262 -2.18083,-0.55225 -19.70748,16.884692 -18.87144,25.475372 z M 83.199345,210.91094 c -0.652206,3.97266 22.204155,18.47504 25.911465,14.49499 6.87617,-7.38211 49.09229,-133.301552 82.82475,-183.132652 5.87243,-8.67501 -10.94417,-35.5110799 -17.92118,-32.01973 C 163.84252,15.343628 86.479023,190.93439 83.199345,210.91094 Z M 59.569341,186.61418 C 29.265829,149.23259 11.419203,143.39644 9.9588251,138.40411 9.9373488,133.72725 65.216974,90.723088 74.597009,86.859448 c 10.989857,-4.5267 29.479161,12.06577 28.559771,15.799292 -32.675738,19.94002 -48.509826,28.25118 -49.208083,33.57183 -0.463502,3.53186 25.756049,13.15702 28.814818,25.1401 1.382391,6.6761 -18.82161,26.07298 -23.194174,25.24351 z M 192.24838,87.793088 c 11.42003,24.877162 14.34839,66.909502 17.79233,100.889552 1.20004,11.8402 16.81674,17.60348 19.65856,18.09116 3.82857,0.65699 22.72124,-2.86515 23.13255,-5.88416 1.40717,-10.32877 -2.17933,-35.29286 2.61557,-50.08701 7.36281,-21.54768 25.17949,-47.7599 31.9341,-46.63261 16.28171,2.71731 -0.30936,69.23954 5.51015,76.32345 4.7428,5.77324 20.83356,14.37741 22.99171,14.86327 2.04818,0.46109 8.97358,0.20689 9.40219,-1.29517 0.10834,-5.74461 4.3516,-47.32647 14.64361,-69.50944 6.24171,-13.45307 14.93383,-27.180542 22.93304,-25.578842 5.60666,1.122642 4.27891,28.205732 1.74729,69.246802 -0.75229,12.19565 1.70653,29.35784 4.59494,35.76818 1.24561,2.76447 17.78511,10.26226 20.44884,10.55377 2.66373,0.29157 9.37986,-1.14857 10.99699,-6.02845 1.61712,-4.87991 4.20122,-29.45073 4.14524,-41.1863 -0.19687,-41.26972 5.2215,-63.77838 -6.68564,-92.979192 -3.56908,-8.75268 -21.10605,-20.25131 -28.52416,-20.04889 -25.04323,0.68331 -45.83221,39.45964 -50.02595,39.31641 -2.87646,-0.0983 -3.34928,-39.05743 -12.27658,-40.26017 -34.1568,-4.60182 -62.84115,43.60625 -64.56182,42.36459 -3.18463,-2.29805 -5.64687,-29.37962 -11.46791,-31.62012 -2.50094,-0.83668 -43.15011,14.66367 -39.00505,23.69317 z"
       id="back" />
    <path
       id="left"
       style="fill:#672425;fill-opacity:1;stroke:none;stroke-width:0.494846;stroke-linecap:round;stroke-linejoin:round;stroke-miterlimit:4;stroke-dasharray:none;stroke-opacity:1"
       d="m 450.35819,93.547258 c -2.18084,-0.55225 -33.2751,1.368 -31.65786,15.892542 0.82611,7.41925 40.10405,25.48023 42.58969,33.06892 l -29.03039,32.6508 23.32298,14.58552 c -20.43521,-15.46191 18.82302,-42.13084 11.49471,-49.90875 -4.44323,-4.7158 -70.32405,-44.946802 -16.71913,-46.289032 z M 83.199345,210.91094 c -0.652206,3.97266 20.271795,15.35005 17.587045,10.61962 -9.577425,-16.87512 51.97106,-190.564782 85.96904,-189.301912 5.87243,-8.67501 -5.76404,-25.4664499 -12.74105,-21.9751 C 163.84252,15.343628 86.479023,190.93439 83.199345,210.91094 Z M 59.569341,186.61418 C 29.265829,149.23259 11.419203,143.39644 9.9588251,138.40411 9.9373488,133.72725 65.216974,90.723088 74.597009,86.859448 c 10.989857,-4.5267 2.417667,4.92394 1.498284,8.65747 -32.675742,19.940022 -37.25729,32.484142 -53.635392,41.928062 17.001776,19.81011 41.183959,31.4842 44.242728,43.46728 z M 232.64757,80.864688 l -40.39919,6.9284 c 11.42003,24.877162 14.34839,66.909502 17.79233,100.889552 1.20004,11.8402 19.65856,18.09116 19.65856,18.09116 -6.34559,-69.57668 -40.89728,-115.762042 2.9483,-125.909112 z m 53.03044,20.321572 c 16.28171,2.71731 1.39412,72.2233 7.21363,79.30721 4.7428,5.77324 20.83356,14.37741 22.99171,14.86327 -36.15204,-21.82291 21.00085,-99.964902 -30.20534,-94.17048 z m 73.13567,-4.158462 c 12.67904,3.184132 8.32742,30.151222 5.7958,71.192292 -0.75229,12.19565 1.70653,29.35784 4.59494,35.76818 1.24561,2.76447 17.78511,10.26226 20.44884,10.55377 2.66373,0.29157 9.37986,-1.14857 10.99699,-6.02845 -48.87223,-8.07556 -3.64488,-124.525692 -41.83657,-111.485792 z" />
    <path
       id="right"
       style="fill:#6b2227;fill-opacity:1;stroke:none;stroke-width:0.494846;stroke-linecap:round;stroke-linejoin:round;stroke-miterlimit:4;stroke-dasharray:none;stroke-opacity:1"
       d="m 434.2113,89.320368 c 26.97002,16.307562 53.69169,47.612732 54.0679,54.100592 0.40583,6.99891 -35.44722,36.93664 -32.06769,45.77189 1.002,2.61955 5.66515,6.53781 7.32082,3.0861 17.93012,-37.38042 39.63165,-36.6047 38.53486,-51.45726 -13.49559,-23.42384 -47.3423,-39.54293 -64.49542,-56.857262 -2.18083,-0.55225 -10.53201,1.01963 -3.36047,5.35594 z M 109.11081,225.40593 c 6.87617,-7.38211 49.09229,-133.301552 82.82475,-183.132652 5.87243,-8.67501 -6.87345,-14.8317 -13.85046,-11.34035 C 189.63848,47.117698 93.959307,193.143 109.11081,225.40593 Z M 44.356719,135.87505 c 0.896937,-8.12188 46.995791,-28.74187 50.825252,-40.347902 0,0 8.894199,3.39807 7.974809,7.131592 -32.675738,19.94002 -53.700113,30.90329 -47.458745,37.81024 0,0 -10.598404,-0.76665 -11.341316,-4.59393 z M 229.69927,206.7738 c 3.82857,0.65699 22.72124,-2.86515 23.13255,-5.88416 1.40717,-10.32877 -2.17933,-35.29286 2.61557,-50.08701 7.36281,-21.54768 25.17949,-47.7599 31.9341,-46.63261 -70.1223,23.71183 -30.49685,92.73668 -57.68222,102.60378 z m 63.19237,-26.28033 c 4.7428,5.77324 20.83356,14.37741 22.99171,14.86327 2.04818,0.46109 8.97358,0.20689 9.40219,-1.29517 0.10834,-5.74461 4.3516,-47.32647 14.64361,-69.50944 6.24171,-13.45307 14.93383,-27.180542 22.93304,-25.578842 -43.94867,-19.23453 -33.1737,103.081022 -69.97055,81.520182 z m 89.8389,32.21406 c 6.73229,2.86933 16.30258,0.68594 17.91971,-4.19394 1.61712,-4.87991 4.20122,-29.45073 4.14524,-41.1863 -0.19687,-41.26972 5.2215,-63.77838 -6.68564,-92.979192 -3.56908,-8.75268 -21.10605,-20.25131 -28.52416,-20.04889 37.82517,25.61373 27.96555,152.410012 13.14485,158.408322 z M 246.05453,97.256668 c -10.79209,-8.36934 -8.98006,-30.91625 -14.8011,-33.15675 l -8.0089,2.3493 c 0,0 12.14308,50.864592 22.81,30.80745 z m 61.0447,-6.04341 c -1.34831,5.47416 18.49176,13.290182 14.53167,2.76253 -5.74064,-1.17019 -5.42044,-39.4176 -14.34774,-40.62034 0,0 -2.32848,30.24876 -0.18393,37.85781 z" />
    <path
       id="bottom"
       style="fill:#563947;fill-opacity:1;stroke:none;stroke-width:0.494846;stroke-linecap:round;stroke-linejoin:round;stroke-miterlimit:4;stroke-dasharray:none;stroke-opacity:1"
       d="m 443.31013,158.97775 c 0,0 -11.49369,16.67964 -10.27485,17.31841 l 30.49705,15.98279 c 0,0 -4.10645,-1.57196 16.31547,-23.73917 -17.53909,13.41525 -29.71448,11.47753 -36.53767,-9.56203 z M 84.064137,205.60927 c -3.749771,1.46511 22.882963,24.78699 25.046673,19.79666 l 19.12467,-44.10891 c 5.87243,-8.67501 -27.20996,56.36029 -33.587447,20.17691 z m -1.300622,-44.2386 c 0.120337,6.81665 -18.82161,26.07298 -23.194174,25.24351 -30.303512,-37.38159 -48.150138,-43.21774 -49.6105159,-48.21007 27.0075039,18.83487 37.2919879,23.42641 49.9126879,29.76766 8.764478,4.4037 11.813162,-22.53719 22.892002,-6.8011 z m 210.128125,19.1228 c 4.7428,5.77324 20.83356,14.37741 22.99171,14.86327 2.04818,0.46109 8.97358,0.20689 9.40219,-1.29517 0.10834,-5.74461 4.64682,-33.81184 4.64682,-33.81184 -12.99217,40.44588 -46.31144,-12.18709 -37.04072,20.24374 z m 86.3743,8.12526 c -0.75229,12.19564 -12.94993,8.9592 -10.06152,15.36954 1.24561,2.76447 17.78511,10.26226 20.44884,10.55377 2.66373,0.29157 9.37986,-1.14857 10.99699,-6.02845 1.61712,-4.87991 -7.02904,-7.15584 -9.53909,-9.84888 -2.26056,-1.77543 -7.01962,-3.47989 -8.3418,-3.89377 -1.34653,-0.40348 -3.50342,-6.15221 -3.50342,-6.15221 z m -153.28259,-2.47471 c 8.36693,24.09427 27.20711,-10.8793 27.20711,-10.8793 l -0.35864,25.62492 c -0.41131,3.01901 -19.30398,6.54115 -23.13255,5.88416 -2.84182,-0.48768 -18.45852,-6.25096 -19.65856,-18.09116 z m 50.09228,-85.44256 c -2.10022,1.43136 -30.98552,42.43953 -20.62824,50.10117 7.36281,-21.54768 25.17949,-47.7599 31.9341,-46.63261 9.98261,-4.236892 -8.66691,-5.018402 -11.30586,-3.46856 z" />
    <path
       id="top"
       style="fill:#b34841;fill-opacity:1;stroke:none;stroke-width:0.494846;stroke-linecap:round;stroke-linejoin:round;stroke-miterlimit:4;stroke-dasharray:none;stroke-opacity:1"
       d="m 418.70033,109.4398 8.68501,7.74847 c -0.40314,-5.75342 13.86223,-18.309902 29.9144,-17.424532 l -19.72797,-15.79931 c -2.18083,-0.55225 -23.43969,21.399732 -18.87144,25.475372 z M 114.7576,129.98568 C 158.32516,47.893268 168.95087,33.132288 191.93556,42.273278 197.80799,33.598268 180.99139,6.7621981 174.01438,10.253548 163.84252,15.343628 114.7576,129.98568 114.7576,129.98568 Z M 231.25343,64.099918 c -2.50094,-0.83668 -43.15011,14.66367 -39.00505,23.69317 0,0 13.70202,-1.23083 16.15008,6.16397 1.92453,1.46985 8.07138,-9.46065 29.93632,-10.81962 z m 79.28956,-8.51876 c 0,0 3.91017,1.76156 -3.25983,-2.22571 -34.1568,-4.60182 -62.84115,43.60625 -64.56182,42.36459 0.29101,4.448522 2.21713,12.460642 4.24341,14.717312 12.33852,0.53215 29.95101,-39.096182 59.84164,-47.413512 z m 81.37061,9.89172 -22.32791,-11.17367 c -25.04323,0.68331 -45.83221,39.45964 -50.02595,39.31641 -0.6256,2.53636 3.58726,11.909222 4.79382,12.052002 3.80246,0.45164 21.83616,-36.191022 67.56004,-40.194742 z M 93.921877,107.56558 103.15678,102.65874 C 104.07617,98.925218 85.586866,82.332748 74.597009,86.859448 65.216974,90.723088 9.5891062,133.74184 9.9588251,138.40411 67.841763,86.741458 85.201164,95.378498 93.921877,107.56558 Z" />
    <path
       id="outline"
       style="fill:none;fill-opacity:1;stroke:#000000;stroke-width:7.91753;stroke-linecap:round;stroke-linejoin:round;stroke-miterlimit:4;stroke-dasharray:none;stroke-opacity:1"
       d="m 418.70033,109.4398 c 0.72306,7.43 40.10405,25.48023 42.58969,33.06892 1.76831,5.39863 -31.63427,24.9522 -28.25474,33.78744 1.00199,2.61955 28.84138,19.4345 30.49705,15.98279 17.93012,-37.38042 39.63165,-36.6047 38.53486,-51.45726 -13.49559,-23.42384 -47.3423,-39.54293 -64.49542,-56.857262 -2.18083,-0.55225 -19.70748,16.884692 -18.87144,25.475372 z M 83.199345,210.91094 c -0.652206,3.97266 22.204155,18.47504 25.911465,14.49499 6.87617,-7.38211 49.09229,-133.301552 82.82475,-183.132652 5.87243,-8.67501 -10.94417,-35.5110799 -17.92118,-32.01973 C 163.84252,15.343628 86.479023,190.93439 83.199345,210.91094 Z M 59.569341,186.61418 C 29.265829,149.23259 11.419203,143.39644 9.9588251,138.40411 9.9373488,133.72725 65.216974,90.723088 74.597009,86.859448 c 10.989857,-4.5267 29.479161,12.06577 28.559771,15.799292 -32.675738,19.94002 -48.509826,28.25118 -49.208083,33.57183 -0.463502,3.53186 25.756049,13.15702 28.814818,25.1401 1.382391,6.6761 -18.82161,26.07298 -23.194174,25.24351 z M 192.24838,87.793088 c 11.42003,24.877162 14.34839,66.909502 17.79233,100.889552 1.20004,11.8402 16.81674,17.60348 19.65856,18.09116 3.82857,0.65699 22.72124,-2.86515 23.13255,-5.88416 1.40717,-10.32877 -2.17933,-35.29286 2.61557,-50.08701 7.36281,-21.54768 25.17949,-47.7599 31.9341,-46.63261 16.28171,2.71731 -0.30936,69.23954 5.51015,76.32345 4.7428,5.77324 20.83356,14.37741 22.99171,14.86327 2.04818,0.46109 8.97358,0.20689 9.40219,-1.29517 0.10834,-5.74461 4.3516,-47.32647 14.64361,-69.50944 6.24171,-13.45307 14.93383,-27.180542 22.93304,-25.578842 5.60666,1.122642 4.27891,28.205732 1.74729,69.246802 -0.75229,12.19565 1.70653,29.35784 4.59494,35.76818 1.24561,2.76447 17.78511,10.26226 20.44884,10.55377 2.66373,0.29157 9.37986,-1.14857 10.99699,-6.02845 1.61712,-4.87991 4.20122,-29.45073 4.14524,-41.1863 -0.19687,-41.26972 5.2215,-63.77838 -6.68564,-92.979192 -3.56908,-8.75268 -21.10605,-20.25131 -28.52416,-20.04889 -25.04323,0.68331 -45.83221,39.45964 -50.02595,39.31641 -2.87646,-0.0983 -3.34928,-39.05743 -12.27658,-40.26017 -34.1568,-4.60182 -62.84115,43.60625 -64.56182,42.36459 -3.18463,-2.29805 -5.64687,-29.37962 -11.46791,-31.62012 -2.50094,-0.83668 -43.15011,14.66367 -39.00505,23.69317 z" />
  </symbol>
  <symbol id="icon-quote" viewBox="0 0 64 64">
    <rect
       style="opacity:1;fill:#ffffff;fill-opacity:1;fill-rule:evenodd;stroke:none;stroke-width:0.113386;stroke-linecap:round;stroke-linejoin:round;stroke-miterlimit:4;stroke-dasharray:none;stroke-opacity:1"
       id="cross_bg"
       width="40.223633"
       height="38.197266"
       x="11.908203"
       y="14.123535" />
    <path
       style="opacity:1;fill:#b6bdb6;fill-opacity:0.992219;stroke:none;stroke-width:0.113386;stroke-linecap:butt;stroke-linejoin:miter;stroke-miterlimit:4;stroke-dasharray:none;stroke-opacity:1"
       d="m 16.761849,26.45988 c 1.478261,-2.385277 3.607695,-5.385388 4.789371,-5.798327 5.534802,3.304723 9.293551,8.176354 10.97362,8.500387 2.345053,-0.108586 3.297818,-3.12622 10.824983,-7.868807 1.224144,0.524633 4.356579,4.00993 4.903482,5.616285 0,0 -8.271388,6.734433 -8.37704,7.745202 0.02175,1.312015 8.857479,11.447326 8.857479,11.447326 3.928711,-2.672852 1.481222,-22.485369 1.481222,-22.485369 l -7.139405,-7.312622 -24.505859,0.563477 -3.924194,8.877685 z m 8.234099,9.540763 c -0.28778,0.856953 -6.041135,5.325398 -9.507616,9.216212 l -0.220281,-3.819516 8.473197,-8.265519 c 0,0 1.406963,2.103193 1.2547,2.868823 z"
       id="cross_shadow" />
    <path
       id="shield_bg"
       style="opacity:1;fill:#ad3a32;fill-opacity:1;stroke:none;stroke-width:0.188976;stroke-linecap:round;stroke-linejoin:round;stroke-miterlimit:4;stroke-dasharray:none;stroke-opacity:1"
       d="m 16.166226,44.186448 c 3.656291,-4.718677 8.725628,-9.641497 8.755127,-10.734375 -0.03925,-1.111004 -5.419903,-5.867717 -8.73999,-9.070068 -0.06854,-0.806544 4.275572,-7.237295 5.464844,-7.325684 4.811986,3.85059 9.564941,8.507752 11.297607,8.753174 1.408691,-0.290954 5.67873,-4.858332 10.146484,-8.520752 0.974862,-0.03349 6.003255,5.806435 6.255127,6.596924 -2.999162,2.830326 -9.389526,8.028991 -9.534912,8.676513 0.08368,0.615112 7.259337,7.619476 9.796143,10.080323 -9.93e-4,0.570942 -5.417253,6.920192 -6.004639,6.772461 -3.027128,-2.702146 -9.766128,-9.062328 -10.918457,-9.361329 -1.232042,0.380312 -5.200611,4.676206 -10.641846,10.087403 -0.611813,0 -6.046222,-5.548556 -5.875488,-5.95459 z M 7.5623827,59.299604 C 18.8262,61.671761 19.45614,60.846055 29.901502,59.008199 c 4.826315,-1.586329 16.536562,-1.614986 19.40504,0.395331 3.291748,-0.8125 6.120218,0.656371 6.920877,0.434691 1.143066,-0.569824 3.533827,-3.771768 3.976698,-5.14396 0.918669,-2.582597 -0.849324,-12.741506 -0.80158,-22.72694 0.04774,-9.985435 1.911225,-19.797394 1.671092,-20.657195 C 60.809154,9.6654467 55.193801,6.6764542 53.345242,6.7612172 41.133572,8.1957875 34.36319,7.6425594 20.449128,6.03941 19.432038,6.2630428 11.588446,7.4462408 8.4528263,6.6194586 7.428046,6.937818 3.6694874,11.775564 3.5081715,12.549246 c 0.6594238,3.17627 1.0766773,32.370371 0.1425953,38.861094 0,0.546875 2.786738,7.286115 3.9116159,7.889264 z" />
    <path
       style="fill:#672425;fill-opacity:1;stroke:none;stroke-width:0.188976;stroke-linecap:round;stroke-linejoin:round;stroke-miterlimit:4;stroke-dasharray:none;stroke-opacity:1"
       d="M 8.4528263,6.6194586 C 7.428046,6.937818 3.6694874,11.775564 3.5081715,12.549246 c 0.6594238,3.17627 1.0766773,32.370371 0.1425953,38.861094 0,0.546875 2.786738,7.286115 3.9116159,7.889264 m 0,0 2.6818623,-5.042965 C 10.538758,48.575443 6.0961659,19.443654 10.715843,15.152999 21.237509,7.4128038 32.573523,16.725423 8.4528263,6.6194586"
       id="shield_left" />
    <path
       style="fill:#6b2227;stroke:none;stroke-width:0.188976;stroke-linecap:round;stroke-linejoin:round;stroke-miterlimit:4;stroke-dasharray:none;stroke-opacity:1;fill-opacity:1"
       d="m 49.306542,59.40353 c 3.291748,-0.8125 6.120218,0.656371 6.920877,0.434691 1.143066,-0.569824 3.533827,-3.771768 3.976698,-5.14396 0.918669,-2.582597 -0.849324,-12.741506 -0.80158,-22.72694 0.04774,-9.985435 1.911225,-19.797394 1.671092,-20.657195 C 60.809154,9.6654467 55.193801,6.6764542 53.345242,6.7612172 L 57.7854,12.144775 c -3.978857,10.450196 -3.312974,33.122834 -2.355203,36.568253 3.224448,4.489507 -2.85035,5.230454 -2.85035,5.230454 l -2.2962,3.681232 z"
       id="path75408" />
    <path
       id="shield_top"
       style="opacity:1;fill:#b34841;fill-opacity:1;stroke:none;stroke-width:0.188976;stroke-linecap:round;stroke-linejoin:round;stroke-miterlimit:4;stroke-dasharray:none;stroke-opacity:1"
       d="m 59.496052,9.355993 c 0,0 -5.226531,-2.6371573 -6.15081,-2.5947758 C 41.133572,8.1957875 34.36319,7.6425594 20.449128,6.03941 19.432038,6.2630428 11.588446,7.4462408 8.4528263,6.6194586 7.9404361,6.7786383 3.9802991,11.563498 3.9802991,11.563498 m 0,0 c 0,0 3.2797664,3.054424 4.5082263,3.128397 0.8559168,-0.017 3.4961356,-2.157973 4.6166996,-2.423829 1.384348,-0.483805 4.009503,-0.548996 5.189453,-0.435058 9.083629,0.351482 16.298058,2.638723 17.654785,2.609375 1.452193,0.309704 10.6207,-0.793224 14.745605,-0.629395 2.231461,0.255843 6.498026,-0.930032 7.090332,-1.668213 0.414148,-0.288816 1.594513,-1.823761 1.710652,-2.788782" />
    <path
       style="fill:#563947;fill-opacity:1;stroke:none;stroke-width:0.188976;stroke-linecap:round;stroke-linejoin:round;stroke-miterlimit:4;stroke-dasharray:none;stroke-opacity:1"
       d="m 4.5896779,53.947622 c 0,0 2.4102658,5.050407 2.9727048,5.351982 11.2638173,2.372157 11.8937573,1.546451 22.3391193,-0.291405 4.826315,-1.586329 16.536562,-1.614986 19.40504,0.395331 3.291748,-0.8125 6.120218,0.656371 6.920877,0.434691 1.143066,-0.569824 3.533827,-3.771768 3.976698,-5.14396 0.459334,-1.291299 -0.02776,-4.77018 -0.02776,-4.77018 l -0.09219,-0.205063 c -0.960457,2.10058 -2.814668,3.432452 -7.50432,4.224464 -4.507324,-0.323853 -15.645145,0.230647 -22.435794,1.761897 -13.16139,2.211261 -15.131189,4.337579 -19.899808,-1.44874 -1.3089934,0.404653 -2.2595559,2.492048 -5.6545661,-0.309017"
       id="shield_bottom" />
    <path
       style="fill:none;stroke:#000000;stroke-width:1.13386;stroke-linecap:round;stroke-linejoin:round;stroke-miterlimit:4;stroke-dasharray:none;stroke-opacity:1"
       d="M 7.5623827,59.299604 C 18.8262,61.671761 19.45614,60.846055 29.901502,59.008199 c 4.826315,-1.586329 16.536562,-1.614986 19.40504,0.395331 3.291748,-0.8125 6.120218,0.656371 6.920877,0.434691 1.143066,-0.569824 3.533827,-3.771768 3.976698,-5.14396 0.918669,-2.582597 -0.849324,-12.741506 -0.80158,-22.72694 0.04774,-9.985435 1.911225,-19.797394 1.671092,-20.657195 C 60.809154,9.6654467 55.193801,6.6764542 53.345242,6.7612172 41.133572,8.1957875 34.36319,7.6425594 20.449128,6.03941 19.432038,6.2630428 11.588446,7.4462408 8.4528263,6.6194586 7.428046,6.937818 3.6694874,11.775564 3.5081715,12.549246 c 0.6594238,3.17627 1.0766773,32.370371 0.1425953,38.861094 0,0.546875 2.786738,7.286115 3.9116159,7.889264 z"
       id="outline" />
  </symbol>
  <symbol id="icon-tags" viewBox="0 0 64 64">
    <rect
       style="opacity:1;fill:#ffffff;fill-opacity:1;fill-rule:evenodd;stroke:none;stroke-width:0.113386;stroke-linecap:round;stroke-linejoin:round;stroke-miterlimit:4;stroke-dasharray:none;stroke-opacity:1"
       id="cross_bg"
       width="40.223633"
       height="38.197266"
       x="11.908203"
       y="14.123535" />
    <path
       style="opacity:1;fill:#b6bdb6;fill-opacity:0.992219;stroke:none;stroke-width:0.113386;stroke-linecap:butt;stroke-linejoin:miter;stroke-miterlimit:4;stroke-dasharray:none;stroke-opacity:1"
       d="m 16.761849,26.45988 c 1.478261,-2.385277 3.607695,-5.385388 4.789371,-5.798327 5.534802,3.304723 9.293551,8.176354 10.97362,8.500387 2.345053,-0.108586 3.297818,-3.12622 10.824983,-7.868807 1.224144,0.524633 4.356579,4.00993 4.903482,5.616285 0,0 -8.271388,6.734433 -8.37704,7.745202 0.02175,1.312015 8.857479,11.447326 8.857479,11.447326 3.928711,-2.672852 1.481222,-22.485369 1.481222,-22.485369 l -7.139405,-7.312622 -24.505859,0.563477 -3.924194,8.877685 z m 8.234099,9.540763 c -0.28778,0.856953 -6.041135,5.325398 -9.507616,9.216212 l -0.220281,-3.819516 8.473197,-8.265519 c 0,0 1.406963,2.103193 1.2547,2.868823 z"
       id="cross_shadow" />
    <path
       id="shield_bg"
       style="opacity:1;fill:#ad3a32;fill-opacity:1;stroke:none;stroke-width:0.188976;stroke-linecap:round;stroke-linejoin:round;stroke-miterlimit:4;stroke-dasharray:none;stroke-opacity:1"
       d="m 16.166226,44.186448 c 3.656291,-4.718677 8.725628,-9.641497 8.755127,-10.734375 -0.03925,-1.111004 -5.419903,-5.867717 -8.73999,-9.070068 -0.06854,-0.806544 4.275572,-7.237295 5.464844,-7.325684 4.811986,3.85059 9.564941,8.507752 11.297607,8.753174 1.408691,-0.290954 5.67873,-4.858332 10.146484,-8.520752 0.974862,-0.03349 6.003255,5.806435 6.255127,6.596924 -2.999162,2.830326 -9.389526,8.028991 -9.534912,8.676513 0.08368,0.615112 7.259337,7.619476 9.796143,10.080323 -9.93e-4,0.570942 -5.417253,6.920192 -6.004639,6.772461 -3.027128,-2.702146 -9.766128,-9.062328 -10.918457,-9.361329 -1.232042,0.380312 -5.200611,4.676206 -10.641846,10.087403 -0.611813,0 -6.046222,-5.548556 -5.875488,-5.95459 z M 7.5623827,59.299604 C 18.8262,61.671761 19.45614,60.846055 29.901502,59.008199 c 4.826315,-1.586329 16.536562,-1.614986 19.40504,0.395331 3.291748,-0.8125 6.120218,0.656371 6.920877,0.434691 1.143066,-0.569824 3.533827,-3.771768 3.976698,-5.14396 0.918669,-2.582597 -0.849324,-12.741506 -0.80158,-22.72694 0.04774,-9.985435 1.911225,-19.797394 1.671092,-20.657195 C 60.809154,9.6654467 55.193801,6.6764542 53.345242,6.7612172 41.133572,8.1957875 34.36319,7.6425594 20.449128,6.03941 19.432038,6.2630428 11.588446,7.4462408 8.4528263,6.6194586 7.428046,6.937818 3.6694874,11.775564 3.5081715,12.549246 c 0.6594238,3.17627 1.0766773,32.370371 0.1425953,38.861094 0,0.546875 2.786738,7.286115 3.9116159,7.889264 z" />
    <path
       style="fill:#672425;fill-opacity:1;stroke:none;stroke-width:0.188976;stroke-linecap:round;stroke-linejoin:round;stroke-miterlimit:4;stroke-dasharray:none;stroke-opacity:1"
       d="M 8.4528263,6.6194586 C 7.428046,6.937818 3.6694874,11.775564 3.5081715,12.549246 c 0.6594238,3.17627 1.0766773,32.370371 0.1425953,38.861094 0,0.546875 2.786738,7.286115 3.9116159,7.889264 m 0,0 2.6818623,-5.042965 C 10.538758,48.575443 6.0961659,19.443654 10.715843,15.152999 21.237509,7.4128038 32.573523,16.725423 8.4528263,6.6194586"
       id="shield_left" />
    <path
       style="fill:#6b2227;stroke:none;stroke-width:0.188976;stroke-linecap:round;stroke-linejoin:round;stroke-miterlimit:4;stroke-dasharray:none;stroke-opacity:1;fill-opacity:1"
       d="m 49.306542,59.40353 c 3.291748,-0.8125 6.120218,0.656371 6.920877,0.434691 1.143066,-0.569824 3.533827,-3.771768 3.976698,-5.14396 0.918669,-2.582597 -0.849324,-12.741506 -0.80158,-22.72694 0.04774,-9.985435 1.911225,-19.797394 1.671092,-20.657195 C 60.809154,9.6654467 55.193801,6.6764542 53.345242,6.7612172 L 57.7854,12.144775 c -3.978857,10.450196 -3.312974,33.122834 -2.355203,36.568253 3.224448,4.489507 -2.85035,5.230454 -2.85035,5.230454 l -2.2962,3.681232 z"
       id="path75408" />
    <path
       id="shield_top"
       style="opacity:1;fill:#b34841;fill-opacity:1;stroke:none;stroke-width:0.188976;stroke-linecap:round;stroke-linejoin:round;stroke-miterlimit:4;stroke-dasharray:none;stroke-opacity:1"
       d="m 59.496052,9.355993 c 0,0 -5.226531,-2.6371573 -6.15081,-2.5947758 C 41.133572,8.1957875 34.36319,7.6425594 20.449128,6.03941 19.432038,6.2630428 11.588446,7.4462408 8.4528263,6.6194586 7.9404361,6.7786383 3.9802991,11.563498 3.9802991,11.563498 m 0,0 c 0,0 3.2797664,3.054424 4.5082263,3.128397 0.8559168,-0.017 3.4961356,-2.157973 4.6166996,-2.423829 1.384348,-0.483805 4.009503,-0.548996 5.189453,-0.435058 9.083629,0.351482 16.298058,2.638723 17.654785,2.609375 1.452193,0.309704 10.6207,-0.793224 14.745605,-0.629395 2.231461,0.255843 6.498026,-0.930032 7.090332,-1.668213 0.414148,-0.288816 1.594513,-1.823761 1.710652,-2.788782" />
    <path
       style="fill:#563947;fill-opacity:1;stroke:none;stroke-width:0.188976;stroke-linecap:round;stroke-linejoin:round;stroke-miterlimit:4;stroke-dasharray:none;stroke-opacity:1"
       d="m 4.5896779,53.947622 c 0,0 2.4102658,5.050407 2.9727048,5.351982 11.2638173,2.372157 11.8937573,1.546451 22.3391193,-0.291405 4.826315,-1.586329 16.536562,-1.614986 19.40504,0.395331 3.291748,-0.8125 6.120218,0.656371 6.920877,0.434691 1.143066,-0.569824 3.533827,-3.771768 3.976698,-5.14396 0.459334,-1.291299 -0.02776,-4.77018 -0.02776,-4.77018 l -0.09219,-0.205063 c -0.960457,2.10058 -2.814668,3.432452 -7.50432,4.224464 -4.507324,-0.323853 -15.645145,0.230647 -22.435794,1.761897 -13.16139,2.211261 -15.131189,4.337579 -19.899808,-1.44874 -1.3089934,0.404653 -2.2595559,2.492048 -5.6545661,-0.309017"
       id="shield_bottom" />
    <path
       style="fill:none;stroke:#000000;stroke-width:1.13386;stroke-linecap:round;stroke-linejoin:round;stroke-miterlimit:4;stroke-dasharray:none;stroke-opacity:1"
       d="M 7.5623827,59.299604 C 18.8262,61.671761 19.45614,60.846055 29.901502,59.008199 c 4.826315,-1.586329 16.536562,-1.614986 19.40504,0.395331 3.291748,-0.8125 6.120218,0.656371 6.920877,0.434691 1.143066,-0.569824 3.533827,-3.771768 3.976698,-5.14396 0.918669,-2.582597 -0.849324,-12.741506 -0.80158,-22.72694 0.04774,-9.985435 1.911225,-19.797394 1.671092,-20.657195 C 60.809154,9.6654467 55.193801,6.6764542 53.345242,6.7612172 41.133572,8.1957875 34.36319,7.6425594 20.449128,6.03941 19.432038,6.2630428 11.588446,7.4462408 8.4528263,6.6194586 7.428046,6.937818 3.6694874,11.775564 3.5081715,12.549246 c 0.6594238,3.17627 1.0766773,32.370371 0.1425953,38.861094 0,0.546875 2.786738,7.286115 3.9116159,7.889264 z"
       id="outline" />
  </symbol>
  <symbol id="icon-development" viewBox="0 0 512 512">
    <path
       style="fill:#939393;fill-opacity:1;stroke:#000000;stroke-width:15;stroke-linecap:butt;stroke-linejoin:round;stroke-miterlimit:4;stroke-dasharray:none;stroke-opacity:1"
       d="M 128.93175,100.72468 197.14061,152.26499 205,220 163.54912,251.1636 95.814105,259.02298 28,212 28.079106,266.88237 96.114052,320.77042 186.3774,300 413.16057,479.62686 C 450.95775,509.56466 515,432 480,357 L 246.25302,224.40562 245.8031,131.78445 127,46 Z"
       id="path35101" />
    <path
       style="fill:#c6c6c6;stroke:#000000;stroke-width:15;stroke-linecap:butt;stroke-linejoin:miter;stroke-opacity:1;fill-opacity:1"
       d="m 128.93175,44.985175 56.69578,44.906715 7.85939,67.73501 -29.9378,37.79719 -67.735015,7.85938 -56.695789,-44.90671 -11.03921,52.7661 68.034946,53.88805 90.263348,-20.77042 226.78317,179.62686 c 37.79718,29.9378 97.6728,-45.65659 59.87561,-75.59438 L 246.25302,168.66611 245.8031,76.044944 177.76815,22.15689 Z"
       id="path32889" />
    <path
       style="fill:#444444;stroke:#000000;stroke-width:1.08878px;stroke-linecap:butt;stroke-linejoin:miter;stroke-opacity:1;fill-opacity:1"
       d="M 430,340 310.5121,245.35789 c -21.33712,-16.90037 -55.13788,25.77389 -33.80075,42.67426 l 119.48791,94.64211 C 417.53638,399.57463 451.33713,356.90038 430,340 Z"
       id="path34449" />
  </symbol>
  <symbol id="icon-series" viewBox="0 0 64 64">
      <path
         style="opacity:1;fill:#595c2f;fill-opacity:1;stroke:none;stroke-width:0.377953;stroke-linecap:round;stroke-linejoin:round;stroke-miterlimit:4;stroke-dasharray:none;stroke-opacity:0.979103"
         d="m 44.280998,48.294467 5.922074,2.88397 c 1.506995,0.733886 6.334896,-2.170549 7.858433,-3.699252 0,0 1.039276,-24.423715 0.344946,-25.378335 -0.69433,-0.95462 -15.872585,-9.666082 -16.86173,-9.53955 -0.838421,0.107251 -0.284977,2.519694 -0.284977,2.519694 l -4.861463,1.788665 c 0,0 -1.974296,-1.659131 -2.554387,-1.573074 -1.885736,0.27975 -0.398473,2.829452 -0.398473,2.829452 -3.619953,16.115051 1.383431,25.005357 10.835577,30.16843 z"
         id="book3_overall" />
      <path
         style="opacity:1;fill:#aac046;fill-opacity:1;stroke:none;stroke-width:0.377953;stroke-linecap:butt;stroke-linejoin:miter;stroke-miterlimit:4;stroke-dasharray:none;stroke-opacity:1"
         d="M 36.398281,16.869659 33.742362,15.150047 32.96282,16.2956 c 5.446338,3.437727 10.825519,6.926779 16.865073,9.911152 l 0.08531,24.752374 1.057591,0.09714 L 50.804,26.177261 C 53.706851,25.775623 56.376348,24.62445 58.622289,22.37133 53.021267,18.502075 47.348906,15.349816 41.385505,12.342487 l -0.125758,2.738507 z"
         id="book3_highlight" />
      <path
         style="opacity:1;fill:#62302f;fill-opacity:1;stroke:none;stroke-width:0.377953;stroke-linecap:round;stroke-linejoin:round;stroke-miterlimit:4;stroke-dasharray:none;stroke-opacity:0.979103"
         d="m 18.327752,20.716604 c 0,0 -0.682036,-3.088495 0.382613,-3.183815 0.449554,-0.04025 1.539703,1.631417 2.549431,1.636017 0.503242,0.0023 4.317702,-0.597473 5.154552,-1.724332 0.413078,-0.556232 -0.529275,-2.860591 0.408378,-2.854691 0.563033,0.0036 6.622695,3.536254 6.622695,3.536254 0,0 10.11794,5.469547 11.025396,6.660785 0.46382,0.608867 -0.189819,23.507645 -0.189819,23.507645 M 18.327752,20.716604 c 0,0 -0.645211,26.547335 0.549673,28.437672 0.735447,1.163496 11.709802,3.448551 11.709802,3.448551 l 5.12959,2.401739 c 0.947598,0.443678 6.426411,-1.406512 8.534571,-4.070467 l 0.02961,-2.639632"
         id="book2_overall" />
      <path
         style="fill:#ad4644;fill-opacity:1;stroke:none;stroke-width:0.377953;stroke-linecap:butt;stroke-linejoin:miter;stroke-miterlimit:4;stroke-dasharray:none;stroke-opacity:1"
         d="m 21.259796,19.168806 -2.612787,-1.564988 -0.462418,1.229091 c 5.723021,3.486185 11.213043,7.218421 17.466801,10.144131 l -0.156284,25.974571 1.12454,-0.0064 0.165519,-25.952038 c 2.302709,-0.408272 4.866536,-1.268373 7.718236,-3.089648 l 0.04547,-1.142139 c 0,0 -12.547422,-7.809367 -17.712201,-10.25187 -0.725452,0.712443 -0.422325,2.93492 -0.422325,2.93492 -1.578849,1.319693 -3.006086,1.589362 -5.154552,1.724332 z"
         id="book2_highlight" />
      <path
         style="fill:#485150;fill-opacity:1;stroke:none;stroke-width:0.377953;stroke-linecap:round;stroke-linejoin:round;stroke-miterlimit:4;stroke-dasharray:none;stroke-opacity:0.979103"
         d="m 18.327752,20.716604 c 0,0 -4.696622,-2.842178 -5.053265,-2.699106 -0.757068,0.303708 0.0066,1.978835 -0.233929,2.435936 -0.497974,0.946345 -4.6533725,2.388128 -5.6633645,1.866972 -0.7151551,-0.36902 -2.3348695,-2.218493 -2.6882033,-1.289584 -0.2469997,0.649359 0.6581734,26.233763 0.6581734,26.233763 0.044195,1.761529 14.9033724,10.924749 16.8116724,11.347544 1.223384,0.271048 8.355793,-3.023823 8.385021,-4.22584 l 0.04337,-1.783462 m 0,0 c 0,0 0.965159,-23.116562 0.229712,-24.280058 -1.194884,-1.890337 -12.489187,-7.606165 -12.489187,-7.606165"
         id="book1_overall" />
      <path
         style="fill:#7e9a98;fill-opacity:1;stroke:none;stroke-width:0.245669;stroke-linecap:butt;stroke-linejoin:miter;stroke-miterlimit:4;stroke-dasharray:none;stroke-opacity:1"
         d="M 4.8177738,21.83838 C 9.999088,25.910308 18.638341,31.357903 21.710059,32.237365 l -0.121549,26.265915 1.388276,0.07479 -0.05863,-26.257864 c 2.274135,-0.129724 4.720695,-0.74902 7.958504,-3.168401 C 31.297559,26.544388 14.684627,19.071418 13.226907,17.809341 l -0.186349,2.644093 c -0.694711,1.542939 -2.229375,2.437744 -5.6633645,1.866972 L 5.0907104,20.678472 Z"
         id="book1_highlight" />
      <path
         style="fill:#dfd6c7;fill-opacity:1;stroke:#000000;stroke-width:0.377953;stroke-linecap:round;stroke-linejoin:round;stroke-miterlimit:4;stroke-dasharray:none;stroke-opacity:0.977052"
         d="m 13.040558,20.453434 c -0.497974,0.946345 -4.6533725,2.388128 -5.6633645,1.866972 0,0 11.4080805,7.974033 13.9495095,8.528252 2.071438,0.451727 7.76832,-1.665735 7.243873,-2.129151 -3.798223,-3.356222 -14.014435,-8.554519 -15.530018,-8.266073 z m 13.37379,-3.00896 c -0.83685,1.126859 -4.65131,1.726625 -5.154552,1.724332 3.545364,2.991269 9.928544,7.015744 14.132391,8.59355 0.949879,0.356513 8.123577,-1.728529 7.182168,-2.39988 C 34.966392,19.936971 26.691767,15.56412 26.414348,17.444474 Z m 14.845396,-2.36348 -4.861463,1.788665 c 0,0 8.630018,6.399497 13.424903,8.340416 1.531048,0.619752 7.248578,-1.977736 6.552246,-2.468646 -7.868373,-5.547157 -15.010368,-8.874314 -15.115686,-7.660435 z"
         id="pages_outline" />
      <path
         style="fill:none;stroke:#000000;stroke-width:1.13386;stroke-linecap:round;stroke-linejoin:round;stroke-miterlimit:4;stroke-dasharray:none;stroke-opacity:0.979103"
         d="m 4.6889902,21.030822 c -0.2469997,0.649359 0.6581734,26.233763 0.6581734,26.233763 0.044195,1.761529 14.9033724,10.924749 16.8116724,11.347544 1.223384,0.271048 8.355793,-3.023823 8.385021,-4.22584 l 0.04337,-1.783462 5.12959,2.401739 c 0.947598,0.443678 6.426411,-1.406512 8.534571,-4.070467 l 0.02961,-2.639632 5.922074,2.88397 c 1.506995,0.733886 6.334896,-2.170549 7.858433,-3.699252 0,0 1.039276,-24.423715 0.344946,-25.378335 -0.69433,-0.95462 -15.872585,-9.666082 -16.86173,-9.53955 -0.838421,0.107251 -0.284977,2.519694 -0.284977,2.519694 l -4.861463,1.788665 c 0,0 -1.974296,-1.659131 -2.554387,-1.573074 -1.885736,0.27975 -0.398473,2.829452 -0.398473,2.829452 0,0 -6.059662,-3.532692 -6.622695,-3.536254 -0.937653,-0.0059 0.0047,2.298459 -0.408378,2.854691 -0.83685,1.126859 -4.65131,1.726625 -5.154552,1.724332 -1.009728,-0.0046 -2.099877,-1.676268 -2.549431,-1.636017 -1.064649,0.09532 -0.382613,3.183815 -0.382613,3.183815 0,0 -4.696622,-2.842178 -5.053265,-2.699106 -0.757068,0.303708 0.0066,1.978835 -0.233929,2.435936 -0.497974,0.946345 -4.6533725,2.388128 -5.6633645,1.866972 C 6.6620384,21.951386 5.042324,20.101913 4.6889902,21.030822 Z M 30.587227,52.602827 c 0,0 0.965159,-23.116562 0.229712,-24.280058 -1.194884,-1.890337 -12.489187,-7.606165 -12.489187,-7.606165 m 15.117669,-2.590567 c 0,0 10.11794,5.469547 11.025396,6.660785 0.46382,0.608867 -0.189819,23.507645 -0.189819,23.507645"
         id="path96332" />
  </symbol>
  <symbol id="icon-home" viewBox="0 0 64 64">
      <path
         style="fill:#deaa87;fill-opacity:1;stroke:none;stroke-width:0.755906;stroke-linecap:butt;stroke-linejoin:miter;stroke-miterlimit:4;stroke-dasharray:none;stroke-opacity:0.972506"
         d="m 25.105607,58.513749 14.947029,-0.08734 m 12.670962,-1.100327 c -0.999496,1.11868 -12.670962,1.10033 -12.670962,1.10033 0,0 -9.875679,0.200118 -14.947029,0.08734 -4.087646,-0.0909 -11.90653,0.0039 -12.251065,-0.604528 -1.32339,-2.336943 -0.407077,-7.112043 -1.445781,-11.767803 -0.818008,-3.666542 20.487622,-20.269453 20.487622,-20.269453 0,0 22.505467,16.137831 20.976998,22.546101 -1.004743,2.019649 0.836582,7.803994 -0.149783,8.908013 z"
         id="house_base" />
      <path
         style="fill:#c83737;fill-opacity:1;stroke:none;stroke-width:0.755906;stroke-linecap:butt;stroke-linejoin:miter;stroke-miterlimit:4;stroke-dasharray:none;stroke-opacity:0.972506"
         d="m 10.048792,47.496284 c 0.279055,0.0029 0.9391,-0.848411 1.359969,-1.354866 0.420868,-0.506455 0.602559,-0.668054 3.131561,-3.144479 2.529002,-2.476425 7.496249,-6.231123 11.060981,-9.439393 3.564731,-3.208271 5.726947,-5.870114 6.216278,-5.873373 0.593085,-0.0039 2.791975,2.898623 5.973371,5.878131 3.181397,2.979508 7.3453,6.035953 9.836399,8.696878 2.491099,2.660926 4.416886,5.101538 5.24603,6.158881 0.829144,1.057342 0.561646,0.731415 1.064131,0.917191 0.975448,0.360636 4.02709,-1.761015 4.721948,-3.618219 C 58.90698,45.055469 56.862056,35.679753 55.023807,30.685274 53.947435,27.760795 53.799571,24.08485 53.242167,23.212261 52.684763,22.339672 47.566095,18.626596 42.982423,14.557938 38.398751,10.48928 34.350074,6.0650403 33.191915,6.0202054 c -1.158159,-0.044835 -4.9598,3.9341305 -9.056825,7.5546696 -4.097025,3.620539 -8.489434,6.882651 -9.100436,7.78999 -1.222003,1.814677 -10.7148569,19.733565 -10.1583223,21.406496 0.3685694,1.107912 1.8143914,1.522803 2.7234775,2.42402 0.9090861,0.901218 1.2814362,2.28877 2.4489828,2.300903 z"
         id="roof_overall" />
      <path
         style="fill:#782121;fill-opacity:1;stroke:none;stroke-width:0.377953;stroke-linecap:butt;stroke-linejoin:miter;stroke-miterlimit:4;stroke-dasharray:none;stroke-opacity:0.972506"
         d="m 10.048792,47.496284 c 0.279055,0.0029 0.9391,-0.848411 1.359969,-1.354866 0.420868,-0.506455 0.602559,-0.668054 3.131561,-3.144479 2.529002,-2.476425 7.496249,-6.231123 11.060981,-9.439393 3.564731,-3.208271 5.726947,-5.870114 6.216278,-5.873373 0.593085,-0.0039 2.791975,2.898623 5.973371,5.878131 3.181397,2.979508 7.3453,6.035953 9.836399,8.696878 2.491099,2.660926 4.416886,5.101538 5.24603,6.158881 0.829144,1.057342 0.561646,0.731415 1.064131,0.917191 0.975448,0.360636 4.02709,-1.761015 4.721948,-3.618219 C 53.268692,40.090063 48.192939,33.677742 44.220566,29.444044 39.636894,25.375386 34.201049,19.639808 32.105517,19.623661 29.724197,19.605312 21.649763,27.309645 17.552738,30.930184 10.280876,35.858835 4.6430743,41.784324 4.8763317,42.771361 c 0.3685694,1.107912 1.8143914,1.522803 2.7234775,2.42402 0.9090861,0.901218 1.2814362,2.28877 2.4489828,2.300903 z"
         id="roof_front" />
      <path
         style="fill:#004d00;fill-opacity:1;stroke:none;stroke-width:0.755906;stroke-linecap:butt;stroke-linejoin:miter;stroke-miterlimit:4;stroke-dasharray:none;stroke-opacity:0.972506"
         d="m 25.105607,58.513749 c 5.07135,0.112778 14.947029,-0.08734 14.947029,-0.08734 m -14.947029,0.08734 c -0.254001,-2.89636 0.428529,-8.415545 0.137728,-10.995208 0.490533,-6.423138 13.194424,-6.747507 14.059392,0.13333 -0.101601,3.048389 0.455391,7.624298 0.749909,10.774535"
         id="door" />
      <path
         style="fill:#171717;fill-opacity:1;stroke:none;stroke-width:0.755906;stroke-linecap:butt;stroke-linejoin:miter;stroke-miterlimit:4;stroke-dasharray:none;stroke-opacity:0.972506"
         d="m 15.58806,48.705327 c 0.01867,-2.203192 2.336465,-2.77636 4.102028,-2.298783 2.443365,0.66092 2.912232,3.913127 1.273364,4.9156 -1.80532,1.104289 -5.390851,-0.792509 -5.375392,-2.616817 z"
         id="window" />
      <path
         style="fill:none;stroke:#000000;stroke-width:1.51181;stroke-linecap:butt;stroke-linejoin:miter;stroke-miterlimit:4;stroke-dasharray:none;stroke-opacity:0.972506"
         d="m 10.048792,47.496284 c 0.279055,0.0029 0.9391,-0.848411 1.359969,-1.354866 0.420868,-0.506455 0.602559,-0.668054 3.131561,-3.144479 2.529002,-2.476425 7.496249,-6.231123 11.060981,-9.439393 3.564731,-3.208271 5.726947,-5.870114 6.216278,-5.873373 0.593085,-0.0039 2.791975,2.898623 5.973371,5.878131 3.181397,2.979508 7.3453,6.035953 9.836399,8.696878 2.491099,2.660926 4.416886,5.101538 5.24603,6.158881 0.829144,1.057342 0.561646,0.731415 1.064131,0.917191 0.975448,0.360636 4.02709,-1.761015 4.721948,-3.618219 C 58.90698,45.055469 56.862056,35.679753 55.023807,30.685274 53.947435,27.760795 53.799571,24.08485 53.242167,23.212261 52.684763,22.339672 47.566095,18.626596 42.982423,14.557938 38.398751,10.48928 34.350074,6.0650403 33.191915,6.0202054 c -1.158159,-0.044835 -4.9598,3.9341305 -9.056825,7.5546696 -4.097025,3.620539 -8.489434,6.882651 -9.100436,7.78999 -1.222003,1.814677 -10.7148569,19.733565 -10.1583223,21.406496 0.3685694,1.107912 1.8143914,1.522803 2.7234775,2.42402 0.9090861,0.901218 1.2814362,2.28877 2.4489828,2.300903 z m 1.359969,-1.354866 c 1.066273,4.649524 0.122391,9.43086 1.445781,11.767803 0.344535,0.608407 8.163419,0.513626 12.251065,0.604528 5.07135,0.112778 14.947029,-0.08734 14.947029,-0.08734 0,0 11.671466,0.01835 12.670962,-1.10033 0.986365,-1.104019 -0.85496,-6.888364 0.149783,-8.908013 M 25.105607,58.513749 c -0.254001,-2.89636 0.428529,-8.415545 0.137728,-10.995208 0.490533,-6.423138 13.194424,-6.747507 14.059392,0.13333 -0.101601,3.048389 0.455391,7.624298 0.749909,10.774535 M 15.58806,48.705327 c 0.01867,-2.203192 2.336465,-2.77636 4.102028,-2.298783 2.443365,0.66092 2.912232,3.913127 1.273364,4.9156 -1.80532,1.104289 -5.390851,-0.792509 -5.375392,-2.616817 z"
         id="path8951" />
  </symbol>
  <symbol id="icon-menu" viewBox="0 0 64 64">
    <path
       style="fill:#ad3a32;stroke:none;stroke-width:1.12536px;stroke-linecap:round;stroke-linejoin:round;stroke-opacity:1;fill-opacity:1"
       d="m 2.6616815,5.3167564 c -0.534892,0.7359471 1.385967,11.7136186 2.0647513,12.4063806 1.123363,2.394472 10.8057302,-1.239736 14.6257732,-1.856877 3.14341,-0.506222 40.825411,3.463929 41.284146,2.619211 1.148808,-0.817838 1.31872,-6.448133 -2.45097,-13.7604756 -1.402188,-0.9353891 -26.169186,2.1051609 -26.773381,2.1051609 -0.604193,0 -27.9038102,-1.9732099 -28.7503195,-1.5133999 z M 3.4492706,39.578648 C 2.9353397,38.151021 5.2716109,28.370589 6.8809395,27.553823 c 2.3291613,-1.00328 43.8959675,3.972787 46.9526905,2.55821 1.571443,0 3.770951,-2.512515 7.363399,-1.940803 0.640639,0.900645 -0.129235,9.1867 -0.688528,10.459363 -0.787622,1.271143 -2.039306,1.997556 -3.574257,2.426845 C 54.892204,41.700611 35.867772,40.752774 28.527023,37.996477 17.183162,37.632949 4.961667,41.930998 3.4492706,39.578648 Z M 2.985343,50.504268 c -0.1393797,0.462107 0.1546093,9.471743 0.2816982,9.761525 1.0148109,0.979079 46.0600718,0.488566 48.7536168,1.128735 0.778775,0.347545 4.466431,-1.55998 4.733698,-2.047655 0.518943,-0.354623 4.65295,-10.092566 4.182733,-10.788071 -0.87581,-0.434485 -5.390746,0.773031 -5.584231,0.869962 0,0 -5.077145,3.232341 -5.677871,3.232341 -0.841981,0.38 -43.6714196,-2.959912 -44.4442166,-3.173669 -0.7085558,0.20552 -2.0966713,0.847676 -2.2454274,1.016832 z"
       id="color" />
    <path
       style="fill:#6b2227;fill-opacity:1;stroke:none;stroke-width:0.188976;stroke-linecap:round;stroke-linejoin:round;stroke-miterlimit:4;stroke-dasharray:none;stroke-opacity:1"
       d="m 8.2769914,5.3911968 c 0,0 -5.1920552,-0.3043454 -5.6153099,-0.07444 -0.534892,0.7359471 1.385967,11.7136182 2.0647513,12.4063802 0.9986071,1.565492 5.1966856,0.397086 5.1966856,0.397086 0,0 -3.495377,-5.911039 -1.646127,-12.7290262 z M 56.695857,18.403143 c 0,0 3.711127,0.504687 3.940495,0.08233 1.148808,-0.817838 1.31872,-6.448133 -2.45097,-13.7604756 -1.402188,-0.9353891 -4.185953,-0.085022 -4.185953,-0.085022 -1.48016,8.0799376 3.785971,7.5047996 2.696428,13.7631676 z M 8.0842826,40.167688 c 0,0 -3.6265328,0.558673 -4.635012,-0.58904 -0.5139309,-1.427627 1.8223403,-11.208059 3.4316689,-12.024825 1.1645807,-0.50164 3.9880205,0.0057 3.9880205,0.0057 -4.989453,6.233968 -1.8125782,11.69152 -2.7846774,12.608203 z M 53.83363,30.112033 c 1.571443,0 3.770951,-2.512515 7.363399,-1.940803 0.640639,0.900645 -0.129235,9.1867 -0.688528,10.459363 -0.787622,1.271143 -2.039306,1.997556 -3.574257,2.426845 -1.530396,-0.87974 3.393167,-10.000927 -3.100614,-10.945405 z M 5.2307704,49.487436 c -0.7085558,0.20552 -2.0966713,0.847676 -2.2454274,1.016832 -0.1393797,0.462107 0.1546093,9.471743 0.2816982,9.761525 0.5074055,0.48954 4.6231174,0.467553 4.6231174,0.467553 0,0 3.4865364,-3.487243 -2.6593882,-11.24591 z M 52.020658,61.394528 c 0.778775,0.347545 4.466431,-1.55998 4.733698,-2.047655 0.518943,-0.354623 4.65295,-10.092566 4.182733,-10.788071 -0.87581,-0.434485 -5.390746,0.773031 -5.584231,0.869962 1.906737,4.999811 -3.407468,10.068695 -3.3322,11.965764 z"
       id="left-right" />
    <path
       style="fill:#b34841;stroke:none;stroke-width:0.18897638;stroke-linecap:round;stroke-linejoin:round;stroke-miterlimit:4;stroke-dasharray:none;stroke-opacity:1;fill-opacity:1"
       d="M 2.6616815,5.3167564 2.7870483,7.7785568 C 3.2796086,11.488841 2.3341598,7.4740043 6.1542028,6.8568633 9.2976128,6.3506413 10.07581,12.979115 54.430297,8.1341525 57.177982,7.4496153 53.844232,6.2973477 58.185382,4.7249954 56.783194,3.7896063 32.016196,6.8301563 31.412001,6.8301563 c -0.604193,0 -27.9038102,-1.9732099 -28.7503195,-1.5133999 z m 4.586443,25.3595046 c -0.5544988,-0.306942 -0.367185,-3.122438 -0.367185,-3.122438 2.3291613,-1.00328 43.8959675,3.972787 46.9526905,2.55821 1.571443,0 3.770951,-2.512515 7.363399,-1.940803 0.640639,0.900645 -1.05955,1.912652 -1.618843,3.185315 -0.787622,1.271143 -1.931745,2.040647 -3.466696,2.469936 C 54.06945,34.469654 25.545279,33.810329 21.180605,30.537674 8.1098909,28.390324 8.0650262,30.015075 7.2481245,30.676261 Z M 2.985343,50.504268 c -0.1393797,0.462107 1.9789501,0.504946 1.687582,2.437672 0.8384193,-1.470384 44.909437,2.045085 47.602982,2.685254 0.778775,0.347545 4.495728,-3.813886 4.762995,-4.301561 0.518943,-0.354623 4.368404,-2.071326 3.898187,-2.766831 -0.87581,-0.434485 -5.390746,0.773031 -5.584231,0.869962 0,0 -5.077145,3.232341 -5.677871,3.232341 -0.841981,0.38 -43.6714196,-2.959912 -44.4442166,-3.173669 -0.7085558,0.20552 -2.0966713,0.847676 -2.2454274,1.016832 z"
       id="top" />
    <path
       style="fill:#563947;fill-opacity:1;stroke:none;stroke-width:0.188976;stroke-linecap:round;stroke-linejoin:round;stroke-miterlimit:4;stroke-dasharray:none;stroke-opacity:1"
       d="m 8.8656896,15.871328 -4.1392568,1.851809 c 1.123363,2.394472 10.8057302,-1.239736 14.6257732,-1.856877 3.14341,-0.506222 40.825411,3.463929 41.284146,2.619211 1.148808,-0.817838 -1.399459,-1.323096 -1.399459,-1.323096 -1.402188,-0.935389 -36.359396,-3.394942 -36.963591,-3.394942 -0.604193,0 -12.5611031,1.644085 -13.4076124,2.103895 z m -5.416419,23.70732 c 0,0 2.1631959,0.301914 3.6709235,-1.167937 4.8189069,-3.008895 27.9327369,-4.81975 32.2697099,0.158982 1.413483,0.692778 14.340436,-0.383599 17.932884,0.188113 0.640639,0.900645 3.745006,-1.399876 3.185713,-0.127213 -0.787622,1.271143 -2.039306,1.997556 -3.574257,2.426845 C 54.892204,41.700611 35.867772,40.752774 28.527023,37.996477 17.183162,37.632949 4.961667,41.930998 3.4492706,39.578648 Z M 3.1232772,59.0971 c -0.1393797,0.462107 0.016675,0.878911 0.143764,1.168693 1.0148109,0.979079 46.0600718,0.488566 48.7536168,1.128735 0.778775,0.347545 4.466431,-1.55998 4.733698,-2.047655 0.518943,-0.354623 1.010556,-0.837339 0.540339,-1.532844 -0.87581,-0.434485 -5.390746,0.773031 -5.584231,0.869962 0,0 -5.355258,0.682889 -5.955984,0.682889 -0.841981,0.38 -39.6129784,-1.072855 -40.3857754,-1.286612 -0.7085558,0.20552 -2.0966713,0.847676 -2.2454274,1.016832 z"
       id="bottom" />
    <path
       style="fill:none;stroke:#000000;stroke-width:1.12536px;stroke-linecap:round;stroke-linejoin:round;stroke-opacity:1"
       d="m 2.6616815,5.3167564 c -0.534892,0.7359471 1.385967,11.7136186 2.0647513,12.4063806 1.123363,2.394472 10.8057302,-1.239736 14.6257732,-1.856877 3.14341,-0.506222 40.825411,3.463929 41.284146,2.619211 1.148808,-0.817838 1.31872,-6.448133 -2.45097,-13.7604756 -1.402188,-0.9353891 -26.169186,2.1051609 -26.773381,2.1051609 -0.604193,0 -27.9038102,-1.9732099 -28.7503195,-1.5133999 z M 3.4492706,39.578648 C 2.9353397,38.151021 5.2716109,28.370589 6.8809395,27.553823 c 2.3291613,-1.00328 43.8959675,3.972787 46.9526905,2.55821 1.571443,0 3.770951,-2.512515 7.363399,-1.940803 0.640639,0.900645 -0.129235,9.1867 -0.688528,10.459363 -0.787622,1.271143 -2.039306,1.997556 -3.574257,2.426845 C 54.892204,41.700611 35.867772,40.752774 28.527023,37.996477 17.183162,37.632949 4.961667,41.930998 3.4492706,39.578648 Z M 2.985343,50.504268 c -0.1393797,0.462107 0.1546093,9.471743 0.2816982,9.761525 1.0148109,0.979079 46.0600718,0.488566 48.7536168,1.128735 0.778775,0.347545 4.466431,-1.55998 4.733698,-2.047655 0.518943,-0.354623 4.65295,-10.092566 4.182733,-10.788071 -0.87581,-0.434485 -5.390746,0.773031 -5.584231,0.869962 0,0 -5.077145,3.232341 -5.677871,3.232341 -0.841981,0.38 -43.6714196,-2.959912 -44.4442166,-3.173669 -0.7085558,0.20552 -2.0966713,0.847676 -2.2454274,1.016832 z"
       id="outline" />
  </symbol>
  <symbol id="icon-meta" viewBox="0 0 64 64">
      <path
         style="opacity:1;fill:#b4b1ab;fill-opacity:1;stroke:none;stroke-width:0.377953;stroke-linecap:round;stroke-linejoin:round;stroke-miterlimit:4;stroke-dasharray:none;stroke-opacity:1"
         d="M 10.524314,8.3491272 C 16.069202,31.195761 9.2242506,53.003143 10.266209,56.321072 c 0,0 -0.01378,1.617262 0.588529,1.874065 1.286302,0.548434 2.015292,-2.205363 3.758105,-1.86409 5.923121,1.159849 26.882792,0.434579 35.320449,2.543018 1.307146,0.326635 3.820463,-0.501295 3.603491,-1.831048 -0.265538,-1.6274 -1.583746,-8.554481 -1.529302,-11.973192 C 51.396698,42.201722 53.1873,37.570185 53.244389,33.61409 52.477274,31.231391 51.86685,23.55978 51.713217,21.122818 51.92504,19.334772 52.617855,17.186413 52.196853,15.79887 52.031429,12.935947 46.245058,6.8564083 43.613466,6.3366584 41.847683,6.2808922 27.184724,7.2422623 24.508387,8.1365055 23.803484,9.1572697 19.656173,9.579997 18.038292,9.1572317 17.503554,8.5252881 15.193171,7.858161 14.126559,7.9145885 13.21336,7.8017336 10.711671,7.8157112 10.524314,8.3491272 Z M 43.613466,6.3366584 c 0,0 -2.020687,6.7179256 -1.099993,9.2935316 1.746386,1.080718 2.610659,-2.571028 9.68338,0.16868"
         id="paper_dark" />
      <path
         style="opacity:1;fill:#dddcd6;fill-opacity:1;stroke:none;stroke-width:0.755906;stroke-linecap:round;stroke-linejoin:round;stroke-miterlimit:4;stroke-dasharray:none;stroke-opacity:1"
         d="m 12.08386,39.658364 c -0.887882,8.722416 -2.3386302,15.003744 -1.817651,16.662708 0,0 -0.01378,1.617262 0.588529,1.874065 1.286302,0.548434 2.015292,-2.205363 3.758105,-1.86409 5.923121,1.159849 26.882792,0.434579 35.320449,2.543018 1.307146,0.326635 3.820463,-0.501295 3.603491,-1.831048 -0.265538,-1.6274 -1.583746,-8.554481 -1.529302,-11.973192 C 51.396698,42.201722 53.1873,37.570185 53.244389,33.61409 52.477274,31.231391 51.86685,23.55978 51.713217,21.122818 43.99641,35.566708 27.606749,43.469645 12.08386,39.658364 Z"
         id="paper_light" />
      <path
         style="opacity:1;fill:#fffdf3;fill-opacity:1;stroke:none;stroke-width:0.755906;stroke-linecap:round;stroke-linejoin:round;stroke-miterlimit:4;stroke-dasharray:none;stroke-opacity:1"
         d="M 52.196853,15.79887 C 52.031429,12.935947 46.245058,6.8564083 43.613466,6.3366584 m 0,0 c 0,0 -2.020687,6.7179256 -1.099993,9.2935316 1.746386,1.080718 2.610659,-2.571028 9.68338,0.16868"
         id="paper_lightest" />
      <path
         style="opacity:1;fill:#f0e7a6;fill-opacity:1;stroke:none;stroke-width:0.377953;stroke-linecap:round;stroke-linejoin:round;stroke-miterlimit:4;stroke-dasharray:none;stroke-opacity:1"
         d="m 18.038292,9.1572317 c -12.025528,-6.1048211 -6.012764,-3.0524106 0,0 z M 43.99641,35.566708 c 0.348815,-0.545823 -0.358633,-0.574189 -0.358633,-0.574189 h 4e-6 C 46.331204,25.56967 43.770729,22.024159 40.072319,18.24813 36.195605,13.902588 27.424876,9.6483786 18.610973,17.527431 c -7.905549,7.872039 -2.818269,18.704021 -0.156486,21.33058 4.661783,4.346633 10.094452,5.394951 14.767535,4.212048 -0.849751,1.851544 -0.132949,1.415601 0.08081,2.040835 5.425193,3.094584 15.419489,-5.705134 10.693578,-9.544186 z"
         id="bulb_top" />
      <path
         style="fill:#b5b5b5;fill-opacity:1;stroke:#000000;stroke-width:0.377953;stroke-linecap:round;stroke-linejoin:round;stroke-miterlimit:4;stroke-dasharray:none;stroke-opacity:1;paint-order:normal"
         d="m 49.870575,44.294773 c 0.349985,-0.991592 0.14574,-1.367576 0.328142,-2.037448 0.07325,-1.004832 -0.703086,-1.465866 -1.534601,-1.327618 -0.0012,-2.007871 -0.48909,-3.009429 -1.930954,-2.627026 0.327774,-2.357777 -1.753585,-2.968127 -2.736752,-2.735973 1.83019,2.798083 -2.998441,9.835255 -10.693578,9.544186 -0.163264,1.783043 2.356297,3.279848 3.248753,2.970933 -0.222101,1.036004 1.000312,1.812967 1.530081,1.554551 5.46e-4,0.664277 0.809461,1.608479 1.252338,1.684227 0.855595,0.319358 2.977244,0.435318 4.320604,-0.310006 m 3e-6,0 c 2.875487,2.560176 8.189386,-3.891146 6.215967,-6.715826"
         id="bulb_bottom" />
      <path
         style="fill:none;stroke:#000000;stroke-width:0.377953;stroke-linecap:round;stroke-linejoin:round;stroke-miterlimit:4;stroke-dasharray:none;stroke-opacity:1"
         d="m 45.912874,40.021197 c -1.314319,4.234209 -3.940673,6.536514 -7.857232,6.939059 m 9.300343,-4.656328 c -1.099526,4.5424 -4.108361,5.884051 -7.49096,6.599127 m 1.928116,-7.954343 C 38.7687,37.41792 36.701546,33.533756 37.57651,28.563543 m 2.844517,13.50887 C 36.525909,37.851687 32.322281,33.969032 29.460652,28.615783 m 9.575037,14.19195 C 35.433941,39.396295 32.537625,35.307519 25.242698,35.442184 m 14.286952,0.266929 c -3.176141,0.703282 -6.429368,2.993543 -6.125467,3.854261 1.438347,0.808642 5.192127,-1.302717 6.539195,-3.136133"
         id="details" />
      <path
         style="opacity:1;fill:#f4efc8;fill-opacity:1;stroke:none;stroke-width:0.377953;stroke-linecap:round;stroke-linejoin:round;stroke-miterlimit:4;stroke-dasharray:none;stroke-opacity:1"
         d="m 32.966334,18.53803 c -5.515699,-2.50238 -7.904827,-1.165361 -12.110349,5.308603 -1.321329,2.034049 0.97625,4.433007 4.664277,4.309227 6.590374,-0.444655 11.95903,-7.570377 7.446072,-9.61783 z"
         id="bulb_highlight" />
      <path
         style="fill:none;stroke:#000000;stroke-width:1.13386;stroke-linecap:round;stroke-linejoin:round;stroke-miterlimit:4;stroke-dasharray:none;stroke-opacity:1"
         d="M 10.524314,8.3491272 C 16.069202,31.195761 9.2242506,53.003143 10.266209,56.321072 c 0,0 -0.01378,1.617262 0.588529,1.874065 1.286302,0.548434 2.015292,-2.205363 3.758105,-1.86409 5.923121,1.159849 26.882792,0.434579 35.320449,2.543018 1.307146,0.326635 3.820463,-0.501295 3.603491,-1.831048 -0.265538,-1.6274 -1.583746,-8.554481 -1.529302,-11.973192 C 51.396698,42.201722 53.1873,37.570185 53.244389,33.61409 52.477274,31.231391 51.86685,23.55978 51.713217,21.122818 51.92504,19.334772 52.617855,17.186413 52.196853,15.79887 52.031429,12.935947 46.245058,6.8564083 43.613466,6.3366584 41.847683,6.2808922 27.184724,7.2422623 24.508387,8.1365055 23.803484,9.1572697 19.656173,9.579997 18.038292,9.1572317 17.503554,8.5252881 15.193171,7.858161 14.126559,7.9145885 13.21336,7.8017336 10.711671,7.8157112 10.524314,8.3491272 Z M 43.613466,6.3366584 c 0,0 -2.020687,6.7179256 -1.099993,9.2935316 1.746386,1.080718 2.610659,-2.571028 9.68338,0.16868 M 43.637781,34.992519 C 46.331204,25.56967 43.770729,22.024159 40.072319,18.24813 36.195605,13.902588 27.424876,9.6483786 18.610973,17.527431 c -7.905549,7.872039 -2.818269,18.704021 -0.156486,21.33058 4.661783,4.346633 10.094452,5.394951 14.767535,4.212048 -0.849751,1.851544 -0.132949,1.415601 0.08081,2.040835 -0.163264,1.783043 2.356297,3.279848 3.248753,2.970933 -0.222101,1.036004 1.000312,1.812967 1.530081,1.554551 5.46e-4,0.664277 0.809461,1.608479 1.252338,1.684227 0.855595,0.319358 2.977244,0.435318 4.320604,-0.310006 1.566124,0.02958 5.307332,-4.141438 6.215967,-6.715826 0.349985,-0.991592 0.14574,-1.367576 0.328142,-2.037448 0.07325,-1.004832 -0.703086,-1.465866 -1.534601,-1.327618 -0.0012,-2.007871 -0.48909,-3.009429 -1.930954,-2.627026 0.327774,-2.357777 -1.753585,-2.968127 -2.736752,-2.735973 0.348815,-0.545823 -0.358633,-0.574189 -0.358633,-0.574189 z m 0.01683,16.01808 c 2.875487,2.560176 8.189386,-3.891146 6.215967,-6.715826"
         id="outline" />
  </symbol>
  <symbol id="icon-misc" viewBox="0 0 64 64">
    <rect
       style="opacity:1;fill:#ffffff;fill-opacity:1;fill-rule:evenodd;stroke:none;stroke-width:0.113386;stroke-linecap:round;stroke-linejoin:round;stroke-miterlimit:4;stroke-dasharray:none;stroke-opacity:1"
       id="cross_bg"
       width="40.223633"
       height="38.197266"
       x="11.908203"
       y="14.123535" />
    <path
       style="opacity:1;fill:#b6bdb6;fill-opacity:0.992219;stroke:none;stroke-width:0.113386;stroke-linecap:butt;stroke-linejoin:miter;stroke-miterlimit:4;stroke-dasharray:none;stroke-opacity:1"
       d="m 16.761849,26.45988 c 1.478261,-2.385277 3.607695,-5.385388 4.789371,-5.798327 5.534802,3.304723 9.293551,8.176354 10.97362,8.500387 2.345053,-0.108586 3.297818,-3.12622 10.824983,-7.868807 1.224144,0.524633 4.356579,4.00993 4.903482,5.616285 0,0 -8.271388,6.734433 -8.37704,7.745202 0.02175,1.312015 8.857479,11.447326 8.857479,11.447326 3.928711,-2.672852 1.481222,-22.485369 1.481222,-22.485369 l -7.139405,-7.312622 -24.505859,0.563477 -3.924194,8.877685 z m 8.234099,9.540763 c -0.28778,0.856953 -6.041135,5.325398 -9.507616,9.216212 l -0.220281,-3.819516 8.473197,-8.265519 c 0,0 1.406963,2.103193 1.2547,2.868823 z"
       id="cross_shadow" />
    <path
       id="shield_bg"
       style="opacity:1;fill:#ad3a32;fill-opacity:1;stroke:none;stroke-width:0.188976;stroke-linecap:round;stroke-linejoin:round;stroke-miterlimit:4;stroke-dasharray:none;stroke-opacity:1"
       d="m 16.166226,44.186448 c 3.656291,-4.718677 8.725628,-9.641497 8.755127,-10.734375 -0.03925,-1.111004 -5.419903,-5.867717 -8.73999,-9.070068 -0.06854,-0.806544 4.275572,-7.237295 5.464844,-7.325684 4.811986,3.85059 9.564941,8.507752 11.297607,8.753174 1.408691,-0.290954 5.67873,-4.858332 10.146484,-8.520752 0.974862,-0.03349 6.003255,5.806435 6.255127,6.596924 -2.999162,2.830326 -9.389526,8.028991 -9.534912,8.676513 0.08368,0.615112 7.259337,7.619476 9.796143,10.080323 -9.93e-4,0.570942 -5.417253,6.920192 -6.004639,6.772461 -3.027128,-2.702146 -9.766128,-9.062328 -10.918457,-9.361329 -1.232042,0.380312 -5.200611,4.676206 -10.641846,10.087403 -0.611813,0 -6.046222,-5.548556 -5.875488,-5.95459 z M 7.5623827,59.299604 C 18.8262,61.671761 19.45614,60.846055 29.901502,59.008199 c 4.826315,-1.586329 16.536562,-1.614986 19.40504,0.395331 3.291748,-0.8125 6.120218,0.656371 6.920877,0.434691 1.143066,-0.569824 3.533827,-3.771768 3.976698,-5.14396 0.918669,-2.582597 -0.849324,-12.741506 -0.80158,-22.72694 0.04774,-9.985435 1.911225,-19.797394 1.671092,-20.657195 C 60.809154,9.6654467 55.193801,6.6764542 53.345242,6.7612172 41.133572,8.1957875 34.36319,7.6425594 20.449128,6.03941 19.432038,6.2630428 11.588446,7.4462408 8.4528263,6.6194586 7.428046,6.937818 3.6694874,11.775564 3.5081715,12.549246 c 0.6594238,3.17627 1.0766773,32.370371 0.1425953,38.861094 0,0.546875 2.786738,7.286115 3.9116159,7.889264 z" />
    <path
       style="fill:#672425;fill-opacity:1;stroke:none;stroke-width:0.188976;stroke-linecap:round;stroke-linejoin:round;stroke-miterlimit:4;stroke-dasharray:none;stroke-opacity:1"
       d="M 8.4528263,6.6194586 C 7.428046,6.937818 3.6694874,11.775564 3.5081715,12.549246 c 0.6594238,3.17627 1.0766773,32.370371 0.1425953,38.861094 0,0.546875 2.786738,7.286115 3.9116159,7.889264 m 0,0 2.6818623,-5.042965 C 10.538758,48.575443 6.0961659,19.443654 10.715843,15.152999 21.237509,7.4128038 32.573523,16.725423 8.4528263,6.6194586"
       id="shield_left" />
    <path
       style="fill:#6b2227;stroke:none;stroke-width:0.188976;stroke-linecap:round;stroke-linejoin:round;stroke-miterlimit:4;stroke-dasharray:none;stroke-opacity:1;fill-opacity:1"
       d="m 49.306542,59.40353 c 3.291748,-0.8125 6.120218,0.656371 6.920877,0.434691 1.143066,-0.569824 3.533827,-3.771768 3.976698,-5.14396 0.918669,-2.582597 -0.849324,-12.741506 -0.80158,-22.72694 0.04774,-9.985435 1.911225,-19.797394 1.671092,-20.657195 C 60.809154,9.6654467 55.193801,6.6764542 53.345242,6.7612172 L 57.7854,12.144775 c -3.978857,10.450196 -3.312974,33.122834 -2.355203,36.568253 3.224448,4.489507 -2.85035,5.230454 -2.85035,5.230454 l -2.2962,3.681232 z"
       id="path75408" />
    <path
       id="shield_top"
       style="opacity:1;fill:#b34841;fill-opacity:1;stroke:none;stroke-width:0.188976;stroke-linecap:round;stroke-linejoin:round;stroke-miterlimit:4;stroke-dasharray:none;stroke-opacity:1"
       d="m 59.496052,9.355993 c 0,0 -5.226531,-2.6371573 -6.15081,-2.5947758 C 41.133572,8.1957875 34.36319,7.6425594 20.449128,6.03941 19.432038,6.2630428 11.588446,7.4462408 8.4528263,6.6194586 7.9404361,6.7786383 3.9802991,11.563498 3.9802991,11.563498 m 0,0 c 0,0 3.2797664,3.054424 4.5082263,3.128397 0.8559168,-0.017 3.4961356,-2.157973 4.6166996,-2.423829 1.384348,-0.483805 4.009503,-0.548996 5.189453,-0.435058 9.083629,0.351482 16.298058,2.638723 17.654785,2.609375 1.452193,0.309704 10.6207,-0.793224 14.745605,-0.629395 2.231461,0.255843 6.498026,-0.930032 7.090332,-1.668213 0.414148,-0.288816 1.594513,-1.823761 1.710652,-2.788782" />
    <path
       style="fill:#563947;fill-opacity:1;stroke:none;stroke-width:0.188976;stroke-linecap:round;stroke-linejoin:round;stroke-miterlimit:4;stroke-dasharray:none;stroke-opacity:1"
       d="m 4.5896779,53.947622 c 0,0 2.4102658,5.050407 2.9727048,5.351982 11.2638173,2.372157 11.8937573,1.546451 22.3391193,-0.291405 4.826315,-1.586329 16.536562,-1.614986 19.40504,0.395331 3.291748,-0.8125 6.120218,0.656371 6.920877,0.434691 1.143066,-0.569824 3.533827,-3.771768 3.976698,-5.14396 0.459334,-1.291299 -0.02776,-4.77018 -0.02776,-4.77018 l -0.09219,-0.205063 c -0.960457,2.10058 -2.814668,3.432452 -7.50432,4.224464 -4.507324,-0.323853 -15.645145,0.230647 -22.435794,1.761897 -13.16139,2.211261 -15.131189,4.337579 -19.899808,-1.44874 -1.3089934,0.404653 -2.2595559,2.492048 -5.6545661,-0.309017"
       id="shield_bottom" />
    <path
       style="fill:none;stroke:#000000;stroke-width:1.13386;stroke-linecap:round;stroke-linejoin:round;stroke-miterlimit:4;stroke-dasharray:none;stroke-opacity:1"
       d="M 7.5623827,59.299604 C 18.8262,61.671761 19.45614,60.846055 29.901502,59.008199 c 4.826315,-1.586329 16.536562,-1.614986 19.40504,0.395331 3.291748,-0.8125 6.120218,0.656371 6.920877,0.434691 1.143066,-0.569824 3.533827,-3.771768 3.976698,-5.14396 0.918669,-2.582597 -0.849324,-12.741506 -0.80158,-22.72694 0.04774,-9.985435 1.911225,-19.797394 1.671092,-20.657195 C 60.809154,9.6654467 55.193801,6.6764542 53.345242,6.7612172 41.133572,8.1957875 34.36319,7.6425594 20.449128,6.03941 19.432038,6.2630428 11.588446,7.4462408 8.4528263,6.6194586 7.428046,6.937818 3.6694874,11.775564 3.5081715,12.549246 c 0.6594238,3.17627 1.0766773,32.370371 0.1425953,38.861094 0,0.546875 2.786738,7.286115 3.9116159,7.889264 z"
       id="outline" />
  </symbol>
  <symbol id="icon-menu-close" viewBox="0 0 64 64">
    <rect
       style="opacity:1;fill:#ffffff;fill-opacity:1;fill-rule:evenodd;stroke:none;stroke-width:0.113386;stroke-linecap:round;stroke-linejoin:round;stroke-miterlimit:4;stroke-dasharray:none;stroke-opacity:1"
       id="cross_bg"
       width="40.223633"
       height="38.197266"
       x="11.908203"
       y="14.123535" />
    <path
       style="opacity:1;fill:#b6bdb6;fill-opacity:0.992219;stroke:none;stroke-width:0.113386;stroke-linecap:butt;stroke-linejoin:miter;stroke-miterlimit:4;stroke-dasharray:none;stroke-opacity:1"
       d="m 16.761849,26.45988 c 1.478261,-2.385277 3.607695,-5.385388 4.789371,-5.798327 5.534802,3.304723 9.293551,8.176354 10.97362,8.500387 2.345053,-0.108586 3.297818,-3.12622 10.824983,-7.868807 1.224144,0.524633 4.356579,4.00993 4.903482,5.616285 0,0 -8.271388,6.734433 -8.37704,7.745202 0.02175,1.312015 8.857479,11.447326 8.857479,11.447326 3.928711,-2.672852 1.481222,-22.485369 1.481222,-22.485369 l -7.139405,-7.312622 -24.505859,0.563477 -3.924194,8.877685 z m 8.234099,9.540763 c -0.28778,0.856953 -6.041135,5.325398 -9.507616,9.216212 l -0.220281,-3.819516 8.473197,-8.265519 c 0,0 1.406963,2.103193 1.2547,2.868823 z"
       id="cross_shadow" />
    <path
       id="shield_bg"
       style="opacity:1;fill:#ad3a32;fill-opacity:1;stroke:none;stroke-width:0.188976;stroke-linecap:round;stroke-linejoin:round;stroke-miterlimit:4;stroke-dasharray:none;stroke-opacity:1"
       d="m 16.166226,44.186448 c 3.656291,-4.718677 8.725628,-9.641497 8.755127,-10.734375 -0.03925,-1.111004 -5.419903,-5.867717 -8.73999,-9.070068 -0.06854,-0.806544 4.275572,-7.237295 5.464844,-7.325684 4.811986,3.85059 9.564941,8.507752 11.297607,8.753174 1.408691,-0.290954 5.67873,-4.858332 10.146484,-8.520752 0.974862,-0.03349 6.003255,5.806435 6.255127,6.596924 -2.999162,2.830326 -9.389526,8.028991 -9.534912,8.676513 0.08368,0.615112 7.259337,7.619476 9.796143,10.080323 -9.93e-4,0.570942 -5.417253,6.920192 -6.004639,6.772461 -3.027128,-2.702146 -9.766128,-9.062328 -10.918457,-9.361329 -1.232042,0.380312 -5.200611,4.676206 -10.641846,10.087403 -0.611813,0 -6.046222,-5.548556 -5.875488,-5.95459 z M 7.5623827,59.299604 C 18.8262,61.671761 19.45614,60.846055 29.901502,59.008199 c 4.826315,-1.586329 16.536562,-1.614986 19.40504,0.395331 3.291748,-0.8125 6.120218,0.656371 6.920877,0.434691 1.143066,-0.569824 3.533827,-3.771768 3.976698,-5.14396 0.918669,-2.582597 -0.849324,-12.741506 -0.80158,-22.72694 0.04774,-9.985435 1.911225,-19.797394 1.671092,-20.657195 C 60.809154,9.6654467 55.193801,6.6764542 53.345242,6.7612172 41.133572,8.1957875 34.36319,7.6425594 20.449128,6.03941 19.432038,6.2630428 11.588446,7.4462408 8.4528263,6.6194586 7.428046,6.937818 3.6694874,11.775564 3.5081715,12.549246 c 0.6594238,3.17627 1.0766773,32.370371 0.1425953,38.861094 0,0.546875 2.786738,7.286115 3.9116159,7.889264 z" />
    <path
       style="fill:#672425;fill-opacity:1;stroke:none;stroke-width:0.188976;stroke-linecap:round;stroke-linejoin:round;stroke-miterlimit:4;stroke-dasharray:none;stroke-opacity:1"
       d="M 8.4528263,6.6194586 C 7.428046,6.937818 3.6694874,11.775564 3.5081715,12.549246 c 0.6594238,3.17627 1.0766773,32.370371 0.1425953,38.861094 0,0.546875 2.786738,7.286115 3.9116159,7.889264 m 0,0 2.6818623,-5.042965 C 10.538758,48.575443 6.0961659,19.443654 10.715843,15.152999 21.237509,7.4128038 32.573523,16.725423 8.4528263,6.6194586"
       id="shield_left" />
    <path
       style="fill:#6b2227;stroke:none;stroke-width:0.188976;stroke-linecap:round;stroke-linejoin:round;stroke-miterlimit:4;stroke-dasharray:none;stroke-opacity:1;fill-opacity:1"
       d="m 49.306542,59.40353 c 3.291748,-0.8125 6.120218,0.656371 6.920877,0.434691 1.143066,-0.569824 3.533827,-3.771768 3.976698,-5.14396 0.918669,-2.582597 -0.849324,-12.741506 -0.80158,-22.72694 0.04774,-9.985435 1.911225,-19.797394 1.671092,-20.657195 C 60.809154,9.6654467 55.193801,6.6764542 53.345242,6.7612172 L 57.7854,12.144775 c -3.978857,10.450196 -3.312974,33.122834 -2.355203,36.568253 3.224448,4.489507 -2.85035,5.230454 -2.85035,5.230454 l -2.2962,3.681232 z"
       id="path75408" />
    <path
       id="shield_top"
       style="opacity:1;fill:#b34841;fill-opacity:1;stroke:none;stroke-width:0.188976;stroke-linecap:round;stroke-linejoin:round;stroke-miterlimit:4;stroke-dasharray:none;stroke-opacity:1"
       d="m 59.496052,9.355993 c 0,0 -5.226531,-2.6371573 -6.15081,-2.5947758 C 41.133572,8.1957875 34.36319,7.6425594 20.449128,6.03941 19.432038,6.2630428 11.588446,7.4462408 8.4528263,6.6194586 7.9404361,6.7786383 3.9802991,11.563498 3.9802991,11.563498 m 0,0 c 0,0 3.2797664,3.054424 4.5082263,3.128397 0.8559168,-0.017 3.4961356,-2.157973 4.6166996,-2.423829 1.384348,-0.483805 4.009503,-0.548996 5.189453,-0.435058 9.083629,0.351482 16.298058,2.638723 17.654785,2.609375 1.452193,0.309704 10.6207,-0.793224 14.745605,-0.629395 2.231461,0.255843 6.498026,-0.930032 7.090332,-1.668213 0.414148,-0.288816 1.594513,-1.823761 1.710652,-2.788782" />
    <path
       style="fill:#563947;fill-opacity:1;stroke:none;stroke-width:0.188976;stroke-linecap:round;stroke-linejoin:round;stroke-miterlimit:4;stroke-dasharray:none;stroke-opacity:1"
       d="m 4.5896779,53.947622 c 0,0 2.4102658,5.050407 2.9727048,5.351982 11.2638173,2.372157 11.8937573,1.546451 22.3391193,-0.291405 4.826315,-1.586329 16.536562,-1.614986 19.40504,0.395331 3.291748,-0.8125 6.120218,0.656371 6.920877,0.434691 1.143066,-0.569824 3.533827,-3.771768 3.976698,-5.14396 0.459334,-1.291299 -0.02776,-4.77018 -0.02776,-4.77018 l -0.09219,-0.205063 c -0.960457,2.10058 -2.814668,3.432452 -7.50432,4.224464 -4.507324,-0.323853 -15.645145,0.230647 -22.435794,1.761897 -13.16139,2.211261 -15.131189,4.337579 -19.899808,-1.44874 -1.3089934,0.404653 -2.2595559,2.492048 -5.6545661,-0.309017"
       id="shield_bottom" />
    <path
       style="fill:none;stroke:#000000;stroke-width:1.13386;stroke-linecap:round;stroke-linejoin:round;stroke-miterlimit:4;stroke-dasharray:none;stroke-opacity:1"
       d="M 7.5623827,59.299604 C 18.8262,61.671761 19.45614,60.846055 29.901502,59.008199 c 4.826315,-1.586329 16.536562,-1.614986 19.40504,0.395331 3.291748,-0.8125 6.120218,0.656371 6.920877,0.434691 1.143066,-0.569824 3.533827,-3.771768 3.976698,-5.14396 0.918669,-2.582597 -0.849324,-12.741506 -0.80158,-22.72694 0.04774,-9.985435 1.911225,-19.797394 1.671092,-20.657195 C 60.809154,9.6654467 55.193801,6.6764542 53.345242,6.7612172 41.133572,8.1957875 34.36319,7.6425594 20.449128,6.03941 19.432038,6.2630428 11.588446,7.4462408 8.4528263,6.6194586 7.428046,6.937818 3.6694874,11.775564 3.5081715,12.549246 c 0.6594238,3.17627 1.0766773,32.370371 0.1425953,38.861094 0,0.546875 2.786738,7.286115 3.9116159,7.889264 z"
       id="outline" />
  </symbol>
  <symbol id="icon-sitemap" viewBox="0 0 512 512">
    <path
       style="fill:#ffe29c;fill-opacity:1;stroke:none;stroke-width:6.28561;stroke-linecap:butt;stroke-linejoin:round;stroke-miterlimit:4;stroke-dasharray:none;stroke-opacity:1"
       d="M 246.13415,40.566279 44.196554,209.79848 C 114.63674,205.45049 130.07711,198.56179 240,220 224.75496,165.14164 246.45542,74.29287 246.13415,40.566279 Z M 44.196554,209.79848 c 2.826712,76.21487 17.913397,93.42993 17.406335,106.37204 -0.231025,25.4941 11.735359,22.95324 10.102018,87.71748 -4.79075,39.97657 -21.67861,19.52496 -23.459564,48.85609 5.486645,6.10009 38.024704,11.40346 67.691297,14.50528 98.4586,-2.9887 179.29473,-20.27183 241.75465,-14.50528 77.92106,10.73173 107.54772,11.3304 116.04223,9.67021 -9.72719,-84.73239 0.9101,-159.07343 -9.67017,-203.07393 -11.24743,-17.09256 -19.52634,-58.08296 -19.34038,-67.6913 -3.83799,-23.2425 -8.13144,-67.15944 0,-87.03167 15.43621,-32.824003 23.68467,-54.804529 24.17545,-62.856204 -5.17991,-1.550909 -58.61767,14.01451 -101.53695,14.505279 C 257,58 246.13415,40.566279 246.13415,40.566279"
       id="sitemap-overall-bg" />
    <path
       style="fill:#554400;fill-opacity:1;stroke:none;stroke-width:6.28561;stroke-linecap:butt;stroke-linejoin:round;stroke-miterlimit:4;stroke-dasharray:none;stroke-opacity:1"
       d="M 246.13415,40.566279 44.196554,209.79848 C 114.63674,205.45049 130.07711,198.56179 240,220 224.75496,165.14164 246.45542,74.29287 246.13415,40.566279 Z"
       id="sitemap-corner-bg" />
    <path
       style="fill:none;fill-opacity:1;stroke:#000000;stroke-width:25;stroke-linecap:butt;stroke-linejoin:round;stroke-miterlimit:4;stroke-dasharray:none;stroke-opacity:1"
       d="M 246.13415,40.566279 44.196554,209.79848 C 114.63674,205.45049 130.07711,198.56179 240,220 224.75496,165.14164 246.45542,74.29287 246.13415,40.566279 Z M 44.196554,209.79848 c 2.826712,76.21487 17.913397,93.42993 17.406335,106.37204 -0.231025,25.4941 11.735359,22.95324 10.102018,87.71748 -4.79075,39.97657 -21.67861,19.52496 -23.459564,48.85609 5.486645,6.10009 38.024704,11.40346 67.691297,14.50528 98.4586,-2.9887 179.29473,-20.27183 241.75465,-14.50528 77.92106,10.73173 107.54772,11.3304 116.04223,9.67021 -9.72719,-84.73239 0.9101,-159.07343 -9.67017,-203.07393 -11.24743,-17.09256 -19.52634,-58.08296 -19.34038,-67.6913 -3.83799,-23.2425 -8.13144,-67.15944 0,-87.03167 15.43621,-32.824003 23.68467,-54.804529 24.17545,-62.856204 -5.17991,-1.550909 -58.61767,14.01451 -101.53695,14.505279 C 257,58 246.13415,40.566279 246.13415,40.566279"
       id="sitemap-outline" />
  </symbol>
  <symbol id="icon-contact" viewBox="0 0 64 64">
    <rect
       style="opacity:1;fill:#ffffff;fill-opacity:1;fill-rule:evenodd;stroke:none;stroke-width:0.113386;stroke-linecap:round;stroke-linejoin:round;stroke-miterlimit:4;stroke-dasharray:none;stroke-opacity:1"
       id="cross_bg"
       width="40.223633"
       height="38.197266"
       x="11.908203"
       y="14.123535" />
    <path
       style="opacity:1;fill:#b6bdb6;fill-opacity:0.992219;stroke:none;stroke-width:0.113386;stroke-linecap:butt;stroke-linejoin:miter;stroke-miterlimit:4;stroke-dasharray:none;stroke-opacity:1"
       d="m 16.761849,26.45988 c 1.478261,-2.385277 3.607695,-5.385388 4.789371,-5.798327 5.534802,3.304723 9.293551,8.176354 10.97362,8.500387 2.345053,-0.108586 3.297818,-3.12622 10.824983,-7.868807 1.224144,0.524633 4.356579,4.00993 4.903482,5.616285 0,0 -8.271388,6.734433 -8.37704,7.745202 0.02175,1.312015 8.857479,11.447326 8.857479,11.447326 3.928711,-2.672852 1.481222,-22.485369 1.481222,-22.485369 l -7.139405,-7.312622 -24.505859,0.563477 -3.924194,8.877685 z m 8.234099,9.540763 c -0.28778,0.856953 -6.041135,5.325398 -9.507616,9.216212 l -0.220281,-3.819516 8.473197,-8.265519 c 0,0 1.406963,2.103193 1.2547,2.868823 z"
       id="cross_shadow" />
    <path
       id="shield_bg"
       style="opacity:1;fill:#ad3a32;fill-opacity:1;stroke:none;stroke-width:0.188976;stroke-linecap:round;stroke-linejoin:round;stroke-miterlimit:4;stroke-dasharray:none;stroke-opacity:1"
       d="m 16.166226,44.186448 c 3.656291,-4.718677 8.725628,-9.641497 8.755127,-10.734375 -0.03925,-1.111004 -5.419903,-5.867717 -8.73999,-9.070068 -0.06854,-0.806544 4.275572,-7.237295 5.464844,-7.325684 4.811986,3.85059 9.564941,8.507752 11.297607,8.753174 1.408691,-0.290954 5.67873,-4.858332 10.146484,-8.520752 0.974862,-0.03349 6.003255,5.806435 6.255127,6.596924 -2.999162,2.830326 -9.389526,8.028991 -9.534912,8.676513 0.08368,0.615112 7.259337,7.619476 9.796143,10.080323 -9.93e-4,0.570942 -5.417253,6.920192 -6.004639,6.772461 -3.027128,-2.702146 -9.766128,-9.062328 -10.918457,-9.361329 -1.232042,0.380312 -5.200611,4.676206 -10.641846,10.087403 -0.611813,0 -6.046222,-5.548556 -5.875488,-5.95459 z M 7.5623827,59.299604 C 18.8262,61.671761 19.45614,60.846055 29.901502,59.008199 c 4.826315,-1.586329 16.536562,-1.614986 19.40504,0.395331 3.291748,-0.8125 6.120218,0.656371 6.920877,0.434691 1.143066,-0.569824 3.533827,-3.771768 3.976698,-5.14396 0.918669,-2.582597 -0.849324,-12.741506 -0.80158,-22.72694 0.04774,-9.985435 1.911225,-19.797394 1.671092,-20.657195 C 60.809154,9.6654467 55.193801,6.6764542 53.345242,6.7612172 41.133572,8.1957875 34.36319,7.6425594 20.449128,6.03941 19.432038,6.2630428 11.588446,7.4462408 8.4528263,6.6194586 7.428046,6.937818 3.6694874,11.775564 3.5081715,12.549246 c 0.6594238,3.17627 1.0766773,32.370371 0.1425953,38.861094 0,0.546875 2.786738,7.286115 3.9116159,7.889264 z" />
    <path
       style="fill:#672425;fill-opacity:1;stroke:none;stroke-width:0.188976;stroke-linecap:round;stroke-linejoin:round;stroke-miterlimit:4;stroke-dasharray:none;stroke-opacity:1"
       d="M 8.4528263,6.6194586 C 7.428046,6.937818 3.6694874,11.775564 3.5081715,12.549246 c 0.6594238,3.17627 1.0766773,32.370371 0.1425953,38.861094 0,0.546875 2.786738,7.286115 3.9116159,7.889264 m 0,0 2.6818623,-5.042965 C 10.538758,48.575443 6.0961659,19.443654 10.715843,15.152999 21.237509,7.4128038 32.573523,16.725423 8.4528263,6.6194586"
       id="shield_left" />
    <path
       style="fill:#6b2227;stroke:none;stroke-width:0.188976;stroke-linecap:round;stroke-linejoin:round;stroke-miterlimit:4;stroke-dasharray:none;stroke-opacity:1;fill-opacity:1"
       d="m 49.306542,59.40353 c 3.291748,-0.8125 6.120218,0.656371 6.920877,0.434691 1.143066,-0.569824 3.533827,-3.771768 3.976698,-5.14396 0.918669,-2.582597 -0.849324,-12.741506 -0.80158,-22.72694 0.04774,-9.985435 1.911225,-19.797394 1.671092,-20.657195 C 60.809154,9.6654467 55.193801,6.6764542 53.345242,6.7612172 L 57.7854,12.144775 c -3.978857,10.450196 -3.312974,33.122834 -2.355203,36.568253 3.224448,4.489507 -2.85035,5.230454 -2.85035,5.230454 l -2.2962,3.681232 z"
       id="path75408" />
    <path
       id="shield_top"
       style="opacity:1;fill:#b34841;fill-opacity:1;stroke:none;stroke-width:0.188976;stroke-linecap:round;stroke-linejoin:round;stroke-miterlimit:4;stroke-dasharray:none;stroke-opacity:1"
       d="m 59.496052,9.355993 c 0,0 -5.226531,-2.6371573 -6.15081,-2.5947758 C 41.133572,8.1957875 34.36319,7.6425594 20.449128,6.03941 19.432038,6.2630428 11.588446,7.4462408 8.4528263,6.6194586 7.9404361,6.7786383 3.9802991,11.563498 3.9802991,11.563498 m 0,0 c 0,0 3.2797664,3.054424 4.5082263,3.128397 0.8559168,-0.017 3.4961356,-2.157973 4.6166996,-2.423829 1.384348,-0.483805 4.009503,-0.548996 5.189453,-0.435058 9.083629,0.351482 16.298058,2.638723 17.654785,2.609375 1.452193,0.309704 10.6207,-0.793224 14.745605,-0.629395 2.231461,0.255843 6.498026,-0.930032 7.090332,-1.668213 0.414148,-0.288816 1.594513,-1.823761 1.710652,-2.788782" />
    <path
       style="fill:#563947;fill-opacity:1;stroke:none;stroke-width:0.188976;stroke-linecap:round;stroke-linejoin:round;stroke-miterlimit:4;stroke-dasharray:none;stroke-opacity:1"
       d="m 4.5896779,53.947622 c 0,0 2.4102658,5.050407 2.9727048,5.351982 11.2638173,2.372157 11.8937573,1.546451 22.3391193,-0.291405 4.826315,-1.586329 16.536562,-1.614986 19.40504,0.395331 3.291748,-0.8125 6.120218,0.656371 6.920877,0.434691 1.143066,-0.569824 3.533827,-3.771768 3.976698,-5.14396 0.459334,-1.291299 -0.02776,-4.77018 -0.02776,-4.77018 l -0.09219,-0.205063 c -0.960457,2.10058 -2.814668,3.432452 -7.50432,4.224464 -4.507324,-0.323853 -15.645145,0.230647 -22.435794,1.761897 -13.16139,2.211261 -15.131189,4.337579 -19.899808,-1.44874 -1.3089934,0.404653 -2.2595559,2.492048 -5.6545661,-0.309017"
       id="shield_bottom" />
    <path
       style="fill:none;stroke:#000000;stroke-width:1.13386;stroke-linecap:round;stroke-linejoin:round;stroke-miterlimit:4;stroke-dasharray:none;stroke-opacity:1"
       d="M 7.5623827,59.299604 C 18.8262,61.671761 19.45614,60.846055 29.901502,59.008199 c 4.826315,-1.586329 16.536562,-1.614986 19.40504,0.395331 3.291748,-0.8125 6.120218,0.656371 6.920877,0.434691 1.143066,-0.569824 3.533827,-3.771768 3.976698,-5.14396 0.918669,-2.582597 -0.849324,-12.741506 -0.80158,-22.72694 0.04774,-9.985435 1.911225,-19.797394 1.671092,-20.657195 C 60.809154,9.6654467 55.193801,6.6764542 53.345242,6.7612172 41.133572,8.1957875 34.36319,7.6425594 20.449128,6.03941 19.432038,6.2630428 11.588446,7.4462408 8.4528263,6.6194586 7.428046,6.937818 3.6694874,11.775564 3.5081715,12.549246 c 0.6594238,3.17627 1.0766773,32.370371 0.1425953,38.861094 0,0.546875 2.786738,7.286115 3.9116159,7.889264 z"
       id="outline" />
  </symbol>
  <symbol id="icon-privacy" viewBox="0 0 512 512">
    <path
       style="fill:#42da00;fill-opacity:1;fill-rule:evenodd;stroke:#000000;stroke-width:25;stroke-linecap:round;stroke-linejoin:round;stroke-opacity:1;stroke-miterlimit:4;stroke-dasharray:none"
       id="privacy-body"
       d="M 198.43977,471.07945 A 213.6245,219.90439 0 0 1 48.282368,201.35305 213.6245,219.90439 0 0 1 310.19549,46.58301 213.6245,219.90439 0 0 1 460.73845,316.08158 213.6245,219.90439 0 0 1 199.04693,471.24833" />
    <path
       style="fill:#ffffff;fill-opacity:1;fill-rule:evenodd;stroke:#000000;stroke-width:3.4566;stroke-linecap:round;stroke-linejoin:round;stroke-miterlimit:4;stroke-dasharray:none;stroke-opacity:1"
       id="path28743"
       d="M 205.49036,464.37607 A 186.74261,192.23225 0 0 1 74.228336,228.59127 186.74261,192.23225 0 0 1 303.18307,93.297033 186.74261,192.23225 0 0 1 434.78214,328.88269 186.74261,192.23225 0 0 1 206.02113,464.5237" />
    <path
       style="fill:#0061ff;fill-opacity:1;fill-rule:evenodd;stroke:#000000;stroke-width:2.01151;stroke-linecap:round;stroke-linejoin:round;stroke-miterlimit:4;stroke-dasharray:none;stroke-opacity:1"
       id="path28901"
       d="m 225.96686,386.82348 a 108.6716,111.8662 0 0 1 -76.38563,-137.21085 108.6716,111.8662 0 0 1 133.2362,-78.73211 108.6716,111.8662 0 0 1 76.58178,137.09495 108.6716,111.8662 0 0 1 -133.12348,78.93392" />
    <path
       style="fill:#000000;fill-opacity:1;fill-rule:evenodd;stroke:none;stroke-width:0.951921;stroke-linecap:round;stroke-linejoin:round;stroke-miterlimit:4;stroke-dasharray:none;stroke-opacity:1"
       id="path29065"
       d="m 240.98091,329.95935 a 51.42735,52.93915 0 0 1 -36.14846,-64.93316 51.42735,52.93915 0 0 1 63.05222,-37.2589 51.42735,52.93915 0 0 1 36.24127,64.87832 A 51.42735,52.93915 0 0 1 241.12709,330" />
    <path
       id="oberes-lid"
       style="fill:#42da00;fill-opacity:1;fill-rule:evenodd;stroke:#000000;stroke-width:25;stroke-linecap:round;stroke-linejoin:round;stroke-miterlimit:4;stroke-dasharray:none;stroke-opacity:1"
       d="M 249.86523,39.019531 C 155.13358,41.122281 73.067448,107.21013 48.283203,201.35352 40.775542,230.24439 39.071538,260.40805 43.275391,290 180.03007,153.26868 321.10343,160.10068 465.87891,290 481.16217,180.02908 414.36851,75.595179 310.19531,46.583984 290.53827,41.115601 270.2227,38.568344 249.86523,39.019531 Z" />
    <path
       id="unteres-lid"
       style="fill:#42da00;fill-opacity:1;fill-rule:evenodd;stroke:#000000;stroke-width:25;stroke-linecap:round;stroke-linejoin:round;stroke-miterlimit:4;stroke-dasharray:none;stroke-opacity:1"
       d="m 52.644531,330 c 22.875344,68.99742 77.482909,121.83904 145.794919,141.08008 l 0.60743,0.16797 C 307.4499,500.92162 419.68475,439.2351 456.03906,330 315.03401,460.33465 180.48684,439.21995 52.644531,330 Z" />
  </symbol>
  <!-- STOCK MISSING (37 lines to yank) -->
  <symbol id="icon-missing" viewBox="0 0 64 64">
    <rect
       style="opacity:1;fill:#ffffff;fill-opacity:1;fill-rule:evenodd;stroke:none;stroke-width:0.113386;stroke-linecap:round;stroke-linejoin:round;stroke-miterlimit:4;stroke-dasharray:none;stroke-opacity:1"
       id="cross_bg"
       width="40.223633"
       height="38.197266"
       x="11.908203"
       y="14.123535" />
    <path
       style="opacity:1;fill:#b6bdb6;fill-opacity:0.992219;stroke:none;stroke-width:0.113386;stroke-linecap:butt;stroke-linejoin:miter;stroke-miterlimit:4;stroke-dasharray:none;stroke-opacity:1"
       d="m 16.761849,26.45988 c 1.478261,-2.385277 3.607695,-5.385388 4.789371,-5.798327 5.534802,3.304723 9.293551,8.176354 10.97362,8.500387 2.345053,-0.108586 3.297818,-3.12622 10.824983,-7.868807 1.224144,0.524633 4.356579,4.00993 4.903482,5.616285 0,0 -8.271388,6.734433 -8.37704,7.745202 0.02175,1.312015 8.857479,11.447326 8.857479,11.447326 3.928711,-2.672852 1.481222,-22.485369 1.481222,-22.485369 l -7.139405,-7.312622 -24.505859,0.563477 -3.924194,8.877685 z m 8.234099,9.540763 c -0.28778,0.856953 -6.041135,5.325398 -9.507616,9.216212 l -0.220281,-3.819516 8.473197,-8.265519 c 0,0 1.406963,2.103193 1.2547,2.868823 z"
       id="cross_shadow" />
    <path
       id="shield_bg"
       style="opacity:1;fill:#ad3a32;fill-opacity:1;stroke:none;stroke-width:0.188976;stroke-linecap:round;stroke-linejoin:round;stroke-miterlimit:4;stroke-dasharray:none;stroke-opacity:1"
       d="m 16.166226,44.186448 c 3.656291,-4.718677 8.725628,-9.641497 8.755127,-10.734375 -0.03925,-1.111004 -5.419903,-5.867717 -8.73999,-9.070068 -0.06854,-0.806544 4.275572,-7.237295 5.464844,-7.325684 4.811986,3.85059 9.564941,8.507752 11.297607,8.753174 1.408691,-0.290954 5.67873,-4.858332 10.146484,-8.520752 0.974862,-0.03349 6.003255,5.806435 6.255127,6.596924 -2.999162,2.830326 -9.389526,8.028991 -9.534912,8.676513 0.08368,0.615112 7.259337,7.619476 9.796143,10.080323 -9.93e-4,0.570942 -5.417253,6.920192 -6.004639,6.772461 -3.027128,-2.702146 -9.766128,-9.062328 -10.918457,-9.361329 -1.232042,0.380312 -5.200611,4.676206 -10.641846,10.087403 -0.611813,0 -6.046222,-5.548556 -5.875488,-5.95459 z M 7.5623827,59.299604 C 18.8262,61.671761 19.45614,60.846055 29.901502,59.008199 c 4.826315,-1.586329 16.536562,-1.614986 19.40504,0.395331 3.291748,-0.8125 6.120218,0.656371 6.920877,0.434691 1.143066,-0.569824 3.533827,-3.771768 3.976698,-5.14396 0.918669,-2.582597 -0.849324,-12.741506 -0.80158,-22.72694 0.04774,-9.985435 1.911225,-19.797394 1.671092,-20.657195 C 60.809154,9.6654467 55.193801,6.6764542 53.345242,6.7612172 41.133572,8.1957875 34.36319,7.6425594 20.449128,6.03941 19.432038,6.2630428 11.588446,7.4462408 8.4528263,6.6194586 7.428046,6.937818 3.6694874,11.775564 3.5081715,12.549246 c 0.6594238,3.17627 1.0766773,32.370371 0.1425953,38.861094 0,0.546875 2.786738,7.286115 3.9116159,7.889264 z" />
    <path
       style="fill:#672425;fill-opacity:1;stroke:none;stroke-width:0.188976;stroke-linecap:round;stroke-linejoin:round;stroke-miterlimit:4;stroke-dasharray:none;stroke-opacity:1"
       d="M 8.4528263,6.6194586 C 7.428046,6.937818 3.6694874,11.775564 3.5081715,12.549246 c 0.6594238,3.17627 1.0766773,32.370371 0.1425953,38.861094 0,0.546875 2.786738,7.286115 3.9116159,7.889264 m 0,0 2.6818623,-5.042965 C 10.538758,48.575443 6.0961659,19.443654 10.715843,15.152999 21.237509,7.4128038 32.573523,16.725423 8.4528263,6.6194586"
       id="shield_left" />
    <path
       style="fill:#6b2227;stroke:none;stroke-width:0.188976;stroke-linecap:round;stroke-linejoin:round;stroke-miterlimit:4;stroke-dasharray:none;stroke-opacity:1;fill-opacity:1"
       d="m 49.306542,59.40353 c 3.291748,-0.8125 6.120218,0.656371 6.920877,0.434691 1.143066,-0.569824 3.533827,-3.771768 3.976698,-5.14396 0.918669,-2.582597 -0.849324,-12.741506 -0.80158,-22.72694 0.04774,-9.985435 1.911225,-19.797394 1.671092,-20.657195 C 60.809154,9.6654467 55.193801,6.6764542 53.345242,6.7612172 L 57.7854,12.144775 c -3.978857,10.450196 -3.312974,33.122834 -2.355203,36.568253 3.224448,4.489507 -2.85035,5.230454 -2.85035,5.230454 l -2.2962,3.681232 z"
       id="path75408" />
    <path
       id="shield_top"
       style="opacity:1;fill:#b34841;fill-opacity:1;stroke:none;stroke-width:0.188976;stroke-linecap:round;stroke-linejoin:round;stroke-miterlimit:4;stroke-dasharray:none;stroke-opacity:1"
       d="m 59.496052,9.355993 c 0,0 -5.226531,-2.6371573 -6.15081,-2.5947758 C 41.133572,8.1957875 34.36319,7.6425594 20.449128,6.03941 19.432038,6.2630428 11.588446,7.4462408 8.4528263,6.6194586 7.9404361,6.7786383 3.9802991,11.563498 3.9802991,11.563498 m 0,0 c 0,0 3.2797664,3.054424 4.5082263,3.128397 0.8559168,-0.017 3.4961356,-2.157973 4.6166996,-2.423829 1.384348,-0.483805 4.009503,-0.548996 5.189453,-0.435058 9.083629,0.351482 16.298058,2.638723 17.654785,2.609375 1.452193,0.309704 10.6207,-0.793224 14.745605,-0.629395 2.231461,0.255843 6.498026,-0.930032 7.090332,-1.668213 0.414148,-0.288816 1.594513,-1.823761 1.710652,-2.788782" />
    <path
       style="fill:#563947;fill-opacity:1;stroke:none;stroke-width:0.188976;stroke-linecap:round;stroke-linejoin:round;stroke-miterlimit:4;stroke-dasharray:none;stroke-opacity:1"
       d="m 4.5896779,53.947622 c 0,0 2.4102658,5.050407 2.9727048,5.351982 11.2638173,2.372157 11.8937573,1.546451 22.3391193,-0.291405 4.826315,-1.586329 16.536562,-1.614986 19.40504,0.395331 3.291748,-0.8125 6.120218,0.656371 6.920877,0.434691 1.143066,-0.569824 3.533827,-3.771768 3.976698,-5.14396 0.459334,-1.291299 -0.02776,-4.77018 -0.02776,-4.77018 l -0.09219,-0.205063 c -0.960457,2.10058 -2.814668,3.432452 -7.50432,4.224464 -4.507324,-0.323853 -15.645145,0.230647 -22.435794,1.761897 -13.16139,2.211261 -15.131189,4.337579 -19.899808,-1.44874 -1.3089934,0.404653 -2.2595559,2.492048 -5.6545661,-0.309017"
       id="shield_bottom" />
    <path
       style="fill:none;stroke:#000000;stroke-width:1.13386;stroke-linecap:round;stroke-linejoin:round;stroke-miterlimit:4;stroke-dasharray:none;stroke-opacity:1"
       d="M 7.5623827,59.299604 C 18.8262,61.671761 19.45614,60.846055 29.901502,59.008199 c 4.826315,-1.586329 16.536562,-1.614986 19.40504,0.395331 3.291748,-0.8125 6.120218,0.656371 6.920877,0.434691 1.143066,-0.569824 3.533827,-3.771768 3.976698,-5.14396 0.918669,-2.582597 -0.849324,-12.741506 -0.80158,-22.72694 0.04774,-9.985435 1.911225,-19.797394 1.671092,-20.657195 C 60.809154,9.6654467 55.193801,6.6764542 53.345242,6.7612172 41.133572,8.1957875 34.36319,7.6425594 20.449128,6.03941 19.432038,6.2630428 11.588446,7.4462408 8.4528263,6.6194586 7.428046,6.937818 3.6694874,11.775564 3.5081715,12.549246 c 0.6594238,3.17627 1.0766773,32.370371 0.1425953,38.861094 0,0.546875 2.786738,7.286115 3.9116159,7.889264 z"
       id="outline" />
  </symbol>
</svg>
