<?xml version="1.0" encoding="UTF-8" standalone="no"?>
<svg id="svg-sprite" xmlns="http://www.w3.org/2000/svg" xmlns:svg="http://www.w3.org/2000/svg">
  <symbol id="logo-head" viewBox="0 0 512 225">
    <path
      fill="#94000e"
      stroke="#000"
      d="m 143.54442,49.55581 c 14.10223,30.720016 19.10905,80.76556 23.36184,122.72641 1.4819,14.62108 17.89892,25.759 20.8151,27.80193 3.08161,2.15877 9.38724,-1.70282 9.89515,-5.4309 1.73768,-12.75467 1.8618,-42.07964 7.78285,-60.34847 9.09212,-26.60854 37.53423,-75.523016 45.87528,-74.130952 20.10576,3.355517 -1.85378,95.862142 5.33255,104.609822 5.85672,7.12921 19.72906,15.31467 22.11415,16.64644 2.38509,1.33179 5.92849,0.48649 6.45777,-1.36834 0.13377,-7.09385 6.30116,-61.18313 19.01043,-88.576174 7.70767,-16.612775 20.68107,-44.353222 30.55903,-42.375332 6.92347,1.386307 7.38904,60.271036 4.26282,110.951336 -0.92897,15.06001 2.10733,36.25302 5.67414,44.16895 1.53817,3.41375 15.19092,12.99991 18.48028,13.3599 3.28934,0.36003 6.16244,1.15037 8.1594,-4.87565 1.99693,-6.02603 6.11201,-28.56219 6.04289,-43.05406 C 377.12499,118.69808 374.12396,69.475018 367.16955,31.159267 365.26974,20.692034 355.00734,5.630884 345.69947,7.5459799 305.66688,15.782714 287.66197,63.104427 285.29176,61.937701 282.10303,60.368053 280.11858,8.7959989 268.12765,9.6652839 225.67883,12.742617 193.17845,83.949598 191.05363,82.416321 187.12105,79.578525 179.72642,27.447155 172.5382,24.680413 169.44989,23.647218 138.42582,38.40559 143.54442,49.55581 Z m 247.21439,3.129269 c 1.01207,10.399584 66.03643,40.534238 69.51551,51.155961 2.47507,7.55634 -48.29548,40.27865 -43.56525,52.6451 1.40246,3.66653 31.61546,23.86484 33.93285,19.03357 25.09637,-52.32048 55.47149,-51.23473 53.93634,-72.02353 C 485.6888,70.710364 438.31434,48.148872 414.30556,23.91443 411.25309,23.14144 389.58864,40.660928 390.75881,52.685079 Z M 76.808477,167.59088 C 34.393384,115.26875 9.4138732,107.10002 7.3698241,100.11239 7.3396828,93.566261 84.713333,33.37434 97.842352,27.966504 113.2246,21.630578 128.51259,34.307452 127.22576,39.533172 81.490291,67.442751 53.273265,94.673343 52.295943,102.12052 c -0.648749,4.94347 43.728509,22.97407 48.009787,39.74653 1.93491,9.34437 -17.377072,26.8848 -23.497253,25.72383 z"
      style="fill: var(--primary-color, #94000e); stroke: var(--stroke-color, #000); stroke-width: var(--stroke-width, 1%); display: inline; fill-opacity:1; stroke-linecap: round; stroke-linejoin: round; stroke-miterlimit:4; stroke-dasharray:none; stroke-opacity:1; paint-order: normal" />
  </symbol>
  <symbol id="logo-foot" viewBox="0 0 464 256">
    <path
      fill="#94000e"
      stroke="#000"
      d="m 169.97753,108.0057 c 11.41677,24.87005 15.47015,65.38551 18.91312,99.35584 1.19967,11.83681 14.49043,20.85375 16.85129,22.50764 2.49479,1.74769 7.59967,-1.37856 8.01084,-4.3967 1.40679,-10.32582 1.50727,-34.06649 6.3008,-48.8564 7.36069,-21.54152 30.38663,-61.14131 37.13929,-60.01434 16.27707,2.71653 -1.50074,77.60729 4.31712,84.68916 4.74141,5.77162 15.97205,12.39833 17.90297,13.47648 1.93091,1.07819 4.79956,0.39385 5.22802,-1.10776 0.10849,-5.74298 5.10124,-49.53214 15.39031,-71.70877 6.23992,-13.44923 16.74282,-35.90712 24.73975,-34.30587 5.60502,1.12232 5.98195,48.79372 3.45104,89.82307 -0.75206,12.19215 1.70605,29.34941 4.59363,35.75793 1.24527,2.7637 12.29813,10.52437 14.96111,10.8158 2.66295,0.29133 4.98896,0.93132 6.60562,-3.94717 1.61666,-4.87855 4.94813,-23.12316 4.89215,-34.85536 -0.19687,-41.25792 -2.62635,-81.10752 -8.25645,-112.126881 -1.53805,-8.473982 -9.8462,-20.667056 -17.38157,-19.116645 -32.40926,6.668223 -46.98555,44.978536 -48.90439,44.034006 -2.58151,-1.27073 -4.18804,-43.022032 -13.89557,-42.318286 -34.36536,2.491322 -60.67677,60.138496 -62.39694,58.897186 -3.1837,-2.29738 -9.17019,-44.50148 -14.98957,-46.741353 -2.50022,-0.836444 -27.61642,11.111515 -23.47257,20.138423 z m 200.13782,2.53336 c 0.81933,8.41921 53.46122,32.81538 56.27776,41.41443 2.00372,6.1174 -39.09863,32.60845 -35.26916,42.61997 1.13539,2.96833 25.59491,19.3203 27.47104,15.40905 20.31731,-42.35718 44.90812,-41.47819 43.66534,-58.30821 -15.29241,-26.54247 -53.6454,-44.80762 -73.08223,-64.427145 -2.47121,-0.62579 -20.01008,13.557495 -19.06275,23.291905 z M 72.789349,235.26019 c -0.739055,4.50157 20.23571,16.76974 24.436588,12.25978 C 105.01758,239.15501 152.85434,96.470828 191.07785,40.005298 197.73213,30.175316 183.60128,3.9313616 175.69536,7.8875567 164.16922,13.655313 76.505688,212.62397 72.789349,235.26019 Z M 63.714018,203.56356 C 29.375956,161.20504 9.1532466,154.59186 7.4984426,148.93487 7.4741668,143.63531 70.113564,94.905634 80.742456,90.527605 93.195486,85.398216 105.57221,95.66105 104.53044,99.891651 67.504279,122.48647 44.660575,144.53158 43.869366,150.56061 c -0.525214,4.00209 35.40136,18.59914 38.867364,32.17765 1.566449,7.56494 -14.06798,21.76517 -19.022712,20.8253 z"
      style="fill: var(--primary-color, #94000e); stroke: var(--stroke-color, #000); stroke-width: var(--stroke-width, 1%); display: inline; fill-opacity:1; stroke-linecap: round; stroke-linejoin: round; stroke-miterlimit:4; stroke-dasharray:none; stroke-opacity:1; paint-order: normal" />
  </symbol>
  <symbol id="icon-quote" viewBox="0 0 64 64">
    <path
      fill="#fff"
      stroke="#333"
      style="fill: var(--primary-color, #fff); stroke: var(--stroke-color, #333); stroke-width: var(--stroke-width, 5%); stroke-linecap: round; stroke-linejoin: round;"
      d="m 43.697183,42.599268 c 0,0 -1.33988,0.65596 -4.172194,1.104717 M 26.23058,45.687189 c 0,0 -0.543061,-2.104883 -0.557537,-2.790428 m 0.557537,2.790428 c 7.977577,16.982707 33.394911,14.162566 33.394911,14.162566 0,0 -11.411983,-5.323139 -15.928308,-17.250487 M 26.23058,45.687189 C 11.728267,45.074427 1.1878049,34.670528 2.0834073,24.500203 2.9790107,14.329877 14.804268,5.0004238 29.566701,2.6593212 44.329135,0.3182191 57.783971,5.6167807 61.175967,15.107158 c 3.391994,9.490377 -3.701521,22.394624 -17.478784,27.49211" />
  </symbol>
  <symbol id="icon-tags" viewBox="0 0 64 64">
    <path
      fill="#fff"
      stroke="#333"
      style="fill: var(--primary-color, #fff); stroke: var(--stroke-color, #333); stroke-width: var(--stroke-width, 5%); stroke-linecap: round; stroke-linejoin: round;"
      d="M 15.583548,5.7584857 48.192673,20.640549 c 7.933474,3.620658 15.895997,18.045532 13.10178,24.254238 -2.794215,6.208707 -18.942356,9.043338 -26.685329,5.509621 L 2,35.522345 Z" />
  </symbol>
  <symbol id="icon-development" viewBox="0 0 64 64">
      <path
         style="opacity:1;fill:#3e3e3e;fill-opacity:1;stroke:#ff0000;stroke-width:0.0377953;stroke-linecap:round;stroke-linejoin:round;stroke-miterlimit:4;stroke-dasharray:none;stroke-opacity:1"
         d="m 35.594415,16.817796 c -1.365042,-0.797879 -3.65571,0.910773 -4.097027,4.069555 l -1.016262,1.055951 c -1.360335,-0.146576 -3.18811,-0.439322 -5.166143,0.405809 l -2.456342,-3.151807 c -1.76874,-2.391541 -5.428781,-0.859114 -5.371558,2.008314 -0.166968,3.309714 -0.421713,3.325054 0.709867,4.002514 -0.684458,0.409595 -2.579174,2.733136 -2.914488,3.458097 l -4.135639,-1.045247 c -2.3467835,0.113822 -2.6763439,0.482282 -3.333601,3.417167 l 0.2385482,3.382141 c 0.025379,1.700253 3.1245328,2.631433 5.7649258,3.287492 -0.0452,0.43976 0.957206,0.899853 0.957206,0.899853 -0.972023,0.280626 -2.870439,1.536154 -3.222917,2.131618 -0.895152,0.957745 -1.226483,1.782429 -0.746513,6.510231 0.991118,1.274475 2.08122,2.031981 3.538427,1.805494 0,0 4.043237,-1.027346 4.51752,-1.959391 0.37048,0.988778 3.111648,1.878771 3.7633,1.94922 -0.324789,2.752493 -0.265202,3.655853 0.747557,5.362008 0.315677,0.956799 4.458361,2.538952 5.846272,-2.049933 l 0.235266,-2.364199 c 1.506399,0.228857 4.332697,0.1246 5.417438,-0.768988 l 3.581232,3.55234 c 0.89379,0.843843 3.86251,0.268943 4.623625,-1.286541 0.263031,-3.66798 0.12647,-4.5394 -0.702227,-5.823131 l -1.15766,-1.482854 c 0.435108,-0.171597 1.155115,-0.765186 1.237221,-1.203711 2.518517,0.823819 5.11318,0.935056 5.11318,0.935056 1.615796,0.264123 3.767942,-3.531726 2.713438,-6.602833 -0.541454,-1.576916 -4.395942,-2.239223 -6.745801,-2.677327 l 0.303658,-0.483563 c 3.17206,-2.057538 4.218918,-2.004879 5.405872,-4.709189 0.05301,-0.96362 -0.149373,-2.282605 -0.149373,-2.282605 z"
         id="gear_base" />
      <path
         style="opacity:1;fill:#9b9b9b;fill-opacity:1;stroke:none;stroke-width:0.0377953;stroke-linecap:round;stroke-linejoin:round;stroke-miterlimit:4;stroke-dasharray:none;stroke-opacity:1"
         d="m 35.594415,16.817796 c -1.365042,-0.797879 -3.65571,0.910773 -4.097027,4.069555 l -1.016262,1.055951 c -1.360335,-0.146576 -3.18811,-0.439322 -5.166143,0.405809 l -2.456342,-3.151807 c -1.76874,-2.391541 -4.867294,-0.636467 -5.187175,0.913551 -0.08008,1.519424 0.789166,3.539907 1.920746,4.217367 -1.487139,0.415206 -3.974436,3.613046 -4.30975,4.338007 l -4.135639,-1.045247 c 0,0 -2.8266076,-0.02454 -2.709766,2.035358 0.6563796,2.722074 3.233791,3.301087 5.874184,3.957146 0.01348,1.38256 0.670657,4.038102 1.151486,4.84803 -0.972023,0.280626 -3.559264,1.682273 -3.911742,2.277737 -0.837306,2.039906 0.236527,3.877404 2.989623,3.836376 1.214074,0.06585 4.02017,-1.552751 4.9219,-2.534359 0.37048,0.988778 2.989843,2.647318 3.641495,2.717767 -0.324789,2.752493 -0.480284,4.28577 0.38035,5.794754 0.480421,0.783093 2.994286,2.542225 5.509457,-1.918309 0.222724,-0.747974 0.250853,-3.763825 0.250853,-3.763825 1.324743,0.652408 4.17707,0.04199 5.261811,-0.851594 -0.151964,0.679006 1.922488,3.84567 4.441737,5.224176 0.89379,0.843843 3.3177,0.572793 4.124015,-1.121173 0.25647,-1.848692 -1.476251,-3.7754 -4.086898,-6.247303 0.435108,-0.171597 2.785414,-2.080881 2.962829,-3.496729 1.775608,1.079352 5.450285,2.149126 5.967217,2.135726 0.785176,-0.02035 3.048334,-0.652985 2.363687,-3.202739 -0.432375,-1.610245 -4.987042,-2.358378 -7.336901,-2.796482 l 0.121691,-3.982005 c 4.83623,-3.305499 6.029566,-3.374197 6.029566,-3.374197 z"
         id="gear_highlight" />
      <path
         style="opacity:1;fill:#b76d62;fill-opacity:1;stroke:#ff0006;stroke-width:0.0377953;stroke-linecap:round;stroke-linejoin:round;stroke-miterlimit:4;stroke-dasharray:none;stroke-opacity:1"
         d="m 44.557887,11.451806 c 0,0 1.887061,-1.8774622 3.044582,-2.4955919 5.590344,-2.9853078 11.897598,4.8257989 8.394189,10.0092669 -0.780916,1.155404 -2.869116,3.044874 -2.869116,3.044874 z"
         id="pencil_rubber" />
      <path
         style="fill:#d08c82;fill-opacity:1;stroke:none;stroke-width:1px;stroke-linecap:butt;stroke-linejoin:miter;stroke-opacity:1"
         d="m 47.989401,13.109102 3.716958,4.22101 c 2.775306,-2.552021 4.69246,-5.543823 3.412041,-6.726596 -1.280419,-1.1827725 -5.020683,0.178173 -7.128999,2.505586 z"
         id="path223788" />
      <path
         style="opacity:1;fill:#7b8f4e;fill-opacity:1;stroke:#ff0000;stroke-width:0.0377953;stroke-linecap:round;stroke-linejoin:round;stroke-miterlimit:4;stroke-dasharray:none;stroke-opacity:1"
         d="m 42.136707,12.01078 c -2.180764,1.602339 -4.685177,2.838681 -6.542292,4.807016 -1.227001,1.300484 -2.903893,2.794823 -4.097027,4.069555 -0.273766,0.292488 2.632111,-2.613383 -1.016262,1.055951 -7.228227,7.269755 -4.637178,13.154937 -5.533572,13.834239 -0.896394,0.679302 -1.539472,2.339734 -1.225527,2.682352 0.310301,0.338642 1.064599,0.592456 2.951148,-0.995982 8.039049,-0.08627 13.407463,-2.591161 22.420242,-10.304574 0,0 2.161455,-1.709112 3.816621,-3.861005 0.29355,-0.381646 0.201199,-0.866518 0.217504,-1.287977 0.06249,-1.615248 -1.637356,-5.491672 -2.847208,-6.932825 -1.209851,-1.441153 -3.532417,-3.541165 -5.722447,-3.625724 -0.865817,-0.03343 -1.635698,-0.01817 -2.42118,0.558974 z"
         id="pencil_base" />
      <path
         style="fill:#94b842;fill-opacity:1;stroke:none;stroke-width:1px;stroke-linecap:butt;stroke-linejoin:miter;stroke-opacity:1"
         d="M 29.413965,29.974439 C 32.394171,26.029458 40.275561,18.289744 47.989401,13.109102 l 3.716958,4.22101 c -2.766054,4.443423 -14.19163,12.3065 -19.433214,15.577541 -1.237999,0.700826 -3.429984,2.292308 -4.236907,1.359959 -0.806923,-0.932349 0.510364,-2.941864 1.377727,-4.293173 z"
         id="pencil_base_highlight" />
      <path
         style="opacity:1;fill:#d38d5f;fill-opacity:1;stroke:#000000;stroke-width:0.377953;stroke-linecap:round;stroke-linejoin:round;stroke-miterlimit:4;stroke-dasharray:none;stroke-opacity:1"
         d="m 30.637069,37.215502 c -2.482575,0.509113 -1.606005,0.181789 -3.963894,0.248409 -1.886549,1.588438 -2.640847,1.334624 -2.951148,0.995982 -0.313945,-0.342618 0.374385,-1.947145 1.225527,-2.682352 0.375348,-0.324222 0.121444,-0.453164 0.226897,-2.943151 l 1.910792,-1.023953 -0.268031,1.16547 2.312865,-1.287582 -0.668589,1.777465 1.528722,-0.551215 -0.309304,0.648696 1.578482,-0.944279 -0.934856,1.712773 1.360817,0.875562 -1.995185,0.888953 1.249891,0.02899 -0.954473,0.902729 z"
         id="pencil_wood" />
      <path
         style="opacity:1;fill:#191919;fill-opacity:1;stroke:#000000;stroke-width:0.377953;stroke-linecap:round;stroke-linejoin:round;stroke-miterlimit:4;stroke-dasharray:none;stroke-opacity:1"
         d="m 26.673175,37.463911 c -1.886549,1.588438 -2.640847,1.334624 -2.951148,0.995982 -0.313945,-0.342618 0.374385,-1.947145 1.225527,-2.682352 3.028528,-1.562617 2.278205,-0.120691 1.725621,1.68637 z"
         id="pencil_tip" />
      <path
         style="fill:none;stroke:#000000;stroke-width:1.13386;stroke-linecap:round;stroke-linejoin:round;stroke-miterlimit:4;stroke-dasharray:none;stroke-opacity:1"
         d="m 42.136707,12.01078 c -2.180764,1.602339 -4.685177,2.838681 -6.542292,4.807016 -1.227001,1.300484 -2.903893,2.794823 -4.097027,4.069555 -0.273766,0.292488 2.632111,-2.613383 -1.016262,1.055951 -7.228227,7.269755 -4.637178,13.154937 -5.533572,13.834239 -0.896394,0.679302 -1.539472,2.339734 -1.225527,2.682352 0.310301,0.338642 1.064599,0.592456 2.951148,-0.995982 8.039049,-0.08627 13.407463,-2.591161 22.420242,-10.304574 0,0 2.161455,-1.709112 3.816621,-3.861005 0.29355,-0.381646 0.201199,-0.866518 0.217504,-1.287977 0.06249,-1.615248 -1.637356,-5.491672 -2.847208,-6.932825 -1.209851,-1.441153 -3.532417,-3.541165 -5.722447,-3.625724 -0.865817,-0.03343 -1.635698,-0.01817 -2.42118,0.558974 z m 2.42118,-0.558974 c 0,0 1.887061,-1.8774622 3.044582,-2.4955919 5.590344,-2.9853078 11.897598,4.8257989 8.394189,10.0092669 -0.780916,1.155404 -2.869116,3.044874 -2.869116,3.044874 M 35.594415,16.817796 c -1.365042,-0.797879 -3.65571,0.910773 -4.097027,4.069555 m -1.016262,1.055951 c -1.360335,-0.146576 -3.18811,-0.439322 -5.166143,0.405809 l -2.456342,-3.151807 c -1.76874,-2.391541 -5.428781,-0.859114 -5.371558,2.008314 -0.166968,3.309714 -0.421713,3.325054 0.709867,4.002514 -0.684458,0.409595 -2.579174,2.733136 -2.914488,3.458097 0,0 -3.009624,-0.901203 -4.135639,-1.045247 -2.3467835,0.113822 -3.2994941,1.615064 -3.333601,3.417167 -0.022648,1.196659 0.2385482,3.382141 0.2385482,3.382141 0.025379,1.700253 3.1245328,2.631433 5.7649258,3.287492 -0.0452,0.43976 0.957206,0.899853 0.957206,0.899853 -0.972023,0.280626 -2.870439,1.536154 -3.222917,2.131618 -1.044597,0.870955 -1.206107,4.491387 -0.746513,6.510231 0.200479,0.880635 2.08122,2.031981 3.538427,1.805494 0,0 4.043237,-1.027346 4.51752,-1.959391 0.37048,0.988778 3.111648,1.878771 3.7633,1.94922 -0.324789,2.752493 -0.265202,3.655853 0.747557,5.362008 0.315677,0.956799 4.458361,2.538952 5.846272,-2.049933 l 0.235266,-2.364199 c 1.506399,0.228857 4.332697,0.1246 5.417438,-0.768988 l 3.581232,3.55234 c 0.89379,0.843843 3.86251,0.268943 4.623625,-1.286541 0.263031,-3.66798 0.12647,-4.5394 -0.702227,-5.823131 l -1.15766,-1.482854 c 0.435108,-0.171597 1.155115,-0.765186 1.237221,-1.203711 2.518517,0.823819 5.11318,0.935056 5.11318,0.935056 1.615796,0.264123 3.767942,-3.531726 2.713438,-6.602833 -0.541454,-1.576916 -4.395942,-2.239223 -6.745801,-2.677327 l 0.303658,-0.483563 c 3.17206,-2.057538 4.218918,-2.004879 5.405872,-4.709189 0.05301,-0.96362 -0.149373,-2.282605 -0.149373,-2.282605"
         id="overall_outline" />
  </symbol>
  <symbol id="icon-series" viewBox="0 0 64 64">
      <path
         style="opacity:1;fill:#595c2f;fill-opacity:1;stroke:none;stroke-width:0.377953;stroke-linecap:round;stroke-linejoin:round;stroke-miterlimit:4;stroke-dasharray:none;stroke-opacity:0.979103"
         d="m 44.280998,48.294467 5.922074,2.88397 c 1.506995,0.733886 6.334896,-2.170549 7.858433,-3.699252 0,0 1.039276,-24.423715 0.344946,-25.378335 -0.69433,-0.95462 -15.872585,-9.666082 -16.86173,-9.53955 -0.838421,0.107251 -0.284977,2.519694 -0.284977,2.519694 l -4.861463,1.788665 c 0,0 -1.974296,-1.659131 -2.554387,-1.573074 -1.885736,0.27975 -0.398473,2.829452 -0.398473,2.829452 -3.619953,16.115051 1.383431,25.005357 10.835577,30.16843 z"
         id="book3_overall" />
      <path
         style="opacity:1;fill:#aac046;fill-opacity:1;stroke:none;stroke-width:0.377953;stroke-linecap:butt;stroke-linejoin:miter;stroke-miterlimit:4;stroke-dasharray:none;stroke-opacity:1"
         d="M 36.398281,16.869659 33.742362,15.150047 32.96282,16.2956 c 5.446338,3.437727 10.825519,6.926779 16.865073,9.911152 l 0.08531,24.752374 1.057591,0.09714 L 50.804,26.177261 C 53.706851,25.775623 56.376348,24.62445 58.622289,22.37133 53.021267,18.502075 47.348906,15.349816 41.385505,12.342487 l -0.125758,2.738507 z"
         id="book3_highlight" />
      <path
         style="opacity:1;fill:#62302f;fill-opacity:1;stroke:none;stroke-width:0.377953;stroke-linecap:round;stroke-linejoin:round;stroke-miterlimit:4;stroke-dasharray:none;stroke-opacity:0.979103"
         d="m 18.327752,20.716604 c 0,0 -0.682036,-3.088495 0.382613,-3.183815 0.449554,-0.04025 1.539703,1.631417 2.549431,1.636017 0.503242,0.0023 4.317702,-0.597473 5.154552,-1.724332 0.413078,-0.556232 -0.529275,-2.860591 0.408378,-2.854691 0.563033,0.0036 6.622695,3.536254 6.622695,3.536254 0,0 10.11794,5.469547 11.025396,6.660785 0.46382,0.608867 -0.189819,23.507645 -0.189819,23.507645 M 18.327752,20.716604 c 0,0 -0.645211,26.547335 0.549673,28.437672 0.735447,1.163496 11.709802,3.448551 11.709802,3.448551 l 5.12959,2.401739 c 0.947598,0.443678 6.426411,-1.406512 8.534571,-4.070467 l 0.02961,-2.639632"
         id="book2_overall" />
      <path
         style="fill:#ad4644;fill-opacity:1;stroke:none;stroke-width:0.377953;stroke-linecap:butt;stroke-linejoin:miter;stroke-miterlimit:4;stroke-dasharray:none;stroke-opacity:1"
         d="m 21.259796,19.168806 -2.612787,-1.564988 -0.462418,1.229091 c 5.723021,3.486185 11.213043,7.218421 17.466801,10.144131 l -0.156284,25.974571 1.12454,-0.0064 0.165519,-25.952038 c 2.302709,-0.408272 4.866536,-1.268373 7.718236,-3.089648 l 0.04547,-1.142139 c 0,0 -12.547422,-7.809367 -17.712201,-10.25187 -0.725452,0.712443 -0.422325,2.93492 -0.422325,2.93492 -1.578849,1.319693 -3.006086,1.589362 -5.154552,1.724332 z"
         id="book2_highlight" />
      <path
         style="fill:#485150;fill-opacity:1;stroke:none;stroke-width:0.377953;stroke-linecap:round;stroke-linejoin:round;stroke-miterlimit:4;stroke-dasharray:none;stroke-opacity:0.979103"
         d="m 18.327752,20.716604 c 0,0 -4.696622,-2.842178 -5.053265,-2.699106 -0.757068,0.303708 0.0066,1.978835 -0.233929,2.435936 -0.497974,0.946345 -4.6533725,2.388128 -5.6633645,1.866972 -0.7151551,-0.36902 -2.3348695,-2.218493 -2.6882033,-1.289584 -0.2469997,0.649359 0.6581734,26.233763 0.6581734,26.233763 0.044195,1.761529 14.9033724,10.924749 16.8116724,11.347544 1.223384,0.271048 8.355793,-3.023823 8.385021,-4.22584 l 0.04337,-1.783462 m 0,0 c 0,0 0.965159,-23.116562 0.229712,-24.280058 -1.194884,-1.890337 -12.489187,-7.606165 -12.489187,-7.606165"
         id="book1_overall" />
      <path
         style="fill:#7e9a98;fill-opacity:1;stroke:none;stroke-width:0.245669;stroke-linecap:butt;stroke-linejoin:miter;stroke-miterlimit:4;stroke-dasharray:none;stroke-opacity:1"
         d="M 4.8177738,21.83838 C 9.999088,25.910308 18.638341,31.357903 21.710059,32.237365 l -0.121549,26.265915 1.388276,0.07479 -0.05863,-26.257864 c 2.274135,-0.129724 4.720695,-0.74902 7.958504,-3.168401 C 31.297559,26.544388 14.684627,19.071418 13.226907,17.809341 l -0.186349,2.644093 c -0.694711,1.542939 -2.229375,2.437744 -5.6633645,1.866972 L 5.0907104,20.678472 Z"
         id="book1_highlight" />
      <path
         style="fill:#dfd6c7;fill-opacity:1;stroke:#000000;stroke-width:0.377953;stroke-linecap:round;stroke-linejoin:round;stroke-miterlimit:4;stroke-dasharray:none;stroke-opacity:0.977052"
         d="m 13.040558,20.453434 c -0.497974,0.946345 -4.6533725,2.388128 -5.6633645,1.866972 0,0 11.4080805,7.974033 13.9495095,8.528252 2.071438,0.451727 7.76832,-1.665735 7.243873,-2.129151 -3.798223,-3.356222 -14.014435,-8.554519 -15.530018,-8.266073 z m 13.37379,-3.00896 c -0.83685,1.126859 -4.65131,1.726625 -5.154552,1.724332 3.545364,2.991269 9.928544,7.015744 14.132391,8.59355 0.949879,0.356513 8.123577,-1.728529 7.182168,-2.39988 C 34.966392,19.936971 26.691767,15.56412 26.414348,17.444474 Z m 14.845396,-2.36348 -4.861463,1.788665 c 0,0 8.630018,6.399497 13.424903,8.340416 1.531048,0.619752 7.248578,-1.977736 6.552246,-2.468646 -7.868373,-5.547157 -15.010368,-8.874314 -15.115686,-7.660435 z"
         id="pages_outline" />
      <path
         style="fill:none;stroke:#000000;stroke-width:1.13386;stroke-linecap:round;stroke-linejoin:round;stroke-miterlimit:4;stroke-dasharray:none;stroke-opacity:0.979103"
         d="m 4.6889902,21.030822 c -0.2469997,0.649359 0.6581734,26.233763 0.6581734,26.233763 0.044195,1.761529 14.9033724,10.924749 16.8116724,11.347544 1.223384,0.271048 8.355793,-3.023823 8.385021,-4.22584 l 0.04337,-1.783462 5.12959,2.401739 c 0.947598,0.443678 6.426411,-1.406512 8.534571,-4.070467 l 0.02961,-2.639632 5.922074,2.88397 c 1.506995,0.733886 6.334896,-2.170549 7.858433,-3.699252 0,0 1.039276,-24.423715 0.344946,-25.378335 -0.69433,-0.95462 -15.872585,-9.666082 -16.86173,-9.53955 -0.838421,0.107251 -0.284977,2.519694 -0.284977,2.519694 l -4.861463,1.788665 c 0,0 -1.974296,-1.659131 -2.554387,-1.573074 -1.885736,0.27975 -0.398473,2.829452 -0.398473,2.829452 0,0 -6.059662,-3.532692 -6.622695,-3.536254 -0.937653,-0.0059 0.0047,2.298459 -0.408378,2.854691 -0.83685,1.126859 -4.65131,1.726625 -5.154552,1.724332 -1.009728,-0.0046 -2.099877,-1.676268 -2.549431,-1.636017 -1.064649,0.09532 -0.382613,3.183815 -0.382613,3.183815 0,0 -4.696622,-2.842178 -5.053265,-2.699106 -0.757068,0.303708 0.0066,1.978835 -0.233929,2.435936 -0.497974,0.946345 -4.6533725,2.388128 -5.6633645,1.866972 C 6.6620384,21.951386 5.042324,20.101913 4.6889902,21.030822 Z M 30.587227,52.602827 c 0,0 0.965159,-23.116562 0.229712,-24.280058 -1.194884,-1.890337 -12.489187,-7.606165 -12.489187,-7.606165 m 15.117669,-2.590567 c 0,0 10.11794,5.469547 11.025396,6.660785 0.46382,0.608867 -0.189819,23.507645 -0.189819,23.507645"
         id="path96332" />
  </symbol>
  <symbol id="icon-home" viewBox="0 0 64 64">
      <path
         style="fill:#deaa87;fill-opacity:1;stroke:none;stroke-width:0.755906;stroke-linecap:butt;stroke-linejoin:miter;stroke-miterlimit:4;stroke-dasharray:none;stroke-opacity:0.972506"
         d="m 25.105607,58.513749 14.947029,-0.08734 m 12.670962,-1.100327 c -0.999496,1.11868 -12.670962,1.10033 -12.670962,1.10033 0,0 -9.875679,0.200118 -14.947029,0.08734 -4.087646,-0.0909 -11.90653,0.0039 -12.251065,-0.604528 -1.32339,-2.336943 -0.407077,-7.112043 -1.445781,-11.767803 -0.818008,-3.666542 20.487622,-20.269453 20.487622,-20.269453 0,0 22.505467,16.137831 20.976998,22.546101 -1.004743,2.019649 0.836582,7.803994 -0.149783,8.908013 z"
         id="house_base" />
      <path
         style="fill:#c83737;fill-opacity:1;stroke:none;stroke-width:0.755906;stroke-linecap:butt;stroke-linejoin:miter;stroke-miterlimit:4;stroke-dasharray:none;stroke-opacity:0.972506"
         d="m 10.048792,47.496284 c 0.279055,0.0029 0.9391,-0.848411 1.359969,-1.354866 0.420868,-0.506455 0.602559,-0.668054 3.131561,-3.144479 2.529002,-2.476425 7.496249,-6.231123 11.060981,-9.439393 3.564731,-3.208271 5.726947,-5.870114 6.216278,-5.873373 0.593085,-0.0039 2.791975,2.898623 5.973371,5.878131 3.181397,2.979508 7.3453,6.035953 9.836399,8.696878 2.491099,2.660926 4.416886,5.101538 5.24603,6.158881 0.829144,1.057342 0.561646,0.731415 1.064131,0.917191 0.975448,0.360636 4.02709,-1.761015 4.721948,-3.618219 C 58.90698,45.055469 56.862056,35.679753 55.023807,30.685274 53.947435,27.760795 53.799571,24.08485 53.242167,23.212261 52.684763,22.339672 47.566095,18.626596 42.982423,14.557938 38.398751,10.48928 34.350074,6.0650403 33.191915,6.0202054 c -1.158159,-0.044835 -4.9598,3.9341305 -9.056825,7.5546696 -4.097025,3.620539 -8.489434,6.882651 -9.100436,7.78999 -1.222003,1.814677 -10.7148569,19.733565 -10.1583223,21.406496 0.3685694,1.107912 1.8143914,1.522803 2.7234775,2.42402 0.9090861,0.901218 1.2814362,2.28877 2.4489828,2.300903 z"
         id="roof_overall" />
      <path
         style="fill:#782121;fill-opacity:1;stroke:none;stroke-width:0.377953;stroke-linecap:butt;stroke-linejoin:miter;stroke-miterlimit:4;stroke-dasharray:none;stroke-opacity:0.972506"
         d="m 10.048792,47.496284 c 0.279055,0.0029 0.9391,-0.848411 1.359969,-1.354866 0.420868,-0.506455 0.602559,-0.668054 3.131561,-3.144479 2.529002,-2.476425 7.496249,-6.231123 11.060981,-9.439393 3.564731,-3.208271 5.726947,-5.870114 6.216278,-5.873373 0.593085,-0.0039 2.791975,2.898623 5.973371,5.878131 3.181397,2.979508 7.3453,6.035953 9.836399,8.696878 2.491099,2.660926 4.416886,5.101538 5.24603,6.158881 0.829144,1.057342 0.561646,0.731415 1.064131,0.917191 0.975448,0.360636 4.02709,-1.761015 4.721948,-3.618219 C 53.268692,40.090063 48.192939,33.677742 44.220566,29.444044 39.636894,25.375386 34.201049,19.639808 32.105517,19.623661 29.724197,19.605312 21.649763,27.309645 17.552738,30.930184 10.280876,35.858835 4.6430743,41.784324 4.8763317,42.771361 c 0.3685694,1.107912 1.8143914,1.522803 2.7234775,2.42402 0.9090861,0.901218 1.2814362,2.28877 2.4489828,2.300903 z"
         id="roof_front" />
      <path
         style="fill:#004d00;fill-opacity:1;stroke:none;stroke-width:0.755906;stroke-linecap:butt;stroke-linejoin:miter;stroke-miterlimit:4;stroke-dasharray:none;stroke-opacity:0.972506"
         d="m 25.105607,58.513749 c 5.07135,0.112778 14.947029,-0.08734 14.947029,-0.08734 m -14.947029,0.08734 c -0.254001,-2.89636 0.428529,-8.415545 0.137728,-10.995208 0.490533,-6.423138 13.194424,-6.747507 14.059392,0.13333 -0.101601,3.048389 0.455391,7.624298 0.749909,10.774535"
         id="door" />
      <path
         style="fill:#171717;fill-opacity:1;stroke:none;stroke-width:0.755906;stroke-linecap:butt;stroke-linejoin:miter;stroke-miterlimit:4;stroke-dasharray:none;stroke-opacity:0.972506"
         d="m 15.58806,48.705327 c 0.01867,-2.203192 2.336465,-2.77636 4.102028,-2.298783 2.443365,0.66092 2.912232,3.913127 1.273364,4.9156 -1.80532,1.104289 -5.390851,-0.792509 -5.375392,-2.616817 z"
         id="window" />
      <path
         style="fill:none;stroke:#000000;stroke-width:1.51181;stroke-linecap:butt;stroke-linejoin:miter;stroke-miterlimit:4;stroke-dasharray:none;stroke-opacity:0.972506"
         d="m 10.048792,47.496284 c 0.279055,0.0029 0.9391,-0.848411 1.359969,-1.354866 0.420868,-0.506455 0.602559,-0.668054 3.131561,-3.144479 2.529002,-2.476425 7.496249,-6.231123 11.060981,-9.439393 3.564731,-3.208271 5.726947,-5.870114 6.216278,-5.873373 0.593085,-0.0039 2.791975,2.898623 5.973371,5.878131 3.181397,2.979508 7.3453,6.035953 9.836399,8.696878 2.491099,2.660926 4.416886,5.101538 5.24603,6.158881 0.829144,1.057342 0.561646,0.731415 1.064131,0.917191 0.975448,0.360636 4.02709,-1.761015 4.721948,-3.618219 C 58.90698,45.055469 56.862056,35.679753 55.023807,30.685274 53.947435,27.760795 53.799571,24.08485 53.242167,23.212261 52.684763,22.339672 47.566095,18.626596 42.982423,14.557938 38.398751,10.48928 34.350074,6.0650403 33.191915,6.0202054 c -1.158159,-0.044835 -4.9598,3.9341305 -9.056825,7.5546696 -4.097025,3.620539 -8.489434,6.882651 -9.100436,7.78999 -1.222003,1.814677 -10.7148569,19.733565 -10.1583223,21.406496 0.3685694,1.107912 1.8143914,1.522803 2.7234775,2.42402 0.9090861,0.901218 1.2814362,2.28877 2.4489828,2.300903 z m 1.359969,-1.354866 c 1.066273,4.649524 0.122391,9.43086 1.445781,11.767803 0.344535,0.608407 8.163419,0.513626 12.251065,0.604528 5.07135,0.112778 14.947029,-0.08734 14.947029,-0.08734 0,0 11.671466,0.01835 12.670962,-1.10033 0.986365,-1.104019 -0.85496,-6.888364 0.149783,-8.908013 M 25.105607,58.513749 c -0.254001,-2.89636 0.428529,-8.415545 0.137728,-10.995208 0.490533,-6.423138 13.194424,-6.747507 14.059392,0.13333 -0.101601,3.048389 0.455391,7.624298 0.749909,10.774535 M 15.58806,48.705327 c 0.01867,-2.203192 2.336465,-2.77636 4.102028,-2.298783 2.443365,0.66092 2.912232,3.913127 1.273364,4.9156 -1.80532,1.104289 -5.390851,-0.792509 -5.375392,-2.616817 z"
         id="path8951" />
  </symbol>
  <symbol id="icon-meta" viewBox="0 0 64 64">
      <path
         style="opacity:1;fill:#b4b1ab;fill-opacity:1;stroke:none;stroke-width:0.377953;stroke-linecap:round;stroke-linejoin:round;stroke-miterlimit:4;stroke-dasharray:none;stroke-opacity:1"
         d="M 10.524314,8.3491272 C 16.069202,31.195761 9.2242506,53.003143 10.266209,56.321072 c 0,0 -0.01378,1.617262 0.588529,1.874065 1.286302,0.548434 2.015292,-2.205363 3.758105,-1.86409 5.923121,1.159849 26.882792,0.434579 35.320449,2.543018 1.307146,0.326635 3.820463,-0.501295 3.603491,-1.831048 -0.265538,-1.6274 -1.583746,-8.554481 -1.529302,-11.973192 C 51.396698,42.201722 53.1873,37.570185 53.244389,33.61409 52.477274,31.231391 51.86685,23.55978 51.713217,21.122818 51.92504,19.334772 52.617855,17.186413 52.196853,15.79887 52.031429,12.935947 46.245058,6.8564083 43.613466,6.3366584 41.847683,6.2808922 27.184724,7.2422623 24.508387,8.1365055 23.803484,9.1572697 19.656173,9.579997 18.038292,9.1572317 17.503554,8.5252881 15.193171,7.858161 14.126559,7.9145885 13.21336,7.8017336 10.711671,7.8157112 10.524314,8.3491272 Z M 43.613466,6.3366584 c 0,0 -2.020687,6.7179256 -1.099993,9.2935316 1.746386,1.080718 2.610659,-2.571028 9.68338,0.16868"
         id="paper_dark" />
      <path
         style="opacity:1;fill:#dddcd6;fill-opacity:1;stroke:none;stroke-width:0.755906;stroke-linecap:round;stroke-linejoin:round;stroke-miterlimit:4;stroke-dasharray:none;stroke-opacity:1"
         d="m 12.08386,39.658364 c -0.887882,8.722416 -2.3386302,15.003744 -1.817651,16.662708 0,0 -0.01378,1.617262 0.588529,1.874065 1.286302,0.548434 2.015292,-2.205363 3.758105,-1.86409 5.923121,1.159849 26.882792,0.434579 35.320449,2.543018 1.307146,0.326635 3.820463,-0.501295 3.603491,-1.831048 -0.265538,-1.6274 -1.583746,-8.554481 -1.529302,-11.973192 C 51.396698,42.201722 53.1873,37.570185 53.244389,33.61409 52.477274,31.231391 51.86685,23.55978 51.713217,21.122818 43.99641,35.566708 27.606749,43.469645 12.08386,39.658364 Z"
         id="paper_light" />
      <path
         style="opacity:1;fill:#fffdf3;fill-opacity:1;stroke:none;stroke-width:0.755906;stroke-linecap:round;stroke-linejoin:round;stroke-miterlimit:4;stroke-dasharray:none;stroke-opacity:1"
         d="M 52.196853,15.79887 C 52.031429,12.935947 46.245058,6.8564083 43.613466,6.3366584 m 0,0 c 0,0 -2.020687,6.7179256 -1.099993,9.2935316 1.746386,1.080718 2.610659,-2.571028 9.68338,0.16868"
         id="paper_lightest" />
      <path
         style="opacity:1;fill:#f0e7a6;fill-opacity:1;stroke:none;stroke-width:0.377953;stroke-linecap:round;stroke-linejoin:round;stroke-miterlimit:4;stroke-dasharray:none;stroke-opacity:1"
         d="m 18.038292,9.1572317 c -12.025528,-6.1048211 -6.012764,-3.0524106 0,0 z M 43.99641,35.566708 c 0.348815,-0.545823 -0.358633,-0.574189 -0.358633,-0.574189 h 4e-6 C 46.331204,25.56967 43.770729,22.024159 40.072319,18.24813 36.195605,13.902588 27.424876,9.6483786 18.610973,17.527431 c -7.905549,7.872039 -2.818269,18.704021 -0.156486,21.33058 4.661783,4.346633 10.094452,5.394951 14.767535,4.212048 -0.849751,1.851544 -0.132949,1.415601 0.08081,2.040835 5.425193,3.094584 15.419489,-5.705134 10.693578,-9.544186 z"
         id="bulb_top" />
      <path
         style="fill:#b5b5b5;fill-opacity:1;stroke:#000000;stroke-width:0.377953;stroke-linecap:round;stroke-linejoin:round;stroke-miterlimit:4;stroke-dasharray:none;stroke-opacity:1;paint-order:normal"
         d="m 49.870575,44.294773 c 0.349985,-0.991592 0.14574,-1.367576 0.328142,-2.037448 0.07325,-1.004832 -0.703086,-1.465866 -1.534601,-1.327618 -0.0012,-2.007871 -0.48909,-3.009429 -1.930954,-2.627026 0.327774,-2.357777 -1.753585,-2.968127 -2.736752,-2.735973 1.83019,2.798083 -2.998441,9.835255 -10.693578,9.544186 -0.163264,1.783043 2.356297,3.279848 3.248753,2.970933 -0.222101,1.036004 1.000312,1.812967 1.530081,1.554551 5.46e-4,0.664277 0.809461,1.608479 1.252338,1.684227 0.855595,0.319358 2.977244,0.435318 4.320604,-0.310006 m 3e-6,0 c 2.875487,2.560176 8.189386,-3.891146 6.215967,-6.715826"
         id="bulb_bottom" />
      <path
         style="fill:none;stroke:#000000;stroke-width:0.377953;stroke-linecap:round;stroke-linejoin:round;stroke-miterlimit:4;stroke-dasharray:none;stroke-opacity:1"
         d="m 45.912874,40.021197 c -1.314319,4.234209 -3.940673,6.536514 -7.857232,6.939059 m 9.300343,-4.656328 c -1.099526,4.5424 -4.108361,5.884051 -7.49096,6.599127 m 1.928116,-7.954343 C 38.7687,37.41792 36.701546,33.533756 37.57651,28.563543 m 2.844517,13.50887 C 36.525909,37.851687 32.322281,33.969032 29.460652,28.615783 m 9.575037,14.19195 C 35.433941,39.396295 32.537625,35.307519 25.242698,35.442184 m 14.286952,0.266929 c -3.176141,0.703282 -6.429368,2.993543 -6.125467,3.854261 1.438347,0.808642 5.192127,-1.302717 6.539195,-3.136133"
         id="details" />
      <path
         style="opacity:1;fill:#f4efc8;fill-opacity:1;stroke:none;stroke-width:0.377953;stroke-linecap:round;stroke-linejoin:round;stroke-miterlimit:4;stroke-dasharray:none;stroke-opacity:1"
         d="m 32.966334,18.53803 c -5.515699,-2.50238 -7.904827,-1.165361 -12.110349,5.308603 -1.321329,2.034049 0.97625,4.433007 4.664277,4.309227 6.590374,-0.444655 11.95903,-7.570377 7.446072,-9.61783 z"
         id="bulb_highlight" />
      <path
         style="fill:none;stroke:#000000;stroke-width:1.13386;stroke-linecap:round;stroke-linejoin:round;stroke-miterlimit:4;stroke-dasharray:none;stroke-opacity:1"
         d="M 10.524314,8.3491272 C 16.069202,31.195761 9.2242506,53.003143 10.266209,56.321072 c 0,0 -0.01378,1.617262 0.588529,1.874065 1.286302,0.548434 2.015292,-2.205363 3.758105,-1.86409 5.923121,1.159849 26.882792,0.434579 35.320449,2.543018 1.307146,0.326635 3.820463,-0.501295 3.603491,-1.831048 -0.265538,-1.6274 -1.583746,-8.554481 -1.529302,-11.973192 C 51.396698,42.201722 53.1873,37.570185 53.244389,33.61409 52.477274,31.231391 51.86685,23.55978 51.713217,21.122818 51.92504,19.334772 52.617855,17.186413 52.196853,15.79887 52.031429,12.935947 46.245058,6.8564083 43.613466,6.3366584 41.847683,6.2808922 27.184724,7.2422623 24.508387,8.1365055 23.803484,9.1572697 19.656173,9.579997 18.038292,9.1572317 17.503554,8.5252881 15.193171,7.858161 14.126559,7.9145885 13.21336,7.8017336 10.711671,7.8157112 10.524314,8.3491272 Z M 43.613466,6.3366584 c 0,0 -2.020687,6.7179256 -1.099993,9.2935316 1.746386,1.080718 2.610659,-2.571028 9.68338,0.16868 M 43.637781,34.992519 C 46.331204,25.56967 43.770729,22.024159 40.072319,18.24813 36.195605,13.902588 27.424876,9.6483786 18.610973,17.527431 c -7.905549,7.872039 -2.818269,18.704021 -0.156486,21.33058 4.661783,4.346633 10.094452,5.394951 14.767535,4.212048 -0.849751,1.851544 -0.132949,1.415601 0.08081,2.040835 -0.163264,1.783043 2.356297,3.279848 3.248753,2.970933 -0.222101,1.036004 1.000312,1.812967 1.530081,1.554551 5.46e-4,0.664277 0.809461,1.608479 1.252338,1.684227 0.855595,0.319358 2.977244,0.435318 4.320604,-0.310006 1.566124,0.02958 5.307332,-4.141438 6.215967,-6.715826 0.349985,-0.991592 0.14574,-1.367576 0.328142,-2.037448 0.07325,-1.004832 -0.703086,-1.465866 -1.534601,-1.327618 -0.0012,-2.007871 -0.48909,-3.009429 -1.930954,-2.627026 0.327774,-2.357777 -1.753585,-2.968127 -2.736752,-2.735973 0.348815,-0.545823 -0.358633,-0.574189 -0.358633,-0.574189 z m 0.01683,16.01808 c 2.875487,2.560176 8.189386,-3.891146 6.215967,-6.715826"
         id="outline" />
  </symbol>
</svg>
