<?xml version="1.0" encoding="UTF-8" standalone="no"?>
<svg id="svg-sprite" xmlns="http://www.w3.org/2000/svg" xmlns:svg="http://www.w3.org/2000/svg">
  <symbol id="logo-foot" viewBox="0 0 464 256">
    <path
       fill="#94000e"
       stroke="#000"
       d="m 169.97753,108.0057 c 11.41677,24.87005 15.47015,65.38551 18.91312,99.35584 1.19967,11.83681 14.49043,20.85375 16.85129,22.50764 2.49479,1.74769 7.59967,-1.37856 8.01084,-4.3967 1.40679,-10.32582 1.50727,-34.06649 6.3008,-48.8564 7.36069,-21.54152 30.38663,-61.14131 37.13929,-60.01434 16.27707,2.71653 -1.50074,77.60729 4.31712,84.68916 4.74141,5.77162 15.97205,12.39833 17.90297,13.47648 1.93091,1.07819 4.79956,0.39385 5.22802,-1.10776 0.10849,-5.74298 5.10124,-49.53214 15.39031,-71.70877 6.23992,-13.44923 16.74282,-35.90712 24.73975,-34.30587 5.60502,1.12232 5.98195,48.79372 3.45104,89.82307 -0.75206,12.19215 1.70605,29.34941 4.59363,35.75793 1.24527,2.7637 12.29813,10.52437 14.96111,10.8158 2.66295,0.29133 4.98896,0.93132 6.60562,-3.94717 1.61666,-4.87855 4.94813,-23.12316 4.89215,-34.85536 -0.19687,-41.25792 -2.62635,-81.10752 -8.25645,-112.126881 -1.53805,-8.473982 -9.8462,-20.667056 -17.38157,-19.116645 -32.40926,6.668223 -46.98555,44.978536 -48.90439,44.034006 -2.58151,-1.27073 -4.18804,-43.022032 -13.89557,-42.318286 -34.36536,2.491322 -60.67677,60.138496 -62.39694,58.897186 -3.1837,-2.29738 -9.17019,-44.50148 -14.98957,-46.741353 -2.50022,-0.836444 -27.61642,11.111515 -23.47257,20.138423 z m 200.13782,2.53336 c 0.81933,8.41921 53.46122,32.81538 56.27776,41.41443 2.00372,6.1174 -39.09863,32.60845 -35.26916,42.61997 1.13539,2.96833 25.59491,19.3203 27.47104,15.40905 20.31731,-42.35718 44.90812,-41.47819 43.66534,-58.30821 -15.29241,-26.54247 -53.6454,-44.80762 -73.08223,-64.427145 -2.47121,-0.62579 -20.01008,13.557495 -19.06275,23.291905 z M 72.789349,235.26019 c -0.739055,4.50157 20.23571,16.76974 24.436588,12.25978 C 105.01758,239.15501 152.85434,96.470828 191.07785,40.005298 197.73213,30.175316 183.60128,3.9313616 175.69536,7.8875567 164.16922,13.655313 76.505688,212.62397 72.789349,235.26019 Z M 63.714018,203.56356 C 29.375956,161.20504 9.1532466,154.59186 7.4984426,148.93487 7.4741668,143.63531 70.113564,94.905634 80.742456,90.527605 93.195486,85.398216 105.57221,95.66105 104.53044,99.891651 67.504279,122.48647 44.660575,144.53158 43.869366,150.56061 c -0.525214,4.00209 35.40136,18.59914 38.867364,32.17765 1.566449,7.56494 -14.06798,21.76517 -19.022712,20.8253 z"
       style="fill: var(--primary-color, #94000e); stroke: var(--stroke-color, #000); stroke-width: var(--stroke-width, 1%); display: inline; fill-opacity:1; stroke-linecap: round; stroke-linejoin: round; stroke-miterlimit:4; stroke-dasharray:none; stroke-opacity:1; paint-order: normal" />
  </symbol>
  <symbol id="icon-quote" viewBox="0 0 64 64">
    <path
      fill="#fff"
      stroke="#333"
      style="fill: var(--primary-color, #fff); stroke: var(--stroke-color, #333); stroke-width: var(--stroke-width, 5%); stroke-linecap: round; stroke-linejoin: round;"
      d="m 43.697183,42.599268 c 0,0 -1.33988,0.65596 -4.172194,1.104717 M 26.23058,45.687189 c 0,0 -0.543061,-2.104883 -0.557537,-2.790428 m 0.557537,2.790428 c 7.977577,16.982707 33.394911,14.162566 33.394911,14.162566 0,0 -11.411983,-5.323139 -15.928308,-17.250487 M 26.23058,45.687189 C 11.728267,45.074427 1.1878049,34.670528 2.0834073,24.500203 2.9790107,14.329877 14.804268,5.0004238 29.566701,2.6593212 44.329135,0.3182191 57.783971,5.6167807 61.175967,15.107158 c 3.391994,9.490377 -3.701521,22.394624 -17.478784,27.49211" />
  </symbol>
  <symbol id="icon-tags" viewBox="0 0 64 64">
    <path
      fill="#fff"
      stroke="#333"
      style="fill: var(--primary-color, #fff); stroke: var(--stroke-color, #333); stroke-width: var(--stroke-width, 5%); stroke-linecap: round; stroke-linejoin: round;"
      d="M 15.583548,5.7584857 48.192673,20.640549 c 7.933474,3.620658 15.895997,18.045532 13.10178,24.254238 -2.794215,6.208707 -18.942356,9.043338 -26.685329,5.509621 L 2,35.522345 Z" />
  </symbol>
</svg>
