<?xml version="1.0" encoding="UTF-8" standalone="no"?>
<!-- Created with Inkscape (http://www.inkscape.org/) -->

<svg
   width="512"
   height="512"
   viewBox="0 0 512 512"
   version="1.1"
   id="svg1029"
   inkscape:version="1.1.2 (0a00cf5339, 2022-02-04)"
   sodipodi:docname="icons_privacy.svg"
   style="stroke-linecap:round"
   xmlns:inkscape="http://www.inkscape.org/namespaces/inkscape"
   xmlns:sodipodi="http://sodipodi.sourceforge.net/DTD/sodipodi-0.dtd"
   xmlns="http://www.w3.org/2000/svg"
   xmlns:svg="http://www.w3.org/2000/svg">
  <sodipodi:namedview
     id="namedview1031"
     pagecolor="#ffffff"
     bordercolor="#666666"
     borderopacity="1.0"
     inkscape:pageshadow="2"
     inkscape:pageopacity="0.0"
     inkscape:pagecheckerboard="0"
     inkscape:document-units="px"
     showgrid="true"
     units="px"
     inkscape:zoom="0.98520764"
     inkscape:cx="134.99692"
     inkscape:cy="263.90376"
     inkscape:window-width="1842"
     inkscape:window-height="1011"
     inkscape:window-x="0"
     inkscape:window-y="0"
     inkscape:window-maximized="1"
     inkscape:current-layer="g135409">
    <inkscape:grid
       type="xygrid"
       id="grid1098" />
    <sodipodi:guide
       position="-5,496"
       orientation="0,512"
       id="guide15909" />
    <sodipodi:guide
       position="494,513"
       orientation="512,0"
       id="guide15911" />
    <sodipodi:guide
       position="513,16"
       orientation="0,-512"
       id="guide15913" />
    <sodipodi:guide
       position="16,-1"
       orientation="-512,0"
       id="guide15915" />
  </sodipodi:namedview>
  <defs
     id="defs1026" />
  <g
     inkscape:label="draft04"
     inkscape:groupmode="layer"
     id="g135409"
     style="display:inline">
    <path
       id="privacy-base"
       style="fill:#00db0e;fill-opacity:1;fill-rule:evenodd;stroke:none;stroke-width:2.74312;stroke-linejoin:round;stroke-miterlimit:4;stroke-dasharray:none;stroke-opacity:1"
       d="M 469.06016,254.09781 A 214.89082,214.89082 0 0 1 254.16936,468.98862 214.89082,214.89082 0 0 1 39.278551,254.09781 214.89082,214.89082 0 0 1 254.16936,39.206998 214.89082,214.89082 0 0 1 469.06016,254.09781 Z" />
    <path
       id="privacy-white"
       style="fill:#ffffff;fill-opacity:1;fill-rule:evenodd;stroke:none;stroke-width:2.18058;stroke-linejoin:round;stroke-opacity:1"
       d="M 424.98248,276.95854 A 170.81311,170.81311 0 0 1 254.16936,447.77166 170.81311,170.81311 0 0 1 83.356235,276.95854 170.81311,170.81311 0 0 1 254.16936,106.14541 170.81311,170.81311 0 0 1 424.98248,276.95854 Z" />
    <path
       id="privacy-blue"
       style="fill:#1b5fff;fill-opacity:1;fill-rule:evenodd;stroke:#000000;stroke-width:10.2585;stroke-linejoin:round;stroke-miterlimit:4;stroke-dasharray:none;stroke-opacity:1"
       d="M 366.44091,276.95854 A 112.27156,112.27156 0 0 1 254.16936,389.2301 112.27156,112.27156 0 0 1 141.8978,276.95854 112.27156,112.27156 0 0 1 254.16936,164.68697 112.27156,112.27156 0 0 1 366.44091,276.95854 Z" />
    <path
       id="privacy-black"
       style="fill:#000000;fill-opacity:1;fill-rule:evenodd;stroke:none;stroke-width:0.758778;stroke-linejoin:round;stroke-opacity:1"
       d="m 313.60725,276.95854 a 59.437883,59.437883 0 0 1 -59.43789,59.43788 59.437883,59.437883 0 0 1 -59.43788,-59.43788 59.437883,59.437883 0 0 1 59.43788,-59.4379 59.437883,59.437883 0 0 1 59.43789,59.4379 z" />
    <path
       id="privacy-bottom"
       style="fill:#00db0e;fill-opacity:1;fill-rule:evenodd;stroke:#000000;stroke-width:10.2585;stroke-linecap:round;stroke-linejoin:round;stroke-miterlimit:4;stroke-dasharray:none;stroke-opacity:1"
       d="m 469.06016,254.09781 c 9.14429,114.30362 -96.20987,214.89081 -214.8908,214.89081 -118.68092,0 -224.035098,-100.58719 -214.890809,-214.89081 1.09382,-13.67275 36.577159,132.5922 214.890809,136.40274 169.17364,3.61521 213.79698,-150.07549 214.8908,-136.40274 z" />
    <path
       id="privacy-bottom-shadow"
       style="fill:#1f7824;fill-opacity:1;fill-rule:evenodd;stroke:none;stroke-width:2.74329;stroke-linejoin:round;stroke-miterlimit:4;stroke-dasharray:none;stroke-opacity:1"
       d="m 469.06016,254.09781 c 9.1443,114.30362 -96.20987,214.89081 -214.8908,214.89081 -118.68092,0 -224.035095,-100.58719 -214.890809,-214.89081 0.546911,-6.83637 18.288579,68.58216 18.288579,68.58216 l 64.01003,82.29862 32.00502,18.28857 109.73147,22.86074 91.4429,-32.00502 59.43789,-36.57716 45.72145,-73.15432 c 0,0 8.87084,-53.71178 9.14427,-50.29359 z" />
    <path
       id="privacy-top"
       style="fill:#00db0e;fill-opacity:1;fill-rule:evenodd;stroke:#000000;stroke-width:10.2585;stroke-linecap:round;stroke-linejoin:round;stroke-miterlimit:4;stroke-dasharray:none;stroke-opacity:1"
       d="M 469.06016,254.09781 C 444.13549,301.45472 372.85029,184.0548 254.16936,184.0548 135.48844,184.0548 58.329847,304.10747 39.278551,254.09781 2.7013919,158.08277 135.48844,39.206998 254.16936,39.206998 c 118.68093,0 260.61227,128.020062 214.8908,214.890812 z" />
    <path
       id="privacy-top-shadow"
       style="fill:#1f7824;fill-opacity:1;fill-rule:evenodd;stroke:none;stroke-width:2.74329;stroke-linejoin:round;stroke-miterlimit:4;stroke-dasharray:none;stroke-opacity:1"
       d="m 469.06016,254.09781 c -3.11558,5.9196 0.66445,-60.01214 -64.01001,-114.30362 L 350.18441,112.36131 322.75155,84.928446 c 0,0 -32.86366,-8.384982 -92.20412,-8.384982 -59.34046,0 -108.97027,44.962146 -108.97027,44.962146 L 85,148.93848 57.56713,240.38137 c 0,0 -15.907166,19.96765 -18.288579,13.71644 C 2.7013851,158.08277 135.48844,39.206998 254.16936,39.206998 c 118.68093,0 260.61227,128.020062 214.8908,214.890812 z" />
    <path
       id="privacy-top-highlight"
       style="fill:#7cf782;fill-opacity:1;fill-rule:evenodd;stroke:none;stroke-width:2.74329;stroke-linejoin:round;stroke-miterlimit:4;stroke-dasharray:none;stroke-opacity:1"
       d="m 469.06016,254.09781 c 0.78162,6.64363 0.66445,-60.01215 -64.01001,-114.30362 L 350.18441,112.36131 322.75155,84.928446 c 0,0 -32.86366,-8.384982 -92.20412,-8.384982 -59.34046,0 -108.97027,44.962146 -108.97027,44.962146 L 85,148.93848 57.56713,240.38137 c 0,0 26.128678,-3.69674 25.58915,-10.36439 -7.30057,-90.22279 94.12323,-139.934951 210.89144,-118.71361 56.13669,10.20224 165.86817,65.06798 175.01244,142.79444 z" />
    <path
       id="privacy-outline"
       style="fill:none;fill-opacity:1;fill-rule:evenodd;stroke:#000000;stroke-width:15.3877;stroke-linejoin:round;stroke-miterlimit:4;stroke-dasharray:none;stroke-opacity:1"
       d="m 254.16936,29.925187 c -62.43922,0 -126.99784,30.733315 -172.094819,74.025883 -44.506468,42.72568 -70.755792,99.25002 -52.143883,151.37014 -8.28387,119.5517 100.990232,222.94922 224.238702,222.94922 123.06562,0 232.18887,-103.0925 224.2655,-222.41877 11.46082,-23.65792 10.81131,-50.01195 1.75741,-75.12605 -9.37948,-26.01726 -27.39824,-51.14517 -50.4954,-73.34186 C 383.50252,62.990376 316.84696,29.925187 254.16936,29.925187 Z M 475.37902,259.88085 c 0.14815,0.0957 0.12231,0.3811 -0.78763,0.93587 0.0666,-0.10937 0.28291,-0.5103 0.33041,-0.58402 0.15602,-0.11251 0.30849,-0.22986 0.45722,-0.35185 z" />
  </g>
  <g
     inkscape:label="draft03"
     inkscape:groupmode="layer"
     id="g112168"
     style="display:none"
     sodipodi:insensitive="true">
    <path
       id="path112584"
       style="fill:#20ce00;fill-opacity:1;fill-rule:evenodd;stroke:#000000;stroke-width:5;stroke-linecap:round;stroke-linejoin:round;stroke-miterlimit:4;stroke-dasharray:none;stroke-opacity:1"
       d="M 200,483.47371 C 84.201011,455.61035 7.5580795,345.52124 21.619758,227.25019 35.681437,108.97914 136.00068,19.929708 255.1047,19.994829 374.20873,20.059951 474.43054,109.21903 488.36287,227.50539 502.29521,345.79175 425.53194,455.79699 309.70255,483.5337 Z"
       sodipodi:nodetypes="cssscc" />
    <path
       id="path132564"
       style="fill:#148200;fill-opacity:1;fill-rule:evenodd;stroke:none;stroke-width:5;stroke-linecap:round;stroke-linejoin:round;stroke-miterlimit:4;stroke-dasharray:none;stroke-opacity:1"
       d="M 200,69.94001 C 84.201011,42.07665 7.5580795,345.52124 21.619758,227.25019 35.681437,108.97914 136.00068,19.929708 255.1047,19.994829 374.20873,20.059951 474.43054,109.21903 488.36287,227.50539 502.29521,345.79175 425.53194,42.26329 309.70255,70 Z"
       sodipodi:nodetypes="cssscc" />
    <path
       id="path134562"
       style="fill:#148200;fill-opacity:1;fill-rule:evenodd;stroke:none;stroke-width:5;stroke-linecap:round;stroke-linejoin:round;stroke-miterlimit:4;stroke-dasharray:none;stroke-opacity:1"
       d="M 200,483.47371 C 84.201011,455.61035 7.558079,345.52124 21.619758,227.25019 c 0,0 28.13483,79.97266 69.860353,153.66445 41.725519,73.6918 104.072579,81.9672 163.624589,81.99976 59.55202,0.0326 133.19848,-14.91713 174.88348,-88.56332 41.685,-73.64618 58.37469,-146.84569 58.37469,-146.84569 13.93233,118.28636 -62.83093,228.2916 -178.66032,256.02831 z"
       sodipodi:nodetypes="cssssscc" />
    <path
       id="path150981"
       style="fill:#ffffff;fill-opacity:1;fill-rule:evenodd;stroke:#000000;stroke-width:3.63032;stroke-linecap:round;stroke-linejoin:round;stroke-miterlimit:4;stroke-dasharray:none;stroke-opacity:1"
       d="m 215.05997,409.95644 c -84.0774,-20.23057 -139.725028,-66.69172 -129.515359,-152.564 10.20967,-85.87228 83.047799,-123.69728 169.524859,-123.65 86.47708,0.0473 159.24446,37.9519 169.36022,123.83529 C 434.54545,343.46112 378.81045,389.86139 294.71097,410 Z"
       sodipodi:nodetypes="cssscc" />
    <path
       id="path150983"
       style="fill:#4baeff;fill-opacity:1;fill-rule:evenodd;stroke:#000000;stroke-width:2.11981;stroke-linecap:round;stroke-linejoin:round;stroke-miterlimit:4;stroke-dasharray:none;stroke-opacity:1"
       d="m 278.28382,180 c 49.09425,11.81297 81.58785,58.48645 75.62626,108.62876 -5.96161,50.1423 -48.49305,87.89578 -98.9885,87.86816 -50.49544,-0.0276 -92.98558,-37.82756 -98.89234,-87.97636 -5.90676,-50.14879 26.63786,-96.78671 75.74499,-108.54599 z"
       sodipodi:nodetypes="cssscc" />
    <path
       id="unterlid-base"
       style="fill:#20ce00;fill-opacity:1;fill-rule:evenodd;stroke:#000000;stroke-width:3;stroke-linecap:round;stroke-linejoin:round;stroke-miterlimit:4;stroke-dasharray:none;stroke-opacity:1"
       d="M 200,429.04447 C 110,400 10,380 21.619758,349.7448 50.162266,275.42662 175.49399,399.96633 255.1047,400 334.62365,400.03363 473.67791,271.84876 488.36287,350 494,380 390,410 309.70255,429.10446 274.12804,437.56838 234.80025,440.27507 200,429.04447 Z"
       sodipodi:nodetypes="ssssss" />
    <path
       id="unterlid-shadow"
       style="fill:#148200;fill-opacity:1;fill-rule:evenodd;stroke:none;stroke-width:3;stroke-linecap:round;stroke-linejoin:round;stroke-miterlimit:4;stroke-dasharray:none;stroke-opacity:1"
       d="M 200,429.04447 C 110,400 9.9999997,380 21.619758,349.7448 35.891012,312.58571 62.430259,358.26457 70,360 c 0,0 142.52658,57.22255 182.33193,57.23938 C 292.09141,417.2562 450,360 450,360 c 8.2342,-1.93169 31.02039,-49.07562 38.36287,-10 C 494,380 390,410 309.70255,429.10446 274.12804,437.56838 234.80025,440.27507 200,429.04447 Z"
       sodipodi:nodetypes="sscscsss" />
    <path
       id="oberlid-base"
       style="fill:#20ce00;fill-opacity:1;fill-rule:evenodd;stroke:#000000;stroke-width:3;stroke-linecap:round;stroke-linejoin:round;stroke-miterlimit:4;stroke-dasharray:none;stroke-opacity:1"
       d="M 21.619758,299.7448 C -44.383702,227.00836 156.88534,119.94324 255.1047,120 353.31612,120.05676 556.34317,229.11865 488.36287,300 450,340 380,190 254.85128,190 130,190 40,320 21.619758,299.7448 Z"
       sodipodi:nodetypes="sssss" />
    <path
       id="oberlid-hightlight"
       style="fill:#28ff00;fill-opacity:1;fill-rule:evenodd;stroke:none;stroke-width:3;stroke-linecap:round;stroke-linejoin:round;stroke-miterlimit:4;stroke-dasharray:none;stroke-opacity:1"
       d="M 21.619758,299.7448 C -44.383702,227.00836 156.88534,119.94324 255.1047,120 c 98.21142,0.0568 301.23847,109.11865 233.25817,180 0,0 -9.39524,-49.13831 -36.39674,-74.85528 -27.00151,-25.71697 -71.60928,-28.0126 -81.25244,-30.88049 -58.86163,-17.50551 -55.11,-68.88502 -115.01011,-50.7873 l -119.1767,36.00706 C 82.390691,195.84025 28.842155,257.02735 28.842155,257.02735 11.10725,269.86415 21.619758,299.7448 21.619758,299.7448 Z"
       sodipodi:nodetypes="sssssssss" />
    <path
       style="fill:#000000;fill-opacity:1;fill-rule:evenodd;stroke:none;stroke-width:3;stroke-linecap:round;stroke-linejoin:round;stroke-miterlimit:4;stroke-dasharray:none;stroke-opacity:1"
       id="path135227"
       sodipodi:type="arc"
       sodipodi:cx="253.41017"
       sodipodi:cy="273.60251"
       sodipodi:rx="40"
       sodipodi:ry="40"
       sodipodi:start="1.6142987"
       sodipodi:end="1.1431331"
       sodipodi:open="true"
       sodipodi:arc-type="arc"
       d="m 251.67063,313.56467 a 40,40 0 0 1 -38.15013,-36.99333 40,40 0 0 1 32.25361,-42.2332 40,40 0 0 1 45.73097,27.0669 A 40,40 0 0 1 270,310" />
  </g>
  <g
     inkscape:label="draft02"
     inkscape:groupmode="layer"
     id="layer2"
     style="display:none"
     sodipodi:insensitive="true">
    <path
       style="fill:#42da00;fill-opacity:1;fill-rule:evenodd;stroke:#000000;stroke-width:6.5;stroke-linecap:round;stroke-linejoin:round;stroke-miterlimit:4;stroke-dasharray:none;stroke-opacity:1"
       id="privacy-body"
       d="M 198.43977,471.07945 A 213.6245,219.90439 0 0 1 48.282368,201.35305 213.6245,219.90439 0 0 1 310.19549,46.58301 213.6245,219.90439 0 0 1 460.73845,316.08158 213.6245,219.90439 0 0 1 199.04693,471.24833" />
    <path
       style="fill:#ffffff;fill-opacity:1;fill-rule:evenodd;stroke:#000000;stroke-width:3.4566;stroke-linecap:round;stroke-linejoin:round;stroke-miterlimit:4;stroke-dasharray:none;stroke-opacity:1"
       id="path28743"
       d="M 205.49036,464.37607 A 186.74261,192.23225 0 0 1 74.228336,228.59127 186.74261,192.23225 0 0 1 303.18307,93.297033 186.74261,192.23225 0 0 1 434.78214,328.88269 186.74261,192.23225 0 0 1 206.02113,464.5237" />
    <path
       style="fill:#0061ff;fill-opacity:1;fill-rule:evenodd;stroke:#000000;stroke-width:2.01151;stroke-linecap:round;stroke-linejoin:round;stroke-miterlimit:4;stroke-dasharray:none;stroke-opacity:1"
       id="path28901"
       d="m 225.96686,386.82348 a 108.6716,111.8662 0 0 1 -76.38563,-137.21085 108.6716,111.8662 0 0 1 133.2362,-78.73211 108.6716,111.8662 0 0 1 76.58178,137.09495 108.6716,111.8662 0 0 1 -133.12348,78.93392" />
    <path
       style="fill:#000000;fill-opacity:1;fill-rule:evenodd;stroke:none;stroke-width:0.951921;stroke-linecap:round;stroke-linejoin:round;stroke-miterlimit:4;stroke-dasharray:none;stroke-opacity:1"
       id="path29065"
       d="m 240.98091,329.95935 a 51.42735,52.93915 0 0 1 -36.14846,-64.93316 51.42735,52.93915 0 0 1 63.05222,-37.2589 51.42735,52.93915 0 0 1 36.24127,64.87832 A 51.42735,52.93915 0 0 1 241.12709,330" />
    <path
       id="oberes-lid"
       style="fill:#42da00;fill-opacity:1;fill-rule:evenodd;stroke:#000000;stroke-width:3;stroke-linecap:round;stroke-linejoin:round;stroke-miterlimit:4;stroke-dasharray:none;stroke-opacity:1"
       d="M 249.86523,39.019531 C 155.13358,41.122281 73.067448,107.21013 48.283203,201.35352 40.775542,230.24439 39.071538,260.40805 43.275391,290 180.03007,153.26868 321.10343,160.10068 465.87891,290 481.16217,180.02908 414.36851,75.595179 310.19531,46.583984 290.53827,41.115601 270.2227,38.568344 249.86523,39.019531 Z"
       sodipodi:nodetypes="cccccc" />
    <path
       id="unteres-lid"
       style="fill:#42da00;fill-opacity:1;fill-rule:evenodd;stroke:#000000;stroke-width:3;stroke-linecap:round;stroke-linejoin:round;stroke-miterlimit:4;stroke-dasharray:none;stroke-opacity:1"
       d="m 52.644531,330 c 22.875344,68.99742 77.482909,121.83904 145.794919,141.08008 l 0.60743,0.16797 C 307.4499,500.92162 419.68475,439.2351 456.03906,330 315.03401,460.33465 180.48684,439.21995 52.644531,330 Z"
       sodipodi:nodetypes="ccccc" />
  </g>
  <g
     inkscape:label="draft01"
     inkscape:groupmode="layer"
     id="g24418"
     style="display:none"
     sodipodi:insensitive="true">
    <path
       style="fill:#42da00;fill-opacity:1;fill-rule:evenodd;stroke:#000000;stroke-width:6.5;stroke-linecap:round;stroke-linejoin:round;stroke-opacity:1"
       id="path24410"
       sodipodi:type="arc"
       sodipodi:cx="254.46939"
       sodipodi:cy="258.87357"
       sodipodi:rx="213.6245"
       sodipodi:ry="219.90439"
       sodipodi:start="1.8361814"
       sodipodi:end="1.8332373"
       sodipodi:open="true"
       sodipodi:arc-type="arc"
       d="M 198.43977,471.07945 A 213.6245,219.90439 0 0 1 48.282368,201.35305 213.6245,219.90439 0 0 1 310.19549,46.58301 213.6245,219.90439 0 0 1 460.73845,316.08158 213.6245,219.90439 0 0 1 199.04693,471.24833" />
    <path
       style="fill:#ffffff;fill-opacity:1;fill-rule:evenodd;stroke:#000000;stroke-width:3;stroke-linecap:round;stroke-linejoin:round;stroke-miterlimit:4;stroke-dasharray:none;stroke-opacity:1"
       id="path129220"
       sodipodi:type="arc"
       sodipodi:cx="254.46938"
       sodipodi:cy="258.87357"
       sodipodi:rx="192.40413"
       sodipodi:ry="198.06021"
       sodipodi:start="1.8361814"
       sodipodi:end="1.8332373"
       sodipodi:open="true"
       sodipodi:arc-type="arc"
       d="M 204.00545,450 A 192.40413,198.06021 0 0 1 68.76392,207.06685 192.40413,198.06021 0 0 1 304.65993,67.670868 192.40413,198.06021 0 0 1 440.24871,310.39882 192.40413,198.06021 0 0 1 204.5523,450.15211" />
    <path
       style="fill:#0062ff;fill-opacity:1;fill-rule:evenodd;stroke:#000000;stroke-width:3;stroke-linecap:round;stroke-linejoin:round;stroke-miterlimit:4;stroke-dasharray:none;stroke-opacity:1"
       id="path150985"
       sodipodi:type="arc"
       sodipodi:cx="254.46935"
       sodipodi:cy="268.96191"
       sodipodi:rx="111.7804"
       sodipodi:ry="115.06639"
       sodipodi:start="1.8361814"
       sodipodi:end="1.8332373"
       sodipodi:open="true"
       sodipodi:arc-type="arc"
       d="M 225.15148,380.00001 A 111.7804,115.06639 0 0 1 146.58065,238.86393 111.7804,115.06639 0 0 1 283.62839,157.87951 111.7804,115.06639 0 0 1 362.40097,298.89637 111.7804,115.06639 0 0 1 225.46918,380.08838" />
    <path
       style="fill:#000000;fill-opacity:1;fill-rule:evenodd;stroke:none;stroke-width:3;stroke-linecap:round;stroke-linejoin:round;stroke-miterlimit:4;stroke-dasharray:none;stroke-opacity:1"
       id="path132531"
       sodipodi:type="arc"
       sodipodi:cx="254.46935"
       sodipodi:cy="268.96191"
       sodipodi:rx="61.39727"
       sodipodi:ry="63.202156"
       sodipodi:start="1.8361814"
       sodipodi:end="1.8332373"
       sodipodi:open="true"
       sodipodi:arc-type="arc"
       d="m 238.36602,329.95146 a 61.39727,63.202156 0 0 1 -43.15636,-77.52137 61.39727,63.202156 0 0 1 75.27578,-44.48206 61.39727,63.202156 0 0 1 43.26717,77.45589 A 61.39727,63.202156 0 0 1 238.54052,330" />
    <path
       style="fill:#42da00;fill-opacity:1;stroke:none;stroke-width:1px;stroke-linecap:butt;stroke-linejoin:miter;stroke-opacity:1"
       d="m 60,280 70,-70 120,-50 130,60 80,80 -10,-90 -40,-80 -50,-50 -80,-30 -90,10 -70,40 -30,40 -30,60 -10,50 z m 30,110 170,30 150,-30 -70,60 -100,20 -90,-30 z"
       id="privacy-bg-correction" />
    <path
       style="fill:#42da00;fill-opacity:1;stroke:#000000;stroke-width:6.5;stroke-linecap:butt;stroke-linejoin:miter;stroke-miterlimit:4;stroke-dasharray:none;stroke-opacity:1"
       d="m 30,290 c 2.120929,-16.11654 16.347832,-11.73753 30,-25 54.37457,-80.01356 140,-125 200,-125 60,0 125.46212,57.55594 195,135 10,10 20.62637,9.38975 25,20 1.13686,10.50231 -15,25 -30,15 C 350,195 290,180 250,180 c -45,0 -99.91868,13.25801 -190,125 -9.57432,8.32812 -26.949675,3.04822 -30,-15 z"
       id="path112400"
       sodipodi:nodetypes="ccccccccc" />
    <path
       style="fill:#42da00;fill-opacity:1;stroke:#000000;stroke-width:6.5;stroke-linecap:butt;stroke-linejoin:miter;stroke-miterlimit:4;stroke-dasharray:none;stroke-opacity:1"
       d="m 60,380 c 0,-20 90,20 190,20 100,0 200,-40 200,-20 0,30 -150,50 -200,50 -40,0 -190,-20 -190,-50 z"
       id="path112322"
       sodipodi:nodetypes="ccccc" />
  </g>
</svg>
