<?xml version="1.0" encoding="UTF-8" standalone="no"?>
<!-- Created with Inkscape (http://www.inkscape.org/) -->

<svg
   width="512"
   height="512"
   viewBox="0 0 512 512"
   version="1.1"
   id="svg1029"
   inkscape:version="1.1.2 (0a00cf5339, 2022-02-04)"
   sodipodi:docname="icon_misc.svg"
   style="stroke-linecap:round"
   xmlns:inkscape="http://www.inkscape.org/namespaces/inkscape"
   xmlns:sodipodi="http://sodipodi.sourceforge.net/DTD/sodipodi-0.dtd"
   xmlns="http://www.w3.org/2000/svg"
   xmlns:svg="http://www.w3.org/2000/svg">
  <sodipodi:namedview
     id="namedview1031"
     pagecolor="#ffffff"
     bordercolor="#666666"
     borderopacity="1.0"
     inkscape:pageshadow="2"
     inkscape:pageopacity="0.0"
     inkscape:pagecheckerboard="0"
     inkscape:document-units="px"
     showgrid="true"
     units="px"
     inkscape:zoom="1"
     inkscape:cx="191"
     inkscape:cy="299"
     inkscape:window-width="1842"
     inkscape:window-height="1011"
     inkscape:window-x="0"
     inkscape:window-y="0"
     inkscape:window-maximized="1"
     inkscape:current-layer="layer4">
    <inkscape:grid
       type="xygrid"
       id="grid1098"
       snapvisiblegridlinesonly="false" />
    <sodipodi:guide
       position="-5,496"
       orientation="0,512"
       id="guide15909" />
    <sodipodi:guide
       position="494,513"
       orientation="512,0"
       id="guide15911" />
    <sodipodi:guide
       position="513,16"
       orientation="0,-512"
       id="guide15913" />
    <sodipodi:guide
       position="16,-1"
       orientation="-512,0"
       id="guide15915" />
  </sodipodi:namedview>
  <defs
     id="defs1026" />
  <g
     inkscape:groupmode="layer"
     id="layer4"
     inkscape:label="draft01"
     style="display:none"
     sodipodi:insensitive="true">
    <path
       style="fill:none;fill-opacity:1;stroke:#0aff00;stroke-width:1.14431;stroke-linecap:butt;stroke-linejoin:miter;stroke-miterlimit:4;stroke-dasharray:none;stroke-opacity:1"
       d="M 89.26234,202.43292 C 171.65253,6.7562117 434.84343,-0.1096379 432.55482,199 c 0,0 31.46751,124.03401 -149.90439,160.20316 -9.15446,11.44308 12.28432,41.64371 3.43293,52.63818 -14.02943,8.49208 -50.02431,9.32199 -69.80281,1.14431 C 197.40035,409.10373 191.53192,347.0692 202.54886,323.7296 214.63411,289.50783 398.22557,314.57513 333,190.98984 295.23782,125.76427 238.02241,168.10368 191.10577,249.34956 177.9939,273.84411 77.819255,228.75201 89.26234,202.43292 Z m 0,0 c 0,0 -4.1953,-46.84736 -1.14431,-54.92679 C 136.1222,26.454645 419.96743,-75.633983 432.55482,199 M 202.54886,323.7296 c 0,0 6.89391,-23.59881 24.03047,-37.76217 C 239.59255,276.69575 347.87601,263.08126 333,190.98984 M 201.40455,393.5324 c 0,0 -78.72041,3.04078 -33.18494,33.18494 32.04063,24.03048 112.80373,30.66288 160.20315,1.14431 36.09411,-29.34989 -42.3394,-35.47355 -42.3394,-35.47355 M 153.3436,410.69703 c 0,0 -8.01016,53.78249 10.29877,65.22557 51.49388,22.88617 105.27636,21.74186 162.49178,-2.28862 16.02031,-9.15446 11.44308,-59.50403 11.44308,-59.50403"
       id="misc-base" />
    <path
       style="fill:#d6e1ff;fill-opacity:1;stroke:none;stroke-width:3.43292;stroke-linecap:butt;stroke-linejoin:miter;stroke-miterlimit:4;stroke-dasharray:none;stroke-opacity:1"
       d="M 202.54886,323.7296 C 214.63411,289.50783 398.22557,314.57513 333,190.98984 c 14.87601,72.09142 -93.40745,85.70591 -106.42067,94.97759 -17.13656,14.16336 -24.03047,37.76217 -24.03047,37.76217 M 89.26234,202.43292 C 171.65253,6.7562117 434.84343,-0.1096379 432.55482,198.42785 419.96743,-76.778292 136.1222,26.454645 88.11803,147.50613 c -3.05099,8.07943 1.14431,54.92679 1.14431,54.92679 M 201.40455,393.5324 c 0,0 -78.72041,3.04078 -33.18494,33.18494 32.04063,24.03048 112.80373,30.66288 160.20315,1.14431 36.09411,-29.34989 -42.3394,-35.47355 -42.3394,-35.47355"
       id="misc-top" />
    <path
       style="fill:#88a7ff;fill-opacity:1;stroke:none;stroke-width:3.43292;stroke-linecap:round;stroke-linejoin:round;stroke-miterlimit:4;stroke-dasharray:none;stroke-opacity:1"
       d="M 89.26234,202.43292 C 171.65253,6.7562117 434.84343,-0.1096379 432.55482,199 c 0,0 31.46751,124.03401 -149.90439,160.20316 -9.15446,11.44308 12.28432,41.64371 3.43293,52.63818 -14.02943,8.49208 -50.02431,9.32199 -69.80281,1.14431 C 197.40035,409.10373 191.53192,347.0692 202.54886,323.7296 214.63411,289.50783 398.22557,314.57513 333,190.98984 295.23782,125.76427 238.02241,168.10368 191.10577,249.34956 177.9939,273.84411 77.819255,228.75201 89.26234,202.43292 Z m 78.95727,224.28442 c 32.04063,24.03048 112.80373,30.66288 160.20315,1.14431 l 9.15447,-13.7317 c 0,0 4.57723,50.34957 -11.44308,59.50403 -57.21542,24.03048 -110.9979,25.17479 -162.49178,2.28862 -18.30893,-11.44308 -10.29877,-65.22557 -10.29877,-65.22557 z"
       id="misc-front" />
    <path
       style="fill:none;fill-opacity:1;stroke:#000000;stroke-width:10;stroke-linecap:round;stroke-linejoin:round;stroke-miterlimit:4;stroke-dasharray:none;stroke-opacity:1"
       d="m 432.55482,199 c 0,0 31.46751,124.03401 -149.90439,160.20316 -9.15446,11.44308 12.28432,41.64371 3.43293,52.63818 -14.02943,8.49208 -50.02431,9.32199 -69.80281,1.14431 -18.8802,-3.88192 -24.74863,-65.91645 -13.73169,-89.25605 M 333,190.98984 C 295.23782,125.76427 238.02241,168.10368 191.10577,249.34956 177.9939,273.84411 77.819255,228.75201 89.26234,202.43292 m 0,0 c 0,0 -4.1953,-46.84736 -1.14431,-54.92679 C 136.1222,26.454645 419.96743,-75.633983 432.55482,199 M 202.54886,323.7296 c 0,0 6.89391,-23.59881 24.03047,-37.76217 C 239.59255,276.69575 347.87601,263.08126 333,190.98984 M 201.40455,393.5324 C 201.40455,393.5324 158,393 153,411 c 0,0 -7.66656,53.47952 10.64237,64.9226 51.49388,22.88617 105.27636,21.74186 162.49178,-2.28862 C 342.15446,464.47952 338,414 338,414 c 0,-16 -51.91664,-21.6119 -51.91664,-21.6119"
       id="misc-outline" />
  </g>
  <g
     inkscape:groupmode="layer"
     id="g78851"
     inkscape:label="draft02"
     style="display:inline"
     sodipodi:insensitive="true">
    <path
       style="fill:#b2bdc9;fill-opacity:1;stroke:none;stroke-width:10;stroke-linecap:round;stroke-linejoin:round;stroke-miterlimit:4;stroke-dasharray:none;stroke-opacity:1"
       d="m 86.085547,239.35332 c 47.293503,43.52992 108.062343,-43.89875 95.348483,-55.2861 -88.438357,-67.87131 149.91501,-107.964315 131.40465,7.21123 -9.54676,44.56953 -130.45227,49.93147 -159.59713,130.11969 -2.91223,31.12181 31.20558,35.51304 52.00195,50.28764 0,0 -87.70835,-18.54523 -91.04363,0.71589 -8.52232,49.21596 -23.62262,53.35849 1.92985,89.03232 10.06637,14.05364 109.14737,26.82796 145.75108,26.68421 43.69855,-0.1716 122.5892,-1.40265 138.99768,-16.15331 21.50731,-19.33435 15.37369,-75.48845 -4.41452,-104.96375 -8.36379,-12.45817 -107.784,33.54094 -87.41121,2.77988 C 422,294 263,329 280,301 601,130 345.72557,25.42015 236.72013,25.42015 c -277.655325,0 -150.634583,213.93317 -150.634583,213.93317 z"
       id="misc-bg" />
    <path
       style="fill:#5881ae;fill-opacity:1;stroke:none;stroke-width:1;stroke-linecap:round;stroke-linejoin:round;stroke-miterlimit:4;stroke-dasharray:none;stroke-opacity:1"
       d="m 57.282092,132.38674 c -2.95173,53.48329 28.803455,106.96658 28.803455,106.96658 47.293503,43.52992 108.062343,-43.89875 95.348483,-55.2861 0,0 -54.29699,26.02021 -64.43403,16.93278 C 96.728685,198.97812 91,173 91,173 Z M 228,351 153.24155,321.39814 c -2.91223,31.12181 31.20558,35.51304 52.00195,50.28764 L 255,389 309.05275,369.78102 c 56.47363,-37.89051 44.96044,-48.08577 21.45384,-52.30839 C 307,313.25 277.5,358 286,344 Z m -113.80013,21.40167 c -8.52232,49.21596 -23.62262,53.35849 1.92985,89.03232 10.06637,14.05364 109.14737,26.82796 145.75108,26.68421 43.69855,-0.1716 122.5892,-1.40265 138.99768,-16.15331 21.50731,-19.33435 15.37369,-75.48845 -4.41452,-104.96375 L 376,456 274,440 212,459 143,446 Z"
       id="misc-shadow" />
    <path
       style="fill:#dfefff;fill-opacity:1;stroke:none;stroke-width:10;stroke-linecap:round;stroke-linejoin:round;stroke-miterlimit:4;stroke-dasharray:none;stroke-opacity:1"
       d="m 309.05275,369.78102 c -20.37279,30.76106 79.04742,-15.23805 87.41121,-2.77988 19.78821,29.4753 25.92184,85.62941 4.41452,104.96375 C 396.77636,475.65255 445,430 370.48196,400.70902 L 356,418 250.20249,405.12983 158,406 c -60,-4 -36.8371,62.46081 -41.87028,55.43399 -25.552506,-35.6738 -10.45217,-39.81636 -1.92985,-89.03232 3.33528,-19.26112 91.04363,-0.71589 91.04363,-0.71589 L 254,386 Z M 195,314 239,290 326,208 312.83868,191.27845 C 303.29192,235.84798 175,247 153.24155,321.39814 148.84699,347.47823 177,354 177,354 Z M 423.98829,185.80002 C 443.49372,151.94879 438.27175,122.84506 419.6121,99.085075 382.29282,51.565113 291.22285,25.42015 236.72013,25.42015 97.892468,25.42015 60.233822,78.903442 57.282092,132.38674 L 64,181 C 63,105 115,89 115,89 L 217,62 339,90 c 0,0 83.08794,45.79155 84.98829,95.80002 z"
       id="misc-highlight" />
    <path
       style="fill:none;fill-opacity:1;stroke:#000000;stroke-width:10;stroke-linecap:round;stroke-linejoin:round;stroke-miterlimit:4;stroke-dasharray:none;stroke-opacity:1"
       d="m 86.085547,239.35332 c 47.293503,43.52992 108.062343,-43.89875 95.348483,-55.2861 -88.438357,-67.87131 149.91501,-107.964315 131.40465,7.21123 -9.54676,44.56953 -130.45227,49.93147 -159.59713,130.11969 -2.91223,31.12181 31.20558,35.51304 52.00195,50.28764 0,0 -87.70835,-18.54523 -91.04363,0.71589 -8.52232,49.21596 -23.62262,53.35849 1.92985,89.03232 10.06637,14.05364 109.14737,26.82796 145.75108,26.68421 43.69855,-0.1716 122.5892,-1.40265 138.99768,-16.15331 21.50731,-19.33435 15.37369,-75.48845 -4.41452,-104.96375 -8.36379,-12.45817 -107.784,33.54094 -87.41121,2.77988 C 422,294 263,329 280,301 601,130 345.72557,25.42015 236.72013,25.42015 c -277.655325,0 -150.634583,213.93317 -150.634583,213.93317 z"
       id="misc-outline" />
  </g>
</svg>
