<?xml version="1.0" encoding="UTF-8" standalone="no"?>
<!-- Created with Inkscape (http://www.inkscape.org/) -->

<svg
   width="512"
   height="512"
   viewBox="0 0 512 512"
   version="1.1"
   id="svg1029"
   inkscape:version="1.1.2 (0a00cf5339, 2022-02-04)"
   sodipodi:docname="icons_sitemap.svg"
   style="stroke-linecap:round"
   xmlns:inkscape="http://www.inkscape.org/namespaces/inkscape"
   xmlns:sodipodi="http://sodipodi.sourceforge.net/DTD/sodipodi-0.dtd"
   xmlns="http://www.w3.org/2000/svg"
   xmlns:svg="http://www.w3.org/2000/svg">
  <sodipodi:namedview
     id="namedview1031"
     pagecolor="#ffffff"
     bordercolor="#666666"
     borderopacity="1.0"
     inkscape:pageshadow="2"
     inkscape:pageopacity="0.0"
     inkscape:pagecheckerboard="0"
     inkscape:document-units="px"
     showgrid="true"
     units="px"
     inkscape:zoom="0.98520767"
     inkscape:cx="252.73859"
     inkscape:cy="252.73859"
     inkscape:window-width="1842"
     inkscape:window-height="1011"
     inkscape:window-x="0"
     inkscape:window-y="0"
     inkscape:window-maximized="1"
     inkscape:current-layer="layer1">
    <sodipodi:guide
       position="-0.26458333,127"
       orientation="0,512"
       id="guide1090" />
    <sodipodi:guide
       position="127,-0.26458333"
       orientation="512,0"
       id="guide1092" />
    <sodipodi:guide
       position="135.73125,8.4666666"
       orientation="0,-512"
       id="guide1094" />
    <sodipodi:guide
       position="8.4666666,135.73125"
       orientation="-512,0"
       id="guide1096" />
    <inkscape:grid
       type="xygrid"
       id="grid1098" />
  </sodipodi:namedview>
  <defs
     id="defs1026" />
  <g
     inkscape:label="Layer 1"
     inkscape:groupmode="layer"
     id="layer1"
     style="display:inline">
    <path
       style="fill:#ffe29c;fill-opacity:1;stroke:none;stroke-width:6.28561;stroke-linecap:butt;stroke-linejoin:round;stroke-miterlimit:4;stroke-dasharray:none;stroke-opacity:1"
       d="M 246.13415,40.566279 44.196554,209.79848 C 114.63674,205.45049 130.07711,198.56179 240,220 224.75496,165.14164 246.45542,74.29287 246.13415,40.566279 Z M 44.196554,209.79848 c 2.826712,76.21487 17.913397,93.42993 17.406335,106.37204 -0.231025,25.4941 11.735359,22.95324 10.102018,87.71748 -4.79075,39.97657 -21.67861,19.52496 -23.459564,48.85609 5.486645,6.10009 38.024704,11.40346 67.691297,14.50528 98.4586,-2.9887 179.29473,-20.27183 241.75465,-14.50528 77.92106,10.73173 107.54772,11.3304 116.04223,9.67021 -9.72719,-84.73239 0.9101,-159.07343 -9.67017,-203.07393 -11.24743,-17.09256 -19.52634,-58.08296 -19.34038,-67.6913 -3.83799,-23.2425 -8.13144,-67.15944 0,-87.03167 15.43621,-32.824003 23.68467,-54.804529 24.17545,-62.856204 -5.17991,-1.550909 -58.61767,14.01451 -101.53695,14.505279 C 257,58 246.13415,40.566279 246.13415,40.566279"
       id="sitemap-overall-bg"
       sodipodi:nodetypes="ccccccccccccccccc" />
    <path
       style="fill:#554400;fill-opacity:1;stroke:none;stroke-width:6.28561;stroke-linecap:butt;stroke-linejoin:round;stroke-miterlimit:4;stroke-dasharray:none;stroke-opacity:1"
       d="M 246.13415,40.566279 44.196554,209.79848 C 114.63674,205.45049 130.07711,198.56179 240,220 224.75496,165.14164 246.45542,74.29287 246.13415,40.566279 Z"
       id="sitemap-corner-bg"
       sodipodi:nodetypes="cccc" />
    <path
       style="fill:none;fill-opacity:1;stroke:#000000;stroke-width:6.28561;stroke-linecap:butt;stroke-linejoin:round;stroke-miterlimit:4;stroke-dasharray:none;stroke-opacity:1"
       d="M 246.13415,40.566279 44.196554,209.79848 C 114.63674,205.45049 130.07711,198.56179 240,220 224.75496,165.14164 246.45542,74.29287 246.13415,40.566279 Z M 44.196554,209.79848 c 2.826712,76.21487 17.913397,93.42993 17.406335,106.37204 -0.231025,25.4941 11.735359,22.95324 10.102018,87.71748 -4.79075,39.97657 -21.67861,19.52496 -23.459564,48.85609 5.486645,6.10009 38.024704,11.40346 67.691297,14.50528 98.4586,-2.9887 179.29473,-20.27183 241.75465,-14.50528 77.92106,10.73173 107.54772,11.3304 116.04223,9.67021 -9.72719,-84.73239 0.9101,-159.07343 -9.67017,-203.07393 -11.24743,-17.09256 -19.52634,-58.08296 -19.34038,-67.6913 -3.83799,-23.2425 -8.13144,-67.15944 0,-87.03167 15.43621,-32.824003 23.68467,-54.804529 24.17545,-62.856204 -5.17991,-1.550909 -58.61767,14.01451 -101.53695,14.505279 C 257,58 246.13415,40.566279 246.13415,40.566279"
       id="sitemap-outline"
       sodipodi:nodetypes="ccccccccccccccccc" />
  </g>
</svg>
