<?xml version="1.0" encoding="UTF-8" standalone="no"?>
<!-- Created with Inkscape (http://www.inkscape.org/) -->

<svg
   width="512"
   height="512"
   viewBox="0 0 512 512"
   version="1.1"
   id="svg1029"
   inkscape:version="1.1.2 (0a00cf5339, 2022-02-04)"
   sodipodi:docname="icon_meta.svg"
   style="stroke-linecap:round"
   xmlns:inkscape="http://www.inkscape.org/namespaces/inkscape"
   xmlns:sodipodi="http://sodipodi.sourceforge.net/DTD/sodipodi-0.dtd"
   xmlns="http://www.w3.org/2000/svg"
   xmlns:svg="http://www.w3.org/2000/svg">
  <sodipodi:namedview
     id="namedview1031"
     pagecolor="#ffffff"
     bordercolor="#666666"
     borderopacity="1.0"
     inkscape:pageshadow="2"
     inkscape:pageopacity="0.0"
     inkscape:pagecheckerboard="0"
     inkscape:document-units="px"
     showgrid="true"
     units="px"
     inkscape:zoom="0.34832351"
     inkscape:cx="660.3057"
     inkscape:cy="209.57529"
     inkscape:window-width="1842"
     inkscape:window-height="1011"
     inkscape:window-x="0"
     inkscape:window-y="0"
     inkscape:window-maximized="1"
     inkscape:current-layer="layer1">
    <inkscape:grid
       type="xygrid"
       id="grid1098"
       snapvisiblegridlinesonly="false" />
    <sodipodi:guide
       position="-5,496"
       orientation="0,512"
       id="guide15909" />
    <sodipodi:guide
       position="494,513"
       orientation="512,0"
       id="guide15911" />
    <sodipodi:guide
       position="513,16"
       orientation="0,-512"
       id="guide15913" />
    <sodipodi:guide
       position="16,-1"
       orientation="-512,0"
       id="guide15915" />
  </sodipodi:namedview>
  <defs
     id="defs1026" />
  <g
     inkscape:label="Layer 1"
     inkscape:groupmode="layer"
     id="layer1">
    <path
       style="opacity:1;fill:#b4b1ab;fill-opacity:1;stroke:none;stroke-width:3.33474;stroke-linecap:round;stroke-linejoin:round;stroke-miterlimit:4;stroke-dasharray:none;stroke-opacity:1"
       d="M 69.616048,41.590305 C 118.53957,243.17019 58.145362,435.58057 67.338742,464.85524 c 0,0 -0.121584,14.26939 5.192695,16.5352 11.349269,4.83893 17.781277,-19.4583 33.158423,-16.44719 52.26074,10.23355 237.19162,3.83437 311.63855,22.4375 11.53319,2.88196 33.70862,-4.42302 31.79424,-16.15566 -2.34289,-14.35884 -13.97366,-75.47769 -13.4933,-105.64158 -5.38905,-25.30579 10.40975,-66.17066 10.91346,-101.07598 -6.7684,-21.02297 -12.15428,-88.71095 -13.5098,-110.2127 1.86895,-15.77624 7.98178,-34.7316 4.2672,-46.97413 C 435.84065,82.060628 384.78647,28.419782 361.56748,23.833937 345.98766,23.341868 216.61379,31.824241 193,39.714304 186.78051,48.720694 150.18805,52.450489 135.9132,48.720359 131.19511,43.144605 110.8102,37.258426 101.39929,37.756291 93.341976,36.76056 71.269132,36.883856 69.616048,41.590305 Z M 361.56748,23.833937 c 0,0 -17.82889,59.273446 -9.70544,81.998473 15.40867,9.53537 23.03431,-22.684634 85.43817,1.48829"
       id="paper_dark"
       sodipodi:nodetypes="cssssscccccccccccc" />
    <path
       style="opacity:1;fill:#dddcd6;fill-opacity:1;stroke:none;stroke-width:6.6695;stroke-linecap:round;stroke-linejoin:round;stroke-miterlimit:4;stroke-dasharray:none;stroke-opacity:1"
       d="m 83.376198,317.83722 c -7.83394,76.95943 -20.634146,132.38068 -16.037456,147.01802 0,0 -0.121584,14.26939 5.192695,16.5352 11.349269,4.83893 17.781277,-19.4583 33.158423,-16.44719 52.26074,10.23355 237.19162,3.83437 311.63855,22.4375 11.53319,2.88196 33.70862,-4.42302 31.79424,-16.15566 -2.34289,-14.35884 -13.97366,-75.47769 -13.4933,-105.64158 -5.38905,-25.30579 10.40975,-66.17066 10.91346,-101.07598 -6.7684,-21.02297 -12.15428,-88.71095 -13.5098,-110.2127 -68.08676,127.441 -212.69563,197.17 -349.656812,163.54239 z"
       id="paper_light"
       sodipodi:nodetypes="cssssscccc" />
    <path
       style="opacity:1;fill:#fffdf3;fill-opacity:1;stroke:none;stroke-width:6.6695;stroke-linecap:round;stroke-linejoin:round;stroke-miterlimit:4;stroke-dasharray:none;stroke-opacity:1"
       d="M 437.30021,107.3207 C 435.84065,82.060628 384.78647,28.419782 361.56748,23.833937 m 0,0 c 0,0 -17.82889,59.273446 -9.70544,81.998473 15.40867,9.53537 23.03431,-22.684634 85.43817,1.48829"
       id="paper_lightest"
       sodipodi:nodetypes="ccccc" />
    <path
       style="opacity:1;fill:#f0e7a6;fill-opacity:1;stroke:none;stroke-width:3.33474;stroke-linecap:round;stroke-linejoin:round;stroke-miterlimit:4;stroke-dasharray:none;stroke-opacity:1"
       d="m 135.9132,48.720359 c -106.103354,-53.8639131 -53.051676,-26.931961 0,0 z M 364.94625,281.73583 c 3.07767,-4.81589 -3.16428,-5.06617 -3.16428,-5.06617 h 4e-5 c 23.76454,-83.13947 1.17302,-114.42213 -31.4587,-147.73871 -34.20493,-38.341478 -111.59063,-75.877115 -189.35724,-6.35885 -69.752057,69.45639 -24.86609,165.02888 -1.38071,188.20347 41.13173,38.35111 89.06514,47.60061 130.29657,37.16365 -7.4975,16.33649 -1.17304,12.49009 0.713,18.00664 47.86743,27.30406 136.04887,-50.3374 94.35132,-84.21003 z"
       id="bulb_top"
       sodipodi:nodetypes="ccccccccccc" />
    <path
       style="fill:#b5b5b5;fill-opacity:1;stroke:#000000;stroke-width:3.33474;stroke-linecap:round;stroke-linejoin:round;stroke-miterlimit:4;stroke-dasharray:none;stroke-opacity:1;paint-order:normal"
       d="m 416.77505,358.74509 c 3.08799,-8.749 1.28589,-12.06638 2.89526,-17.97677 0.64629,-8.86581 -6.20345,-12.93359 -13.54005,-11.71381 -0.0109,-17.7158 -4.31534,-26.55272 -17.03716,-23.17871 2.89201,-20.80308 -15.47219,-26.18831 -24.14685,-24.13997 16.1481,24.68797 -26.45577,86.77818 -94.35132,84.21003 -1.44051,15.73211 20.79002,28.93868 28.66432,26.21306 -1.95964,9.14086 8.82593,15.99613 13.50018,13.71608 0.004,5.86104 7.14201,14.1919 11.04959,14.86024 7.54907,2.81775 26.26875,3.84089 38.12146,-2.73524 m 2e-5,0 c 25.37093,22.58889 72.2564,-34.33226 54.84458,-59.25491"
       id="bulb_bottom"
       sodipodi:nodetypes="cccccccccccc" />
    <path
       style="fill:none;stroke:#000000;stroke-width:3.33474;stroke-linecap:round;stroke-linejoin:round;stroke-miterlimit:4;stroke-dasharray:none;stroke-opacity:1"
       d="m 381.85556,321.03857 c -11.59648,37.35917 -34.76925,57.67281 -69.32575,61.22454 m 82.05857,-41.0836 c -9.70131,40.0784 -36.2488,51.91602 -66.09407,58.22525 M 345.50642,329.2222 C 318.82125,298.0694 300.58238,263.79873 308.30235,219.94566 m 25.09767,119.19115 C 299.0327,301.8966 261.94335,267.63925 236.6947,220.40659 m 84.48224,125.21807 c -31.77886,-30.09971 -57.33356,-66.17571 -121.698,-64.98753 m 126.05631,2.35516 c -28.02365,6.20518 -56.72745,26.41255 -54.04608,34.00682 12.69079,7.1348 45.81106,-11.49409 57.69647,-27.67065"
       id="details"
       sodipodi:nodetypes="ccccccccccccc" />
    <path
       style="opacity:1;fill:#f4efc8;fill-opacity:1;stroke:none;stroke-width:3.33474;stroke-linecap:round;stroke-linejoin:round;stroke-miterlimit:4;stroke-dasharray:none;stroke-opacity:1"
       d="m 267.62595,131.48879 c -48.66598,-22.07893 -69.74568,-10.28218 -106.85174,46.83874 -11.65832,17.94678 8.61362,39.11321 41.15374,38.02108 58.14802,-3.92327 105.51662,-66.79478 65.698,-84.85982 z"
       id="bulb_highlight"
       sodipodi:nodetypes="sscs" />
    <path
       style="fill:none;stroke:#000000;stroke-width:10;stroke-linecap:round;stroke-linejoin:round;stroke-miterlimit:4;stroke-dasharray:none;stroke-opacity:1"
       d="M 69.616048,41.590305 C 118.53957,243.17019 58.145362,435.58057 67.338742,464.85524 c 0,0 -0.121584,14.26939 5.192695,16.5352 11.349269,4.83893 17.781277,-19.4583 33.158423,-16.44719 52.26074,10.23355 237.19162,3.83437 311.63855,22.4375 11.53319,2.88196 33.70862,-4.42302 31.79424,-16.15566 -2.34289,-14.35884 -13.97366,-75.47769 -13.4933,-105.64158 -5.38905,-25.30579 10.40975,-66.17066 10.91346,-101.07598 -6.7684,-21.02297 -12.15428,-88.71095 -13.5098,-110.2127 1.86895,-15.77624 7.98178,-34.7316 4.2672,-46.97413 C 435.84065,82.060628 384.78647,28.419782 361.56748,23.833937 345.98766,23.341868 216.61379,31.824241 193,39.714304 186.78051,48.720694 150.18805,52.450489 135.9132,48.720359 131.19511,43.144605 110.8102,37.258426 101.39929,37.756291 93.341976,36.76056 71.269132,36.883856 69.616048,41.590305 Z M 361.56748,23.833937 c 0,0 -17.82889,59.273446 -9.70544,81.998473 15.40867,9.53537 23.03431,-22.684634 85.43817,1.48829 m -75.5182,169.34896 c 23.76454,-83.13947 1.17302,-114.42213 -31.4587,-147.73871 -34.20493,-38.341478 -111.59063,-75.877115 -189.35724,-6.35885 -69.752057,69.45639 -24.86609,165.02888 -1.38071,188.20347 41.13173,38.35111 89.06514,47.60061 130.29657,37.16365 -7.4975,16.33649 -1.17304,12.49009 0.713,18.00664 -1.44051,15.73211 20.79002,28.93868 28.66432,26.21306 -1.95964,9.14086 8.82593,15.99613 13.50018,13.71608 0.004,5.86104 7.14201,14.1919 11.04959,14.86024 7.54907,2.81775 26.26875,3.84089 38.12146,-2.73524 13.81819,0.26099 46.82753,-36.54064 54.84457,-59.25491 3.08799,-8.749 1.28589,-12.06638 2.89526,-17.97677 0.64629,-8.86581 -6.20345,-12.93359 -13.54005,-11.71381 -0.0109,-17.7158 -4.31534,-26.55272 -17.03716,-23.17871 2.89201,-20.80308 -15.47219,-26.18831 -24.14685,-24.13997 3.07767,-4.81589 -3.16428,-5.06617 -3.16428,-5.06617 z M 361.9305,418 c 25.37093,22.58889 72.2564,-34.33226 54.84458,-59.25491"
       id="path7460"
       sodipodi:nodetypes="csssssccccccccccccccccccccccscccccccc" />
  </g>
</svg>
