<?xml version="1.0" encoding="UTF-8" standalone="no"?>
<!-- Created with Inkscape (http://www.inkscape.org/) -->

<svg
   width="512"
   height="512"
   viewBox="0 0 512 512"
   version="1.1"
   id="svg1029"
   inkscape:version="1.1.2 (0a00cf5339, 2022-02-04)"
   sodipodi:docname="icon_series.svg"
   style="stroke-linecap:round"
   xmlns:inkscape="http://www.inkscape.org/namespaces/inkscape"
   xmlns:sodipodi="http://sodipodi.sourceforge.net/DTD/sodipodi-0.dtd"
   xmlns="http://www.w3.org/2000/svg"
   xmlns:svg="http://www.w3.org/2000/svg">
  <sodipodi:namedview
     id="namedview1031"
     pagecolor="#ffffff"
     bordercolor="#666666"
     borderopacity="1.0"
     inkscape:pageshadow="2"
     inkscape:pageopacity="0.0"
     inkscape:pagecheckerboard="0"
     inkscape:document-units="px"
     showgrid="true"
     units="px"
     inkscape:zoom="0.69664702"
     inkscape:cx="203.8335"
     inkscape:cy="140.67382"
     inkscape:window-width="1842"
     inkscape:window-height="1011"
     inkscape:window-x="0"
     inkscape:window-y="0"
     inkscape:window-maximized="1"
     inkscape:current-layer="draft01">
    <inkscape:grid
       type="xygrid"
       id="grid1098"
       snapvisiblegridlinesonly="false" />
    <sodipodi:guide
       position="-5,496"
       orientation="0,512"
       id="guide15909" />
    <sodipodi:guide
       position="494,513"
       orientation="512,0"
       id="guide15911" />
    <sodipodi:guide
       position="513,16"
       orientation="0,-512"
       id="guide15913" />
    <sodipodi:guide
       position="16,-1"
       orientation="-512,0"
       id="guide15915" />
  </sodipodi:namedview>
  <defs
     id="defs1026" />
  <g
     inkscape:label="Draft01"
     inkscape:groupmode="layer"
     id="draft01">
    <path
       style="opacity:1;fill:#595c2f;fill-opacity:1;stroke:none;stroke-width:3.26465;stroke-linecap:round;stroke-linejoin:round;stroke-miterlimit:4;stroke-dasharray:none;stroke-opacity:0.979103"
       d="m 364.0205,373.36029 51.15324,24.91095 c 13.01702,6.3391 54.71911,-18.74861 67.879,-31.95313 0,0 8.97699,-210.96538 2.97955,-219.21112 -5.99742,-8.24575 -137.10306,-83.492982 -145.64701,-82.400032 -7.24205,0.926403 -2.46156,21.764427 -2.46156,21.764427 l -41.99199,15.450005 c 0,0 -17.05343,-14.331126 -22.0641,-13.587789 -16.28846,2.416404 -3.44189,24.440029 -3.44189,24.440029 -31.26817,139.19742 11.9497,215.98944 93.59476,260.58666 z"
       id="series-book3" />
    <path
       style="opacity:1;fill:#aac046;fill-opacity:1;stroke:none;stroke-width:3.26465;stroke-linecap:butt;stroke-linejoin:miter;stroke-miterlimit:4;stroke-dasharray:none;stroke-opacity:1"
       d="m 295.93173,101.92139 -22.94109,-14.853543 -6.73348,9.894973 c 47.04398,29.69414 93.50787,59.83163 145.67589,85.60982 l 0.73689,213.80425 9.13519,0.83907 -1.44073,-214.89805 c 25.07403,-3.46924 48.13242,-13.41275 67.53224,-32.8746 -48.38009,-33.42156 -97.3764,-60.649913 -148.88663,-86.6264 l -1.08626,23.654475 z"
       id="series-book3-hightlight" />
    <path
       style="opacity:1;fill:#62302f;fill-opacity:1;stroke:none;stroke-width:3.26465;stroke-linecap:round;stroke-linejoin:round;stroke-miterlimit:4;stroke-dasharray:none;stroke-opacity:0.979103"
       d="m 139.84344,135.15024 c 0,0 -5.89124,-26.67758 3.30491,-27.50092 3.88312,-0.34767 13.29952,14.09173 22.02128,14.13147 4.34687,0.0198 37.29514,-5.16081 44.52362,-14.89431 3.56805,-4.80458 -4.57174,-24.709004 3.52746,-24.658041 4.86332,0.03109 57.20503,30.545191 57.20503,30.545191 0,0 87.396,47.24446 95.23436,57.53404 4.00634,5.25923 -1.6396,203.05262 -1.6396,203.05262 M 139.84344,135.15024 c 0,0 -5.57316,229.30863 4.74792,245.63685 6.3526,10.04996 101.14608,29.78764 101.14608,29.78764 l 44.30799,20.74556 c 8.18509,3.83237 55.50959,-12.14906 73.71929,-35.15958 l 0.25578,-22.80042"
       id="series-book2" />
    <path
       style="fill:#ad4644;fill-opacity:1;stroke:none;stroke-width:3.26465;stroke-linecap:butt;stroke-linejoin:miter;stroke-miterlimit:4;stroke-dasharray:none;stroke-opacity:1"
       d="m 165.16963,121.78079 -22.56853,-13.51794 -3.99425,10.61655 c 49.4339,30.11271 96.85521,62.35074 150.87346,87.62224 l -1.34994,224.36124 9.71347,-0.0553 1.4297,-224.1666 c 19.89019,-3.52655 42.03582,-10.95587 66.66801,-26.68753 l 0.39277,-9.8655 c 0,0 -108.3812,-67.45517 -152.99316,-88.552846 -6.26625,6.153888 -3.64792,25.351036 -3.64792,25.351036 -13.63766,11.39915 -25.96575,13.72848 -44.52361,14.89431 z"
       id="series-book2-highlight" />
    <path
       style="fill:#485150;fill-opacity:1;stroke:none;stroke-width:3.26465;stroke-linecap:round;stroke-linejoin:round;stroke-miterlimit:4;stroke-dasharray:none;stroke-opacity:0.979103"
       d="m 139.84344,135.15024 c 0,0 -40.568137,-24.54995 -43.648721,-23.31413 -6.539347,2.62334 0.05701,17.09263 -2.020616,21.04094 -4.301362,8.17427 -40.194555,20.628 -48.91859,16.1264 -6.177323,-3.1875 -20.16797,-19.16273 -23.219972,-11.13908 -2.133511,5.60899 5.685128,226.60008 5.685128,226.60008 0.381786,15.21561 128.731261,94.365 145.214631,98.01698 10.56725,2.34124 72.17506,-26.11895 72.42752,-36.50165 l 0.37462,-15.40505 m 0,0 c 0,0 8.33678,-199.67455 1.98419,-209.7245 -10.32109,-16.32822 -107.87819,-65.69999 -107.87819,-65.69999"
       id="series-book1" />
    <path
       style="fill:#7e9a98;fill-opacity:1;stroke:none;stroke-width:2.12203;stroke-linecap:butt;stroke-linejoin:miter;stroke-miterlimit:4;stroke-dasharray:none;stroke-opacity:1"
       d="m 23.147942,144.83984 c 44.754774,35.1722 119.378278,82.22704 145.910948,89.82359 l -1.04991,226.87779 11.99155,0.64602 -0.50643,-226.80825 c 19.64335,-1.12052 40.77606,-6.46983 68.74339,-27.36779 3.6356,-22.52215 -139.86237,-87.07162 -152.453754,-97.9731 l -1.609633,22.83895 c -6.000723,13.32749 -19.256731,21.05656 -48.91859,16.1264 L 25.505489,134.82087 Z"
       id="series-book1-highlight" />
    <path
       style="fill:#dfd6c7;fill-opacity:1;stroke:#000000;stroke-width:3.26465;stroke-linecap:round;stroke-linejoin:round;stroke-miterlimit:4;stroke-dasharray:none;stroke-opacity:0.977052"
       d="m 94.174103,132.87705 c -4.301362,8.17427 -40.194555,20.628 -48.91859,16.1264 0,0 98.539887,68.87752 120.492047,73.66471 17.89252,3.90189 67.10062,-14.38816 62.57059,-18.39103 C 195.51014,175.287 107.2653,130.38553 94.174103,132.87705 Z M 209.69325,106.88648 c -7.22848,9.7335 -40.17675,14.91411 -44.52362,14.89431 30.62389,25.83776 85.76006,60.60008 122.07174,74.22873 8.2048,3.07947 70.16923,-14.93056 62.03761,-20.7295 C 283.56348,128.41599 212.08952,90.644496 209.69325,106.88648 Z M 337.92372,86.471385 295.93173,101.92139 c 0,0 74.54374,55.27711 115.96064,72.04222 13.22478,5.35326 62.61124,-17.08313 56.59652,-21.32348 C 400.52403,104.72531 338.83343,75.986229 337.92372,86.471385 Z"
       id="series-pages" />
    <path
       style="fill:none;stroke:#000000;stroke-width:9.79397;stroke-linecap:round;stroke-linejoin:round;stroke-miterlimit:4;stroke-dasharray:none;stroke-opacity:0.979103"
       d="m 22.035541,137.86437 c -2.133511,5.60899 5.685128,226.60008 5.685128,226.60008 0.381786,15.21561 128.731261,94.365 145.214631,98.01698 10.56725,2.34124 72.17506,-26.11895 72.42752,-36.50165 l 0.37462,-15.40505 44.30799,20.74556 c 8.18509,3.83237 55.50959,-12.14906 73.71929,-35.15958 l 0.25578,-22.80042 51.15324,24.91095 c 13.01702,6.3391 54.71911,-18.74861 67.879,-31.95313 0,0 8.97699,-210.96538 2.97955,-219.21112 -5.99742,-8.24575 -137.10306,-83.492982 -145.64701,-82.400032 -7.24205,0.926403 -2.46156,21.764427 -2.46156,21.764427 l -41.99199,15.450005 c 0,0 -17.05343,-14.331126 -22.0641,-13.587789 -16.28846,2.416404 -3.44189,24.440029 -3.44189,24.440029 0,0 -52.34171,-30.514423 -57.20503,-30.545191 -8.0992,-0.05096 0.0406,19.853461 -3.52746,24.658041 -7.22848,9.7335 -40.17675,14.91411 -44.52362,14.89431 -8.72176,-0.0397 -18.13816,-14.47915 -22.02128,-14.13147 -9.19615,0.82334 -3.30491,27.50092 -3.30491,27.50092 0,0 -40.568137,-24.54995 -43.648721,-23.31413 -6.539347,2.62334 0.05701,17.09263 -2.020616,21.04094 -4.301362,8.17427 -40.194555,20.628 -48.91859,16.1264 -6.177323,-3.1875 -20.16797,-19.16273 -23.219972,-11.13908 z M 245.73744,410.57473 c 0,0 8.33678,-199.67455 1.98419,-209.7245 -10.32109,-16.32822 -107.87819,-65.69999 -107.87819,-65.69999 m 130.5823,-22.37661 c 0,0 87.396,47.24446 95.23436,57.53404 4.00634,5.25923 -1.6396,203.05262 -1.6396,203.05262"
       id="series-outline" />
  </g>
</svg>
