<?xml version="1.0" encoding="UTF-8" standalone="no"?>
<!-- Created with Inkscape (http://www.inkscape.org/) -->

<svg
   width="512"
   height="512"
   viewBox="0 0 512 512"
   version="1.1"
   id="svg1029"
   inkscape:version="1.1.2 (0a00cf5339, 2022-02-04)"
   sodipodi:docname="icon_menu.svg"
   style="stroke-linecap:round"
   xmlns:inkscape="http://www.inkscape.org/namespaces/inkscape"
   xmlns:sodipodi="http://sodipodi.sourceforge.net/DTD/sodipodi-0.dtd"
   xmlns="http://www.w3.org/2000/svg"
   xmlns:svg="http://www.w3.org/2000/svg">
  <sodipodi:namedview
     id="namedview1031"
     pagecolor="#ffffff"
     bordercolor="#666666"
     borderopacity="1.0"
     inkscape:pageshadow="2"
     inkscape:pageopacity="0.0"
     inkscape:pagecheckerboard="0"
     inkscape:document-units="px"
     showgrid="true"
     units="px"
     inkscape:zoom="0.98520767"
     inkscape:cx="294.35418"
     inkscape:cy="260.85871"
     inkscape:window-width="1842"
     inkscape:window-height="1011"
     inkscape:window-x="0"
     inkscape:window-y="0"
     inkscape:window-maximized="1"
     inkscape:current-layer="layer1">
    <inkscape:grid
       type="xygrid"
       id="grid1098"
       snapvisiblegridlinesonly="false" />
    <sodipodi:guide
       position="-5,496"
       orientation="0,512"
       id="guide15909" />
    <sodipodi:guide
       position="494,513"
       orientation="512,0"
       id="guide15911" />
    <sodipodi:guide
       position="513,16"
       orientation="0,-512"
       id="guide15913" />
    <sodipodi:guide
       position="16,-1"
       orientation="-512,0"
       id="guide15915" />
  </sodipodi:namedview>
  <defs
     id="defs1026" />
  <g
     inkscape:label="Layer 1"
     inkscape:groupmode="layer"
     id="layer1">
    <path
       style="display:inline;fill:#ad3a32;fill-opacity:1;stroke:none;stroke-width:8.91854px;stroke-linecap:round;stroke-linejoin:round;stroke-opacity:1"
       d="m 22.547508,45.58055 c -4.239033,5.832365 10.983889,92.83101 16.363259,98.32125 8.90277,18.97631 85.636013,-9.82501 115.910123,-14.71587 24.9117,-4.01183 323.54365,27.45183 327.17911,20.75738 9.10438,-6.48143 10.45093,-51.10179 -19.42408,-109.052491 -11.11243,-7.413018 -207.39221,16.68351 -212.18052,16.68351 -4.78824,0 -221.139253,-15.637799 -227.847892,-11.993779 z m 6.241695,271.52739 c -4.072924,-11.31405 14.442146,-88.8245 27.196175,-95.29745 18.458723,-7.95105 347.878012,31.48458 372.102682,20.27396 12.45375,0 29.88499,-19.91179 58.35536,-15.38095 5.0771,7.13762 -1.02424,72.80511 -5.45664,82.89101 -6.24193,10.07393 -16.16157,15.83077 -28.32621,19.23292 -16.18328,5.09716 -166.95295,-2.41453 -225.1288,-24.25828 -89.90072,-2.88099 -186.756713,31.18129 -198.742567,12.53879 z m -3.676672,86.58614 c -1.104594,3.66225 1.225293,75.06407 2.232489,77.36059 8.042425,7.75927 365.02862,3.87195 386.37515,8.94533 6.1718,2.75427 35.39671,-12.36293 37.51484,-16.22782 4.11263,-2.81038 36.87489,-79.9841 33.14837,-85.49605 -6.94085,-3.44328 -42.722,6.1263 -44.25534,6.89448 0,0 -40.23669,25.61655 -44.99743,25.61655 -6.67274,3.01152 -346.098438,-23.45753 -352.222921,-25.15151 -5.615377,1.62876 -16.616226,6.71783 -17.795158,8.05843 z"
       id="menu-bg" />
    <path
       style="display:inline;fill:#6b2227;fill-opacity:1;stroke:none;stroke-width:1.49765;stroke-linecap:round;stroke-linejoin:round;stroke-miterlimit:4;stroke-dasharray:none;stroke-opacity:1"
       d="m 67.049152,46.170491 c 0,0 -41.147285,-2.411991 -44.501644,-0.589624 -4.239033,5.832365 10.983889,92.831013 16.363259,98.321253 7.91404,12.40659 41.184057,3.14688 41.184057,3.14688 0,0 -27.701081,-46.84532 -13.045672,-100.878192 z M 450.77139,149.29084 c 0,0 29.41084,3.9997 31.22861,0.65223 9.10438,-6.48135 10.45093,-51.10179 -19.42408,-109.052489 -11.11243,-7.413018 -33.17388,-0.673629 -33.17388,-0.673629 -11.73035,64.033898 30.00402,59.475878 21.36935,109.073808 z M 65.521915,321.77611 c 0,0 -28.740452,4.42749 -36.732712,-4.66817 -4.072924,-11.31405 14.442146,-88.8245 27.196175,-95.29745 9.229362,-3.97553 31.605281,0.0476 31.605281,0.0476 -39.541669,49.40456 -14.364797,92.65595 -22.068744,99.92077 z M 428.08806,242.08445 c 12.45375,0 29.88499,-19.91179 58.35536,-15.38095 5.0771,7.13762 -1.02424,72.80511 -5.45664,82.89101 -6.24193,10.07393 -16.16157,15.83077 -28.32621,19.23292 -12.12843,-6.97199 26.89106,-79.25793 -24.57251,-86.74298 z M 42.907689,395.63565 c -5.615377,1.62876 -16.616226,6.71783 -17.795158,8.05843 -1.104594,3.66225 1.225293,75.06407 2.232489,77.36059 4.021252,3.87963 36.638483,3.70544 36.638483,3.70544 0,0 27.630945,-27.63665 -21.075814,-89.12446 z M 413.72017,490 c 6.1718,2.75427 35.39671,-12.36293 37.51484,-16.22782 4.11263,-2.81038 36.87489,-79.9841 33.14837,-85.49605 -6.94085,-3.44328 -42.722,6.1263 -44.25534,6.89448 15.11095,39.62385 -27.00439,79.79501 -26.40787,94.82939 z"
       id="menu-left-right" />
    <path
       style="display:inline;fill:#b34841;fill-opacity:1;stroke:none;stroke-width:1.49765;stroke-linecap:round;stroke-linejoin:round;stroke-miterlimit:4;stroke-dasharray:none;stroke-opacity:1"
       d="m 22.547508,45.58055 0.993564,19.509902 C 27.444638,94.494628 19.951894,62.676797 50.225923,57.785928 75.137623,53.774107 81.304901,106.3051 432.8167,67.908523 454.59222,62.483584 428.17207,53.35178 462.57592,40.890819 451.46349,33.477801 255.18371,57.574329 250.3954,57.574329 245.60716,57.574329 29.256147,41.93653 22.547508,45.58055 Z M 58.8953,246.556 c -4.394364,-2.43252 -2.909922,-24.74551 -2.909922,-24.74551 18.458723,-7.95105 347.878012,31.48458 372.102682,20.27396 12.45375,0 29.88499,-19.91179 58.35536,-15.38095 5.0771,7.13762 -8.397,15.15786 -12.8294,25.24376 -6.24201,10.07393 -15.30923,16.17226 -27.47379,19.57441 -16.18328,5.09716 -242.23892,-0.12759 -276.82917,-26.064 C 65.724876,228.4398 65.369358,241.31611 58.8953,246.556 Z M 25.112531,403.69408 c -1.104594,3.66225 15.683289,4.00168 13.374245,19.31867 6.644446,-11.65284 355.909734,16.20746 377.256264,21.28076 6.1718,2.75435 35.62884,-30.22521 37.74697,-34.0901 4.11262,-2.81039 34.61989,-16.41533 30.89337,-21.92728 -6.94085,-3.44328 -42.722,6.1263 -44.25534,6.89448 0,0 -40.23669,25.61655 -44.99743,25.61655 -6.67274,3.01152 -346.098438,-23.45753 -352.222921,-25.15151 -5.615377,1.62876 -16.616226,6.71783 -17.795158,8.05843 z"
       id="menu-top" />
    <path
       style="display:inline;fill:#563947;fill-opacity:1;stroke:none;stroke-width:1.49765;stroke-linecap:round;stroke-linejoin:round;stroke-miterlimit:4;stroke-dasharray:none;stroke-opacity:1"
       d="M 71.714633,129.22611 38.910767,143.9018 c 8.90277,18.97631 85.636013,-9.82501 115.910123,-14.71587 24.9117,-4.01183 323.54365,27.45183 327.17911,20.75738 9.10438,-6.48143 -11.0908,-10.48564 -11.0908,-10.48564 -11.11244,-7.41294 -288.15019,-26.90509 -292.93851,-26.90509 -4.78824,0 -99.547418,13.02951 -106.256057,16.67353 z m -42.92543,187.88183 c 0,0 17.14348,2.39265 29.092245,-9.25599 38.190132,-23.84562 221.368522,-38.19679 255.739252,1.25992 11.20198,5.49032 113.64878,-3.04005 142.11915,1.49086 5.07711,7.13763 29.67933,-11.09412 25.24693,-1.00822 -6.24193,10.07393 -16.16157,15.83077 -28.32621,19.23292 -16.18328,5.09716 -166.95295,-2.41453 -225.1288,-24.25828 -89.90072,-2.88099 -186.756713,31.18129 -198.742567,12.53879 z m -2.583489,154.6848 c -1.104595,3.66225 0.132348,6.96541 1.139306,9.26193 8.042425,7.75927 365.02862,3.87195 386.37515,8.94533 6.1718,2.75427 35.39671,-12.36293 37.51484,-16.22782 4.11263,-2.81038 8.00866,-6.63597 4.28215,-12.14784 -6.94085,-3.44336 -42.72192,6.1263 -44.25534,6.89448 0,0 -42.44065,5.41194 -47.20147,5.41194 -6.67274,3.01152 -313.935075,-8.50239 -320.059558,-10.19645 -5.615298,1.62875 -16.616226,6.71783 -17.795078,8.05843 z"
       id="menu-bottom" />
    <path
       style="display:inline;fill:none;stroke:#000000;stroke-width:8.91854px;stroke-linecap:round;stroke-linejoin:round;stroke-opacity:1"
       d="m 22.547508,45.58055 c -4.239033,5.832365 10.983889,92.83101 16.363259,98.32125 8.90277,18.97631 85.636013,-9.82501 115.910123,-14.71587 24.9117,-4.01183 323.54365,27.45183 327.17911,20.75738 9.10438,-6.48143 10.45093,-51.10179 -19.42408,-109.052491 -11.11243,-7.413018 -207.39221,16.68351 -212.18052,16.68351 -4.78824,0 -221.139253,-15.637799 -227.847892,-11.993779 z m 6.241695,271.52739 c -4.072924,-11.31405 14.442146,-88.8245 27.196175,-95.29745 18.458723,-7.95105 347.878012,31.48458 372.102682,20.27396 12.45375,0 29.88499,-19.91179 58.35536,-15.38095 5.0771,7.13762 -1.02424,72.80511 -5.45664,82.89101 -6.24193,10.07393 -16.16157,15.83077 -28.32621,19.23292 -16.18328,5.09716 -166.95295,-2.41453 -225.1288,-24.25828 -89.90072,-2.88099 -186.756713,31.18129 -198.742567,12.53879 z m -3.676672,86.58614 c -1.104594,3.66225 1.225293,75.06407 2.232489,77.36059 8.042425,7.75927 365.02862,3.87195 386.37515,8.94533 6.1718,2.75427 35.39671,-12.36293 37.51484,-16.22782 4.11263,-2.81038 36.87489,-79.9841 33.14837,-85.49605 -6.94085,-3.44328 -42.722,6.1263 -44.25534,6.89448 0,0 -40.23669,25.61655 -44.99743,25.61655 -6.67274,3.01152 -346.098438,-23.45753 -352.222921,-25.15151 -5.615377,1.62876 -16.616226,6.71783 -17.795158,8.05843 z"
       id="menu-outline" />
  </g>
</svg>
