<?xml version="1.0" encoding="UTF-8" standalone="no"?>
<!-- Created with Inkscape (http://www.inkscape.org/) -->

<svg
   width="512"
   height="512"
   viewBox="0 0 512 512"
   version="1.1"
   id="svg1029"
   inkscape:version="1.1.2 (0a00cf5339, 2022-02-04)"
   sodipodi:docname="icons_sitemap.svg"
   style="stroke-linecap:round"
   xmlns:inkscape="http://www.inkscape.org/namespaces/inkscape"
   xmlns:sodipodi="http://sodipodi.sourceforge.net/DTD/sodipodi-0.dtd"
   xmlns="http://www.w3.org/2000/svg"
   xmlns:svg="http://www.w3.org/2000/svg">
  <sodipodi:namedview
     id="namedview1031"
     pagecolor="#ffffff"
     bordercolor="#666666"
     borderopacity="1.0"
     inkscape:pageshadow="2"
     inkscape:pageopacity="0.0"
     inkscape:pagecheckerboard="0"
     inkscape:document-units="px"
     showgrid="true"
     units="px"
     inkscape:zoom="1"
     inkscape:cx="234"
     inkscape:cy="266"
     inkscape:window-width="1842"
     inkscape:window-height="1011"
     inkscape:window-x="0"
     inkscape:window-y="0"
     inkscape:window-maximized="1"
     inkscape:current-layer="layer1">
    <inkscape:grid
       type="xygrid"
       id="grid1098"
       snapvisiblegridlinesonly="false" />
    <sodipodi:guide
       position="-5,496"
       orientation="0,512"
       id="guide15909" />
    <sodipodi:guide
       position="494,513"
       orientation="512,0"
       id="guide15911" />
    <sodipodi:guide
       position="513,16"
       orientation="0,-512"
       id="guide15913" />
    <sodipodi:guide
       position="16,-1"
       orientation="-512,0"
       id="guide15915" />
  </sodipodi:namedview>
  <defs
     id="defs1026" />
  <g
     inkscape:label="Layer 1"
     inkscape:groupmode="layer"
     id="layer1"
     style="display:inline">
    <path
       style="fill:#ffe29c;fill-opacity:1;stroke:none;stroke-width:5;stroke-linecap:butt;stroke-linejoin:round;stroke-miterlimit:4;stroke-dasharray:none;stroke-opacity:1"
       d="M 239.4572,27.701127 19.951211,211.65639 C 96.519633,206.93013 113.3033,199.44211 232.78939,222.74543 216.21805,163.11444 239.80643,64.361902 239.4572,27.701127 Z M 19.951211,211.65639 c 3.072633,82.84549 19.471847,101.55825 18.920672,115.62631 -0.251125,27.71207 12.756324,24.95015 10.980884,95.34883 -5.207541,43.45449 -23.56463,21.22361 -25.500526,53.10652 5.963979,6.6308 41.332821,12.39555 73.580382,15.76723 107.024417,-3.24872 194.893227,-22.03547 262.787097,-15.76723 84.70013,11.66539 116.90428,12.31614 126.13781,10.51151 -10.57345,-92.10404 0.98927,-172.91268 -10.51147,-220.74118 -12.22595,-18.57961 -21.22511,-63.13613 -21.02297,-73.58039 -4.17189,-25.26458 -8.83887,-73.00226 0,-94.603349 C 472.10223,61.644976 481.0683,37.752164 481.60177,29 475.97122,27.314163 417.88442,44.23376 371.2312,44.767225 251.26838,46.651566 239.4572,27.701127 239.4572,27.701127"
       id="sitemap-bg"
       sodipodi:nodetypes="ccccccccccccccccc" />
    <path
       style="fill:#d1b778;fill-opacity:1;stroke:none;stroke-width:5;stroke-linecap:butt;stroke-linejoin:round;stroke-miterlimit:4;stroke-dasharray:none;stroke-opacity:1"
       d="m 24.352241,475.73805 c 5.963979,6.6308 41.332821,12.39555 73.580382,15.76723 107.024417,-3.24872 194.893227,-22.03547 262.787097,-15.76723 84.70013,11.66539 116.90428,12.31614 126.13781,10.51151 -10.57345,-92.10404 0.98927,-172.91268 -10.51147,-220.74118 -12.22595,-18.57961 -21.22511,-63.13613 -21.02297,-73.58039 -4.17189,-25.26458 -8.83887,-73.00226 0,-94.603349 C 472.10223,61.644976 481.0683,37.752164 481.60177,29 384.96927,48.825564 266.26791,428.51015 308.87934,385.79529"
       id="sitemap-shadow"
       sodipodi:nodetypes="ccccccccc" />
    <path
       style="fill:#7e6606;fill-opacity:1;stroke:none;stroke-width:5;stroke-linecap:butt;stroke-linejoin:round;stroke-miterlimit:4;stroke-dasharray:none;stroke-opacity:1"
       d="M 239.4572,27.701127 19.951211,211.65639 C 96.519633,206.93013 113.3033,199.44211 232.78939,222.74543 216.21805,163.11444 239.80643,64.361902 239.4572,27.701127 Z"
       id="sitemap-corner"
       sodipodi:nodetypes="cccc" />
    <path
       style="fill:none;stroke:#554400;stroke-width:15;stroke-linecap:round;stroke-linejoin:round;stroke-miterlimit:4;stroke-dasharray:30,30;stroke-dashoffset:0;stroke-opacity:1"
       d="m 80.609509,461.88524 c -0.908664,-0.53643 -2.109136,-0.75318 -2.725991,-1.60927 -3.665653,-5.08737 11.853088,-38.76208 14.118253,-45.6115 0.570978,-1.72655 2.740423,-3.4079 3.244007,-5.42226 1.23507,-4.94028 3.296999,-9.68224 5.337342,-13.92718 1.20206,-2.50092 0.8201,-5.99672 2.15702,-8.67051 0.43415,-0.8683 1.63901,-1.18428 2.05935,-2.05935 0.0688,-0.14336 -0.0695,-2.00123 0,-2.14003 1.99998,-3.99996 2.98101,-5.72877 4.32252,-9.75328 0.80953,-2.42859 2.94178,-2.65567 4.22486,-5.22694 0.3185,-0.63828 -0.31751,-1.50124 0,-2.14003 2.13601,-4.29736 -0.004,0.99063 2.14852,-1.08699 0.7135,-0.68849 0.21369,-2.18374 0.9851,-2.80667 3.04991,-2.46289 8.75613,-7.59448 11.60456,-10.6874 0.33629,-0.36517 0.69492,-2.78506 1.06577,-3.12513 2.44191,-2.23922 5.35015,-5.92868 8.60257,-7.54531 1.85766,-0.92334 0.44826,-2.08478 2.16126,-3.23127 0.94886,-0.63506 2.44092,-0.27964 3.24826,-1.087 3.75087,-3.75086 6.27498,-8.27809 12.01644,-11.12051 2.86459,-1.41817 4.7705,-5.1058 7.5538,-6.48378 2.97175,-1.47127 4.81865,-5.70945 7.57077,-7.5538 0.50793,-0.34038 1.34125,0.36158 1.83431,0 0.18167,-0.13322 0.64412,-1.56743 0.68788,-1.59652 2.24054,-1.48973 5.68058,-2.82699 7.07823,-3.98709 0.55433,-0.46011 1.51689,0.32219 2.16126,0 0.75036,-0.37518 2.10828,-2.0685 2.16126,-2.09332 0.64855,-0.30377 1.49996,0.30378 2.14851,0 0.30378,-0.14227 -0.30366,-0.8638 0,-1.00632 0.95072,-0.44617 2.43263,0.76644 3.15061,0 2.24357,-2.39504 1.78441,-0.87264 4.2843,-2.11031 0.10174,-0.0505 2.08848,-2.10041 2.17399,-2.15701 0.89097,-0.58965 2.31755,-0.24565 3.03172,-1.04029 0.22423,-0.24949 -0.30409,-0.86473 0,-1.00632 0.65309,-0.3041 1.46296,0.17717 2.16126,0 2.69463,-0.68367 3.29574,-3.20452 6.44981,-4.28006 0.48946,-0.16691 2.56434,0.37037 2.8831,0 1.56529,-1.81873 5.10927,-2.44212 8.22467,-3.99982 0.85858,-0.42928 2.35921,0.42797 3.21853,0 2.81259,-1.40076 5.47254,-2.16955 8.696,-3.24826 1.51917,-0.50837 3.51628,0.39059 5.07408,0 3.08041,-0.77237 4.63247,-2.52141 7.57927,-3.26099 1.40162,-0.35178 3.04122,0.6432 4.33526,0 0.32065,-0.1594 -0.32103,-0.91563 0,-1.07426 2.17717,-1.07584 5.38874,-1.06397 7.58352,-2.15702 0.82088,-0.40882 2.27308,0.42105 3.08691,0 6.59323,-3.41123 15.68794,-3.11573 22.35141,-6.45406 3.44967,-1.72826 9.25728,0.75212 12.73828,-1.00208 2.42123,-1.22015 4.8388,-1.48144 7.60899,-2.17399 5.18799,-1.297 -0.0152,-0.52622 3.261,-2.174 1.56762,-0.78844 3.72758,-0.67025 5.40951,-1.087 1.94294,0.63784 2.00271,-1.74749 3.23128,-2.15702 2.15085,-0.71694 4.47968,-0.072 6.49227,-1.07426 0.32054,-0.15964 -0.25395,-0.8218 0,-1.07426 0.57458,-0.57122 1.44934,-0.72467 2.17401,-1.08699 2.35395,-1.17699 4.25178,-1.41727 6.52199,-2.17401 0.97223,-0.32407 1.25736,-1.71567 2.174,-2.17399 10.49812,-5.24905 -2.02716,1.40038 5.43499,-1.087 6.79846,-2.26616 13.30159,-4.67035 20.64025,-6.50501 2.97002,-0.7425 6.90604,-0.13278 9.75751,-1.08701 4.34229,-1.4531 8.40742,-3.18885 13.04399,-4.34799 6.71127,-1.67782 18.30495,-4.00394 23.70168,-7.53256 3.05755,-1.99916 4.50947,-0.81859 7.36696,-2.02115 0.27396,-0.11528 -0.2287,-0.70184 0,-0.89167 1.03269,-0.85718 4.4746,-2.20289 5.88934,-2.87037 0.49793,-0.23491 1.32138,0.44047 1.65171,0 2.08585,-2.78111 4.05441,-4.50298 6.74281,-5.86384 2.26117,0.36015 0.48237,-1.40673 1.04029,-1.83432 0.5253,-0.40258 2.63627,-0.65394 3.12087,-1.08699 1.51347,-1.35246 4.43573,-4.05704 5.63881,-6.4583 0.71144,-1.41997 2.75304,-1.8212 3.44783,-2.57313 0.53955,-0.58394 0.43319,-2.57541 1.08699,-2.12305 0.88988,0.61571 0.32271,2.14003 0.48406,3.21004 M 243.65938,114.04551 c 0.70769,1.77627 1.17277,3.66964 2.12305,5.32884 1.01865,1.77862 3.11819,2.70827 4.34799,4.348 2.27807,3.03742 3.84481,7.10581 6.52199,9.78299 3.77197,3.77196 4.74812,3.39981 6.50927,8.68326 0.42791,1.28374 2.6386,2.03685 3.24825,3.26099 1.52188,3.05577 3.58165,7.79657 4.348,10.85301 0.35042,1.39758 -0.64739,3.03532 0,4.32252 0.84696,1.68401 1.66404,3.39515 2.174,5.435 0.92437,3.69751 -0.94329,8.10351 0,11.79564 1.88976,7.39661 2.31832,32.55926 1.08701,39.94722 -0.43114,2.5868 -4.38259,17.41691 -5.42226,19.44284 -0.46655,0.90911 -1.83813,1.2046 -2.16127,2.174 -0.22915,0.68748 0.40034,1.56996 0,2.174 -0.44548,0.67217 -1.59104,0.51679 -2.16126,1.087 -1.84268,1.84269 -3.68647,5.65213 -6.36064,7.43491 -0.67412,0.44942 -1.6011,0.5141 -2.174,1.087 -3.42559,3.42559 -12.55878,16.10642 -16.30499,17.39199 -0.54501,0.18703 -8.72152,2.33114 -9.03143,2.64105 -1.42623,1.42626 2.40177,0.90367 -1.07426,2.09333 -1.94298,0.66498 -3.31528,1.07763 -5.09956,2.0084 -5.05344,2.63613 1.397,-0.30392 -1.07001,2.07209 -0.51712,0.49806 -3.40355,1.62257 -4.16542,2.14428 -1.4109,0.96616 -2.86786,3.54724 -4.30129,4.98067 m 61.57681,-7.43916 c 6.63591,5.80469 14.9627,8.4658 22.66987,12.8699 2.53633,1.44934 4.99618,3.04158 7.609,4.348 2.04967,1.02483 4.55696,0.99499 6.522,2.174 1.84539,1.10724 3.45777,3.35938 5.43499,4.34799 2.67722,1.33862 -0.98128,-3.15527 3.261,1.087 8.47536,8.47537 14.65077,18.95133 18.47899,30.43598 1.9016,5.70482 4.89894,8.72583 6.52199,15.21799 0.92391,3.69567 3.71134,7.05009 4.34799,10.86999 0.52755,3.16529 0.39343,6.66195 1.08701,9.78299 1.04112,4.68506 3.5534,9.3634 4.34799,14.13098 0.50346,3.02084 0.58352,5.67518 1.08699,8.696 0.79521,4.77123 3.6678,9.36952 4.348,14.13099 0.62585,4.38096 1.10059,8.75033 2.174,13.04399 0.96849,3.87394 4.46432,6.98729 5.435,10.86999 0.79393,3.17574 1.79689,8.30888 4.348,10.86999 0.56909,0.57134 1.59104,0.51679 2.16125,1.087 0.50641,0.50641 -0.5064,1.64212 0,2.14853 6.01789,6.01787 17.48893,11.95902 26.03279,14.10126 3.17089,0.79506 5.85294,-0.0372 9.08662,1.07002 2.50469,0.85758 5.90724,-0.64094 8.47096,0 6.18047,1.54511 12.20685,2.174 18.78046,2.174"
       id="sitemap-path" />
    <path
       style="fill:none;fill-opacity:1;stroke:#000000;stroke-width:15;stroke-linecap:round;stroke-linejoin:round;stroke-miterlimit:4;stroke-dasharray:none;stroke-opacity:1"
       d="M 239.4572,27.701127 19.951211,211.65639 C 96.519633,206.93013 113.3033,199.44211 232.78939,222.74543 216.21805,163.11444 239.80643,64.361902 239.4572,27.701127 Z M 19.951211,211.65639 c 3.072633,82.84549 19.471847,101.55825 18.920672,115.62631 -0.251125,27.71207 12.756324,24.95015 10.980884,95.34883 -5.207541,43.45449 -23.56463,21.22361 -25.500526,53.10652 5.963979,6.6308 41.332821,12.39555 73.580382,15.76723 107.024417,-3.24872 194.893227,-22.03547 262.787097,-15.76723 84.70013,11.66539 116.90428,12.31614 126.13781,10.51151 -10.57345,-92.10404 0.98927,-172.91268 -10.51147,-220.74118 -12.22595,-18.57961 -21.22511,-63.13613 -21.02297,-73.58039 -4.17189,-25.26458 -8.83887,-73.00226 0,-94.603349 C 472.10223,61.644976 481.0683,37.752164 481.60177,29 475.97122,27.314163 417.88442,44.23376 371.2312,44.767225 251.26838,46.651566 239.4572,27.701127 239.4572,27.701127"
       id="sitemap-outline"
       sodipodi:nodetypes="ccccccccccccccccc" />
  </g>
</svg>
