<?xml version="1.0" encoding="UTF-8" standalone="no"?>
<!-- Created with Inkscape (http://www.inkscape.org/) -->

<svg
   width="512"
   height="512"
   viewBox="0 0 512 512"
   version="1.1"
   id="svg1029"
   inkscape:version="1.1.2 (0a00cf5339, 2022-02-04)"
   sodipodi:docname="icon_tag.svg"
   style="stroke-linecap:round"
   xmlns:inkscape="http://www.inkscape.org/namespaces/inkscape"
   xmlns:sodipodi="http://sodipodi.sourceforge.net/DTD/sodipodi-0.dtd"
   xmlns="http://www.w3.org/2000/svg"
   xmlns:svg="http://www.w3.org/2000/svg">
  <sodipodi:namedview
     id="namedview1031"
     pagecolor="#ffffff"
     bordercolor="#666666"
     borderopacity="1.0"
     inkscape:pageshadow="2"
     inkscape:pageopacity="0.0"
     inkscape:pagecheckerboard="0"
     inkscape:document-units="px"
     showgrid="true"
     units="px"
     inkscape:zoom="1.5664062"
     inkscape:cx="256"
     inkscape:cy="256"
     inkscape:window-width="1842"
     inkscape:window-height="1011"
     inkscape:window-x="0"
     inkscape:window-y="0"
     inkscape:window-maximized="1"
     inkscape:current-layer="layer6"
     showguides="true">
    <inkscape:grid
       type="xygrid"
       id="grid1098"
       snapvisiblegridlinesonly="false"
       dotted="false"
       enabled="true"
       visible="true" />
    <sodipodi:guide
       position="-5,496"
       orientation="0,512"
       id="guide15909" />
    <sodipodi:guide
       position="494,513"
       orientation="512,0"
       id="guide15911" />
    <sodipodi:guide
       position="513,16"
       orientation="0,-512"
       id="guide15913" />
    <sodipodi:guide
       position="16,-1"
       orientation="-512,0"
       id="guide15915" />
  </sodipodi:namedview>
  <defs
     id="defs1026" />
  <g
     inkscape:groupmode="layer"
     id="layer6"
     inkscape:label="Layer 2">
    <path
       style="fill:#9d9165;fill-opacity:1;stroke:none;stroke-width:5.36746;stroke-linecap:butt;stroke-linejoin:miter;stroke-miterlimit:4;stroke-dasharray:none;stroke-opacity:1"
       d="m 50.602226,396 c 13.400273,19.14325 88.649974,26.20575 161.395914,45.66595 72.74592,19.46021 142.98808,51.31811 177.43957,48.13597 25.46577,-5.66412 12.93428,-10.59637 26.04383,-71.19377 13.10957,-60.59736 51.86018,-176.85987 44.78619,-198.72602 -7.83868,-27.68491 -17.43818,0.24728 -46.63857,-53.17245 C 399.02898,139.99982 394.52885,119.6524 377.70615,87.806965 360.88348,55.961499 327.19307,24.436504 314.7638,22.159473 287.96326,17.373661 258.3511,46.617073 223.44685,72.504391 188.54258,98.39171 152.19008,100.41255 115.68926,118.42291 96.57644,128.84224 98.05319,196.94839 77.200314,258.18442 56.3452,319.42701 39.50075,381.22585 50.602226,396 Z M 293.29397,113.40627 c 15.31459,0 21.05757,15.31459 21.05757,24.88621 0,7.6573 -7.65731,19.14325 -21.05757,19.14325 -17.22893,0 -24.88622,-11.48595 -24.88622,-22.9719 0,-13.40026 9.57162,-21.05756 24.88622,-21.05756 z"
       id="tag-bg"
       sodipodi:nodetypes="cscscsscscscccccc" />
    <path
       style="fill:#746c4e;fill-opacity:1;stroke:none;stroke-width:5.36746;stroke-linecap:butt;stroke-linejoin:miter;stroke-miterlimit:4;stroke-dasharray:none;stroke-opacity:1"
       d="m 50.602226,396 c 13.400273,19.14325 88.649974,26.20575 161.395914,45.66595 72.74592,19.46021 142.98808,51.31811 177.43957,48.13597 25.46577,-5.66412 12.93428,-10.59637 26.04383,-71.19377 13.10957,-60.59736 51.86018,-176.85987 44.78619,-198.72602 -7.83868,-27.68491 -17.4382,0.24729 -46.63857,-53.17245 -7.3001,-13.35493 -24.79444,61.56019 -24.79444,61.56019 l 5.36746,40.79268 -9.66143,39.71919 L 369,419 323,431 155,377 h -32 l -16,-32 24.19673,-129.61203 30.10387,-28.65535 c 0,0 -9.11052,-86.32007 -45.61134,-68.30971 C 96.57644,128.84224 98.05319,196.94839 77.200314,258.18442 56.3452,319.42701 39.50075,381.22585 50.602226,396 Z M 293.29397,113.40627 c 15.31459,0 21.05757,15.31459 21.05757,24.88621 C 338,184 337,108 299.73492,90.862938 255,95 230,157 268.40775,134.46383 c 0,-13.40026 9.57162,-21.05756 24.88622,-21.05756 z"
       id="tag-shadow"
       sodipodi:nodetypes="cscscscccccccccccscccccc" />
    <path
       style="fill:#bbb293;fill-opacity:1;stroke:none;stroke-width:5.36746;stroke-linecap:butt;stroke-linejoin:miter;stroke-miterlimit:4;stroke-dasharray:none;stroke-opacity:1"
       d="m 141.93165,149.90498 c 20.39634,-8.58794 60.21965,-16.62959 93.5359,-37.73597 33.31625,-21.10638 60.12543,-55.277482 84.27904,-50.116165 22.19891,4.743624 16.02882,31.525671 29.62973,69.344475 13.60092,37.81881 46.97284,86.67437 68.44268,107.60746 19.32284,23.61682 -15.44701,240.20077 -2.33746,179.60337 13.10957,-60.59736 51.86018,-176.85987 44.78619,-198.72602 -7.83868,-27.68491 -17.43818,0.24728 -46.63857,-53.17245 C 399.02898,139.99982 394.52885,119.6524 377.70615,87.806965 360.88348,55.961499 327.19307,24.436504 314.7638,22.159473 287.96326,17.373661 258.3511,46.617073 223.44685,72.504391 188.54258,98.39171 152.19008,100.41255 115.68926,118.42291 96.57644,128.84224 98.05319,196.94839 77.200314,258.18442 56.3452,319.42701 112.94737,143.46403 141.93165,149.90498 Z M 278,185 c 17.66142,4.03726 84.66142,-30.96274 35.01296,-41.67026 0,7.6573 -6.31873,14.10599 -19.71899,14.10599 -17.22893,0 -24.88622,-11.48595 -24.88622,-22.9719 C 224,120 262.68539,185 278,185 Z"
       id="tag-highlight"
       sodipodi:nodetypes="cssscscsscscscccccc" />
    <path
       style="fill:none;stroke:#000000;stroke-width:10;stroke-linecap:butt;stroke-linejoin:miter;stroke-miterlimit:4;stroke-dasharray:none;stroke-opacity:1"
       d="m 50.602226,396 c 13.400273,19.14325 88.649974,26.20575 161.395914,45.66595 72.74592,19.46021 142.98808,51.31811 177.43957,48.13597 25.46577,-5.66412 12.93428,-10.59637 26.04383,-71.19377 13.10957,-60.59736 51.86018,-176.85987 44.78619,-198.72602 -7.83868,-27.68491 -17.43818,0.24728 -46.63857,-53.17245 C 399.02898,139.99982 394.52885,119.6524 377.70615,87.806965 360.88348,55.961499 327.19307,24.436504 314.7638,22.159473 287.96326,17.373661 258.3511,46.617073 223.44685,72.504391 188.54258,98.39171 152.19008,100.41255 115.68926,118.42291 96.57644,128.84224 98.05319,196.94839 77.200314,258.18442 56.3452,319.42701 39.50075,381.22585 50.602226,396 Z M 293.29397,113.40627 c 15.31459,0 21.05757,15.31459 21.05757,24.88621 0,7.6573 -7.65731,19.14325 -21.05757,19.14325 -17.22893,0 -24.88622,-11.48595 -24.88622,-22.9719 0,-13.40026 9.57162,-21.05756 24.88622,-21.05756 z"
       id="tag-raw"
       sodipodi:nodetypes="cscscsscscscccccc" />
    <path
       style="fill:none;stroke:#000000;stroke-width:20;stroke-linecap:butt;stroke-linejoin:miter;stroke-miterlimit:4;stroke-dasharray:none;stroke-opacity:1"
       d="m 50.602226,396 c 13.400273,19.14325 88.649974,26.20575 161.395914,45.66595 72.74592,19.46021 142.98808,51.31811 177.43957,48.13597 25.46577,-5.66412 12.93428,-10.59637 26.04383,-71.19377 13.10957,-60.59736 51.86018,-176.85987 44.78619,-198.72602 -7.83868,-27.68491 -17.43818,0.24728 -46.63857,-53.17245 C 399.02898,139.99982 394.52885,119.6524 377.70615,87.806965 360.88348,55.961499 327.19307,24.436504 314.7638,22.159473 287.96326,17.373661 258.3511,46.617073 223.44685,72.504391 188.54258,98.39171 152.19008,100.41255 115.68926,118.42291 96.57644,128.84224 98.05319,196.94839 77.200314,258.18442 56.3452,319.42701 39.50075,381.22585 50.602226,396 Z"
       id="tag-outline"
       sodipodi:nodetypes="cscscsscscsc" />
    <path
       style="fill:none;stroke:#4d340f;stroke-width:25;stroke-linecap:round;stroke-linejoin:round;stroke-miterlimit:4;stroke-dasharray:none;stroke-opacity:1"
       d="m 235.76663,218.69449 c -1.31148,17.94523 -0.94132,37.77402 -6.53767,54.62945 -0.61843,1.86265 -2.55569,8.19488 -3.24328,9.45321 -0.0528,0.0967 -2.12154,2.07714 -2.16646,2.16645 -1.63349,3.24783 -2.16477,7.54993 -3.24755,10.78969 -0.70819,2.11898 -3.2311,4.14963 -4.25202,5.23948 -0.66538,0.7103 0.47032,2.06773 0,2.91981 -0.16386,0.29687 -0.87007,-0.30546 -1.01725,0 -0.48673,1.01011 0.605,3.34398 0,4.34142 -0.81731,1.34744 -1.30144,2.39298 -2.02174,3.80512 -0.33694,0.66056 0.53593,3.14382 0,3.60507 -1.86193,1.60249 -2.77383,6.18569 -4.19245,9.00631 -0.25872,0.51442 0.42437,2.60992 0,2.97515 -1.9266,1.65815 -1.60405,3.8789 -4.04773,6.25248 -0.44573,0.43296 0.43889,2.20629 0,2.64741 -2.3977,2.40993 -12.86082,18.60834 -15.8752,21.63681 M 305.32712,240.15469 c -1.28172,2.15298 0.56714,4.69579 0,6.93775 -0.93017,3.67707 -3.90346,6.7173 -5.44805,9.80648 -0.32486,0.64972 0.32486,1.5295 0,2.17922 -0.45942,0.91885 -1.71979,1.26038 -2.17921,2.17922 -3.22192,6.44382 3.92706,-2.33046 -1.08962,4.35844 -0.61637,0.82184 -1.7198,1.26038 -2.17922,2.17922 -0.32485,0.64971 0.26979,1.50477 0,2.17921 -0.78788,1.96971 -2.73582,3.32231 -3.26883,5.44806 -0.86604,3.45406 -1.32945,6.41169 -2.16219,9.74263 0.65674,1.97214 -1.7651,2.02649 -2.17922,3.26884 -1.00582,3.01746 -1.13707,6.52583 -2.1622,9.58516 -1.11189,3.31828 -3.50535,6.39413 -4.35843,9.80648 -1.35475,5.419 -2.98133,10.8357 -4.35844,16.34414 -0.57685,2.30741 -2.69197,4.23025 -3.26883,6.53766 -2.03492,8.13969 -9.15544,24.09926 -13.80739,28.75122 -0.75214,0.75215 -6.28643,22.42414 -7.4377,23.39424 M 178.8175,253.22574 c 8.04421,1.09987 16.09672,2.89034 24.21402,3.40078 11.65008,0.7326 23.95751,0.67327 35.36123,3.52421 1.5758,0.39394 2.78264,1.78526 4.35845,2.17921 12.56201,3.14051 25.41577,10.52868 37.04672,16.34415 2.82426,1.41213 5.84864,1.46216 8.71686,2.17922 1.5758,0.39395 2.78264,1.78526 4.35844,2.17922 4.87451,1.21863 10.29999,1.66697 15.06726,3.25605 1.50708,0.50236 5.12275,3.65099 6.53765,4.35844 3.03935,1.51967 13.23765,2.85032 16.2718,4.35844 1.79205,0.89075 6.30303,3.12412 7.23993,3.12412 m -160.38966,5.99285 c 9.16049,2.70487 17.40017,6.68785 26.11232,10.46195 11.7972,5.11054 24.50364,8.26392 35.79964,14.53947 10.99801,6.11002 20.64777,13.33403 32.68828,16.34415 3.35688,0.83923 6.53088,3.42255 9.80648,4.35844 6.35606,1.81602 0.60534,-1.21068 5.44805,0 2.24302,0.56076 4.29465,1.61847 6.53766,2.17921 1.40943,0.35236 2.94999,-0.35628 4.35844,0 4.89409,1.23804 10.69698,4.95007 14.45009,4.95007"
       id="tag-hash"
       sodipodi:nodetypes="cssssssssssssssccsssssssscssssssccsssssssssccsssssssc" />
  </g>
</svg>
