<?xml version="1.0" encoding="UTF-8" standalone="no"?>
<!-- Created with Inkscape (http://www.inkscape.org/) -->

<svg
   width="512"
   height="512"
   viewBox="0 0 512 512"
   version="1.1"
   id="svg1029"
   inkscape:version="1.1.2 (0a00cf5339, 2022-02-04)"
   sodipodi:docname="icon_contact.svg"
   style="stroke-linecap:round"
   xmlns:inkscape="http://www.inkscape.org/namespaces/inkscape"
   xmlns:sodipodi="http://sodipodi.sourceforge.net/DTD/sodipodi-0.dtd"
   xmlns="http://www.w3.org/2000/svg"
   xmlns:svg="http://www.w3.org/2000/svg">
  <sodipodi:namedview
     id="namedview1031"
     pagecolor="#ffffff"
     bordercolor="#666666"
     borderopacity="1.0"
     inkscape:pageshadow="2"
     inkscape:pageopacity="0.0"
     inkscape:pagecheckerboard="0"
     inkscape:document-units="px"
     showgrid="true"
     units="px"
     inkscape:zoom="0.98520767"
     inkscape:cx="190.82271"
     inkscape:cy="250.70856"
     inkscape:window-width="1842"
     inkscape:window-height="1011"
     inkscape:window-x="0"
     inkscape:window-y="0"
     inkscape:window-maximized="1"
     inkscape:current-layer="layer8">
    <inkscape:grid
       type="xygrid"
       id="grid1098"
       snapvisiblegridlinesonly="false" />
    <sodipodi:guide
       position="-5,496"
       orientation="0,512"
       id="guide15909" />
    <sodipodi:guide
       position="495,267"
       orientation="512,0"
       id="guide15911" />
    <sodipodi:guide
       position="513,16"
       orientation="0,-512"
       id="guide15913" />
    <sodipodi:guide
       position="16,-1"
       orientation="-512,0"
       id="guide15915" />
  </sodipodi:namedview>
  <defs
     id="defs1026" />
  <g
     inkscape:groupmode="layer"
     id="layer8"
     inkscape:label="draft04"
     style="display:inline"
     sodipodi:insensitive="true">
    <path
       style="fill:#ffe81d;fill-opacity:1;stroke:none;stroke-width:10;stroke-linecap:round;stroke-linejoin:round;stroke-miterlimit:4;stroke-dasharray:none;stroke-opacity:1"
       d="m 234,455 c -4,0 -24,11 -31,11 C 100,462 113,397 113,381 100.08658,360.68366 102.1635,332.06089 101,325 100.73926,317.6938 66.210271,287.61955 66,276 55.33788,267.62422 42,227 42,227 -9,159 68.410494,118.80954 73,133 58,78 130,59 142,84 c 4,15 26.35255,124.10934 71,154 25,-55 -5,-185 9,-204 18,-12 77,-16 76,33 58,-39 81.21242,41.47899 77,62 3.93907,12.70875 0.48666,55.91911 -5,65 -0.22569,13.48535 -8.60819,52.99776 -24,65 10,21 -0.47717,73.16611 -12,88 16.0072,-22.72885 30.4718,-57.0242 37,-55 25,-19 61,-42 85,-32 25.18802,8.45713 23.52961,59.72187 21,64 -23,18 -60,10 -115,96 -17.42276,30.89549 -74.91804,43.25181 -86,42 -12.21252,2.14406 -38,-7 -42,-7 z"
       id="palm-bg" />
    <path
       style="fill:#968a19;fill-opacity:1;stroke:none;stroke-width:3;stroke-linecap:round;stroke-linejoin:round;stroke-miterlimit:4;stroke-dasharray:none;stroke-opacity:1"
       d="m 234,455 c -4,0 -24,11 -31,11 -103,-4 -90,-69 -90,-85 -12.91342,-20.31634 -10.8365,-48.93911 -12,-56 -0.26074,-7.3062 11,-17 11,-17 l 24,33 17,62 16,31 54,-20 70,11 42,-42 89,-51 c 0,0 55.52961,-12.27813 53,-8 -23,18 -60,10 -115,96 -17.42276,30.89549 -74.91804,43.25181 -86,42 -12.21252,2.14406 -38,-7 -42,-7 z M 335,344 c -22.43447,-9.22527 -49.13438,-0.54133 -65,5 l -17,-2 46,-20 c 0,0 31.67878,7.1972 46,-13 z M 105,256 c -0.5453,3.19892 -37,21 -37,21 L 60,267 Z M 40,224 c 0,0 41.22597,-4.44082 47,-8 0,0 -33.392455,-8.40816 -52,-3 z M 143,152 93,174 82,154 c 20.27429,7.56554 61,-2 61,-2 z m 17,58 -32,25 -13,-16 c 23.28817,1.65413 45,-9 45,-9 z m -89,-79 -13,15 39,73 38,46 19,1 -32,-35 -28,-46 z m 68,-52 -6,19 6,48 13,48 28,50 40,11 -8,-18 -20,-19 -31,-64 -13,-43 z m 155,-28 -18,9 6,77 -8,91 -14,14 1,6 10,-7 17,-2 8,-57 2,-67 z m -52,49 29,17 27,-3 -1,-17 c -12,16 -55,3 -55,3 z m 53,81 2,-11 c -8.33422,3.00738 -53,0 -53,0 13.55401,14.16262 51,11 51,11 z m 17,-53 c 0,0 37,11 61,3 v -18 c -6,17 -61,15 -61,15 z m 58,68 5,-17 c -17,10 -62,2 -62,2 0,0 19,15 57,15 z"
       id="palm-shadow" />
    <path
       style="fill:none;fill-opacity:1;stroke:#000000;stroke-width:10;stroke-linecap:round;stroke-linejoin:round;stroke-miterlimit:4;stroke-dasharray:none;stroke-opacity:1"
       d="m 234,455 c -4,0 -24,11 -31,11 C 100,462 113,397 113,381 100.08658,360.68366 102.1635,332.06089 101,325 100.73926,317.6938 66.210271,287.61955 66,276 55.33788,267.62422 42,227 42,227 -9,159 68.410494,118.80954 73,133 58,78 130,59 142,84 c 4,15 26.35255,124.10934 71,154 25,-55 -5,-185 9,-204 18,-12 77,-16 76,33 58,-39 81.21242,41.47899 77,62 3.93907,12.70875 0.48666,55.91911 -5,65 -0.22569,13.48535 -8.60819,52.99776 -24,65 10,21 -0.47717,73.16611 -12,88 16.0072,-22.72885 30.4718,-57.0242 37,-55 25,-19 61,-42 85,-32 25.18802,8.45713 23.52961,59.72187 21,64 -23,18 -60,10 -115,96 -17.42276,30.89549 -74.91804,43.25181 -86,42 -12.21252,2.14406 -38,-7 -42,-7 z M 73,133 l 28,65 c 9,15 38.12177,56.61506 54,69 M 298,65 c 0,0 3.19611,39.84762 0,49 0.86071,19.63226 1.83763,51.35587 -3,67 1,5 -3,37 -8,57"
       id="palm-base" />
    <path
       style="fill:#000000;fill-opacity:1;stroke:none;stroke-width:1px;stroke-linecap:butt;stroke-linejoin:miter;stroke-opacity:1"
       d="m 38,219 c 17.999863,1.22588 46.704826,-1.88832 55,-7 -1.908556,4.62946 -14.251898,12.75693 -50,16 z m 25,55 7,9 c 25.563996,-15.60768 40.47937,-26.08135 44,-37 -7.69731,9.85118 -30.8729,24.41348 -51,28 z M 90,169 c 17.36204,-1.20345 45.61684,-12.71235 56,-22 -2.94519,9.53437 -23.54759,22.30232 -52,32 z m 36,64 3,4 32,-28 z M 375,128 v 4 c -19.57422,6.08612 -47,11 -67,-6 31,11 52.61683,6.76383 67,2 z m -5,65 v 3 c -42.15224,4.12691 -54.58254,-7.00355 -61,-18 22.85711,12.36181 27.99523,15.33643 61,15 z m -72,-78 v -3 c -27.18448,7.25153 -34.96934,-1.8386 -64,-18 24.14467,29.93272 44.74342,29.20616 64,21 z m -3,64 v 2 c -17.82394,6.374 -44.11289,0.68039 -55,-14 14.51638,8.53769 40.02243,14.51203 55,12 z m -141,88 c -15.20539,14.24093 -18.05708,28.23713 -14,40 0.88814,-17.4753 13.39719,-26.51368 15,-38 z m 1,1 v -2 c 7.94417,-0.50751 4.18325,-9.04589 32,10 -23.1,-9.14009 -19.68403,-8.88814 -32,-8 z m 131,-29 c -6.59969,-3.14495 -17.71515,-4.52778 -27,11 8.13257,-1.59455 14.9543,-12.06346 27,-10 z m 0,1 c 0,0 5.9965,11.55273 6,35 2.68025,-23.42905 4,-25 -4,-36 z m 50,102 c -39.54096,-12.1772 -62.34077,-3.20469 -77,14 17.90351,-4.76977 32.04923,-15.4441 75,-8 z"
       id="palm-details" />
  </g>
</svg>
