<?xml version="1.0" encoding="UTF-8" standalone="no"?>
<!-- Created with Inkscape (http://www.inkscape.org/) -->

<svg
   width="512"
   height="512"
   viewBox="0 0 512 512"
   version="1.1"
   id="svg1029"
   inkscape:version="1.1.2 (0a00cf5339, 2022-02-04)"
   sodipodi:docname="icon_now.svg"
   style="stroke-linecap:round"
   xmlns:inkscape="http://www.inkscape.org/namespaces/inkscape"
   xmlns:sodipodi="http://sodipodi.sourceforge.net/DTD/sodipodi-0.dtd"
   xmlns="http://www.w3.org/2000/svg"
   xmlns:svg="http://www.w3.org/2000/svg">
  <sodipodi:namedview
     id="namedview1031"
     pagecolor="#ffffff"
     bordercolor="#666666"
     borderopacity="1.0"
     inkscape:pageshadow="2"
     inkscape:pageopacity="0.0"
     inkscape:pagecheckerboard="0"
     inkscape:document-units="px"
     showgrid="true"
     units="px"
     inkscape:zoom="1.1076165"
     inkscape:cx="179.66508"
     inkscape:cy="254.60076"
     inkscape:window-width="1842"
     inkscape:window-height="1011"
     inkscape:window-x="0"
     inkscape:window-y="0"
     inkscape:window-maximized="1"
     inkscape:current-layer="layer2">
    <inkscape:grid
       type="xygrid"
       id="grid1098"
       snapvisiblegridlinesonly="false" />
    <sodipodi:guide
       position="-5,496"
       orientation="0,512"
       id="guide15909" />
    <sodipodi:guide
       position="494,513"
       orientation="512,0"
       id="guide15911" />
    <sodipodi:guide
       position="513,16"
       orientation="0,-512"
       id="guide15913" />
    <sodipodi:guide
       position="16,-1"
       orientation="-512,0"
       id="guide15915" />
  </sodipodi:namedview>
  <defs
     id="defs1026" />
  <g
     inkscape:groupmode="layer"
     id="layer2"
     inkscape:label="draft01">
    <path
       style="fill:#d5cabe;stroke:none;stroke-width:3;stroke-linecap:round;stroke-linejoin:round;stroke-miterlimit:4;stroke-dasharray:none;stroke-opacity:1;fill-opacity:1"
       d="m 465.15934,56.722781 c 16.81413,20.992303 3.02115,104.777909 2.41991,178.780669 -0.60122,74.00275 18.06564,100.29867 11.98933,138.22263 L 378.70389,489 C 359.79579,493.05326 333.96697,471.37113 202.91114,477.47261 148.0195,484.55507 47.679417,467.5119 32.882108,454.41783 22.883679,444.79848 24.236563,356.43499 30.618761,258.29494 36.916839,161.44839 35.904101,90.162277 24.236563,74.013869 15.591018,50.959084 82.111567,59.25388 128.52323,56.86139 c 82.82734,2.565443 114.7338,8.506934 114.7338,8.506934 C 262.65379,68.789165 281.45006,62.486477 346.5,58.70439 448.50367,42.108136 462.19527,51.543004 465.15934,56.722781 Z"
       id="now-bg" />
    <path
       style="fill:#9a8164;fill-opacity:1;stroke:none;stroke-width:3;stroke-linecap:round;stroke-linejoin:round;stroke-miterlimit:4;stroke-dasharray:none;stroke-opacity:1"
       d="m 465.15934,56.722781 c 16.81413,20.992303 3.02115,104.777909 2.41991,178.780669 -0.60122,74.00275 18.06564,100.29867 11.98933,138.22263 L 378.70389,489 C 359.79579,493.05326 333.96697,471.37113 202.91114,477.47261 148.0195,484.55507 47.679417,467.5119 32.882108,454.41783 22.883679,444.79848 273,439 361.39309,389.87676 446.22453,342.73285 407.66754,238.14841 396,222 322,180 82.111567,59.25388 128.52323,56.86139 c 82.82734,2.565443 114.7338,8.506934 114.7338,8.506934 C 262.65379,68.789165 281.45006,62.486477 346.5,58.70439 448.50367,42.108136 462.19527,51.543004 465.15934,56.722781 Z"
       id="now-bg-shadow" />
    <path
       style="fill:#376593;fill-opacity:1;stroke:none;stroke-width:3;stroke-linecap:round;stroke-linejoin:round;stroke-miterlimit:4;stroke-dasharray:none;stroke-opacity:1"
       d="M 465.15934,56.722781 C 481.97347,77.715084 470.60124,93.99724 470,168 463.70128,198.05468 426.69921,199.84616 319.27389,196.83249 211.84857,193.81882 34,186 34,186 36,156 35.904101,90.162277 24.236563,74.013869 15.591018,50.959084 82.111567,59.25388 128.52323,56.86139 c 82.82734,2.565443 114.7338,8.506934 114.7338,8.506934 C 262.65379,68.789165 281.45006,62.486477 346.5,58.70439 448.50367,42.108136 462.19527,51.543004 465.15934,56.722781 Z"
       id="now-top-bg" />
    <path
       style="fill:#7ba0c6;fill-opacity:1;stroke:none;stroke-width:3;stroke-linecap:round;stroke-linejoin:round;stroke-miterlimit:4;stroke-dasharray:none;stroke-opacity:1"
       d="M 465.15934,56.722781 C 481.97347,77.715084 472.60124,1.99724 472,76 465.70128,106.05468 275.50028,102.06255 275.50028,102.06255 L 215,101 65,92 33,102 C 35,72 35.904101,90.162277 24.236563,74.013869 15.591018,50.959084 82.111567,59.25388 128.52323,56.86139 c 82.82734,2.565443 114.7338,8.506934 114.7338,8.506934 C 262.65379,68.789165 281.45006,62.486477 346.5,58.70439 448.50367,42.108136 462.19527,51.543004 465.15934,56.722781 Z"
       id="now-top-highlight" />
    <path
       style="fill:#c9c9c9;stroke:none;stroke-width:3;stroke-linecap:round;stroke-linejoin:round;stroke-miterlimit:4;stroke-dasharray:none;stroke-opacity:1;fill-opacity:1"
       d="m 130.10903,25.022451 c 11.52739,0 24.6221,14.411423 25.02642,51.873267 C 156,157 141.63642,166.58384 130.10903,166.58384 118.58164,166.58384 102,157 102.04646,76.895718 c 0.0251,-43.227716 16.53518,-51.873267 28.06257,-51.873267 z m 216.9162,-0.540629 c 14.22284,-1.639112 25.07888,7.568757 26.55039,49.326643 2.71847,77.143655 -12.16283,91.382695 -23.69022,91.382695 -11.52739,0 -30.97131,-9.19116 -30.97131,-91.177291 0,-44.013869 13.79664,-47.882372 28.11114,-49.532047 z"
       id="now-ring-bg" />
    <path
       style="fill:#808080;fill-opacity:1;stroke:none;stroke-width:3;stroke-linecap:round;stroke-linejoin:round;stroke-miterlimit:4;stroke-dasharray:none;stroke-opacity:1"
       d="m 117.7013,28.723199 c 11.52739,0 37.02983,10.710675 37.43415,48.172519 C 156,157 141.63642,166.58384 130.10903,166.58384 c -5.7637,0 1.89569,-13.38548 4.30355,-28.5184 C 136.82043,122.93251 133.97677,106.05214 134,66 134.0251,22.772284 106.17391,28.723199 117.7013,28.723199 Z m 229.32393,-4.241377 c 14.22284,-1.639112 25.07888,7.568757 26.55039,49.326643 2.71847,77.143655 -12.16283,91.382695 -23.69022,91.382695 -11.52739,0 7.22196,-1.47794 7.22196,-83.464074 0,-44.013869 -24.39663,-55.595589 -10.08213,-57.245264 z"
       id="now-ring-shadow" />
    <path
       style="fill:#d6d6d6;stroke:none;stroke-width:15;stroke-linecap:round;stroke-linejoin:round;stroke-miterlimit:4;stroke-dasharray:none;stroke-opacity:1;fill-opacity:1"
       d="M 479.56858,373.72608 378.70389,489 M 479.56858,373.72608 c 0,0 -54.73553,4.14747 -95.101,-2.88185 C 394.39855,408.27881 378.70389,489 378.70389,489"
       id="now-corner" />
    <path
       style="fill:none;stroke:#000000;stroke-width:15;stroke-linecap:round;stroke-linejoin:round;stroke-miterlimit:4;stroke-dasharray:none;stroke-opacity:1"
       d="m 374,57 c 74.50367,-14.891864 88.19527,-5.456996 91.15934,-0.277219 16.81413,20.992303 3.02115,104.777909 2.41991,178.780669 -0.60122,74.00275 18.06564,100.29867 11.98933,138.22263 L 378.70389,489 C 359.79579,493.05326 333.96697,471.37113 202.91114,477.47261 148.0195,484.55507 47.679417,467.5119 32.882108,454.41783 22.883679,444.79848 24.236563,356.43499 30.618761,258.29494 36.916839,161.44839 35.904101,90.162277 24.236563,74.013869 15.591018,50.959084 82.111567,59.25388 102.04646,56.722781 M 155,57 c 56.35057,2.426833 88.25703,8.368324 88.25703,8.368324 C 262.65379,68.789165 281.45006,62.486477 319,60.408779 M 479.56858,373.72608 c 0,0 -54.73553,4.14747 -95.101,-2.88185 C 394.39855,408.27881 378.70389,489 378.70389,489 M 130.10903,25.022451 c 11.52739,0 24.6221,14.411423 25.02642,51.873267 C 156,157 141.63642,166.58384 130.10903,166.58384 118.58164,166.58384 102,157 102.04646,76.895718 c 0.0251,-43.227716 16.53518,-51.873267 28.06257,-51.873267 z m 216.9162,-0.540629 c 14.22284,-1.639112 25.07888,7.568757 26.55039,49.326643 2.71847,77.143655 -12.16283,91.382695 -23.69022,91.382695 -11.52739,0 -30.97131,-9.19116 -30.97131,-91.177291 0,-44.013869 13.79664,-47.882372 28.11114,-49.532047 z"
       id="now-outline" />
  </g>
</svg>
