<?xml version="1.0" encoding="UTF-8" standalone="no"?>
<!-- Created with Inkscape (http://www.inkscape.org/) -->

<svg
   width="512"
   height="512"
   viewBox="0 0 512 512"
   version="1.1"
   id="svg1029"
   inkscape:version="1.1.2 (0a00cf5339, 2022-02-04)"
   sodipodi:docname="icon_development.svg"
   style="stroke-linecap:round"
   xmlns:inkscape="http://www.inkscape.org/namespaces/inkscape"
   xmlns:sodipodi="http://sodipodi.sourceforge.net/DTD/sodipodi-0.dtd"
   xmlns="http://www.w3.org/2000/svg"
   xmlns:svg="http://www.w3.org/2000/svg">
  <sodipodi:namedview
     id="namedview1031"
     pagecolor="#ffffff"
     bordercolor="#666666"
     borderopacity="1.0"
     inkscape:pageshadow="2"
     inkscape:pageopacity="0.0"
     inkscape:pagecheckerboard="0"
     inkscape:document-units="px"
     showgrid="true"
     units="px"
     inkscape:zoom="0.98520767"
     inkscape:cx="143.11703"
     inkscape:cy="264.91877"
     inkscape:window-width="1842"
     inkscape:window-height="1011"
     inkscape:window-x="0"
     inkscape:window-y="0"
     inkscape:window-maximized="1"
     inkscape:current-layer="g35674">
    <inkscape:grid
       type="xygrid"
       id="grid1098" />
    <sodipodi:guide
       position="-5,496"
       orientation="0,512"
       id="guide15909" />
    <sodipodi:guide
       position="494,513"
       orientation="512,0"
       id="guide15911" />
    <sodipodi:guide
       position="513,16"
       orientation="0,-512"
       id="guide15913" />
    <sodipodi:guide
       position="16,-1"
       orientation="-512,0"
       id="guide15915" />
  </sodipodi:namedview>
  <defs
     id="defs1026" />
  <g
     inkscape:groupmode="layer"
     id="layer2"
     inkscape:label="draft01_SRC"
     style="display:none"
     sodipodi:insensitive="true">
    <path
       style="fill:#afafaf;fill-opacity:1;stroke:#000000;stroke-width:5;stroke-linecap:round;stroke-linejoin:round;stroke-miterlimit:4;stroke-dasharray:none;stroke-opacity:1"
       d="M 25,335 H 97.713644 L 145,288.46701 V 241.85907 L 97.713644,195 H 25 L 78.493252,105 H 171.70915 L 246.28186,185.92954 450,185 c 70,0 70,158 0,158.46701 L 246.28186,345 171.70915,425 H 78.493252 Z"
       id="path22854" />
    <path
       style="fill:#838383;fill-opacity:1;stroke:#000000;stroke-width:1px;stroke-linecap:butt;stroke-linejoin:miter;stroke-opacity:1"
       d="m 275,225 h 160 c 35,0 35,80 0,80 H 275 c -40,0 -40,-80 0,-80 z"
       id="path33509" />
  </g>
  <g
     inkscape:groupmode="layer"
     id="g35674"
     inkscape:label="draft01"
     style="display:inline"
     sodipodi:insensitive="true">
    <path
       style="fill:#606060;fill-opacity:1;stroke:#000000;stroke-width:3.1664;stroke-linecap:round;stroke-linejoin:round;stroke-miterlimit:4;stroke-dasharray:none;stroke-opacity:1"
       d="m 19,225.9472 80.485383,48.38728 70.013097,-0.85257 33.93454,-26.89638 L 201.41731,193.5437 145.85435,153.56189 145.65594,64.460875 323.48745,182.2934 321.5474,270 485.51604,299.82983 c 13.37235,9.62242 8.58787,104.18665 4.48396,117.55002 -18.14193,46.27956 -93.21236,77.89113 -127.48535,55.54643 l -156.7841,-111.13036 -115.230353,5.16216 -65.1674,-47.0744 z"
       id="dev-side" />
    <path
       style="fill:#afafaf;fill-opacity:1;stroke:#000000;stroke-width:3.1664;stroke-linecap:round;stroke-linejoin:round;stroke-miterlimit:4;stroke-dasharray:none;stroke-opacity:1"
       d="m 43.922414,144.94446 55.562969,39.98181 70.013097,-0.85257 33.93454,-26.89638 -2.01571,-53.04184 -55.56296,-39.981802 106.40367,-22.523519 71.22943,51.25503 -1.94005,87.706601 156.34475,111.47859 c 53.48937,38.4897 -61.54809,129.66789 -115.3775,91.44769 L 205.73055,272.38771 90.500197,277.54987 19.27076,226.29483 Z"
       id="dev-top" />
    <path
       style="fill:#838383;fill-opacity:1;stroke:#000000;stroke-width:1.05547;stroke-linecap:butt;stroke-linejoin:miter;stroke-miterlimit:4;stroke-dasharray:none;stroke-opacity:1"
       d="m 315.04529,218.92921 122.26144,87.97646 c 26.74469,19.24486 -31.50213,65.41102 -58.24682,46.16617 L 256.79847,265.09538 c -30.56536,-21.99412 27.68146,-68.16029 58.24682,-46.16617 z"
       id="dev-top-detail" />
    <path
       id="dev-outline"
       style="fill:none;fill-opacity:1;stroke:#000000;stroke-width:20;stroke-linecap:round;stroke-linejoin:round;stroke-miterlimit:4;stroke-dasharray:none;stroke-opacity:1"
       d="M 145,65.26109 252.25802,41.630159 323.48745,92.885189 321.5474,180.59179 482,295.26109 c 13.37235,9.62242 12.10391,108.75539 8,122.11876 -18.14193,46.27956 -93.21236,77.89113 -127.48535,55.54643 L 205.73055,361.79592 90.500197,366.95808 25.332797,319.88368 19,225.9472 m 0.27076,0.34763 24.651654,-81.35037 55.562969,39.98181 L 183,184.0737 145.85435,153.56189 145,65.26109" />
  </g>
</svg>
