<?xml version="1.0" encoding="UTF-8" standalone="no"?>
<!-- Created with Inkscape (http://www.inkscape.org/) -->

<svg
   width="512"
   height="512"
   viewBox="0 0 512 512"
   version="1.1"
   id="svg1029"
   inkscape:version="1.1.2 (0a00cf5339, 2022-02-04)"
   sodipodi:docname="icon_home.svg"
   style="stroke-linecap:round"
   xmlns:inkscape="http://www.inkscape.org/namespaces/inkscape"
   xmlns:sodipodi="http://sodipodi.sourceforge.net/DTD/sodipodi-0.dtd"
   xmlns="http://www.w3.org/2000/svg"
   xmlns:svg="http://www.w3.org/2000/svg">
  <sodipodi:namedview
     id="namedview1031"
     pagecolor="#ffffff"
     bordercolor="#666666"
     borderopacity="1.0"
     inkscape:pageshadow="2"
     inkscape:pageopacity="0.0"
     inkscape:pagecheckerboard="0"
     inkscape:document-units="px"
     showgrid="true"
     units="px"
     inkscape:zoom="1.393294"
     inkscape:cx="278.47675"
     inkscape:cy="261.25139"
     inkscape:window-width="1842"
     inkscape:window-height="1011"
     inkscape:window-x="0"
     inkscape:window-y="0"
     inkscape:window-maximized="1"
     inkscape:current-layer="layer1"
     inkscape:lockguides="true">
    <inkscape:grid
       type="xygrid"
       id="grid1098"
       snapvisiblegridlinesonly="false"
       enabled="true" />
    <sodipodi:guide
       position="-5,496"
       orientation="0,512"
       id="guide15909"
       inkscape:locked="true" />
    <sodipodi:guide
       position="494,513"
       orientation="512,0"
       id="guide15911"
       inkscape:locked="true" />
    <sodipodi:guide
       position="513,16"
       orientation="0,-512"
       id="guide15913"
       inkscape:locked="true" />
    <sodipodi:guide
       position="16,-1"
       orientation="-512,0"
       id="guide15915"
       inkscape:locked="true" />
  </sodipodi:namedview>
  <defs
     id="defs1026" />
  <g
     inkscape:label="Layer 1"
     inkscape:groupmode="layer"
     id="layer1">
    <path
       style="fill:#deaa87;fill-opacity:1;stroke:none;stroke-width:6.48357;stroke-linecap:butt;stroke-linejoin:miter;stroke-miterlimit:4;stroke-dasharray:none;stroke-opacity:0.972506"
       d="m 197.14551,487.74916 128.20387,-0.74913 m 108.68154,-9.43775 c -8.57289,9.59516 -108.68154,9.43776 -108.68154,9.43776 0,0 -84.70581,1.71646 -128.20387,0.74914 -35.0606,-0.77966 -102.124843,0.0336 -105.079994,-5.18516 C 80.714518,462.51956 88.573931,421.56251 79.664744,381.62907 72.648516,350.18035 255.39145,207.77364 255.39145,207.77364 c 0,0 193.03419,138.41762 179.92419,193.38272 -8.61788,17.32295 7.17554,66.93652 -1.28472,76.40592 z"
       id="home-bg" />
    <path
       style="fill:#c83737;fill-opacity:1;stroke:none;stroke-width:6.48357;stroke-linecap:butt;stroke-linejoin:miter;stroke-miterlimit:4;stroke-dasharray:none;stroke-opacity:0.972506"
       d="m 68,393.25 c 2.393513,0.0249 8.054861,-7.27699 11.664744,-11.62097 3.609875,-4.34397 5.168278,-5.73003 26.860066,-26.97086 21.69179,-21.24082 64.29693,-53.44568 94.87241,-80.96368 30.57544,-27.51804 49.12123,-50.34923 53.31833,-50.37718 5.08702,-0.0334 23.94737,24.86211 51.23488,50.41798 27.28752,25.55588 63.0022,51.77165 84.3689,74.59498 21.36668,22.82332 37.88457,43.75698 44.99631,52.82605 7.11175,9.06904 4.81737,6.27349 9.12728,7.86692 8.36663,3.09326 34.54121,-15.1046 40.50116,-31.03423 2.12303,-5.67439 -15.41672,-86.09191 -31.18377,-128.93062 -9.23228,-25.08388 -10.50054,-56.61324 -15.28151,-64.09763 -4.78098,-7.48438 -48.68489,-39.33224 -88.00002,-74.22998 -39.31514,-34.897744 -74.04149,-72.845395 -83.97528,-73.229955 -9.93378,-0.384516 -42.54125,33.743881 -77.68232,64.798015 -35.14105,31.05414 -72.81568,59.03396 -78.05637,66.8164 -10.48139,15.56488 -91.903623,169.25901 -87.130104,183.6081 3.161295,9.5028 15.56242,13.0614 23.359844,20.79133 C 54.791974,381.24462 57.9857,393.14594 68,393.25 Z"
       id="home-roof-bg" />
    <path
       style="fill:#782121;fill-opacity:1;stroke:none;stroke-width:3.24178;stroke-linecap:butt;stroke-linejoin:miter;stroke-miterlimit:4;stroke-dasharray:none;stroke-opacity:0.972506"
       d="m 68,393.25 c 2.393513,0.0249 8.054861,-7.27699 11.664744,-11.62097 3.609875,-4.34397 5.168278,-5.73003 26.860066,-26.97086 21.69179,-21.24082 64.29693,-53.44568 94.87241,-80.96368 30.57544,-27.51804 49.12123,-50.34923 53.31833,-50.37718 5.08702,-0.0334 23.94737,24.86211 51.23488,50.41798 27.28752,25.55588 63.0022,51.77165 84.3689,74.59498 21.36668,22.82332 37.88457,43.75698 44.99631,52.82605 7.11175,9.06904 4.81737,6.27349 9.12728,7.86692 8.36663,3.09326 34.54121,-15.1046 40.50116,-31.03423 C 438.70631,329.72526 395.17049,274.72542 361.0986,238.41209 321.78347,203.51435 275.15907,154.31906 257.18525,154.18057 236.76015,154.02318 167.504,220.10489 132.36294,251.15904 69.990633,293.43312 21.634003,344.2573 23.634706,352.72334 c 3.161295,9.5028 15.56242,13.0614 23.359844,20.79133 C 54.791974,381.24462 57.9857,393.14594 68,393.25 Z"
       id="home-roof-front" />
    <path
       style="fill:#004d00;fill-opacity:1;stroke:none;stroke-width:6.48357;stroke-linecap:butt;stroke-linejoin:miter;stroke-miterlimit:4;stroke-dasharray:none;stroke-opacity:0.972506"
       d="m 197.14551,487.74916 c 43.49806,0.96732 128.20387,-0.74913 128.20387,-0.74913 m -128.20387,0.74913 c -2.17862,-24.84269 3.6756,-72.18192 1.18133,-94.30826 4.2074,-55.09261 113.17139,-57.8748 120.59041,1.14361 -0.87146,26.14669 3.90598,65.39523 6.43213,92.41549"
       id="home-door" />
    <path
       style="fill:#171717;fill-opacity:1;stroke:none;stroke-width:6.48357;stroke-linecap:butt;stroke-linejoin:miter;stroke-miterlimit:4;stroke-dasharray:none;stroke-opacity:0.972506"
       d="m 115.51148,403.62023 c 0.16014,-18.89725 20.04036,-23.81342 35.18397,-19.71716 20.95727,5.66886 24.97884,33.56373 10.92192,42.16215 -15.48461,9.47173 -46.23848,-6.79751 -46.10589,-22.44499 z"
       id="home-window" />
    <path
       style="fill:none;stroke:#000000;stroke-width:12.9671;stroke-linecap:butt;stroke-linejoin:miter;stroke-miterlimit:4;stroke-dasharray:none;stroke-opacity:0.972506"
       d="m 68,393.25 c 2.393513,0.0249 8.054861,-7.27699 11.664744,-11.62097 3.609875,-4.34397 5.168278,-5.73003 26.860066,-26.97086 21.69179,-21.24082 64.29693,-53.44568 94.87241,-80.96368 30.57544,-27.51804 49.12123,-50.34923 53.31833,-50.37718 5.08702,-0.0334 23.94737,24.86211 51.23488,50.41798 27.28752,25.55588 63.0022,51.77165 84.3689,74.59498 21.36668,22.82332 37.88457,43.75698 44.99631,52.82605 7.11175,9.06904 4.81737,6.27349 9.12728,7.86692 8.36663,3.09326 34.54121,-15.1046 40.50116,-31.03423 2.12303,-5.67439 -15.41672,-86.09191 -31.18377,-128.93062 -9.23228,-25.08388 -10.50054,-56.61324 -15.28151,-64.09763 -4.78098,-7.48438 -48.68489,-39.33224 -88.00002,-74.22998 -39.31514,-34.897744 -74.04149,-72.845395 -83.97528,-73.229955 -9.93378,-0.384516 -42.54125,33.743881 -77.68232,64.798015 -35.14105,31.05414 -72.81568,59.03396 -78.05637,66.8164 -10.48139,15.56488 -91.903623,169.25901 -87.130104,183.6081 3.161295,9.5028 15.56242,13.0614 23.359844,20.79133 C 54.791974,381.24462 57.9857,393.14594 68,393.25 Z m 11.664744,-11.62097 c 9.145651,39.87997 1.049774,80.89051 12.400772,100.93496 2.955151,5.21844 70.019394,4.40548 105.079994,5.18517 43.49806,0.96732 128.20387,-0.74913 128.20387,-0.74913 0,0 100.10865,0.15739 108.68154,-9.43777 8.46026,-9.46941 -7.33316,-59.08297 1.28472,-76.40592 m -238.17013,86.59282 c -2.17862,-24.84269 3.6756,-72.18192 1.18133,-94.30826 4.2074,-55.09261 113.17139,-57.8748 120.59041,1.14361 -0.87146,26.14669 3.90598,65.39523 6.43213,92.41549 m -209.8379,-83.37977 c 0.16014,-18.89725 20.04036,-23.81342 35.18397,-19.71716 20.95727,5.66886 24.97884,33.56373 10.92192,42.16215 -15.48461,9.47173 -46.23848,-6.79751 -46.10589,-22.44499 z"
       id="home-outline" />
  </g>
</svg>
