<?xml version="1.0" encoding="UTF-8" standalone="no"?>
<!-- Created with Inkscape (http://www.inkscape.org/) -->

<svg
   width="512"
   height="512"
   viewBox="0 0 512 512"
   version="1.1"
   id="svg1029"
   inkscape:version="1.1.2 (0a00cf5339, 2022-02-04)"
   sodipodi:docname="logo.svg"
   style="stroke-linecap:round"
   xmlns:inkscape="http://www.inkscape.org/namespaces/inkscape"
   xmlns:sodipodi="http://sodipodi.sourceforge.net/DTD/sodipodi-0.dtd"
   xmlns="http://www.w3.org/2000/svg"
   xmlns:svg="http://www.w3.org/2000/svg">
  <sodipodi:namedview
     id="namedview1031"
     pagecolor="#ffffff"
     bordercolor="#666666"
     borderopacity="1.0"
     inkscape:pageshadow="2"
     inkscape:pageopacity="0.0"
     inkscape:pagecheckerboard="0"
     inkscape:document-units="px"
     showgrid="true"
     units="px"
     inkscape:zoom="0.98520767"
     inkscape:cx="183.71761"
     inkscape:cy="155.29721"
     inkscape:window-width="1842"
     inkscape:window-height="1011"
     inkscape:window-x="0"
     inkscape:window-y="0"
     inkscape:window-maximized="1"
     inkscape:current-layer="footer_v5.1"
     showguides="true"
     inkscape:guide-bbox="true">
    <inkscape:grid
       type="xygrid"
       id="grid1098"
       snapvisiblegridlinesonly="false" />
    <sodipodi:guide
       position="-5,496"
       orientation="0,512"
       id="guide15909" />
    <sodipodi:guide
       position="494,513"
       orientation="512,0"
       id="guide15911" />
    <sodipodi:guide
       position="513,16"
       orientation="0,-512"
       id="guide15913" />
    <sodipodi:guide
       position="16,-1"
       orientation="-512,0"
       id="guide15915" />
    <sodipodi:guide
       position="380,308"
       orientation="0,-1"
       id="guide2898" />
    <sodipodi:guide
       position="380,292"
       orientation="0,-1"
       id="guide2916" />
    <sodipodi:guide
       position="116,282"
       orientation="0,-1"
       id="guide3214" />
    <sodipodi:guide
       position="116,266"
       orientation="0,-1"
       id="guide3216" />
  </sodipodi:namedview>
  <defs
     id="defs1026" />
  <g
     inkscape:groupmode="layer"
     id="footer_v5.1"
     inkscape:label="Footer_v5.1">
    <path
       style="display:inline;fill:#af281e;fill-opacity:1;stroke:none;stroke-width:7.55078;stroke-linecap:round;stroke-linejoin:round;stroke-miterlimit:4;stroke-dasharray:none;stroke-opacity:1"
       d="m 409.62445,114.8703 c 0.68957,7.08582 38.24636,24.29993 40.61686,31.5371 1.6864,5.14856 -30.16891,23.79637 -26.94593,32.22235 0.95558,2.4982 27.5054,18.53425 29.08437,15.24243 17.09957,-35.64889 37.79584,-34.9091 36.74986,-49.07366 -12.87045,-22.33881 -45.14932,-37.71123 -61.50788,-54.22354 -2.07981,-0.52666 -18.79459,16.10257 -17.99728,24.29532 z M 89.664493,211.6411 c -0.621988,3.78864 21.175627,17.61925 24.711207,13.82356 C 120.93335,218.4245 161.19394,98.33788 193.36385,50.81504 198.96426,42.54188 182.92663,16.948909 176.27281,20.278533 166.57213,25.13283 92.792253,192.58991 89.664493,211.6411 Z M 67.129079,188.46982 C 38.229284,152.81981 21.209343,147.254 19.81662,142.49293 19.79612,138.03271 72.5151,97.02057 81.460639,93.3359 c 10.48079,-4.31701 28.113631,11.50686 27.236831,15.06745 -31.162141,19.01636 -46.262767,26.94253 -46.928673,32.01672 -0.442039,3.36826 24.562982,12.54756 27.480055,23.97556 1.318365,6.36685 -17.949749,24.86523 -22.119773,24.07419 z M 193.66218,94.22629 c 10.89103,23.72482 13.68375,63.81014 16.96816,96.21617 1.14445,11.29174 16.03775,16.78805 18.74793,17.25314 3.65123,0.62656 21.66875,-2.73243 22.06101,-5.61159 1.34199,-9.85032 -2.07838,-33.65803 2.49441,-47.76689 7.02176,-20.54955 24.01313,-45.54757 30.45486,-44.4725 15.52751,2.59144 -0.29503,66.03224 5.25491,72.78801 4.5231,5.50581 19.86851,13.71142 21.92669,14.17477 1.9533,0.43974 8.55791,0.19731 8.96666,-1.23517 0.10332,-5.47851 4.15003,-45.13422 13.96529,-66.28963 5.95258,-12.8299 14.24207,-25.9215 21.87074,-24.394 5.34695,1.07065 4.0807,26.8992 1.66635,66.03917 -0.71744,11.63073 1.62748,27.99793 4.3821,34.11134 1.18791,2.63641 16.96127,9.78689 19.50161,10.0649 2.54034,0.27806 8.94537,-1.09537 10.48759,-5.74921 1.54221,-4.65386 4.00661,-28.08651 3.95322,-39.27847 -0.18775,-39.35803 4.97963,-60.82405 -6.37595,-88.67223 -3.40375,-8.34724 -20.12837,-19.31323 -27.20286,-19.12019 -23.88318,0.65166 -43.70918,37.6318 -47.70866,37.4952 -2.74322,-0.0937 -3.19413,-37.24822 -11.70791,-38.39524 -32.57459,-4.38866 -59.93023,41.58634 -61.57119,40.40218 -3.03711,-2.1916 -5.3853,-28.0187 -10.9367,-30.15542 -2.38509,-0.79792 -41.15131,13.98443 -37.19826,22.59566 z"
       id="footer_5.1_bg" />
    <path
       id="footer_5.1_left"
       style="display:inline;fill:#672425;fill-opacity:1;stroke:none;stroke-width:0.471924;stroke-linecap:round;stroke-linejoin:round;stroke-miterlimit:4;stroke-dasharray:none;stroke-opacity:1"
       d="m 439.81586,99.71392 c -2.07982,-0.52667 -31.73373,1.30463 -30.19141,15.15638 0.78785,7.07557 38.24636,24.29993 40.61686,31.5371 l -27.68565,31.13836 22.24262,13.90989 c -19.48861,-14.74569 17.9511,-40.17926 10.96225,-47.59689 -4.23741,-4.49735 -67.06651,-42.86478 -15.94467,-44.14484 z M 89.664493,211.6411 c -0.621988,3.78864 19.332777,14.63901 16.772387,10.1277 C 97.303093,205.67537 156.00054,40.03133 188.42367,41.23571 194.02408,32.96254 182.92663,16.948909 176.27281,20.278533 166.57213,25.13283 92.792253,192.58991 89.664493,211.6411 Z M 67.129079,188.46982 C 38.229284,152.81981 21.209343,147.254 19.81662,142.49293 19.79612,138.03271 72.5151,97.02057 81.460639,93.3359 c 10.48079,-4.31701 2.305679,4.69585 1.428877,8.25644 -31.162139,19.01637 -35.531463,30.97942 -51.150899,39.98588 16.214226,18.89247 39.276243,30.0258 42.193325,41.4538 z M 232.19,87.61883 193.66218,94.22629 c 10.89103,23.72482 13.68375,63.81014 16.96816,96.21617 1.14445,11.29174 18.74793,17.25314 18.74793,17.25314 C 223.32662,141.34185 190.37543,97.29587 232.19,87.61883 Z m 50.57398,19.38025 c 15.52751,2.59143 1.32954,68.87778 6.87948,75.63355 4.5231,5.50581 19.86851,13.71142 21.92669,14.17477 -34.47741,-20.81203 20.02805,-95.33434 -28.80617,-89.80832 z m 69.74789,-3.96585 c 12.09172,3.03665 7.94167,28.75457 5.52732,67.89454 -0.71744,11.63073 1.62748,27.99793 4.3821,34.11134 1.18791,2.63641 16.96127,9.78689 19.50161,10.0649 2.54034,0.27806 8.94537,-1.09537 10.48759,-5.74921 -46.60838,-7.70148 -3.47604,-118.75743 -39.89862,-106.32157 z" />
    <path
       id="footer_5.1_right"
       style="display:inline;fill:#6b2227;fill-opacity:1;stroke:none;stroke-width:0.471924;stroke-linecap:round;stroke-linejoin:round;stroke-miterlimit:4;stroke-dasharray:none;stroke-opacity:1"
       d="m 424.41693,95.68283 c 25.72072,15.55217 51.20459,45.40723 51.56337,51.59456 0.38703,6.6747 -33.80524,35.22566 -30.58225,43.65165 0.95558,2.4982 5.40273,6.23496 6.9817,2.94314 17.09957,-35.64889 37.79584,-34.9091 36.74986,-49.07366 -12.87045,-22.33881 -45.14932,-37.71123 -61.50788,-54.22354 -2.07981,-0.52666 -10.04414,0.9724 -3.2048,5.10785 z M 114.3757,225.46466 C 120.93335,218.4245 161.19394,98.33788 193.36385,50.81504 198.96426,42.54188 186.80879,36.67039 180.15497,40 191.17317,55.43506 99.926042,194.69621 114.3757,225.46466 Z M 52.621136,140.08102 c 0.855392,-7.74566 44.818858,-27.4105 48.470934,-38.47892 0,0 8.4822,3.24066 7.6054,6.80125 -31.162141,19.01636 -51.212623,29.47179 -45.260375,36.0588 0,0 -10.107462,-0.73114 -10.815959,-4.38113 z M 229.37827,207.6956 c 3.65123,0.62656 21.66875,-2.73243 22.06101,-5.61159 1.34199,-9.85032 -2.07838,-33.65803 2.49441,-47.76689 7.02176,-20.54955 24.01313,-45.54757 30.45486,-44.4725 -66.87411,22.61346 -29.08418,88.44095 -55.01028,97.85098 z m 60.26519,-25.06297 c 4.5231,5.50581 19.86851,13.71142 21.92669,14.17477 1.9533,0.43974 8.55791,0.19731 8.96666,-1.23517 0.10332,-5.47851 4.15003,-45.13422 13.96529,-66.28963 5.95258,-12.8299 14.24207,-25.9215 21.87074,-24.394 -41.91288,-18.34355 -31.63703,98.30613 -66.72938,77.74403 z m 85.67739,30.72184 c 6.42044,2.73642 15.54742,0.65417 17.08964,-3.99967 1.54221,-4.65386 4.00661,-28.08651 3.95322,-39.27847 -0.18775,-39.35803 4.97963,-60.82405 -6.37595,-88.67223 -3.40375,-8.34724 -20.12837,-19.31323 -27.20286,-19.12019 36.07303,24.42726 26.67013,145.35011 12.53595,151.07056 z M 244.97593,103.2515 C 234.68375,95.26985 236.41184,73.76735 230.86044,71.63063 l -7.63791,2.24048 c 0,0 11.58059,48.50846 21.7534,29.38039 z m 58.21699,-5.76347 c -1.28585,5.22059 17.63519,12.67457 13.85854,2.63457 -5.47472,-1.11599 -5.16935,-37.59171 -13.68313,-38.73873 0,0 -2.22062,28.84758 -0.17541,36.10416 z" />
    <path
       id="footer_5.1_bottom"
       style="display:inline;fill:#563947;fill-opacity:1;stroke:none;stroke-width:0.471924;stroke-linecap:round;stroke-linejoin:round;stroke-miterlimit:4;stroke-dasharray:none;stroke-opacity:1"
       d="m 433.09428,162.11356 c 0,0 -10.96128,15.907 -9.7989,16.51619 l 29.08437,15.24243 c 0,0 -3.91623,-1.49914 15.55971,-22.63952 -16.72665,12.79383 -28.33805,10.94587 -34.84518,-9.1191 z M 90.489234,206.58502 c -3.576073,1.39724 21.822976,23.63881 23.886466,18.87964 l 18.23878,-42.0657 c 5.6004,-8.27317 -25.94955,53.74957 -32.03162,19.24227 z m -1.240382,-42.18939 c 0.114766,6.50089 -17.949749,24.86523 -22.119773,24.07419 C 38.229284,152.81981 21.209343,147.254 19.81662,142.49293 c 25.756462,17.9624 35.564546,22.34125 47.600632,28.38876 8.358493,4.19971 11.265952,-21.49322 21.8316,-6.48606 z m 200.394608,18.237 c 4.5231,5.50581 19.86851,13.71142 21.92669,14.17477 1.9533,0.43974 8.55791,0.19731 8.96666,-1.23517 0.10332,-5.47851 4.43157,-32.24561 4.43157,-32.24561 -12.39035,38.57235 -44.16621,-11.62257 -35.32492,19.30601 z m 82.37328,7.74888 c -0.71744,11.63072 -12.35007,8.54419 -9.59545,14.6576 1.18791,2.63641 16.96127,9.78689 19.50161,10.0649 2.54034,0.27806 8.94537,-1.09537 10.48759,-5.74921 1.54221,-4.65386 -6.70344,-6.82436 -9.09722,-9.39266 -2.15585,-1.69319 -6.69446,-3.31869 -7.9554,-3.7134 -1.28415,-0.38479 -3.34113,-5.86723 -3.34113,-5.86723 z m -146.18226,-2.36008 c 7.97936,22.97818 25.94683,-10.37535 25.94683,-10.37535 l -0.34203,24.43793 c -0.39226,2.87916 -18.40978,6.23815 -22.06101,5.61159 -2.71018,-0.46509 -17.60348,-5.9614 -18.74793,-17.25314 z m 47.77192,-81.4847 c -2.00294,1.36506 -29.55022,40.47365 -19.67271,47.78039 7.02176,-20.54955 24.01313,-45.54757 30.45486,-44.4725 9.52019,-4.04063 -8.26545,-4.78594 -10.78215,-3.30789 z" />
    <path
       id="footer_5.1_top"
       style="display:inline;fill:#b34841;fill-opacity:1;stroke:none;stroke-width:0.471924;stroke-linecap:round;stroke-linejoin:round;stroke-miterlimit:4;stroke-dasharray:none;stroke-opacity:1"
       d="m 409.62445,114.8703 8.28271,7.38954 c -0.38447,-5.48691 13.2201,-17.46176 28.52871,-16.6174 L 427.62173,90.57498 c -2.07981,-0.52667 -22.35392,20.40847 -17.99728,24.29532 z M 119.76092,134.46445 C 161.31035,56.17471 171.44385,42.09748 193.36385,50.81504 198.96426,42.54188 182.92663,16.948909 176.27281,20.278533 166.57213,25.13283 119.76092,134.46445 119.76092,134.46445 Z M 230.86044,71.63063 c -2.38509,-0.79792 -41.15131,13.98443 -37.19826,22.59566 0,0 13.06732,-1.17381 15.40198,5.87845 1.83538,1.40176 7.6975,-9.02242 28.54961,-10.31844 z m 75.61672,-8.12415 c 0,0 3.72905,1.67996 -3.10883,-2.12261 -32.57459,-4.38866 -59.93023,41.58634 -61.57119,40.40218 0.27753,4.24247 2.11443,11.88345 4.04685,14.03559 11.76697,0.5075 28.56362,-37.28518 57.06966,-45.21723 z M 384.07854,72.94 362.7849,62.28391 c -23.88318,0.65166 -43.70918,37.6318 -47.70866,37.4952 -0.59662,2.41887 3.42109,11.35757 4.57176,11.49374 3.62633,0.43072 20.82467,-34.51458 64.43054,-38.33285 z m -284.188194,40.14289 8.807124,-4.67954 C 109.57427,104.84276 91.941429,89.01889 81.460639,93.3359 72.5151,97.02057 19.464026,138.04662 19.81662,142.49293 75.018305,93.22338 91.573585,101.46033 99.890346,113.08289 Z" />
    <path
       id="footer_5.1_outline"
       style="display:inline;fill:none;fill-opacity:1;stroke:#000000;stroke-width:7.55078;stroke-linecap:round;stroke-linejoin:round;stroke-miterlimit:4;stroke-dasharray:none;stroke-opacity:1"
       d="m 409.62445,114.8703 c 0.68957,7.08582 38.24636,24.29993 40.61686,31.5371 1.6864,5.14856 -30.16891,23.79637 -26.94593,32.22235 0.95558,2.4982 27.5054,18.53425 29.08437,15.24243 17.09957,-35.64889 37.79584,-34.9091 36.74986,-49.07366 -12.87045,-22.33881 -45.14932,-37.71123 -61.50788,-54.22354 -2.07981,-0.52666 -18.79459,16.10257 -17.99728,24.29532 z M 89.664493,211.6411 c -0.621988,3.78864 21.175627,17.61925 24.711207,13.82356 C 120.93335,218.4245 161.19394,98.33788 193.36385,50.81504 198.96426,42.54188 182.92663,16.948909 176.27281,20.278533 166.57213,25.13283 92.792253,192.58991 89.664493,211.6411 Z M 67.129079,188.46982 C 38.229284,152.81981 21.209343,147.254 19.81662,142.49293 19.79612,138.03271 72.5151,97.02057 81.460639,93.3359 c 10.48079,-4.31701 28.113631,11.50686 27.236831,15.06745 -31.162141,19.01636 -46.262767,26.94253 -46.928673,32.01672 -0.442039,3.36826 24.562982,12.54756 27.480055,23.97556 1.318365,6.36685 -17.949749,24.86523 -22.119773,24.07419 z M 193.66218,94.22629 c 10.89103,23.72482 13.68375,63.81014 16.96816,96.21617 1.14445,11.29174 16.03775,16.78805 18.74793,17.25314 3.65123,0.62656 21.66875,-2.73243 22.06101,-5.61159 1.34199,-9.85032 -2.07838,-33.65803 2.49441,-47.76689 7.02176,-20.54955 24.01313,-45.54757 30.45486,-44.4725 15.52751,2.59144 -0.29503,66.03224 5.25491,72.78801 4.5231,5.50581 19.86851,13.71142 21.92669,14.17477 1.9533,0.43974 8.55791,0.19731 8.96666,-1.23517 0.10332,-5.47851 4.15003,-45.13422 13.96529,-66.28963 5.95258,-12.8299 14.24207,-25.9215 21.87074,-24.394 5.34695,1.07065 4.0807,26.8992 1.66635,66.03917 -0.71744,11.63073 1.62748,27.99793 4.3821,34.11134 1.18791,2.63641 16.96127,9.78689 19.50161,10.0649 2.54034,0.27806 8.94537,-1.09537 10.48759,-5.74921 1.54221,-4.65386 4.00661,-28.08651 3.95322,-39.27847 -0.18775,-39.35803 4.97963,-60.82405 -6.37595,-88.67223 -3.40375,-8.34724 -20.12837,-19.31323 -27.20286,-19.12019 -23.88318,0.65166 -43.70918,37.6318 -47.70866,37.4952 -2.74322,-0.0937 -3.19413,-37.24822 -11.70791,-38.39524 -32.57459,-4.38866 -59.93023,41.58634 -61.57119,40.40218 -3.03711,-2.1916 -5.3853,-28.0187 -10.9367,-30.15542 -2.38509,-0.79792 -41.15131,13.98443 -37.19826,22.59566 z" />
  </g>
  <g
     inkscape:label="Header_v5.1"
     inkscape:groupmode="layer"
     id="header_v5.1"
     sodipodi:insensitive="true"
     style="display:none">
    <path
       id="header_5.1_bg"
       style="display:inline;fill:#af281e;fill-opacity:1;stroke:none;stroke-width:8.77189;stroke-linecap:round;stroke-linejoin:round;stroke-miterlimit:4;stroke-dasharray:none;stroke-opacity:1"
       d="m 396.43446,83.136216 c 0.80108,8.23174 44.43154,28.229714 47.1854,36.637264 1.95911,5.98118 -35.04782,27.6447 -31.30363,37.43332 1.11013,2.90222 31.95356,21.53161 33.78787,17.70743 19.86493,-41.414 43.90817,-40.55457 42.69303,-57.00981 C 473.84528,91.952983 436.3463,74.094539 417.34227,54.911882 414.92611,54.300044 395.50821,73.618546 396.43446,83.136216 Z M 75.978494,168.6382 C 42.405053,127.2229 22.632663,120.75698 21.014703,115.22596 20.990884,110.04442 82.23554,62.399845 92.627744,58.119304 104.80349,53.104141 125.28789,71.487046 124.26932,75.623434 88.067633,97.715115 70.524963,106.92309 69.751355,112.81788 c -0.513512,3.91298 28.535288,14.57673 31.924135,27.85286 1.53156,7.39651 -20.852598,28.88643 -25.696996,27.96746 z M 145.5469,59.153684 c 12.65234,27.561561 15.89668,74.129466 19.71224,111.776166 1.32953,13.11785 18.63138,19.50301 21.77983,20.04331 4.24172,0.72789 25.17302,-3.17431 25.62871,-6.51909 1.55901,-11.44331 -2.4145,-39.10118 2.89781,-55.49174 8.15729,-23.87278 27.89651,-52.913467 35.37999,-51.664543 18.0386,3.010523 -0.34274,76.710923 6.10474,84.559233 5.25457,6.39622 23.08163,15.92882 25.47266,16.46711 2.26918,0.51086 9.94188,0.22922 10.41675,-1.43493 0.12003,-6.36449 4.82116,-52.43328 16.22374,-77.009945 6.91523,-14.904743 16.54528,-30.113496 25.40766,-28.338959 6.21167,1.243779 4.74065,31.249294 1.93584,76.718974 -0.83347,13.51163 1.89066,32.52574 5.09076,39.62779 1.38001,3.06277 19.70423,11.36962 22.6554,11.69259 2.95116,0.32302 10.392,-1.27251 12.18364,-6.67896 1.79162,-5.40648 4.65455,-32.62864 4.59253,-45.63056 -0.21811,-45.72299 5.78494,-70.660469 -7.40707,-103.012234 -3.95419,-9.697152 -23.38351,-22.436564 -31.60208,-22.212302 -27.74557,0.757049 -50.7778,43.717593 -55.42407,43.55891 C 283.40911,65.495622 282.88528,22.332529 272.99467,21 235.15214,15.901623 203.37256,69.311642 201.46622,67.935999 197.93795,65.389969 195.21001,35.386135 188.76085,32.903873 185.99004,31.976898 140.95456,49.149846 145.5469,59.153684 Z" />
    <path
       id="header_5.1_left"
       style="display:inline;fill:#672425;fill-opacity:1;stroke:none;stroke-width:0.548243;stroke-linecap:round;stroke-linejoin:round;stroke-miterlimit:4;stroke-dasharray:none;stroke-opacity:1"
       d="m 431.5084,65.528768 c -2.41616,-0.611838 -36.86568,1.515614 -35.07394,17.607448 0.91526,8.219831 44.43154,28.229714 47.1854,36.637264 l -32.16297,36.17403 25.83969,16.15939 C 414.65626,154.97655 458.1507,125.42987 450.03163,116.81267 445.10896,111.58801 372.11918,67.015827 431.5084,65.528768 Z M 77.856577,168.6382 c -33.57345,-41.4153 -53.34584,-47.88121 -54.9638,-53.41224 -0.02382,-5.18153 61.220846,-52.826115 71.613051,-57.106656 12.175732,-5.015163 2.67855,5.455264 1.659957,9.591652 C 59.964119,89.802637 54.888199,103.70036 36.7428,114.16333 c 18.836374,21.94774 45.627956,34.88154 49.016784,48.15766 z M 190.30543,51.477655 145.5469,59.153684 c 12.65234,27.561561 15.89668,74.129466 19.71224,111.776166 1.32953,13.11785 21.77983,20.04331 21.77983,20.04331 -7.03031,-77.08443 -45.31035,-128.25349 3.26646,-139.495505 z m 58.75276,22.514404 c 18.03861,3.010523 1.54455,80.016651 7.99203,87.864961 5.25457,6.39622 23.08163,15.92882 25.47266,16.46711 C 242.46979,154.1464 305.78984,67.572386 249.05819,73.992059 Z m 81.02747,-4.607188 c 14.04719,3.527723 9.22602,33.404719 6.42121,78.874399 -0.83347,13.51163 1.89066,32.52574 5.09076,39.62779 1.38001,3.06277 19.70423,11.36962 22.6554,11.69259 2.95116,0.32302 10.392,-1.27251 12.18364,-6.67896 -54.14586,-8.94696 -4.03819,-137.962797 -46.35101,-123.515819 z" />
    <path
       id="header_5.1_right"
       style="display:inline;fill:#6b2227;fill-opacity:1;stroke:none;stroke-width:0.548243;stroke-linecap:round;stroke-linejoin:round;stroke-miterlimit:4;stroke-dasharray:none;stroke-opacity:1"
       d="m 413.61916,60.845769 c 29.88026,18.067243 59.48536,52.750461 59.90216,59.938401 0.44962,7.75412 -39.27219,40.92234 -35.52798,50.71095 1.11011,2.90222 6.27645,7.24329 8.11076,3.41911 19.86493,-41.414 43.90817,-40.55457 42.69303,-57.00981 -14.95185,-25.951437 -52.45083,-43.809881 -71.45486,-62.992538 -2.41616,-0.611838 -11.66852,1.129657 -3.72311,5.933887 z M 58.841617,112.42398 c 0.993717,-8.99825 52.066943,-31.843293 56.309623,-44.701686 0,0 9.85395,3.764752 8.83535,7.90114 -36.201672,22.091681 -59.494715,34.237946 -52.57986,41.890196 0,0 -11.742037,-0.84938 -12.565113,-5.08965 z m 128.197353,78.54918 c 4.24172,0.72789 25.17302,-3.17431 25.62871,-6.51909 1.55901,-11.44331 -2.4145,-39.10118 2.89781,-55.49174 8.15729,-23.87278 27.89651,-52.913467 35.37999,-51.664543 -77.68894,26.270503 -33.78765,102.743553 -63.90651,113.675373 z m 70.01125,-29.11614 c 5.25457,6.39622 23.08163,15.92882 25.47266,16.46711 2.26918,0.51086 9.94188,0.22922 10.41675,-1.43493 0.12003,-6.36449 4.82116,-52.43328 16.22374,-77.009945 6.91523,-14.904743 16.54528,-30.113496 25.40766,-28.338959 -48.69101,-21.310051 -36.75335,114.204114 -77.52081,90.316724 z m 99.53308,35.69016 c 7.45874,3.17896 18.06173,0.75996 19.85337,-4.64649 1.79162,-5.40648 4.65455,-32.62864 4.59253,-45.63056 -0.21811,-45.72299 5.78494,-70.660469 -7.40707,-103.012234 -3.95419,-9.697152 -23.38351,-22.436564 -31.60208,-22.212302 41.90673,28.377625 30.9832,168.856036 14.56325,175.501586 z M 205.15907,69.63845 c -11.9566,-9.272456 -9.94906,-34.252315 -16.39822,-36.734577 l -8.87311,2.602806 c 0,0 13.45339,56.3532 25.27133,34.131771 z m 67.63183,-6.695537 c -1.49382,6.064863 20.48714,14.724271 16.09971,3.060619 C 282.53054,64.707074 282.88528,22.332529 272.99467,21 c 0,0 -2.57974,33.512797 -0.20377,41.942913 z" />
    <path
       id="header_5.1_bottom"
       style="display:inline;fill:#563947;fill-opacity:1;stroke:none;stroke-width:0.548243;stroke-linecap:round;stroke-linejoin:round;stroke-miterlimit:4;stroke-dasharray:none;stroke-opacity:1"
       d="m 423.69981,138.01963 c 0,0 -12.73392,18.47947 -11.38358,19.18717 l 33.78787,17.70743 c 0,0 -4.54954,-1.74158 18.07602,-26.30077 -19.43166,14.86282 -32.92084,12.71602 -40.48031,-10.59383 z m -322.30705,2.65111 c 0.13332,7.55222 -20.852583,28.88643 -25.696981,27.96746 -33.57345,-41.4153 -53.34584,-47.88122 -54.9638,-53.41225 29.921783,20.86728 41.316021,25.95427 55.298574,32.97978 9.710224,4.8789 13.087876,-24.96908 25.362207,-7.53499 z m 155.65746,21.18628 c 5.25457,6.39622 23.08163,15.92882 25.47266,16.46711 2.26918,0.51086 9.94188,0.22922 10.41675,-1.43493 0.12003,-6.36449 5.14823,-37.46034 5.14823,-37.46034 -14.39411,44.81024 -51.30873,-13.50216 -41.03764,22.42816 z m 95.69462,9.00203 c -0.83346,13.51163 -14.34731,9.92596 -11.14721,17.02801 1.38001,3.06277 19.70423,11.36962 22.6554,11.69259 2.95116,0.32302 10.392,-1.27251 12.18364,-6.67896 1.79162,-5.40648 -7.78752,-7.92799 -10.56843,-10.91164 -2.50449,-1.96701 -7.77708,-3.85538 -9.24192,-4.31392 -1.49184,-0.44703 -3.88148,-6.81608 -3.88148,-6.81608 z m -169.82275,-2.74174 c 9.26978,26.69419 30.14294,-12.05325 30.14294,-12.05325 l -0.39735,28.39001 c -0.45569,3.34478 -21.38699,7.24698 -25.62871,6.51909 -3.14845,-0.5403 -20.4503,-6.92546 -21.77983,-20.04331 z m 55.49757,-94.662363 c -2.32686,1.585813 -34.32908,47.019043 -22.85417,55.507383 8.15729,-23.87278 27.89651,-52.913467 35.37999,-51.664543 11.05979,-4.69407 -9.60212,-5.559925 -12.52582,-3.84284 z" />
    <path
       id="header_5.1_top"
       style="display:inline;fill:#b34841;fill-opacity:1;stroke:none;stroke-width:3;stroke-linecap:round;stroke-linejoin:round;stroke-miterlimit:4;stroke-dasharray:none;stroke-opacity:1"
       d="m 396.43446,83.136216 9.62218,8.584578 C 405.61,85.346539 421.41468,71.435139 439.19899,72.416041 L 417.34227,54.911882 c -2.41616,-0.611838 -25.96901,23.708907 -20.90781,28.224334 z M 188.76085,32.903873 c -2.77081,-0.926975 -47.80629,16.245973 -43.21395,26.249811 0,0 15.18058,-1.363647 17.89279,6.829106 2.13218,1.628459 8.94234,-10.481526 33.16664,-11.987126 z m 87.84541,-9.43799 c 0,0 4.3321,1.951637 -3.61159,-2.465883 -37.84253,-5.098377 -69.62211,48.311642 -71.52845,46.935999 0.32241,4.928547 2.45635,13.805224 4.7013,16.305407 13.66992,0.589562 33.18292,-43.314915 66.29892,-52.529729 z m 90.15102,10.959101 -24.73723,-12.37939 c -27.74557,0.757049 -50.7778,43.717593 -55.42407,43.55891 -0.69312,2.810041 3.97434,13.1943 5.3111,13.352488 4.21276,0.500374 24.19241,-40.096271 74.8502,-44.532008 z m -253.0021,46.634773 10.23141,-5.436323 C 125.00519,71.487046 104.52077,53.104141 92.34502,58.119304 81.952825,62.399845 20.322356,110.0606 20.731979,115.22596 84.86084,57.988575 104.09345,67.557599 113.75518,81.059757 Z" />
    <path
       id="header_5.1_outline"
       style="display:inline;fill:none;fill-opacity:1;stroke:#000000;stroke-width:8.77189;stroke-linecap:round;stroke-linejoin:round;stroke-miterlimit:4;stroke-dasharray:none;stroke-opacity:1"
       d="m 396.43446,83.136216 c 0.80108,8.23174 44.43154,28.229714 47.1854,36.637264 1.95911,5.98118 -35.04782,27.6447 -31.30363,37.43332 1.11013,2.90222 31.95356,21.53161 33.78787,17.70743 19.86493,-41.414 43.90817,-40.55457 42.69303,-57.00981 C 473.84528,91.952983 436.3463,74.094539 417.34227,54.911882 414.92611,54.300044 395.50821,73.618546 396.43446,83.136216 Z M 75.695779,168.6382 c -33.57345,-41.4153 -53.34584,-47.88121 -54.9638,-53.41224 -0.02382,-5.18153 61.220846,-52.826115 71.613041,-57.106656 12.17575,-5.015163 32.66017,13.367742 31.64157,17.50413 -36.201672,22.091681 -53.74436,31.299666 -54.517959,37.194456 -0.513512,3.91298 28.535298,14.57673 31.924129,27.85285 1.53157,7.39652 -20.852583,28.88643 -25.696981,27.96746 z M 145.5469,59.153684 c 12.65234,27.561561 15.89668,74.129466 19.71224,111.776166 1.32953,13.11785 18.63138,19.50301 21.77983,20.04331 4.24172,0.72789 25.17302,-3.17431 25.62871,-6.51909 1.55901,-11.44331 -2.4145,-39.10118 2.89781,-55.49174 8.15729,-23.87278 27.89651,-52.913467 35.37999,-51.664543 18.0386,3.010523 -0.34274,76.710923 6.10474,84.559233 5.25457,6.39622 23.08163,15.92882 25.47266,16.46711 2.26918,0.51086 9.94188,0.22922 10.41675,-1.43493 0.12003,-6.36449 4.82116,-52.43328 16.22374,-77.009945 6.91523,-14.904743 16.54528,-30.113496 25.40766,-28.338959 6.21167,1.243779 4.74065,31.249294 1.93584,76.718974 -0.83347,13.51163 1.89066,32.52574 5.09076,39.62779 1.38001,3.06277 19.70423,11.36962 22.6554,11.69259 2.95116,0.32302 10.392,-1.27251 12.18364,-6.67896 1.79162,-5.40648 4.65455,-32.62864 4.59253,-45.63056 -0.21811,-45.72299 5.78494,-70.660469 -7.40707,-103.012234 -3.95419,-9.697152 -23.38351,-22.436564 -31.60208,-22.212302 -27.74557,0.757049 -50.7778,43.717593 -55.42407,43.55891 C 283.40911,65.495622 282.88528,22.332529 272.99467,21 235.15214,15.901623 203.37256,69.311642 201.46622,67.935999 197.93795,65.389969 195.21001,35.386135 188.76085,32.903873 185.99004,31.976898 140.95456,49.149846 145.5469,59.153684 Z" />
  </g>
</svg>
